G04 #@! TF.GenerationSoftware,KiCad,Pcbnew,(5.1.2)-2*
G04 #@! TF.CreationDate,2019-09-11T05:33:40-05:00*
G04 #@! TF.ProjectId,eeprom_manual,65657072-6f6d-45f6-9d61-6e75616c2e6b,rev?*
G04 #@! TF.SameCoordinates,Original*
G04 #@! TF.FileFunction,Soldermask,Bot*
G04 #@! TF.FilePolarity,Negative*
%FSLAX46Y46*%
G04 Gerber Fmt 4.6, Leading zero omitted, Abs format (unit mm)*
G04 Created by KiCad (PCBNEW (5.1.2)-2) date 2019-09-11 05:33:40*
%MOMM*%
%LPD*%
G04 APERTURE LIST*
%ADD10C,0.100000*%
G04 APERTURE END LIST*
D10*
G36*
X66333787Y-110794510D02*
G01*
X66494162Y-110843160D01*
X66641965Y-110922162D01*
X66771517Y-111028483D01*
X66877838Y-111158035D01*
X66956840Y-111305838D01*
X67005490Y-111466213D01*
X67021916Y-111633000D01*
X67005490Y-111799787D01*
X66956840Y-111960162D01*
X66877838Y-112107965D01*
X66771517Y-112237517D01*
X66641965Y-112343838D01*
X66494162Y-112422840D01*
X66333787Y-112471490D01*
X66208794Y-112483800D01*
X66125206Y-112483800D01*
X66000213Y-112471490D01*
X65839838Y-112422840D01*
X65692035Y-112343838D01*
X65562483Y-112237517D01*
X65456162Y-112107965D01*
X65377160Y-111960162D01*
X65328510Y-111799787D01*
X65312084Y-111633000D01*
X65328510Y-111466213D01*
X65377160Y-111305838D01*
X65456162Y-111158035D01*
X65562483Y-111028483D01*
X65692035Y-110922162D01*
X65839838Y-110843160D01*
X66000213Y-110794510D01*
X66125206Y-110782200D01*
X66208794Y-110782200D01*
X66333787Y-110794510D01*
X66333787Y-110794510D01*
G37*
G36*
X37885787Y-110794510D02*
G01*
X38046162Y-110843160D01*
X38193965Y-110922162D01*
X38323517Y-111028483D01*
X38429838Y-111158035D01*
X38508840Y-111305838D01*
X38557490Y-111466213D01*
X38573916Y-111633000D01*
X38557490Y-111799787D01*
X38508840Y-111960162D01*
X38429838Y-112107965D01*
X38323517Y-112237517D01*
X38193965Y-112343838D01*
X38046162Y-112422840D01*
X37885787Y-112471490D01*
X37760794Y-112483800D01*
X37677206Y-112483800D01*
X37552213Y-112471490D01*
X37391838Y-112422840D01*
X37244035Y-112343838D01*
X37114483Y-112237517D01*
X37008162Y-112107965D01*
X36929160Y-111960162D01*
X36880510Y-111799787D01*
X36864084Y-111633000D01*
X36880510Y-111466213D01*
X36929160Y-111305838D01*
X37008162Y-111158035D01*
X37114483Y-111028483D01*
X37244035Y-110922162D01*
X37391838Y-110843160D01*
X37552213Y-110794510D01*
X37677206Y-110782200D01*
X37760794Y-110782200D01*
X37885787Y-110794510D01*
X37885787Y-110794510D01*
G37*
G36*
X63793787Y-110794510D02*
G01*
X63954162Y-110843160D01*
X64101965Y-110922162D01*
X64231517Y-111028483D01*
X64337838Y-111158035D01*
X64416840Y-111305838D01*
X64465490Y-111466213D01*
X64481916Y-111633000D01*
X64465490Y-111799787D01*
X64416840Y-111960162D01*
X64337838Y-112107965D01*
X64231517Y-112237517D01*
X64101965Y-112343838D01*
X63954162Y-112422840D01*
X63793787Y-112471490D01*
X63668794Y-112483800D01*
X63585206Y-112483800D01*
X63460213Y-112471490D01*
X63299838Y-112422840D01*
X63152035Y-112343838D01*
X63022483Y-112237517D01*
X62916162Y-112107965D01*
X62837160Y-111960162D01*
X62788510Y-111799787D01*
X62772084Y-111633000D01*
X62788510Y-111466213D01*
X62837160Y-111305838D01*
X62916162Y-111158035D01*
X63022483Y-111028483D01*
X63152035Y-110922162D01*
X63299838Y-110843160D01*
X63460213Y-110794510D01*
X63585206Y-110782200D01*
X63668794Y-110782200D01*
X63793787Y-110794510D01*
X63793787Y-110794510D01*
G37*
G36*
X61253787Y-110794510D02*
G01*
X61414162Y-110843160D01*
X61561965Y-110922162D01*
X61691517Y-111028483D01*
X61797838Y-111158035D01*
X61876840Y-111305838D01*
X61925490Y-111466213D01*
X61941916Y-111633000D01*
X61925490Y-111799787D01*
X61876840Y-111960162D01*
X61797838Y-112107965D01*
X61691517Y-112237517D01*
X61561965Y-112343838D01*
X61414162Y-112422840D01*
X61253787Y-112471490D01*
X61128794Y-112483800D01*
X61045206Y-112483800D01*
X60920213Y-112471490D01*
X60759838Y-112422840D01*
X60612035Y-112343838D01*
X60482483Y-112237517D01*
X60376162Y-112107965D01*
X60297160Y-111960162D01*
X60248510Y-111799787D01*
X60232084Y-111633000D01*
X60248510Y-111466213D01*
X60297160Y-111305838D01*
X60376162Y-111158035D01*
X60482483Y-111028483D01*
X60612035Y-110922162D01*
X60759838Y-110843160D01*
X60920213Y-110794510D01*
X61045206Y-110782200D01*
X61128794Y-110782200D01*
X61253787Y-110794510D01*
X61253787Y-110794510D01*
G37*
G36*
X58713787Y-110794510D02*
G01*
X58874162Y-110843160D01*
X59021965Y-110922162D01*
X59151517Y-111028483D01*
X59257838Y-111158035D01*
X59336840Y-111305838D01*
X59385490Y-111466213D01*
X59401916Y-111633000D01*
X59385490Y-111799787D01*
X59336840Y-111960162D01*
X59257838Y-112107965D01*
X59151517Y-112237517D01*
X59021965Y-112343838D01*
X58874162Y-112422840D01*
X58713787Y-112471490D01*
X58588794Y-112483800D01*
X58505206Y-112483800D01*
X58380213Y-112471490D01*
X58219838Y-112422840D01*
X58072035Y-112343838D01*
X57942483Y-112237517D01*
X57836162Y-112107965D01*
X57757160Y-111960162D01*
X57708510Y-111799787D01*
X57692084Y-111633000D01*
X57708510Y-111466213D01*
X57757160Y-111305838D01*
X57836162Y-111158035D01*
X57942483Y-111028483D01*
X58072035Y-110922162D01*
X58219838Y-110843160D01*
X58380213Y-110794510D01*
X58505206Y-110782200D01*
X58588794Y-110782200D01*
X58713787Y-110794510D01*
X58713787Y-110794510D01*
G37*
G36*
X56173787Y-110794510D02*
G01*
X56334162Y-110843160D01*
X56481965Y-110922162D01*
X56611517Y-111028483D01*
X56717838Y-111158035D01*
X56796840Y-111305838D01*
X56845490Y-111466213D01*
X56861916Y-111633000D01*
X56845490Y-111799787D01*
X56796840Y-111960162D01*
X56717838Y-112107965D01*
X56611517Y-112237517D01*
X56481965Y-112343838D01*
X56334162Y-112422840D01*
X56173787Y-112471490D01*
X56048794Y-112483800D01*
X55965206Y-112483800D01*
X55840213Y-112471490D01*
X55679838Y-112422840D01*
X55532035Y-112343838D01*
X55402483Y-112237517D01*
X55296162Y-112107965D01*
X55217160Y-111960162D01*
X55168510Y-111799787D01*
X55152084Y-111633000D01*
X55168510Y-111466213D01*
X55217160Y-111305838D01*
X55296162Y-111158035D01*
X55402483Y-111028483D01*
X55532035Y-110922162D01*
X55679838Y-110843160D01*
X55840213Y-110794510D01*
X55965206Y-110782200D01*
X56048794Y-110782200D01*
X56173787Y-110794510D01*
X56173787Y-110794510D01*
G37*
G36*
X53633787Y-110794510D02*
G01*
X53794162Y-110843160D01*
X53941965Y-110922162D01*
X54071517Y-111028483D01*
X54177838Y-111158035D01*
X54256840Y-111305838D01*
X54305490Y-111466213D01*
X54321916Y-111633000D01*
X54305490Y-111799787D01*
X54256840Y-111960162D01*
X54177838Y-112107965D01*
X54071517Y-112237517D01*
X53941965Y-112343838D01*
X53794162Y-112422840D01*
X53633787Y-112471490D01*
X53508794Y-112483800D01*
X53425206Y-112483800D01*
X53300213Y-112471490D01*
X53139838Y-112422840D01*
X52992035Y-112343838D01*
X52862483Y-112237517D01*
X52756162Y-112107965D01*
X52677160Y-111960162D01*
X52628510Y-111799787D01*
X52612084Y-111633000D01*
X52628510Y-111466213D01*
X52677160Y-111305838D01*
X52756162Y-111158035D01*
X52862483Y-111028483D01*
X52992035Y-110922162D01*
X53139838Y-110843160D01*
X53300213Y-110794510D01*
X53425206Y-110782200D01*
X53508794Y-110782200D01*
X53633787Y-110794510D01*
X53633787Y-110794510D01*
G37*
G36*
X51093787Y-110794510D02*
G01*
X51254162Y-110843160D01*
X51401965Y-110922162D01*
X51531517Y-111028483D01*
X51637838Y-111158035D01*
X51716840Y-111305838D01*
X51765490Y-111466213D01*
X51781916Y-111633000D01*
X51765490Y-111799787D01*
X51716840Y-111960162D01*
X51637838Y-112107965D01*
X51531517Y-112237517D01*
X51401965Y-112343838D01*
X51254162Y-112422840D01*
X51093787Y-112471490D01*
X50968794Y-112483800D01*
X50885206Y-112483800D01*
X50760213Y-112471490D01*
X50599838Y-112422840D01*
X50452035Y-112343838D01*
X50322483Y-112237517D01*
X50216162Y-112107965D01*
X50137160Y-111960162D01*
X50088510Y-111799787D01*
X50072084Y-111633000D01*
X50088510Y-111466213D01*
X50137160Y-111305838D01*
X50216162Y-111158035D01*
X50322483Y-111028483D01*
X50452035Y-110922162D01*
X50599838Y-110843160D01*
X50760213Y-110794510D01*
X50885206Y-110782200D01*
X50968794Y-110782200D01*
X51093787Y-110794510D01*
X51093787Y-110794510D01*
G37*
G36*
X48553787Y-110794510D02*
G01*
X48714162Y-110843160D01*
X48861965Y-110922162D01*
X48991517Y-111028483D01*
X49097838Y-111158035D01*
X49176840Y-111305838D01*
X49225490Y-111466213D01*
X49241916Y-111633000D01*
X49225490Y-111799787D01*
X49176840Y-111960162D01*
X49097838Y-112107965D01*
X48991517Y-112237517D01*
X48861965Y-112343838D01*
X48714162Y-112422840D01*
X48553787Y-112471490D01*
X48428794Y-112483800D01*
X48345206Y-112483800D01*
X48220213Y-112471490D01*
X48059838Y-112422840D01*
X47912035Y-112343838D01*
X47782483Y-112237517D01*
X47676162Y-112107965D01*
X47597160Y-111960162D01*
X47548510Y-111799787D01*
X47532084Y-111633000D01*
X47548510Y-111466213D01*
X47597160Y-111305838D01*
X47676162Y-111158035D01*
X47782483Y-111028483D01*
X47912035Y-110922162D01*
X48059838Y-110843160D01*
X48220213Y-110794510D01*
X48345206Y-110782200D01*
X48428794Y-110782200D01*
X48553787Y-110794510D01*
X48553787Y-110794510D01*
G37*
G36*
X46013787Y-110794510D02*
G01*
X46174162Y-110843160D01*
X46321965Y-110922162D01*
X46451517Y-111028483D01*
X46557838Y-111158035D01*
X46636840Y-111305838D01*
X46685490Y-111466213D01*
X46701916Y-111633000D01*
X46685490Y-111799787D01*
X46636840Y-111960162D01*
X46557838Y-112107965D01*
X46451517Y-112237517D01*
X46321965Y-112343838D01*
X46174162Y-112422840D01*
X46013787Y-112471490D01*
X45888794Y-112483800D01*
X45805206Y-112483800D01*
X45680213Y-112471490D01*
X45519838Y-112422840D01*
X45372035Y-112343838D01*
X45242483Y-112237517D01*
X45136162Y-112107965D01*
X45057160Y-111960162D01*
X45008510Y-111799787D01*
X44992084Y-111633000D01*
X45008510Y-111466213D01*
X45057160Y-111305838D01*
X45136162Y-111158035D01*
X45242483Y-111028483D01*
X45372035Y-110922162D01*
X45519838Y-110843160D01*
X45680213Y-110794510D01*
X45805206Y-110782200D01*
X45888794Y-110782200D01*
X46013787Y-110794510D01*
X46013787Y-110794510D01*
G37*
G36*
X43473787Y-110794510D02*
G01*
X43634162Y-110843160D01*
X43781965Y-110922162D01*
X43911517Y-111028483D01*
X44017838Y-111158035D01*
X44096840Y-111305838D01*
X44145490Y-111466213D01*
X44161916Y-111633000D01*
X44145490Y-111799787D01*
X44096840Y-111960162D01*
X44017838Y-112107965D01*
X43911517Y-112237517D01*
X43781965Y-112343838D01*
X43634162Y-112422840D01*
X43473787Y-112471490D01*
X43348794Y-112483800D01*
X43265206Y-112483800D01*
X43140213Y-112471490D01*
X42979838Y-112422840D01*
X42832035Y-112343838D01*
X42702483Y-112237517D01*
X42596162Y-112107965D01*
X42517160Y-111960162D01*
X42468510Y-111799787D01*
X42452084Y-111633000D01*
X42468510Y-111466213D01*
X42517160Y-111305838D01*
X42596162Y-111158035D01*
X42702483Y-111028483D01*
X42832035Y-110922162D01*
X42979838Y-110843160D01*
X43140213Y-110794510D01*
X43265206Y-110782200D01*
X43348794Y-110782200D01*
X43473787Y-110794510D01*
X43473787Y-110794510D01*
G37*
G36*
X72544597Y-104317031D02*
G01*
X72799526Y-104422626D01*
X72799528Y-104422627D01*
X73028958Y-104575927D01*
X73224073Y-104771042D01*
X73377373Y-105000472D01*
X73377374Y-105000474D01*
X73482969Y-105255403D01*
X73536800Y-105526032D01*
X73536800Y-105801968D01*
X73482969Y-106072597D01*
X73377374Y-106327526D01*
X73377373Y-106327528D01*
X73224073Y-106556958D01*
X73028958Y-106752073D01*
X72799528Y-106905373D01*
X72799527Y-106905374D01*
X72799526Y-106905374D01*
X72544597Y-107010969D01*
X72273968Y-107064800D01*
X71998032Y-107064800D01*
X71727403Y-107010969D01*
X71472474Y-106905374D01*
X71472473Y-106905374D01*
X71472472Y-106905373D01*
X71243042Y-106752073D01*
X71047927Y-106556958D01*
X70894627Y-106327528D01*
X70894626Y-106327526D01*
X70789031Y-106072597D01*
X70735200Y-105801968D01*
X70735200Y-105526032D01*
X70789031Y-105255403D01*
X70894626Y-105000474D01*
X70894627Y-105000472D01*
X71047927Y-104771042D01*
X71243042Y-104575927D01*
X71472472Y-104422627D01*
X71472474Y-104422626D01*
X71727403Y-104317031D01*
X71998032Y-104263200D01*
X72273968Y-104263200D01*
X72544597Y-104317031D01*
X72544597Y-104317031D01*
G37*
G36*
X32158597Y-104317031D02*
G01*
X32413526Y-104422626D01*
X32413528Y-104422627D01*
X32642958Y-104575927D01*
X32838073Y-104771042D01*
X32991373Y-105000472D01*
X32991374Y-105000474D01*
X33096969Y-105255403D01*
X33150800Y-105526032D01*
X33150800Y-105801968D01*
X33096969Y-106072597D01*
X32991374Y-106327526D01*
X32991373Y-106327528D01*
X32838073Y-106556958D01*
X32642958Y-106752073D01*
X32413528Y-106905373D01*
X32413527Y-106905374D01*
X32413526Y-106905374D01*
X32158597Y-107010969D01*
X31887968Y-107064800D01*
X31612032Y-107064800D01*
X31341403Y-107010969D01*
X31086474Y-106905374D01*
X31086473Y-106905374D01*
X31086472Y-106905373D01*
X30857042Y-106752073D01*
X30661927Y-106556958D01*
X30508627Y-106327528D01*
X30508626Y-106327526D01*
X30403031Y-106072597D01*
X30349200Y-105801968D01*
X30349200Y-105526032D01*
X30403031Y-105255403D01*
X30508626Y-105000474D01*
X30508627Y-105000472D01*
X30661927Y-104771042D01*
X30857042Y-104575927D01*
X31086472Y-104422627D01*
X31086474Y-104422626D01*
X31341403Y-104317031D01*
X31612032Y-104263200D01*
X31887968Y-104263200D01*
X32158597Y-104317031D01*
X32158597Y-104317031D01*
G37*
G36*
X38569800Y-104863800D02*
G01*
X36868200Y-104863800D01*
X36868200Y-103162200D01*
X38569800Y-103162200D01*
X38569800Y-104863800D01*
X38569800Y-104863800D01*
G37*
G36*
X63793787Y-103174510D02*
G01*
X63954162Y-103223160D01*
X64101965Y-103302162D01*
X64231517Y-103408483D01*
X64337838Y-103538035D01*
X64416840Y-103685838D01*
X64465490Y-103846213D01*
X64481916Y-104013000D01*
X64465490Y-104179787D01*
X64416840Y-104340162D01*
X64337838Y-104487965D01*
X64231517Y-104617517D01*
X64101965Y-104723838D01*
X63954162Y-104802840D01*
X63793787Y-104851490D01*
X63668794Y-104863800D01*
X63585206Y-104863800D01*
X63460213Y-104851490D01*
X63299838Y-104802840D01*
X63152035Y-104723838D01*
X63022483Y-104617517D01*
X62916162Y-104487965D01*
X62837160Y-104340162D01*
X62788510Y-104179787D01*
X62772084Y-104013000D01*
X62788510Y-103846213D01*
X62837160Y-103685838D01*
X62916162Y-103538035D01*
X63022483Y-103408483D01*
X63152035Y-103302162D01*
X63299838Y-103223160D01*
X63460213Y-103174510D01*
X63585206Y-103162200D01*
X63668794Y-103162200D01*
X63793787Y-103174510D01*
X63793787Y-103174510D01*
G37*
G36*
X61253787Y-103174510D02*
G01*
X61414162Y-103223160D01*
X61561965Y-103302162D01*
X61691517Y-103408483D01*
X61797838Y-103538035D01*
X61876840Y-103685838D01*
X61925490Y-103846213D01*
X61941916Y-104013000D01*
X61925490Y-104179787D01*
X61876840Y-104340162D01*
X61797838Y-104487965D01*
X61691517Y-104617517D01*
X61561965Y-104723838D01*
X61414162Y-104802840D01*
X61253787Y-104851490D01*
X61128794Y-104863800D01*
X61045206Y-104863800D01*
X60920213Y-104851490D01*
X60759838Y-104802840D01*
X60612035Y-104723838D01*
X60482483Y-104617517D01*
X60376162Y-104487965D01*
X60297160Y-104340162D01*
X60248510Y-104179787D01*
X60232084Y-104013000D01*
X60248510Y-103846213D01*
X60297160Y-103685838D01*
X60376162Y-103538035D01*
X60482483Y-103408483D01*
X60612035Y-103302162D01*
X60759838Y-103223160D01*
X60920213Y-103174510D01*
X61045206Y-103162200D01*
X61128794Y-103162200D01*
X61253787Y-103174510D01*
X61253787Y-103174510D01*
G37*
G36*
X58713787Y-103174510D02*
G01*
X58874162Y-103223160D01*
X59021965Y-103302162D01*
X59151517Y-103408483D01*
X59257838Y-103538035D01*
X59336840Y-103685838D01*
X59385490Y-103846213D01*
X59401916Y-104013000D01*
X59385490Y-104179787D01*
X59336840Y-104340162D01*
X59257838Y-104487965D01*
X59151517Y-104617517D01*
X59021965Y-104723838D01*
X58874162Y-104802840D01*
X58713787Y-104851490D01*
X58588794Y-104863800D01*
X58505206Y-104863800D01*
X58380213Y-104851490D01*
X58219838Y-104802840D01*
X58072035Y-104723838D01*
X57942483Y-104617517D01*
X57836162Y-104487965D01*
X57757160Y-104340162D01*
X57708510Y-104179787D01*
X57692084Y-104013000D01*
X57708510Y-103846213D01*
X57757160Y-103685838D01*
X57836162Y-103538035D01*
X57942483Y-103408483D01*
X58072035Y-103302162D01*
X58219838Y-103223160D01*
X58380213Y-103174510D01*
X58505206Y-103162200D01*
X58588794Y-103162200D01*
X58713787Y-103174510D01*
X58713787Y-103174510D01*
G37*
G36*
X56173787Y-103174510D02*
G01*
X56334162Y-103223160D01*
X56481965Y-103302162D01*
X56611517Y-103408483D01*
X56717838Y-103538035D01*
X56796840Y-103685838D01*
X56845490Y-103846213D01*
X56861916Y-104013000D01*
X56845490Y-104179787D01*
X56796840Y-104340162D01*
X56717838Y-104487965D01*
X56611517Y-104617517D01*
X56481965Y-104723838D01*
X56334162Y-104802840D01*
X56173787Y-104851490D01*
X56048794Y-104863800D01*
X55965206Y-104863800D01*
X55840213Y-104851490D01*
X55679838Y-104802840D01*
X55532035Y-104723838D01*
X55402483Y-104617517D01*
X55296162Y-104487965D01*
X55217160Y-104340162D01*
X55168510Y-104179787D01*
X55152084Y-104013000D01*
X55168510Y-103846213D01*
X55217160Y-103685838D01*
X55296162Y-103538035D01*
X55402483Y-103408483D01*
X55532035Y-103302162D01*
X55679838Y-103223160D01*
X55840213Y-103174510D01*
X55965206Y-103162200D01*
X56048794Y-103162200D01*
X56173787Y-103174510D01*
X56173787Y-103174510D01*
G37*
G36*
X53633787Y-103174510D02*
G01*
X53794162Y-103223160D01*
X53941965Y-103302162D01*
X54071517Y-103408483D01*
X54177838Y-103538035D01*
X54256840Y-103685838D01*
X54305490Y-103846213D01*
X54321916Y-104013000D01*
X54305490Y-104179787D01*
X54256840Y-104340162D01*
X54177838Y-104487965D01*
X54071517Y-104617517D01*
X53941965Y-104723838D01*
X53794162Y-104802840D01*
X53633787Y-104851490D01*
X53508794Y-104863800D01*
X53425206Y-104863800D01*
X53300213Y-104851490D01*
X53139838Y-104802840D01*
X52992035Y-104723838D01*
X52862483Y-104617517D01*
X52756162Y-104487965D01*
X52677160Y-104340162D01*
X52628510Y-104179787D01*
X52612084Y-104013000D01*
X52628510Y-103846213D01*
X52677160Y-103685838D01*
X52756162Y-103538035D01*
X52862483Y-103408483D01*
X52992035Y-103302162D01*
X53139838Y-103223160D01*
X53300213Y-103174510D01*
X53425206Y-103162200D01*
X53508794Y-103162200D01*
X53633787Y-103174510D01*
X53633787Y-103174510D01*
G37*
G36*
X51093787Y-103174510D02*
G01*
X51254162Y-103223160D01*
X51401965Y-103302162D01*
X51531517Y-103408483D01*
X51637838Y-103538035D01*
X51716840Y-103685838D01*
X51765490Y-103846213D01*
X51781916Y-104013000D01*
X51765490Y-104179787D01*
X51716840Y-104340162D01*
X51637838Y-104487965D01*
X51531517Y-104617517D01*
X51401965Y-104723838D01*
X51254162Y-104802840D01*
X51093787Y-104851490D01*
X50968794Y-104863800D01*
X50885206Y-104863800D01*
X50760213Y-104851490D01*
X50599838Y-104802840D01*
X50452035Y-104723838D01*
X50322483Y-104617517D01*
X50216162Y-104487965D01*
X50137160Y-104340162D01*
X50088510Y-104179787D01*
X50072084Y-104013000D01*
X50088510Y-103846213D01*
X50137160Y-103685838D01*
X50216162Y-103538035D01*
X50322483Y-103408483D01*
X50452035Y-103302162D01*
X50599838Y-103223160D01*
X50760213Y-103174510D01*
X50885206Y-103162200D01*
X50968794Y-103162200D01*
X51093787Y-103174510D01*
X51093787Y-103174510D01*
G37*
G36*
X48553787Y-103174510D02*
G01*
X48714162Y-103223160D01*
X48861965Y-103302162D01*
X48991517Y-103408483D01*
X49097838Y-103538035D01*
X49176840Y-103685838D01*
X49225490Y-103846213D01*
X49241916Y-104013000D01*
X49225490Y-104179787D01*
X49176840Y-104340162D01*
X49097838Y-104487965D01*
X48991517Y-104617517D01*
X48861965Y-104723838D01*
X48714162Y-104802840D01*
X48553787Y-104851490D01*
X48428794Y-104863800D01*
X48345206Y-104863800D01*
X48220213Y-104851490D01*
X48059838Y-104802840D01*
X47912035Y-104723838D01*
X47782483Y-104617517D01*
X47676162Y-104487965D01*
X47597160Y-104340162D01*
X47548510Y-104179787D01*
X47532084Y-104013000D01*
X47548510Y-103846213D01*
X47597160Y-103685838D01*
X47676162Y-103538035D01*
X47782483Y-103408483D01*
X47912035Y-103302162D01*
X48059838Y-103223160D01*
X48220213Y-103174510D01*
X48345206Y-103162200D01*
X48428794Y-103162200D01*
X48553787Y-103174510D01*
X48553787Y-103174510D01*
G37*
G36*
X67017800Y-104863800D02*
G01*
X65316200Y-104863800D01*
X65316200Y-103162200D01*
X67017800Y-103162200D01*
X67017800Y-104863800D01*
X67017800Y-104863800D01*
G37*
G36*
X46013787Y-103174510D02*
G01*
X46174162Y-103223160D01*
X46321965Y-103302162D01*
X46451517Y-103408483D01*
X46557838Y-103538035D01*
X46636840Y-103685838D01*
X46685490Y-103846213D01*
X46701916Y-104013000D01*
X46685490Y-104179787D01*
X46636840Y-104340162D01*
X46557838Y-104487965D01*
X46451517Y-104617517D01*
X46321965Y-104723838D01*
X46174162Y-104802840D01*
X46013787Y-104851490D01*
X45888794Y-104863800D01*
X45805206Y-104863800D01*
X45680213Y-104851490D01*
X45519838Y-104802840D01*
X45372035Y-104723838D01*
X45242483Y-104617517D01*
X45136162Y-104487965D01*
X45057160Y-104340162D01*
X45008510Y-104179787D01*
X44992084Y-104013000D01*
X45008510Y-103846213D01*
X45057160Y-103685838D01*
X45136162Y-103538035D01*
X45242483Y-103408483D01*
X45372035Y-103302162D01*
X45519838Y-103223160D01*
X45680213Y-103174510D01*
X45805206Y-103162200D01*
X45888794Y-103162200D01*
X46013787Y-103174510D01*
X46013787Y-103174510D01*
G37*
G36*
X43473787Y-103174510D02*
G01*
X43634162Y-103223160D01*
X43781965Y-103302162D01*
X43911517Y-103408483D01*
X44017838Y-103538035D01*
X44096840Y-103685838D01*
X44145490Y-103846213D01*
X44161916Y-104013000D01*
X44145490Y-104179787D01*
X44096840Y-104340162D01*
X44017838Y-104487965D01*
X43911517Y-104617517D01*
X43781965Y-104723838D01*
X43634162Y-104802840D01*
X43473787Y-104851490D01*
X43348794Y-104863800D01*
X43265206Y-104863800D01*
X43140213Y-104851490D01*
X42979838Y-104802840D01*
X42832035Y-104723838D01*
X42702483Y-104617517D01*
X42596162Y-104487965D01*
X42517160Y-104340162D01*
X42468510Y-104179787D01*
X42452084Y-104013000D01*
X42468510Y-103846213D01*
X42517160Y-103685838D01*
X42596162Y-103538035D01*
X42702483Y-103408483D01*
X42832035Y-103302162D01*
X42979838Y-103223160D01*
X43140213Y-103174510D01*
X43265206Y-103162200D01*
X43348794Y-103162200D01*
X43473787Y-103174510D01*
X43473787Y-103174510D01*
G37*
G36*
X59348787Y-93395510D02*
G01*
X59509162Y-93444160D01*
X59656965Y-93523162D01*
X59786517Y-93629483D01*
X59892838Y-93759035D01*
X59971840Y-93906838D01*
X60020490Y-94067213D01*
X60036916Y-94234000D01*
X60020490Y-94400787D01*
X59971840Y-94561162D01*
X59892838Y-94708965D01*
X59786517Y-94838517D01*
X59656965Y-94944838D01*
X59509162Y-95023840D01*
X59348787Y-95072490D01*
X59223794Y-95084800D01*
X59140206Y-95084800D01*
X59015213Y-95072490D01*
X58854838Y-95023840D01*
X58707035Y-94944838D01*
X58577483Y-94838517D01*
X58471162Y-94708965D01*
X58392160Y-94561162D01*
X58343510Y-94400787D01*
X58327084Y-94234000D01*
X58343510Y-94067213D01*
X58392160Y-93906838D01*
X58471162Y-93759035D01*
X58577483Y-93629483D01*
X58707035Y-93523162D01*
X58854838Y-93444160D01*
X59015213Y-93395510D01*
X59140206Y-93383200D01*
X59223794Y-93383200D01*
X59348787Y-93395510D01*
X59348787Y-93395510D01*
G37*
G36*
X64428787Y-93395510D02*
G01*
X64589162Y-93444160D01*
X64736965Y-93523162D01*
X64866517Y-93629483D01*
X64972838Y-93759035D01*
X65051840Y-93906838D01*
X65100490Y-94067213D01*
X65116916Y-94234000D01*
X65100490Y-94400787D01*
X65051840Y-94561162D01*
X64972838Y-94708965D01*
X64866517Y-94838517D01*
X64736965Y-94944838D01*
X64589162Y-95023840D01*
X64428787Y-95072490D01*
X64303794Y-95084800D01*
X64220206Y-95084800D01*
X64095213Y-95072490D01*
X63934838Y-95023840D01*
X63787035Y-94944838D01*
X63657483Y-94838517D01*
X63551162Y-94708965D01*
X63472160Y-94561162D01*
X63423510Y-94400787D01*
X63407084Y-94234000D01*
X63423510Y-94067213D01*
X63472160Y-93906838D01*
X63551162Y-93759035D01*
X63657483Y-93629483D01*
X63787035Y-93523162D01*
X63934838Y-93444160D01*
X64095213Y-93395510D01*
X64220206Y-93383200D01*
X64303794Y-93383200D01*
X64428787Y-93395510D01*
X64428787Y-93395510D01*
G37*
G36*
X61888787Y-93395510D02*
G01*
X62049162Y-93444160D01*
X62196965Y-93523162D01*
X62326517Y-93629483D01*
X62432838Y-93759035D01*
X62511840Y-93906838D01*
X62560490Y-94067213D01*
X62576916Y-94234000D01*
X62560490Y-94400787D01*
X62511840Y-94561162D01*
X62432838Y-94708965D01*
X62326517Y-94838517D01*
X62196965Y-94944838D01*
X62049162Y-95023840D01*
X61888787Y-95072490D01*
X61763794Y-95084800D01*
X61680206Y-95084800D01*
X61555213Y-95072490D01*
X61394838Y-95023840D01*
X61247035Y-94944838D01*
X61117483Y-94838517D01*
X61011162Y-94708965D01*
X60932160Y-94561162D01*
X60883510Y-94400787D01*
X60867084Y-94234000D01*
X60883510Y-94067213D01*
X60932160Y-93906838D01*
X61011162Y-93759035D01*
X61117483Y-93629483D01*
X61247035Y-93523162D01*
X61394838Y-93444160D01*
X61555213Y-93395510D01*
X61680206Y-93383200D01*
X61763794Y-93383200D01*
X61888787Y-93395510D01*
X61888787Y-93395510D01*
G37*
G36*
X56808787Y-93395510D02*
G01*
X56969162Y-93444160D01*
X57116965Y-93523162D01*
X57246517Y-93629483D01*
X57352838Y-93759035D01*
X57431840Y-93906838D01*
X57480490Y-94067213D01*
X57496916Y-94234000D01*
X57480490Y-94400787D01*
X57431840Y-94561162D01*
X57352838Y-94708965D01*
X57246517Y-94838517D01*
X57116965Y-94944838D01*
X56969162Y-95023840D01*
X56808787Y-95072490D01*
X56683794Y-95084800D01*
X56600206Y-95084800D01*
X56475213Y-95072490D01*
X56314838Y-95023840D01*
X56167035Y-94944838D01*
X56037483Y-94838517D01*
X55931162Y-94708965D01*
X55852160Y-94561162D01*
X55803510Y-94400787D01*
X55787084Y-94234000D01*
X55803510Y-94067213D01*
X55852160Y-93906838D01*
X55931162Y-93759035D01*
X56037483Y-93629483D01*
X56167035Y-93523162D01*
X56314838Y-93444160D01*
X56475213Y-93395510D01*
X56600206Y-93383200D01*
X56683794Y-93383200D01*
X56808787Y-93395510D01*
X56808787Y-93395510D01*
G37*
G36*
X54268787Y-93395510D02*
G01*
X54429162Y-93444160D01*
X54576965Y-93523162D01*
X54706517Y-93629483D01*
X54812838Y-93759035D01*
X54891840Y-93906838D01*
X54940490Y-94067213D01*
X54956916Y-94234000D01*
X54940490Y-94400787D01*
X54891840Y-94561162D01*
X54812838Y-94708965D01*
X54706517Y-94838517D01*
X54576965Y-94944838D01*
X54429162Y-95023840D01*
X54268787Y-95072490D01*
X54143794Y-95084800D01*
X54060206Y-95084800D01*
X53935213Y-95072490D01*
X53774838Y-95023840D01*
X53627035Y-94944838D01*
X53497483Y-94838517D01*
X53391162Y-94708965D01*
X53312160Y-94561162D01*
X53263510Y-94400787D01*
X53247084Y-94234000D01*
X53263510Y-94067213D01*
X53312160Y-93906838D01*
X53391162Y-93759035D01*
X53497483Y-93629483D01*
X53627035Y-93523162D01*
X53774838Y-93444160D01*
X53935213Y-93395510D01*
X54060206Y-93383200D01*
X54143794Y-93383200D01*
X54268787Y-93395510D01*
X54268787Y-93395510D01*
G37*
G36*
X46648787Y-93395510D02*
G01*
X46809162Y-93444160D01*
X46956965Y-93523162D01*
X47086517Y-93629483D01*
X47192838Y-93759035D01*
X47271840Y-93906838D01*
X47320490Y-94067213D01*
X47336916Y-94234000D01*
X47320490Y-94400787D01*
X47271840Y-94561162D01*
X47192838Y-94708965D01*
X47086517Y-94838517D01*
X46956965Y-94944838D01*
X46809162Y-95023840D01*
X46648787Y-95072490D01*
X46523794Y-95084800D01*
X46440206Y-95084800D01*
X46315213Y-95072490D01*
X46154838Y-95023840D01*
X46007035Y-94944838D01*
X45877483Y-94838517D01*
X45771162Y-94708965D01*
X45692160Y-94561162D01*
X45643510Y-94400787D01*
X45627084Y-94234000D01*
X45643510Y-94067213D01*
X45692160Y-93906838D01*
X45771162Y-93759035D01*
X45877483Y-93629483D01*
X46007035Y-93523162D01*
X46154838Y-93444160D01*
X46315213Y-93395510D01*
X46440206Y-93383200D01*
X46523794Y-93383200D01*
X46648787Y-93395510D01*
X46648787Y-93395510D01*
G37*
G36*
X44108787Y-93395510D02*
G01*
X44269162Y-93444160D01*
X44416965Y-93523162D01*
X44546517Y-93629483D01*
X44652838Y-93759035D01*
X44731840Y-93906838D01*
X44780490Y-94067213D01*
X44796916Y-94234000D01*
X44780490Y-94400787D01*
X44731840Y-94561162D01*
X44652838Y-94708965D01*
X44546517Y-94838517D01*
X44416965Y-94944838D01*
X44269162Y-95023840D01*
X44108787Y-95072490D01*
X43983794Y-95084800D01*
X43900206Y-95084800D01*
X43775213Y-95072490D01*
X43614838Y-95023840D01*
X43467035Y-94944838D01*
X43337483Y-94838517D01*
X43231162Y-94708965D01*
X43152160Y-94561162D01*
X43103510Y-94400787D01*
X43087084Y-94234000D01*
X43103510Y-94067213D01*
X43152160Y-93906838D01*
X43231162Y-93759035D01*
X43337483Y-93629483D01*
X43467035Y-93523162D01*
X43614838Y-93444160D01*
X43775213Y-93395510D01*
X43900206Y-93383200D01*
X43983794Y-93383200D01*
X44108787Y-93395510D01*
X44108787Y-93395510D01*
G37*
G36*
X49188787Y-93395510D02*
G01*
X49349162Y-93444160D01*
X49496965Y-93523162D01*
X49626517Y-93629483D01*
X49732838Y-93759035D01*
X49811840Y-93906838D01*
X49860490Y-94067213D01*
X49876916Y-94234000D01*
X49860490Y-94400787D01*
X49811840Y-94561162D01*
X49732838Y-94708965D01*
X49626517Y-94838517D01*
X49496965Y-94944838D01*
X49349162Y-95023840D01*
X49188787Y-95072490D01*
X49063794Y-95084800D01*
X48980206Y-95084800D01*
X48855213Y-95072490D01*
X48694838Y-95023840D01*
X48547035Y-94944838D01*
X48417483Y-94838517D01*
X48311162Y-94708965D01*
X48232160Y-94561162D01*
X48183510Y-94400787D01*
X48167084Y-94234000D01*
X48183510Y-94067213D01*
X48232160Y-93906838D01*
X48311162Y-93759035D01*
X48417483Y-93629483D01*
X48547035Y-93523162D01*
X48694838Y-93444160D01*
X48855213Y-93395510D01*
X48980206Y-93383200D01*
X49063794Y-93383200D01*
X49188787Y-93395510D01*
X49188787Y-93395510D01*
G37*
G36*
X41568787Y-93395510D02*
G01*
X41729162Y-93444160D01*
X41876965Y-93523162D01*
X42006517Y-93629483D01*
X42112838Y-93759035D01*
X42191840Y-93906838D01*
X42240490Y-94067213D01*
X42256916Y-94234000D01*
X42240490Y-94400787D01*
X42191840Y-94561162D01*
X42112838Y-94708965D01*
X42006517Y-94838517D01*
X41876965Y-94944838D01*
X41729162Y-95023840D01*
X41568787Y-95072490D01*
X41443794Y-95084800D01*
X41360206Y-95084800D01*
X41235213Y-95072490D01*
X41074838Y-95023840D01*
X40927035Y-94944838D01*
X40797483Y-94838517D01*
X40691162Y-94708965D01*
X40612160Y-94561162D01*
X40563510Y-94400787D01*
X40547084Y-94234000D01*
X40563510Y-94067213D01*
X40612160Y-93906838D01*
X40691162Y-93759035D01*
X40797483Y-93629483D01*
X40927035Y-93523162D01*
X41074838Y-93444160D01*
X41235213Y-93395510D01*
X41360206Y-93383200D01*
X41443794Y-93383200D01*
X41568787Y-93395510D01*
X41568787Y-93395510D01*
G37*
G36*
X39712800Y-95084800D02*
G01*
X38011200Y-95084800D01*
X38011200Y-93383200D01*
X39712800Y-93383200D01*
X39712800Y-95084800D01*
X39712800Y-95084800D01*
G37*
G36*
X51728787Y-93395510D02*
G01*
X51889162Y-93444160D01*
X52036965Y-93523162D01*
X52166517Y-93629483D01*
X52272838Y-93759035D01*
X52351840Y-93906838D01*
X52400490Y-94067213D01*
X52416916Y-94234000D01*
X52400490Y-94400787D01*
X52351840Y-94561162D01*
X52272838Y-94708965D01*
X52166517Y-94838517D01*
X52036965Y-94944838D01*
X51889162Y-95023840D01*
X51728787Y-95072490D01*
X51603794Y-95084800D01*
X51520206Y-95084800D01*
X51395213Y-95072490D01*
X51234838Y-95023840D01*
X51087035Y-94944838D01*
X50957483Y-94838517D01*
X50851162Y-94708965D01*
X50772160Y-94561162D01*
X50723510Y-94400787D01*
X50707084Y-94234000D01*
X50723510Y-94067213D01*
X50772160Y-93906838D01*
X50851162Y-93759035D01*
X50957483Y-93629483D01*
X51087035Y-93523162D01*
X51234838Y-93444160D01*
X51395213Y-93395510D01*
X51520206Y-93383200D01*
X51603794Y-93383200D01*
X51728787Y-93395510D01*
X51728787Y-93395510D01*
G37*
G36*
X44108787Y-89585510D02*
G01*
X44269162Y-89634160D01*
X44416965Y-89713162D01*
X44546517Y-89819483D01*
X44652838Y-89949035D01*
X44731840Y-90096838D01*
X44780490Y-90257213D01*
X44796916Y-90424000D01*
X44780490Y-90590787D01*
X44731840Y-90751162D01*
X44652838Y-90898965D01*
X44546517Y-91028517D01*
X44416965Y-91134838D01*
X44269162Y-91213840D01*
X44108787Y-91262490D01*
X43983794Y-91274800D01*
X43900206Y-91274800D01*
X43775213Y-91262490D01*
X43614838Y-91213840D01*
X43467035Y-91134838D01*
X43337483Y-91028517D01*
X43231162Y-90898965D01*
X43152160Y-90751162D01*
X43103510Y-90590787D01*
X43087084Y-90424000D01*
X43103510Y-90257213D01*
X43152160Y-90096838D01*
X43231162Y-89949035D01*
X43337483Y-89819483D01*
X43467035Y-89713162D01*
X43614838Y-89634160D01*
X43775213Y-89585510D01*
X43900206Y-89573200D01*
X43983794Y-89573200D01*
X44108787Y-89585510D01*
X44108787Y-89585510D01*
G37*
G36*
X56808787Y-89585510D02*
G01*
X56969162Y-89634160D01*
X57116965Y-89713162D01*
X57246517Y-89819483D01*
X57352838Y-89949035D01*
X57431840Y-90096838D01*
X57480490Y-90257213D01*
X57496916Y-90424000D01*
X57480490Y-90590787D01*
X57431840Y-90751162D01*
X57352838Y-90898965D01*
X57246517Y-91028517D01*
X57116965Y-91134838D01*
X56969162Y-91213840D01*
X56808787Y-91262490D01*
X56683794Y-91274800D01*
X56600206Y-91274800D01*
X56475213Y-91262490D01*
X56314838Y-91213840D01*
X56167035Y-91134838D01*
X56037483Y-91028517D01*
X55931162Y-90898965D01*
X55852160Y-90751162D01*
X55803510Y-90590787D01*
X55787084Y-90424000D01*
X55803510Y-90257213D01*
X55852160Y-90096838D01*
X55931162Y-89949035D01*
X56037483Y-89819483D01*
X56167035Y-89713162D01*
X56314838Y-89634160D01*
X56475213Y-89585510D01*
X56600206Y-89573200D01*
X56683794Y-89573200D01*
X56808787Y-89585510D01*
X56808787Y-89585510D01*
G37*
G36*
X61888787Y-89585510D02*
G01*
X62049162Y-89634160D01*
X62196965Y-89713162D01*
X62326517Y-89819483D01*
X62432838Y-89949035D01*
X62511840Y-90096838D01*
X62560490Y-90257213D01*
X62576916Y-90424000D01*
X62560490Y-90590787D01*
X62511840Y-90751162D01*
X62432838Y-90898965D01*
X62326517Y-91028517D01*
X62196965Y-91134838D01*
X62049162Y-91213840D01*
X61888787Y-91262490D01*
X61763794Y-91274800D01*
X61680206Y-91274800D01*
X61555213Y-91262490D01*
X61394838Y-91213840D01*
X61247035Y-91134838D01*
X61117483Y-91028517D01*
X61011162Y-90898965D01*
X60932160Y-90751162D01*
X60883510Y-90590787D01*
X60867084Y-90424000D01*
X60883510Y-90257213D01*
X60932160Y-90096838D01*
X61011162Y-89949035D01*
X61117483Y-89819483D01*
X61247035Y-89713162D01*
X61394838Y-89634160D01*
X61555213Y-89585510D01*
X61680206Y-89573200D01*
X61763794Y-89573200D01*
X61888787Y-89585510D01*
X61888787Y-89585510D01*
G37*
G36*
X59348787Y-89585510D02*
G01*
X59509162Y-89634160D01*
X59656965Y-89713162D01*
X59786517Y-89819483D01*
X59892838Y-89949035D01*
X59971840Y-90096838D01*
X60020490Y-90257213D01*
X60036916Y-90424000D01*
X60020490Y-90590787D01*
X59971840Y-90751162D01*
X59892838Y-90898965D01*
X59786517Y-91028517D01*
X59656965Y-91134838D01*
X59509162Y-91213840D01*
X59348787Y-91262490D01*
X59223794Y-91274800D01*
X59140206Y-91274800D01*
X59015213Y-91262490D01*
X58854838Y-91213840D01*
X58707035Y-91134838D01*
X58577483Y-91028517D01*
X58471162Y-90898965D01*
X58392160Y-90751162D01*
X58343510Y-90590787D01*
X58327084Y-90424000D01*
X58343510Y-90257213D01*
X58392160Y-90096838D01*
X58471162Y-89949035D01*
X58577483Y-89819483D01*
X58707035Y-89713162D01*
X58854838Y-89634160D01*
X59015213Y-89585510D01*
X59140206Y-89573200D01*
X59223794Y-89573200D01*
X59348787Y-89585510D01*
X59348787Y-89585510D01*
G37*
G36*
X39712800Y-91274800D02*
G01*
X38011200Y-91274800D01*
X38011200Y-89573200D01*
X39712800Y-89573200D01*
X39712800Y-91274800D01*
X39712800Y-91274800D01*
G37*
G36*
X41568787Y-89585510D02*
G01*
X41729162Y-89634160D01*
X41876965Y-89713162D01*
X42006517Y-89819483D01*
X42112838Y-89949035D01*
X42191840Y-90096838D01*
X42240490Y-90257213D01*
X42256916Y-90424000D01*
X42240490Y-90590787D01*
X42191840Y-90751162D01*
X42112838Y-90898965D01*
X42006517Y-91028517D01*
X41876965Y-91134838D01*
X41729162Y-91213840D01*
X41568787Y-91262490D01*
X41443794Y-91274800D01*
X41360206Y-91274800D01*
X41235213Y-91262490D01*
X41074838Y-91213840D01*
X40927035Y-91134838D01*
X40797483Y-91028517D01*
X40691162Y-90898965D01*
X40612160Y-90751162D01*
X40563510Y-90590787D01*
X40547084Y-90424000D01*
X40563510Y-90257213D01*
X40612160Y-90096838D01*
X40691162Y-89949035D01*
X40797483Y-89819483D01*
X40927035Y-89713162D01*
X41074838Y-89634160D01*
X41235213Y-89585510D01*
X41360206Y-89573200D01*
X41443794Y-89573200D01*
X41568787Y-89585510D01*
X41568787Y-89585510D01*
G37*
G36*
X46648787Y-89585510D02*
G01*
X46809162Y-89634160D01*
X46956965Y-89713162D01*
X47086517Y-89819483D01*
X47192838Y-89949035D01*
X47271840Y-90096838D01*
X47320490Y-90257213D01*
X47336916Y-90424000D01*
X47320490Y-90590787D01*
X47271840Y-90751162D01*
X47192838Y-90898965D01*
X47086517Y-91028517D01*
X46956965Y-91134838D01*
X46809162Y-91213840D01*
X46648787Y-91262490D01*
X46523794Y-91274800D01*
X46440206Y-91274800D01*
X46315213Y-91262490D01*
X46154838Y-91213840D01*
X46007035Y-91134838D01*
X45877483Y-91028517D01*
X45771162Y-90898965D01*
X45692160Y-90751162D01*
X45643510Y-90590787D01*
X45627084Y-90424000D01*
X45643510Y-90257213D01*
X45692160Y-90096838D01*
X45771162Y-89949035D01*
X45877483Y-89819483D01*
X46007035Y-89713162D01*
X46154838Y-89634160D01*
X46315213Y-89585510D01*
X46440206Y-89573200D01*
X46523794Y-89573200D01*
X46648787Y-89585510D01*
X46648787Y-89585510D01*
G37*
G36*
X49188787Y-89585510D02*
G01*
X49349162Y-89634160D01*
X49496965Y-89713162D01*
X49626517Y-89819483D01*
X49732838Y-89949035D01*
X49811840Y-90096838D01*
X49860490Y-90257213D01*
X49876916Y-90424000D01*
X49860490Y-90590787D01*
X49811840Y-90751162D01*
X49732838Y-90898965D01*
X49626517Y-91028517D01*
X49496965Y-91134838D01*
X49349162Y-91213840D01*
X49188787Y-91262490D01*
X49063794Y-91274800D01*
X48980206Y-91274800D01*
X48855213Y-91262490D01*
X48694838Y-91213840D01*
X48547035Y-91134838D01*
X48417483Y-91028517D01*
X48311162Y-90898965D01*
X48232160Y-90751162D01*
X48183510Y-90590787D01*
X48167084Y-90424000D01*
X48183510Y-90257213D01*
X48232160Y-90096838D01*
X48311162Y-89949035D01*
X48417483Y-89819483D01*
X48547035Y-89713162D01*
X48694838Y-89634160D01*
X48855213Y-89585510D01*
X48980206Y-89573200D01*
X49063794Y-89573200D01*
X49188787Y-89585510D01*
X49188787Y-89585510D01*
G37*
G36*
X51728787Y-89585510D02*
G01*
X51889162Y-89634160D01*
X52036965Y-89713162D01*
X52166517Y-89819483D01*
X52272838Y-89949035D01*
X52351840Y-90096838D01*
X52400490Y-90257213D01*
X52416916Y-90424000D01*
X52400490Y-90590787D01*
X52351840Y-90751162D01*
X52272838Y-90898965D01*
X52166517Y-91028517D01*
X52036965Y-91134838D01*
X51889162Y-91213840D01*
X51728787Y-91262490D01*
X51603794Y-91274800D01*
X51520206Y-91274800D01*
X51395213Y-91262490D01*
X51234838Y-91213840D01*
X51087035Y-91134838D01*
X50957483Y-91028517D01*
X50851162Y-90898965D01*
X50772160Y-90751162D01*
X50723510Y-90590787D01*
X50707084Y-90424000D01*
X50723510Y-90257213D01*
X50772160Y-90096838D01*
X50851162Y-89949035D01*
X50957483Y-89819483D01*
X51087035Y-89713162D01*
X51234838Y-89634160D01*
X51395213Y-89585510D01*
X51520206Y-89573200D01*
X51603794Y-89573200D01*
X51728787Y-89585510D01*
X51728787Y-89585510D01*
G37*
G36*
X54268787Y-89585510D02*
G01*
X54429162Y-89634160D01*
X54576965Y-89713162D01*
X54706517Y-89819483D01*
X54812838Y-89949035D01*
X54891840Y-90096838D01*
X54940490Y-90257213D01*
X54956916Y-90424000D01*
X54940490Y-90590787D01*
X54891840Y-90751162D01*
X54812838Y-90898965D01*
X54706517Y-91028517D01*
X54576965Y-91134838D01*
X54429162Y-91213840D01*
X54268787Y-91262490D01*
X54143794Y-91274800D01*
X54060206Y-91274800D01*
X53935213Y-91262490D01*
X53774838Y-91213840D01*
X53627035Y-91134838D01*
X53497483Y-91028517D01*
X53391162Y-90898965D01*
X53312160Y-90751162D01*
X53263510Y-90590787D01*
X53247084Y-90424000D01*
X53263510Y-90257213D01*
X53312160Y-90096838D01*
X53391162Y-89949035D01*
X53497483Y-89819483D01*
X53627035Y-89713162D01*
X53774838Y-89634160D01*
X53935213Y-89585510D01*
X54060206Y-89573200D01*
X54143794Y-89573200D01*
X54268787Y-89585510D01*
X54268787Y-89585510D01*
G37*
G36*
X64428787Y-89585510D02*
G01*
X64589162Y-89634160D01*
X64736965Y-89713162D01*
X64866517Y-89819483D01*
X64972838Y-89949035D01*
X65051840Y-90096838D01*
X65100490Y-90257213D01*
X65116916Y-90424000D01*
X65100490Y-90590787D01*
X65051840Y-90751162D01*
X64972838Y-90898965D01*
X64866517Y-91028517D01*
X64736965Y-91134838D01*
X64589162Y-91213840D01*
X64428787Y-91262490D01*
X64303794Y-91274800D01*
X64220206Y-91274800D01*
X64095213Y-91262490D01*
X63934838Y-91213840D01*
X63787035Y-91134838D01*
X63657483Y-91028517D01*
X63551162Y-90898965D01*
X63472160Y-90751162D01*
X63423510Y-90590787D01*
X63407084Y-90424000D01*
X63423510Y-90257213D01*
X63472160Y-90096838D01*
X63551162Y-89949035D01*
X63657483Y-89819483D01*
X63787035Y-89713162D01*
X63934838Y-89634160D01*
X64095213Y-89585510D01*
X64220206Y-89573200D01*
X64303794Y-89573200D01*
X64428787Y-89585510D01*
X64428787Y-89585510D01*
G37*
G36*
X66445102Y-82526353D02*
G01*
X66590398Y-82570429D01*
X66590401Y-82570430D01*
X66724303Y-82642002D01*
X66724305Y-82642003D01*
X66724304Y-82642003D01*
X66841675Y-82738325D01*
X66937997Y-82855695D01*
X66938000Y-82855699D01*
X67009570Y-82989598D01*
X67009570Y-82989599D01*
X67009571Y-82989601D01*
X67053647Y-83134897D01*
X67064800Y-83248138D01*
X67064800Y-83883862D01*
X67053647Y-83997103D01*
X67009571Y-84142399D01*
X67009570Y-84142402D01*
X66938000Y-84276301D01*
X66937998Y-84276303D01*
X66937997Y-84276305D01*
X66841675Y-84393675D01*
X66724305Y-84489997D01*
X66724301Y-84490000D01*
X66590402Y-84561570D01*
X66590399Y-84561571D01*
X66445103Y-84605647D01*
X66294000Y-84620529D01*
X66142898Y-84605647D01*
X65997602Y-84561571D01*
X65997599Y-84561570D01*
X65863700Y-84490000D01*
X65863696Y-84489997D01*
X65746326Y-84393675D01*
X65650004Y-84276305D01*
X65641816Y-84260987D01*
X65578429Y-84142400D01*
X65563737Y-84093967D01*
X65534353Y-83997103D01*
X65523200Y-83883862D01*
X65523200Y-83248139D01*
X65534353Y-83134898D01*
X65578429Y-82989602D01*
X65578430Y-82989599D01*
X65650002Y-82855697D01*
X65746323Y-82738328D01*
X65746325Y-82738325D01*
X65863695Y-82642003D01*
X65863696Y-82642002D01*
X65863699Y-82642000D01*
X65997598Y-82570430D01*
X65997601Y-82570429D01*
X66142897Y-82526353D01*
X66294000Y-82511471D01*
X66445102Y-82526353D01*
X66445102Y-82526353D01*
G37*
G36*
X63905102Y-82526353D02*
G01*
X64050398Y-82570429D01*
X64050401Y-82570430D01*
X64184303Y-82642002D01*
X64184305Y-82642003D01*
X64184304Y-82642003D01*
X64301675Y-82738325D01*
X64397997Y-82855695D01*
X64398000Y-82855699D01*
X64469570Y-82989598D01*
X64469570Y-82989599D01*
X64469571Y-82989601D01*
X64513647Y-83134897D01*
X64524800Y-83248138D01*
X64524800Y-83883862D01*
X64513647Y-83997103D01*
X64469571Y-84142399D01*
X64469570Y-84142402D01*
X64398000Y-84276301D01*
X64397998Y-84276303D01*
X64397997Y-84276305D01*
X64301675Y-84393675D01*
X64184305Y-84489997D01*
X64184301Y-84490000D01*
X64050402Y-84561570D01*
X64050399Y-84561571D01*
X63905103Y-84605647D01*
X63754000Y-84620529D01*
X63602898Y-84605647D01*
X63457602Y-84561571D01*
X63457599Y-84561570D01*
X63323700Y-84490000D01*
X63323696Y-84489997D01*
X63206326Y-84393675D01*
X63110004Y-84276305D01*
X63101816Y-84260987D01*
X63038429Y-84142400D01*
X63023737Y-84093967D01*
X62994353Y-83997103D01*
X62983200Y-83883862D01*
X62983200Y-83248139D01*
X62994353Y-83134898D01*
X63038429Y-82989602D01*
X63038430Y-82989599D01*
X63110002Y-82855697D01*
X63206323Y-82738328D01*
X63206325Y-82738325D01*
X63323695Y-82642003D01*
X63323696Y-82642002D01*
X63323699Y-82642000D01*
X63457598Y-82570430D01*
X63457601Y-82570429D01*
X63602897Y-82526353D01*
X63754000Y-82511471D01*
X63905102Y-82526353D01*
X63905102Y-82526353D01*
G37*
G36*
X61365102Y-82526353D02*
G01*
X61510398Y-82570429D01*
X61510401Y-82570430D01*
X61644303Y-82642002D01*
X61644305Y-82642003D01*
X61644304Y-82642003D01*
X61761675Y-82738325D01*
X61857997Y-82855695D01*
X61858000Y-82855699D01*
X61929570Y-82989598D01*
X61929570Y-82989599D01*
X61929571Y-82989601D01*
X61973647Y-83134897D01*
X61984800Y-83248138D01*
X61984800Y-83883862D01*
X61973647Y-83997103D01*
X61929571Y-84142399D01*
X61929570Y-84142402D01*
X61858000Y-84276301D01*
X61857998Y-84276303D01*
X61857997Y-84276305D01*
X61761675Y-84393675D01*
X61644305Y-84489997D01*
X61644301Y-84490000D01*
X61510402Y-84561570D01*
X61510399Y-84561571D01*
X61365103Y-84605647D01*
X61214000Y-84620529D01*
X61062898Y-84605647D01*
X60917602Y-84561571D01*
X60917599Y-84561570D01*
X60783700Y-84490000D01*
X60783696Y-84489997D01*
X60666326Y-84393675D01*
X60570004Y-84276305D01*
X60561816Y-84260987D01*
X60498429Y-84142400D01*
X60483737Y-84093967D01*
X60454353Y-83997103D01*
X60443200Y-83883862D01*
X60443200Y-83248139D01*
X60454353Y-83134898D01*
X60498429Y-82989602D01*
X60498430Y-82989599D01*
X60570002Y-82855697D01*
X60666323Y-82738328D01*
X60666325Y-82738325D01*
X60783695Y-82642003D01*
X60783696Y-82642002D01*
X60783699Y-82642000D01*
X60917598Y-82570430D01*
X60917601Y-82570429D01*
X61062897Y-82526353D01*
X61214000Y-82511471D01*
X61365102Y-82526353D01*
X61365102Y-82526353D01*
G37*
G36*
X58825102Y-82526353D02*
G01*
X58970398Y-82570429D01*
X58970401Y-82570430D01*
X59104303Y-82642002D01*
X59104305Y-82642003D01*
X59104304Y-82642003D01*
X59221675Y-82738325D01*
X59317997Y-82855695D01*
X59318000Y-82855699D01*
X59389570Y-82989598D01*
X59389570Y-82989599D01*
X59389571Y-82989601D01*
X59433647Y-83134897D01*
X59444800Y-83248138D01*
X59444800Y-83883862D01*
X59433647Y-83997103D01*
X59389571Y-84142399D01*
X59389570Y-84142402D01*
X59318000Y-84276301D01*
X59317998Y-84276303D01*
X59317997Y-84276305D01*
X59221675Y-84393675D01*
X59104305Y-84489997D01*
X59104301Y-84490000D01*
X58970402Y-84561570D01*
X58970399Y-84561571D01*
X58825103Y-84605647D01*
X58674000Y-84620529D01*
X58522898Y-84605647D01*
X58377602Y-84561571D01*
X58377599Y-84561570D01*
X58243700Y-84490000D01*
X58243696Y-84489997D01*
X58126326Y-84393675D01*
X58030004Y-84276305D01*
X58021816Y-84260987D01*
X57958429Y-84142400D01*
X57943737Y-84093967D01*
X57914353Y-83997103D01*
X57903200Y-83883862D01*
X57903200Y-83248139D01*
X57914353Y-83134898D01*
X57958429Y-82989602D01*
X57958430Y-82989599D01*
X58030002Y-82855697D01*
X58126323Y-82738328D01*
X58126325Y-82738325D01*
X58243695Y-82642003D01*
X58243696Y-82642002D01*
X58243699Y-82642000D01*
X58377598Y-82570430D01*
X58377601Y-82570429D01*
X58522897Y-82526353D01*
X58674000Y-82511471D01*
X58825102Y-82526353D01*
X58825102Y-82526353D01*
G37*
G36*
X53745102Y-82526353D02*
G01*
X53890398Y-82570429D01*
X53890401Y-82570430D01*
X54024303Y-82642002D01*
X54024305Y-82642003D01*
X54024304Y-82642003D01*
X54141675Y-82738325D01*
X54237997Y-82855695D01*
X54238000Y-82855699D01*
X54309570Y-82989598D01*
X54309570Y-82989599D01*
X54309571Y-82989601D01*
X54353647Y-83134897D01*
X54364800Y-83248138D01*
X54364800Y-83883862D01*
X54353647Y-83997103D01*
X54309571Y-84142399D01*
X54309570Y-84142402D01*
X54238000Y-84276301D01*
X54237998Y-84276303D01*
X54237997Y-84276305D01*
X54141675Y-84393675D01*
X54024305Y-84489997D01*
X54024301Y-84490000D01*
X53890402Y-84561570D01*
X53890399Y-84561571D01*
X53745103Y-84605647D01*
X53594000Y-84620529D01*
X53442898Y-84605647D01*
X53297602Y-84561571D01*
X53297599Y-84561570D01*
X53163700Y-84490000D01*
X53163696Y-84489997D01*
X53046326Y-84393675D01*
X52950004Y-84276305D01*
X52941816Y-84260987D01*
X52878429Y-84142400D01*
X52863737Y-84093967D01*
X52834353Y-83997103D01*
X52823200Y-83883862D01*
X52823200Y-83248139D01*
X52834353Y-83134898D01*
X52878429Y-82989602D01*
X52878430Y-82989599D01*
X52950002Y-82855697D01*
X53046323Y-82738328D01*
X53046325Y-82738325D01*
X53163695Y-82642003D01*
X53163696Y-82642002D01*
X53163699Y-82642000D01*
X53297598Y-82570430D01*
X53297601Y-82570429D01*
X53442897Y-82526353D01*
X53594000Y-82511471D01*
X53745102Y-82526353D01*
X53745102Y-82526353D01*
G37*
G36*
X51205102Y-82526353D02*
G01*
X51350398Y-82570429D01*
X51350401Y-82570430D01*
X51484303Y-82642002D01*
X51484305Y-82642003D01*
X51484304Y-82642003D01*
X51601675Y-82738325D01*
X51697997Y-82855695D01*
X51698000Y-82855699D01*
X51769570Y-82989598D01*
X51769570Y-82989599D01*
X51769571Y-82989601D01*
X51813647Y-83134897D01*
X51824800Y-83248138D01*
X51824800Y-83883862D01*
X51813647Y-83997103D01*
X51769571Y-84142399D01*
X51769570Y-84142402D01*
X51698000Y-84276301D01*
X51697998Y-84276303D01*
X51697997Y-84276305D01*
X51601675Y-84393675D01*
X51484305Y-84489997D01*
X51484301Y-84490000D01*
X51350402Y-84561570D01*
X51350399Y-84561571D01*
X51205103Y-84605647D01*
X51054000Y-84620529D01*
X50902898Y-84605647D01*
X50757602Y-84561571D01*
X50757599Y-84561570D01*
X50623700Y-84490000D01*
X50623696Y-84489997D01*
X50506326Y-84393675D01*
X50410004Y-84276305D01*
X50401816Y-84260987D01*
X50338429Y-84142400D01*
X50323737Y-84093967D01*
X50294353Y-83997103D01*
X50283200Y-83883862D01*
X50283200Y-83248139D01*
X50294353Y-83134898D01*
X50338429Y-82989602D01*
X50338430Y-82989599D01*
X50410002Y-82855697D01*
X50506323Y-82738328D01*
X50506325Y-82738325D01*
X50623695Y-82642003D01*
X50623696Y-82642002D01*
X50623699Y-82642000D01*
X50757598Y-82570430D01*
X50757601Y-82570429D01*
X50902897Y-82526353D01*
X51054000Y-82511471D01*
X51205102Y-82526353D01*
X51205102Y-82526353D01*
G37*
G36*
X48665102Y-82526353D02*
G01*
X48810398Y-82570429D01*
X48810401Y-82570430D01*
X48944303Y-82642002D01*
X48944305Y-82642003D01*
X48944304Y-82642003D01*
X49061675Y-82738325D01*
X49157997Y-82855695D01*
X49158000Y-82855699D01*
X49229570Y-82989598D01*
X49229570Y-82989599D01*
X49229571Y-82989601D01*
X49273647Y-83134897D01*
X49284800Y-83248138D01*
X49284800Y-83883862D01*
X49273647Y-83997103D01*
X49229571Y-84142399D01*
X49229570Y-84142402D01*
X49158000Y-84276301D01*
X49157998Y-84276303D01*
X49157997Y-84276305D01*
X49061675Y-84393675D01*
X48944305Y-84489997D01*
X48944301Y-84490000D01*
X48810402Y-84561570D01*
X48810399Y-84561571D01*
X48665103Y-84605647D01*
X48514000Y-84620529D01*
X48362898Y-84605647D01*
X48217602Y-84561571D01*
X48217599Y-84561570D01*
X48083700Y-84490000D01*
X48083696Y-84489997D01*
X47966326Y-84393675D01*
X47870004Y-84276305D01*
X47861816Y-84260987D01*
X47798429Y-84142400D01*
X47783737Y-84093967D01*
X47754353Y-83997103D01*
X47743200Y-83883862D01*
X47743200Y-83248139D01*
X47754353Y-83134898D01*
X47798429Y-82989602D01*
X47798430Y-82989599D01*
X47870002Y-82855697D01*
X47966323Y-82738328D01*
X47966325Y-82738325D01*
X48083695Y-82642003D01*
X48083696Y-82642002D01*
X48083699Y-82642000D01*
X48217598Y-82570430D01*
X48217601Y-82570429D01*
X48362897Y-82526353D01*
X48514000Y-82511471D01*
X48665102Y-82526353D01*
X48665102Y-82526353D01*
G37*
G36*
X46125102Y-82526353D02*
G01*
X46270398Y-82570429D01*
X46270401Y-82570430D01*
X46404303Y-82642002D01*
X46404305Y-82642003D01*
X46404304Y-82642003D01*
X46521675Y-82738325D01*
X46617997Y-82855695D01*
X46618000Y-82855699D01*
X46689570Y-82989598D01*
X46689570Y-82989599D01*
X46689571Y-82989601D01*
X46733647Y-83134897D01*
X46744800Y-83248138D01*
X46744800Y-83883862D01*
X46733647Y-83997103D01*
X46689571Y-84142399D01*
X46689570Y-84142402D01*
X46618000Y-84276301D01*
X46617998Y-84276303D01*
X46617997Y-84276305D01*
X46521675Y-84393675D01*
X46404305Y-84489997D01*
X46404301Y-84490000D01*
X46270402Y-84561570D01*
X46270399Y-84561571D01*
X46125103Y-84605647D01*
X45974000Y-84620529D01*
X45822898Y-84605647D01*
X45677602Y-84561571D01*
X45677599Y-84561570D01*
X45543700Y-84490000D01*
X45543696Y-84489997D01*
X45426326Y-84393675D01*
X45330004Y-84276305D01*
X45321816Y-84260987D01*
X45258429Y-84142400D01*
X45243737Y-84093967D01*
X45214353Y-83997103D01*
X45203200Y-83883862D01*
X45203200Y-83248139D01*
X45214353Y-83134898D01*
X45258429Y-82989602D01*
X45258430Y-82989599D01*
X45330002Y-82855697D01*
X45426323Y-82738328D01*
X45426325Y-82738325D01*
X45543695Y-82642003D01*
X45543696Y-82642002D01*
X45543699Y-82642000D01*
X45677598Y-82570430D01*
X45677601Y-82570429D01*
X45822897Y-82526353D01*
X45974000Y-82511471D01*
X46125102Y-82526353D01*
X46125102Y-82526353D01*
G37*
G36*
X43585102Y-82526353D02*
G01*
X43730398Y-82570429D01*
X43730401Y-82570430D01*
X43864303Y-82642002D01*
X43864305Y-82642003D01*
X43864304Y-82642003D01*
X43981675Y-82738325D01*
X44077997Y-82855695D01*
X44078000Y-82855699D01*
X44149570Y-82989598D01*
X44149570Y-82989599D01*
X44149571Y-82989601D01*
X44193647Y-83134897D01*
X44204800Y-83248138D01*
X44204800Y-83883862D01*
X44193647Y-83997103D01*
X44149571Y-84142399D01*
X44149570Y-84142402D01*
X44078000Y-84276301D01*
X44077998Y-84276303D01*
X44077997Y-84276305D01*
X43981675Y-84393675D01*
X43864305Y-84489997D01*
X43864301Y-84490000D01*
X43730402Y-84561570D01*
X43730399Y-84561571D01*
X43585103Y-84605647D01*
X43434000Y-84620529D01*
X43282898Y-84605647D01*
X43137602Y-84561571D01*
X43137599Y-84561570D01*
X43003700Y-84490000D01*
X43003696Y-84489997D01*
X42886326Y-84393675D01*
X42790004Y-84276305D01*
X42781816Y-84260987D01*
X42718429Y-84142400D01*
X42703737Y-84093967D01*
X42674353Y-83997103D01*
X42663200Y-83883862D01*
X42663200Y-83248139D01*
X42674353Y-83134898D01*
X42718429Y-82989602D01*
X42718430Y-82989599D01*
X42790002Y-82855697D01*
X42886323Y-82738328D01*
X42886325Y-82738325D01*
X43003695Y-82642003D01*
X43003696Y-82642002D01*
X43003699Y-82642000D01*
X43137598Y-82570430D01*
X43137601Y-82570429D01*
X43282897Y-82526353D01*
X43434000Y-82511471D01*
X43585102Y-82526353D01*
X43585102Y-82526353D01*
G37*
G36*
X41045102Y-82526353D02*
G01*
X41190398Y-82570429D01*
X41190401Y-82570430D01*
X41324303Y-82642002D01*
X41324305Y-82642003D01*
X41324304Y-82642003D01*
X41441675Y-82738325D01*
X41537997Y-82855695D01*
X41538000Y-82855699D01*
X41609570Y-82989598D01*
X41609570Y-82989599D01*
X41609571Y-82989601D01*
X41653647Y-83134897D01*
X41664800Y-83248138D01*
X41664800Y-83883862D01*
X41653647Y-83997103D01*
X41609571Y-84142399D01*
X41609570Y-84142402D01*
X41538000Y-84276301D01*
X41537998Y-84276303D01*
X41537997Y-84276305D01*
X41441675Y-84393675D01*
X41324305Y-84489997D01*
X41324301Y-84490000D01*
X41190402Y-84561570D01*
X41190399Y-84561571D01*
X41045103Y-84605647D01*
X40894000Y-84620529D01*
X40742898Y-84605647D01*
X40597602Y-84561571D01*
X40597599Y-84561570D01*
X40463700Y-84490000D01*
X40463696Y-84489997D01*
X40346326Y-84393675D01*
X40250004Y-84276305D01*
X40241816Y-84260987D01*
X40178429Y-84142400D01*
X40163737Y-84093967D01*
X40134353Y-83997103D01*
X40123200Y-83883862D01*
X40123200Y-83248139D01*
X40134353Y-83134898D01*
X40178429Y-82989602D01*
X40178430Y-82989599D01*
X40250002Y-82855697D01*
X40346323Y-82738328D01*
X40346325Y-82738325D01*
X40463695Y-82642003D01*
X40463696Y-82642002D01*
X40463699Y-82642000D01*
X40597598Y-82570430D01*
X40597601Y-82570429D01*
X40742897Y-82526353D01*
X40894000Y-82511471D01*
X41045102Y-82526353D01*
X41045102Y-82526353D01*
G37*
G36*
X56285102Y-82526353D02*
G01*
X56430398Y-82570429D01*
X56430401Y-82570430D01*
X56564303Y-82642002D01*
X56564305Y-82642003D01*
X56564304Y-82642003D01*
X56681675Y-82738325D01*
X56777997Y-82855695D01*
X56778000Y-82855699D01*
X56849570Y-82989598D01*
X56849570Y-82989599D01*
X56849571Y-82989601D01*
X56893647Y-83134897D01*
X56904800Y-83248138D01*
X56904800Y-83883862D01*
X56893647Y-83997103D01*
X56849571Y-84142399D01*
X56849570Y-84142402D01*
X56778000Y-84276301D01*
X56777998Y-84276303D01*
X56777997Y-84276305D01*
X56681675Y-84393675D01*
X56564305Y-84489997D01*
X56564301Y-84490000D01*
X56430402Y-84561570D01*
X56430399Y-84561571D01*
X56285103Y-84605647D01*
X56134000Y-84620529D01*
X55982898Y-84605647D01*
X55837602Y-84561571D01*
X55837599Y-84561570D01*
X55703700Y-84490000D01*
X55703696Y-84489997D01*
X55586326Y-84393675D01*
X55490004Y-84276305D01*
X55481816Y-84260987D01*
X55418429Y-84142400D01*
X55403737Y-84093967D01*
X55374353Y-83997103D01*
X55363200Y-83883862D01*
X55363200Y-83248139D01*
X55374353Y-83134898D01*
X55418429Y-82989602D01*
X55418430Y-82989599D01*
X55490002Y-82855697D01*
X55586323Y-82738328D01*
X55586325Y-82738325D01*
X55703695Y-82642003D01*
X55703696Y-82642002D01*
X55703699Y-82642000D01*
X55837598Y-82570430D01*
X55837601Y-82570429D01*
X55982897Y-82526353D01*
X56134000Y-82511471D01*
X56285102Y-82526353D01*
X56285102Y-82526353D01*
G37*
G36*
X39124800Y-84616800D02*
G01*
X37583200Y-84616800D01*
X37583200Y-82515200D01*
X39124800Y-82515200D01*
X39124800Y-84616800D01*
X39124800Y-84616800D01*
G37*
G36*
X38505102Y-67286353D02*
G01*
X38650398Y-67330429D01*
X38650401Y-67330430D01*
X38784303Y-67402002D01*
X38784305Y-67402003D01*
X38784304Y-67402003D01*
X38901675Y-67498325D01*
X38997997Y-67615695D01*
X38998000Y-67615699D01*
X39069570Y-67749598D01*
X39069570Y-67749599D01*
X39069571Y-67749601D01*
X39113647Y-67894897D01*
X39124800Y-68008138D01*
X39124800Y-68643862D01*
X39113647Y-68757103D01*
X39069571Y-68902399D01*
X39069570Y-68902402D01*
X38998000Y-69036301D01*
X38997998Y-69036303D01*
X38997997Y-69036305D01*
X38901675Y-69153675D01*
X38784305Y-69249997D01*
X38784301Y-69250000D01*
X38650402Y-69321570D01*
X38650399Y-69321571D01*
X38505103Y-69365647D01*
X38354000Y-69380529D01*
X38202898Y-69365647D01*
X38057602Y-69321571D01*
X38057599Y-69321570D01*
X37923700Y-69250000D01*
X37923696Y-69249997D01*
X37806326Y-69153675D01*
X37710004Y-69036305D01*
X37701816Y-69020987D01*
X37638429Y-68902400D01*
X37623737Y-68853967D01*
X37594353Y-68757103D01*
X37583200Y-68643862D01*
X37583200Y-68008139D01*
X37594353Y-67894898D01*
X37638429Y-67749602D01*
X37638430Y-67749599D01*
X37710002Y-67615697D01*
X37806323Y-67498328D01*
X37806325Y-67498325D01*
X37923695Y-67402003D01*
X37923696Y-67402002D01*
X37923699Y-67402000D01*
X38057598Y-67330430D01*
X38057601Y-67330429D01*
X38202897Y-67286353D01*
X38354000Y-67271471D01*
X38505102Y-67286353D01*
X38505102Y-67286353D01*
G37*
G36*
X43585102Y-67286353D02*
G01*
X43730398Y-67330429D01*
X43730401Y-67330430D01*
X43864303Y-67402002D01*
X43864305Y-67402003D01*
X43864304Y-67402003D01*
X43981675Y-67498325D01*
X44077997Y-67615695D01*
X44078000Y-67615699D01*
X44149570Y-67749598D01*
X44149570Y-67749599D01*
X44149571Y-67749601D01*
X44193647Y-67894897D01*
X44204800Y-68008138D01*
X44204800Y-68643862D01*
X44193647Y-68757103D01*
X44149571Y-68902399D01*
X44149570Y-68902402D01*
X44078000Y-69036301D01*
X44077998Y-69036303D01*
X44077997Y-69036305D01*
X43981675Y-69153675D01*
X43864305Y-69249997D01*
X43864301Y-69250000D01*
X43730402Y-69321570D01*
X43730399Y-69321571D01*
X43585103Y-69365647D01*
X43434000Y-69380529D01*
X43282898Y-69365647D01*
X43137602Y-69321571D01*
X43137599Y-69321570D01*
X43003700Y-69250000D01*
X43003696Y-69249997D01*
X42886326Y-69153675D01*
X42790004Y-69036305D01*
X42781816Y-69020987D01*
X42718429Y-68902400D01*
X42703737Y-68853967D01*
X42674353Y-68757103D01*
X42663200Y-68643862D01*
X42663200Y-68008139D01*
X42674353Y-67894898D01*
X42718429Y-67749602D01*
X42718430Y-67749599D01*
X42790002Y-67615697D01*
X42886323Y-67498328D01*
X42886325Y-67498325D01*
X43003695Y-67402003D01*
X43003696Y-67402002D01*
X43003699Y-67402000D01*
X43137598Y-67330430D01*
X43137601Y-67330429D01*
X43282897Y-67286353D01*
X43434000Y-67271471D01*
X43585102Y-67286353D01*
X43585102Y-67286353D01*
G37*
G36*
X63905102Y-67286353D02*
G01*
X64050398Y-67330429D01*
X64050401Y-67330430D01*
X64184303Y-67402002D01*
X64184305Y-67402003D01*
X64184304Y-67402003D01*
X64301675Y-67498325D01*
X64397997Y-67615695D01*
X64398000Y-67615699D01*
X64469570Y-67749598D01*
X64469570Y-67749599D01*
X64469571Y-67749601D01*
X64513647Y-67894897D01*
X64524800Y-68008138D01*
X64524800Y-68643862D01*
X64513647Y-68757103D01*
X64469571Y-68902399D01*
X64469570Y-68902402D01*
X64398000Y-69036301D01*
X64397998Y-69036303D01*
X64397997Y-69036305D01*
X64301675Y-69153675D01*
X64184305Y-69249997D01*
X64184301Y-69250000D01*
X64050402Y-69321570D01*
X64050399Y-69321571D01*
X63905103Y-69365647D01*
X63754000Y-69380529D01*
X63602898Y-69365647D01*
X63457602Y-69321571D01*
X63457599Y-69321570D01*
X63323700Y-69250000D01*
X63323696Y-69249997D01*
X63206326Y-69153675D01*
X63110004Y-69036305D01*
X63101816Y-69020987D01*
X63038429Y-68902400D01*
X63023737Y-68853967D01*
X62994353Y-68757103D01*
X62983200Y-68643862D01*
X62983200Y-68008139D01*
X62994353Y-67894898D01*
X63038429Y-67749602D01*
X63038430Y-67749599D01*
X63110002Y-67615697D01*
X63206323Y-67498328D01*
X63206325Y-67498325D01*
X63323695Y-67402003D01*
X63323696Y-67402002D01*
X63323699Y-67402000D01*
X63457598Y-67330430D01*
X63457601Y-67330429D01*
X63602897Y-67286353D01*
X63754000Y-67271471D01*
X63905102Y-67286353D01*
X63905102Y-67286353D01*
G37*
G36*
X46125102Y-67286353D02*
G01*
X46270398Y-67330429D01*
X46270401Y-67330430D01*
X46404303Y-67402002D01*
X46404305Y-67402003D01*
X46404304Y-67402003D01*
X46521675Y-67498325D01*
X46617997Y-67615695D01*
X46618000Y-67615699D01*
X46689570Y-67749598D01*
X46689570Y-67749599D01*
X46689571Y-67749601D01*
X46733647Y-67894897D01*
X46744800Y-68008138D01*
X46744800Y-68643862D01*
X46733647Y-68757103D01*
X46689571Y-68902399D01*
X46689570Y-68902402D01*
X46618000Y-69036301D01*
X46617998Y-69036303D01*
X46617997Y-69036305D01*
X46521675Y-69153675D01*
X46404305Y-69249997D01*
X46404301Y-69250000D01*
X46270402Y-69321570D01*
X46270399Y-69321571D01*
X46125103Y-69365647D01*
X45974000Y-69380529D01*
X45822898Y-69365647D01*
X45677602Y-69321571D01*
X45677599Y-69321570D01*
X45543700Y-69250000D01*
X45543696Y-69249997D01*
X45426326Y-69153675D01*
X45330004Y-69036305D01*
X45321816Y-69020987D01*
X45258429Y-68902400D01*
X45243737Y-68853967D01*
X45214353Y-68757103D01*
X45203200Y-68643862D01*
X45203200Y-68008139D01*
X45214353Y-67894898D01*
X45258429Y-67749602D01*
X45258430Y-67749599D01*
X45330002Y-67615697D01*
X45426323Y-67498328D01*
X45426325Y-67498325D01*
X45543695Y-67402003D01*
X45543696Y-67402002D01*
X45543699Y-67402000D01*
X45677598Y-67330430D01*
X45677601Y-67330429D01*
X45822897Y-67286353D01*
X45974000Y-67271471D01*
X46125102Y-67286353D01*
X46125102Y-67286353D01*
G37*
G36*
X51205102Y-67286353D02*
G01*
X51350398Y-67330429D01*
X51350401Y-67330430D01*
X51484303Y-67402002D01*
X51484305Y-67402003D01*
X51484304Y-67402003D01*
X51601675Y-67498325D01*
X51697997Y-67615695D01*
X51698000Y-67615699D01*
X51769570Y-67749598D01*
X51769570Y-67749599D01*
X51769571Y-67749601D01*
X51813647Y-67894897D01*
X51824800Y-68008138D01*
X51824800Y-68643862D01*
X51813647Y-68757103D01*
X51769571Y-68902399D01*
X51769570Y-68902402D01*
X51698000Y-69036301D01*
X51697998Y-69036303D01*
X51697997Y-69036305D01*
X51601675Y-69153675D01*
X51484305Y-69249997D01*
X51484301Y-69250000D01*
X51350402Y-69321570D01*
X51350399Y-69321571D01*
X51205103Y-69365647D01*
X51054000Y-69380529D01*
X50902898Y-69365647D01*
X50757602Y-69321571D01*
X50757599Y-69321570D01*
X50623700Y-69250000D01*
X50623696Y-69249997D01*
X50506326Y-69153675D01*
X50410004Y-69036305D01*
X50401816Y-69020987D01*
X50338429Y-68902400D01*
X50323737Y-68853967D01*
X50294353Y-68757103D01*
X50283200Y-68643862D01*
X50283200Y-68008139D01*
X50294353Y-67894898D01*
X50338429Y-67749602D01*
X50338430Y-67749599D01*
X50410002Y-67615697D01*
X50506323Y-67498328D01*
X50506325Y-67498325D01*
X50623695Y-67402003D01*
X50623696Y-67402002D01*
X50623699Y-67402000D01*
X50757598Y-67330430D01*
X50757601Y-67330429D01*
X50902897Y-67286353D01*
X51054000Y-67271471D01*
X51205102Y-67286353D01*
X51205102Y-67286353D01*
G37*
G36*
X53745102Y-67286353D02*
G01*
X53890398Y-67330429D01*
X53890401Y-67330430D01*
X54024303Y-67402002D01*
X54024305Y-67402003D01*
X54024304Y-67402003D01*
X54141675Y-67498325D01*
X54237997Y-67615695D01*
X54238000Y-67615699D01*
X54309570Y-67749598D01*
X54309570Y-67749599D01*
X54309571Y-67749601D01*
X54353647Y-67894897D01*
X54364800Y-68008138D01*
X54364800Y-68643862D01*
X54353647Y-68757103D01*
X54309571Y-68902399D01*
X54309570Y-68902402D01*
X54238000Y-69036301D01*
X54237998Y-69036303D01*
X54237997Y-69036305D01*
X54141675Y-69153675D01*
X54024305Y-69249997D01*
X54024301Y-69250000D01*
X53890402Y-69321570D01*
X53890399Y-69321571D01*
X53745103Y-69365647D01*
X53594000Y-69380529D01*
X53442898Y-69365647D01*
X53297602Y-69321571D01*
X53297599Y-69321570D01*
X53163700Y-69250000D01*
X53163696Y-69249997D01*
X53046326Y-69153675D01*
X52950004Y-69036305D01*
X52941816Y-69020987D01*
X52878429Y-68902400D01*
X52863737Y-68853967D01*
X52834353Y-68757103D01*
X52823200Y-68643862D01*
X52823200Y-68008139D01*
X52834353Y-67894898D01*
X52878429Y-67749602D01*
X52878430Y-67749599D01*
X52950002Y-67615697D01*
X53046323Y-67498328D01*
X53046325Y-67498325D01*
X53163695Y-67402003D01*
X53163696Y-67402002D01*
X53163699Y-67402000D01*
X53297598Y-67330430D01*
X53297601Y-67330429D01*
X53442897Y-67286353D01*
X53594000Y-67271471D01*
X53745102Y-67286353D01*
X53745102Y-67286353D01*
G37*
G36*
X41045102Y-67286353D02*
G01*
X41190398Y-67330429D01*
X41190401Y-67330430D01*
X41324303Y-67402002D01*
X41324305Y-67402003D01*
X41324304Y-67402003D01*
X41441675Y-67498325D01*
X41537997Y-67615695D01*
X41538000Y-67615699D01*
X41609570Y-67749598D01*
X41609570Y-67749599D01*
X41609571Y-67749601D01*
X41653647Y-67894897D01*
X41664800Y-68008138D01*
X41664800Y-68643862D01*
X41653647Y-68757103D01*
X41609571Y-68902399D01*
X41609570Y-68902402D01*
X41538000Y-69036301D01*
X41537998Y-69036303D01*
X41537997Y-69036305D01*
X41441675Y-69153675D01*
X41324305Y-69249997D01*
X41324301Y-69250000D01*
X41190402Y-69321570D01*
X41190399Y-69321571D01*
X41045103Y-69365647D01*
X40894000Y-69380529D01*
X40742898Y-69365647D01*
X40597602Y-69321571D01*
X40597599Y-69321570D01*
X40463700Y-69250000D01*
X40463696Y-69249997D01*
X40346326Y-69153675D01*
X40250004Y-69036305D01*
X40241816Y-69020987D01*
X40178429Y-68902400D01*
X40163737Y-68853967D01*
X40134353Y-68757103D01*
X40123200Y-68643862D01*
X40123200Y-68008139D01*
X40134353Y-67894898D01*
X40178429Y-67749602D01*
X40178430Y-67749599D01*
X40250002Y-67615697D01*
X40346323Y-67498328D01*
X40346325Y-67498325D01*
X40463695Y-67402003D01*
X40463696Y-67402002D01*
X40463699Y-67402000D01*
X40597598Y-67330430D01*
X40597601Y-67330429D01*
X40742897Y-67286353D01*
X40894000Y-67271471D01*
X41045102Y-67286353D01*
X41045102Y-67286353D01*
G37*
G36*
X58825102Y-67286353D02*
G01*
X58970398Y-67330429D01*
X58970401Y-67330430D01*
X59104303Y-67402002D01*
X59104305Y-67402003D01*
X59104304Y-67402003D01*
X59221675Y-67498325D01*
X59317997Y-67615695D01*
X59318000Y-67615699D01*
X59389570Y-67749598D01*
X59389570Y-67749599D01*
X59389571Y-67749601D01*
X59433647Y-67894897D01*
X59444800Y-68008138D01*
X59444800Y-68643862D01*
X59433647Y-68757103D01*
X59389571Y-68902399D01*
X59389570Y-68902402D01*
X59318000Y-69036301D01*
X59317998Y-69036303D01*
X59317997Y-69036305D01*
X59221675Y-69153675D01*
X59104305Y-69249997D01*
X59104301Y-69250000D01*
X58970402Y-69321570D01*
X58970399Y-69321571D01*
X58825103Y-69365647D01*
X58674000Y-69380529D01*
X58522898Y-69365647D01*
X58377602Y-69321571D01*
X58377599Y-69321570D01*
X58243700Y-69250000D01*
X58243696Y-69249997D01*
X58126326Y-69153675D01*
X58030004Y-69036305D01*
X58021816Y-69020987D01*
X57958429Y-68902400D01*
X57943737Y-68853967D01*
X57914353Y-68757103D01*
X57903200Y-68643862D01*
X57903200Y-68008139D01*
X57914353Y-67894898D01*
X57958429Y-67749602D01*
X57958430Y-67749599D01*
X58030002Y-67615697D01*
X58126323Y-67498328D01*
X58126325Y-67498325D01*
X58243695Y-67402003D01*
X58243696Y-67402002D01*
X58243699Y-67402000D01*
X58377598Y-67330430D01*
X58377601Y-67330429D01*
X58522897Y-67286353D01*
X58674000Y-67271471D01*
X58825102Y-67286353D01*
X58825102Y-67286353D01*
G37*
G36*
X61365102Y-67286353D02*
G01*
X61510398Y-67330429D01*
X61510401Y-67330430D01*
X61644303Y-67402002D01*
X61644305Y-67402003D01*
X61644304Y-67402003D01*
X61761675Y-67498325D01*
X61857997Y-67615695D01*
X61858000Y-67615699D01*
X61929570Y-67749598D01*
X61929570Y-67749599D01*
X61929571Y-67749601D01*
X61973647Y-67894897D01*
X61984800Y-68008138D01*
X61984800Y-68643862D01*
X61973647Y-68757103D01*
X61929571Y-68902399D01*
X61929570Y-68902402D01*
X61858000Y-69036301D01*
X61857998Y-69036303D01*
X61857997Y-69036305D01*
X61761675Y-69153675D01*
X61644305Y-69249997D01*
X61644301Y-69250000D01*
X61510402Y-69321570D01*
X61510399Y-69321571D01*
X61365103Y-69365647D01*
X61214000Y-69380529D01*
X61062898Y-69365647D01*
X60917602Y-69321571D01*
X60917599Y-69321570D01*
X60783700Y-69250000D01*
X60783696Y-69249997D01*
X60666326Y-69153675D01*
X60570004Y-69036305D01*
X60561816Y-69020987D01*
X60498429Y-68902400D01*
X60483737Y-68853967D01*
X60454353Y-68757103D01*
X60443200Y-68643862D01*
X60443200Y-68008139D01*
X60454353Y-67894898D01*
X60498429Y-67749602D01*
X60498430Y-67749599D01*
X60570002Y-67615697D01*
X60666323Y-67498328D01*
X60666325Y-67498325D01*
X60783695Y-67402003D01*
X60783696Y-67402002D01*
X60783699Y-67402000D01*
X60917598Y-67330430D01*
X60917601Y-67330429D01*
X61062897Y-67286353D01*
X61214000Y-67271471D01*
X61365102Y-67286353D01*
X61365102Y-67286353D01*
G37*
G36*
X66445102Y-67286353D02*
G01*
X66590398Y-67330429D01*
X66590401Y-67330430D01*
X66724303Y-67402002D01*
X66724305Y-67402003D01*
X66724304Y-67402003D01*
X66841675Y-67498325D01*
X66937997Y-67615695D01*
X66938000Y-67615699D01*
X67009570Y-67749598D01*
X67009570Y-67749599D01*
X67009571Y-67749601D01*
X67053647Y-67894897D01*
X67064800Y-68008138D01*
X67064800Y-68643862D01*
X67053647Y-68757103D01*
X67009571Y-68902399D01*
X67009570Y-68902402D01*
X66938000Y-69036301D01*
X66937998Y-69036303D01*
X66937997Y-69036305D01*
X66841675Y-69153675D01*
X66724305Y-69249997D01*
X66724301Y-69250000D01*
X66590402Y-69321570D01*
X66590399Y-69321571D01*
X66445103Y-69365647D01*
X66294000Y-69380529D01*
X66142898Y-69365647D01*
X65997602Y-69321571D01*
X65997599Y-69321570D01*
X65863700Y-69250000D01*
X65863696Y-69249997D01*
X65746326Y-69153675D01*
X65650004Y-69036305D01*
X65641816Y-69020987D01*
X65578429Y-68902400D01*
X65563737Y-68853967D01*
X65534353Y-68757103D01*
X65523200Y-68643862D01*
X65523200Y-68008139D01*
X65534353Y-67894898D01*
X65578429Y-67749602D01*
X65578430Y-67749599D01*
X65650002Y-67615697D01*
X65746323Y-67498328D01*
X65746325Y-67498325D01*
X65863695Y-67402003D01*
X65863696Y-67402002D01*
X65863699Y-67402000D01*
X65997598Y-67330430D01*
X65997601Y-67330429D01*
X66142897Y-67286353D01*
X66294000Y-67271471D01*
X66445102Y-67286353D01*
X66445102Y-67286353D01*
G37*
G36*
X48665102Y-67286353D02*
G01*
X48810398Y-67330429D01*
X48810401Y-67330430D01*
X48944303Y-67402002D01*
X48944305Y-67402003D01*
X48944304Y-67402003D01*
X49061675Y-67498325D01*
X49157997Y-67615695D01*
X49158000Y-67615699D01*
X49229570Y-67749598D01*
X49229570Y-67749599D01*
X49229571Y-67749601D01*
X49273647Y-67894897D01*
X49284800Y-68008138D01*
X49284800Y-68643862D01*
X49273647Y-68757103D01*
X49229571Y-68902399D01*
X49229570Y-68902402D01*
X49158000Y-69036301D01*
X49157998Y-69036303D01*
X49157997Y-69036305D01*
X49061675Y-69153675D01*
X48944305Y-69249997D01*
X48944301Y-69250000D01*
X48810402Y-69321570D01*
X48810399Y-69321571D01*
X48665103Y-69365647D01*
X48514000Y-69380529D01*
X48362898Y-69365647D01*
X48217602Y-69321571D01*
X48217599Y-69321570D01*
X48083700Y-69250000D01*
X48083696Y-69249997D01*
X47966326Y-69153675D01*
X47870004Y-69036305D01*
X47861816Y-69020987D01*
X47798429Y-68902400D01*
X47783737Y-68853967D01*
X47754353Y-68757103D01*
X47743200Y-68643862D01*
X47743200Y-68008139D01*
X47754353Y-67894898D01*
X47798429Y-67749602D01*
X47798430Y-67749599D01*
X47870002Y-67615697D01*
X47966323Y-67498328D01*
X47966325Y-67498325D01*
X48083695Y-67402003D01*
X48083696Y-67402002D01*
X48083699Y-67402000D01*
X48217598Y-67330430D01*
X48217601Y-67330429D01*
X48362897Y-67286353D01*
X48514000Y-67271471D01*
X48665102Y-67286353D01*
X48665102Y-67286353D01*
G37*
G36*
X56285102Y-67286353D02*
G01*
X56430398Y-67330429D01*
X56430401Y-67330430D01*
X56564303Y-67402002D01*
X56564305Y-67402003D01*
X56564304Y-67402003D01*
X56681675Y-67498325D01*
X56777997Y-67615695D01*
X56778000Y-67615699D01*
X56849570Y-67749598D01*
X56849570Y-67749599D01*
X56849571Y-67749601D01*
X56893647Y-67894897D01*
X56904800Y-68008138D01*
X56904800Y-68643862D01*
X56893647Y-68757103D01*
X56849571Y-68902399D01*
X56849570Y-68902402D01*
X56778000Y-69036301D01*
X56777998Y-69036303D01*
X56777997Y-69036305D01*
X56681675Y-69153675D01*
X56564305Y-69249997D01*
X56564301Y-69250000D01*
X56430402Y-69321570D01*
X56430399Y-69321571D01*
X56285103Y-69365647D01*
X56134000Y-69380529D01*
X55982898Y-69365647D01*
X55837602Y-69321571D01*
X55837599Y-69321570D01*
X55703700Y-69250000D01*
X55703696Y-69249997D01*
X55586326Y-69153675D01*
X55490004Y-69036305D01*
X55481816Y-69020987D01*
X55418429Y-68902400D01*
X55403737Y-68853967D01*
X55374353Y-68757103D01*
X55363200Y-68643862D01*
X55363200Y-68008139D01*
X55374353Y-67894898D01*
X55418429Y-67749602D01*
X55418430Y-67749599D01*
X55490002Y-67615697D01*
X55586323Y-67498328D01*
X55586325Y-67498325D01*
X55703695Y-67402003D01*
X55703696Y-67402002D01*
X55703699Y-67402000D01*
X55837598Y-67330430D01*
X55837601Y-67330429D01*
X55982897Y-67286353D01*
X56134000Y-67271471D01*
X56285102Y-67286353D01*
X56285102Y-67286353D01*
G37*
G36*
X31675506Y-60512581D02*
G01*
X31787528Y-60558982D01*
X31866740Y-60591793D01*
X32038846Y-60706791D01*
X32185209Y-60853154D01*
X32300207Y-61025260D01*
X32333018Y-61104472D01*
X32379419Y-61216494D01*
X32419800Y-61419504D01*
X32419800Y-61626496D01*
X32379419Y-61829506D01*
X32333018Y-61941528D01*
X32300207Y-62020740D01*
X32185209Y-62192846D01*
X32038846Y-62339209D01*
X31866740Y-62454207D01*
X31787528Y-62487018D01*
X31675506Y-62533419D01*
X31472496Y-62573800D01*
X31265504Y-62573800D01*
X31062494Y-62533419D01*
X30950472Y-62487018D01*
X30871260Y-62454207D01*
X30699154Y-62339209D01*
X30552791Y-62192846D01*
X30437793Y-62020740D01*
X30404982Y-61941528D01*
X30358581Y-61829506D01*
X30318200Y-61626496D01*
X30318200Y-61419504D01*
X30358581Y-61216494D01*
X30404982Y-61104472D01*
X30437793Y-61025260D01*
X30552791Y-60853154D01*
X30699154Y-60706791D01*
X30871260Y-60591793D01*
X30950472Y-60558982D01*
X31062494Y-60512581D01*
X31265504Y-60472200D01*
X31472496Y-60472200D01*
X31675506Y-60512581D01*
X31675506Y-60512581D01*
G37*
G36*
X38175506Y-60512581D02*
G01*
X38287528Y-60558982D01*
X38366740Y-60591793D01*
X38538846Y-60706791D01*
X38685209Y-60853154D01*
X38800207Y-61025260D01*
X38833018Y-61104472D01*
X38879419Y-61216494D01*
X38919800Y-61419504D01*
X38919800Y-61626496D01*
X38879419Y-61829506D01*
X38833018Y-61941528D01*
X38800207Y-62020740D01*
X38685209Y-62192846D01*
X38538846Y-62339209D01*
X38366740Y-62454207D01*
X38287528Y-62487018D01*
X38175506Y-62533419D01*
X37972496Y-62573800D01*
X37765504Y-62573800D01*
X37562494Y-62533419D01*
X37450472Y-62487018D01*
X37371260Y-62454207D01*
X37199154Y-62339209D01*
X37052791Y-62192846D01*
X36937793Y-62020740D01*
X36904982Y-61941528D01*
X36858581Y-61829506D01*
X36818200Y-61626496D01*
X36818200Y-61419504D01*
X36858581Y-61216494D01*
X36904982Y-61104472D01*
X36937793Y-61025260D01*
X37052791Y-60853154D01*
X37199154Y-60706791D01*
X37371260Y-60591793D01*
X37450472Y-60558982D01*
X37562494Y-60512581D01*
X37765504Y-60472200D01*
X37972496Y-60472200D01*
X38175506Y-60512581D01*
X38175506Y-60512581D01*
G37*
G36*
X73826787Y-59359510D02*
G01*
X73987162Y-59408160D01*
X74134965Y-59487162D01*
X74264517Y-59593483D01*
X74370838Y-59723035D01*
X74449840Y-59870838D01*
X74498490Y-60031213D01*
X74514916Y-60198000D01*
X74498490Y-60364787D01*
X74449840Y-60525162D01*
X74370838Y-60672965D01*
X74264517Y-60802517D01*
X74134965Y-60908838D01*
X73987162Y-60987840D01*
X73826787Y-61036490D01*
X73701794Y-61048800D01*
X73618206Y-61048800D01*
X73493213Y-61036490D01*
X73332838Y-60987840D01*
X73185035Y-60908838D01*
X73055483Y-60802517D01*
X72949162Y-60672965D01*
X72870160Y-60525162D01*
X72821510Y-60364787D01*
X72805084Y-60198000D01*
X72821510Y-60031213D01*
X72870160Y-59870838D01*
X72949162Y-59723035D01*
X73055483Y-59593483D01*
X73185035Y-59487162D01*
X73332838Y-59408160D01*
X73493213Y-59359510D01*
X73618206Y-59347200D01*
X73701794Y-59347200D01*
X73826787Y-59359510D01*
X73826787Y-59359510D01*
G37*
G36*
X68746787Y-59359510D02*
G01*
X68907162Y-59408160D01*
X69054965Y-59487162D01*
X69184517Y-59593483D01*
X69290838Y-59723035D01*
X69369840Y-59870838D01*
X69418490Y-60031213D01*
X69434916Y-60198000D01*
X69418490Y-60364787D01*
X69369840Y-60525162D01*
X69290838Y-60672965D01*
X69184517Y-60802517D01*
X69054965Y-60908838D01*
X68907162Y-60987840D01*
X68746787Y-61036490D01*
X68621794Y-61048800D01*
X68538206Y-61048800D01*
X68413213Y-61036490D01*
X68252838Y-60987840D01*
X68105035Y-60908838D01*
X67975483Y-60802517D01*
X67869162Y-60672965D01*
X67790160Y-60525162D01*
X67741510Y-60364787D01*
X67725084Y-60198000D01*
X67741510Y-60031213D01*
X67790160Y-59870838D01*
X67869162Y-59723035D01*
X67975483Y-59593483D01*
X68105035Y-59487162D01*
X68252838Y-59408160D01*
X68413213Y-59359510D01*
X68538206Y-59347200D01*
X68621794Y-59347200D01*
X68746787Y-59359510D01*
X68746787Y-59359510D01*
G37*
G36*
X66206787Y-59359510D02*
G01*
X66367162Y-59408160D01*
X66514965Y-59487162D01*
X66644517Y-59593483D01*
X66750838Y-59723035D01*
X66829840Y-59870838D01*
X66878490Y-60031213D01*
X66894916Y-60198000D01*
X66878490Y-60364787D01*
X66829840Y-60525162D01*
X66750838Y-60672965D01*
X66644517Y-60802517D01*
X66514965Y-60908838D01*
X66367162Y-60987840D01*
X66206787Y-61036490D01*
X66081794Y-61048800D01*
X65998206Y-61048800D01*
X65873213Y-61036490D01*
X65712838Y-60987840D01*
X65565035Y-60908838D01*
X65435483Y-60802517D01*
X65329162Y-60672965D01*
X65250160Y-60525162D01*
X65201510Y-60364787D01*
X65185084Y-60198000D01*
X65201510Y-60031213D01*
X65250160Y-59870838D01*
X65329162Y-59723035D01*
X65435483Y-59593483D01*
X65565035Y-59487162D01*
X65712838Y-59408160D01*
X65873213Y-59359510D01*
X65998206Y-59347200D01*
X66081794Y-59347200D01*
X66206787Y-59359510D01*
X66206787Y-59359510D01*
G37*
G36*
X63666787Y-59359510D02*
G01*
X63827162Y-59408160D01*
X63974965Y-59487162D01*
X64104517Y-59593483D01*
X64210838Y-59723035D01*
X64289840Y-59870838D01*
X64338490Y-60031213D01*
X64354916Y-60198000D01*
X64338490Y-60364787D01*
X64289840Y-60525162D01*
X64210838Y-60672965D01*
X64104517Y-60802517D01*
X63974965Y-60908838D01*
X63827162Y-60987840D01*
X63666787Y-61036490D01*
X63541794Y-61048800D01*
X63458206Y-61048800D01*
X63333213Y-61036490D01*
X63172838Y-60987840D01*
X63025035Y-60908838D01*
X62895483Y-60802517D01*
X62789162Y-60672965D01*
X62710160Y-60525162D01*
X62661510Y-60364787D01*
X62645084Y-60198000D01*
X62661510Y-60031213D01*
X62710160Y-59870838D01*
X62789162Y-59723035D01*
X62895483Y-59593483D01*
X63025035Y-59487162D01*
X63172838Y-59408160D01*
X63333213Y-59359510D01*
X63458206Y-59347200D01*
X63541794Y-59347200D01*
X63666787Y-59359510D01*
X63666787Y-59359510D01*
G37*
G36*
X58586787Y-59359510D02*
G01*
X58747162Y-59408160D01*
X58894965Y-59487162D01*
X59024517Y-59593483D01*
X59130838Y-59723035D01*
X59209840Y-59870838D01*
X59258490Y-60031213D01*
X59274916Y-60198000D01*
X59258490Y-60364787D01*
X59209840Y-60525162D01*
X59130838Y-60672965D01*
X59024517Y-60802517D01*
X58894965Y-60908838D01*
X58747162Y-60987840D01*
X58586787Y-61036490D01*
X58461794Y-61048800D01*
X58378206Y-61048800D01*
X58253213Y-61036490D01*
X58092838Y-60987840D01*
X57945035Y-60908838D01*
X57815483Y-60802517D01*
X57709162Y-60672965D01*
X57630160Y-60525162D01*
X57581510Y-60364787D01*
X57565084Y-60198000D01*
X57581510Y-60031213D01*
X57630160Y-59870838D01*
X57709162Y-59723035D01*
X57815483Y-59593483D01*
X57945035Y-59487162D01*
X58092838Y-59408160D01*
X58253213Y-59359510D01*
X58378206Y-59347200D01*
X58461794Y-59347200D01*
X58586787Y-59359510D01*
X58586787Y-59359510D01*
G37*
G36*
X56046787Y-59359510D02*
G01*
X56207162Y-59408160D01*
X56354965Y-59487162D01*
X56484517Y-59593483D01*
X56590838Y-59723035D01*
X56669840Y-59870838D01*
X56718490Y-60031213D01*
X56734916Y-60198000D01*
X56718490Y-60364787D01*
X56669840Y-60525162D01*
X56590838Y-60672965D01*
X56484517Y-60802517D01*
X56354965Y-60908838D01*
X56207162Y-60987840D01*
X56046787Y-61036490D01*
X55921794Y-61048800D01*
X55838206Y-61048800D01*
X55713213Y-61036490D01*
X55552838Y-60987840D01*
X55405035Y-60908838D01*
X55275483Y-60802517D01*
X55169162Y-60672965D01*
X55090160Y-60525162D01*
X55041510Y-60364787D01*
X55025084Y-60198000D01*
X55041510Y-60031213D01*
X55090160Y-59870838D01*
X55169162Y-59723035D01*
X55275483Y-59593483D01*
X55405035Y-59487162D01*
X55552838Y-59408160D01*
X55713213Y-59359510D01*
X55838206Y-59347200D01*
X55921794Y-59347200D01*
X56046787Y-59359510D01*
X56046787Y-59359510D01*
G37*
G36*
X54190800Y-61048800D02*
G01*
X52489200Y-61048800D01*
X52489200Y-59347200D01*
X54190800Y-59347200D01*
X54190800Y-61048800D01*
X54190800Y-61048800D01*
G37*
G36*
X71286787Y-59359510D02*
G01*
X71447162Y-59408160D01*
X71594965Y-59487162D01*
X71724517Y-59593483D01*
X71830838Y-59723035D01*
X71909840Y-59870838D01*
X71958490Y-60031213D01*
X71974916Y-60198000D01*
X71958490Y-60364787D01*
X71909840Y-60525162D01*
X71830838Y-60672965D01*
X71724517Y-60802517D01*
X71594965Y-60908838D01*
X71447162Y-60987840D01*
X71286787Y-61036490D01*
X71161794Y-61048800D01*
X71078206Y-61048800D01*
X70953213Y-61036490D01*
X70792838Y-60987840D01*
X70645035Y-60908838D01*
X70515483Y-60802517D01*
X70409162Y-60672965D01*
X70330160Y-60525162D01*
X70281510Y-60364787D01*
X70265084Y-60198000D01*
X70281510Y-60031213D01*
X70330160Y-59870838D01*
X70409162Y-59723035D01*
X70515483Y-59593483D01*
X70645035Y-59487162D01*
X70792838Y-59408160D01*
X70953213Y-59359510D01*
X71078206Y-59347200D01*
X71161794Y-59347200D01*
X71286787Y-59359510D01*
X71286787Y-59359510D01*
G37*
G36*
X61126787Y-59359510D02*
G01*
X61287162Y-59408160D01*
X61434965Y-59487162D01*
X61564517Y-59593483D01*
X61670838Y-59723035D01*
X61749840Y-59870838D01*
X61798490Y-60031213D01*
X61814916Y-60198000D01*
X61798490Y-60364787D01*
X61749840Y-60525162D01*
X61670838Y-60672965D01*
X61564517Y-60802517D01*
X61434965Y-60908838D01*
X61287162Y-60987840D01*
X61126787Y-61036490D01*
X61001794Y-61048800D01*
X60918206Y-61048800D01*
X60793213Y-61036490D01*
X60632838Y-60987840D01*
X60485035Y-60908838D01*
X60355483Y-60802517D01*
X60249162Y-60672965D01*
X60170160Y-60525162D01*
X60121510Y-60364787D01*
X60105084Y-60198000D01*
X60121510Y-60031213D01*
X60170160Y-59870838D01*
X60249162Y-59723035D01*
X60355483Y-59593483D01*
X60485035Y-59487162D01*
X60632838Y-59408160D01*
X60793213Y-59359510D01*
X60918206Y-59347200D01*
X61001794Y-59347200D01*
X61126787Y-59359510D01*
X61126787Y-59359510D01*
G37*
G36*
X38175506Y-56012581D02*
G01*
X38287528Y-56058982D01*
X38366740Y-56091793D01*
X38538846Y-56206791D01*
X38685209Y-56353154D01*
X38800207Y-56525260D01*
X38800207Y-56525261D01*
X38879419Y-56716494D01*
X38919800Y-56919504D01*
X38919800Y-57126496D01*
X38879419Y-57329506D01*
X38833018Y-57441528D01*
X38800207Y-57520740D01*
X38685209Y-57692846D01*
X38538846Y-57839209D01*
X38366740Y-57954207D01*
X38287528Y-57987018D01*
X38175506Y-58033419D01*
X37972496Y-58073800D01*
X37765504Y-58073800D01*
X37562494Y-58033419D01*
X37450472Y-57987018D01*
X37371260Y-57954207D01*
X37199154Y-57839209D01*
X37052791Y-57692846D01*
X36937793Y-57520740D01*
X36904982Y-57441528D01*
X36858581Y-57329506D01*
X36818200Y-57126496D01*
X36818200Y-56919504D01*
X36858581Y-56716494D01*
X36937793Y-56525261D01*
X36937793Y-56525260D01*
X37052791Y-56353154D01*
X37199154Y-56206791D01*
X37371260Y-56091793D01*
X37450472Y-56058982D01*
X37562494Y-56012581D01*
X37765504Y-55972200D01*
X37972496Y-55972200D01*
X38175506Y-56012581D01*
X38175506Y-56012581D01*
G37*
G36*
X31675506Y-56012581D02*
G01*
X31787528Y-56058982D01*
X31866740Y-56091793D01*
X32038846Y-56206791D01*
X32185209Y-56353154D01*
X32300207Y-56525260D01*
X32300207Y-56525261D01*
X32379419Y-56716494D01*
X32419800Y-56919504D01*
X32419800Y-57126496D01*
X32379419Y-57329506D01*
X32333018Y-57441528D01*
X32300207Y-57520740D01*
X32185209Y-57692846D01*
X32038846Y-57839209D01*
X31866740Y-57954207D01*
X31787528Y-57987018D01*
X31675506Y-58033419D01*
X31472496Y-58073800D01*
X31265504Y-58073800D01*
X31062494Y-58033419D01*
X30950472Y-57987018D01*
X30871260Y-57954207D01*
X30699154Y-57839209D01*
X30552791Y-57692846D01*
X30437793Y-57520740D01*
X30404982Y-57441528D01*
X30358581Y-57329506D01*
X30318200Y-57126496D01*
X30318200Y-56919504D01*
X30358581Y-56716494D01*
X30437793Y-56525261D01*
X30437793Y-56525260D01*
X30552791Y-56353154D01*
X30699154Y-56206791D01*
X30871260Y-56091793D01*
X30950472Y-56058982D01*
X31062494Y-56012581D01*
X31265504Y-55972200D01*
X31472496Y-55972200D01*
X31675506Y-56012581D01*
X31675506Y-56012581D01*
G37*
G36*
X67603787Y-54279510D02*
G01*
X67764162Y-54328160D01*
X67911965Y-54407162D01*
X68041517Y-54513483D01*
X68147838Y-54643035D01*
X68226840Y-54790838D01*
X68275490Y-54951213D01*
X68291916Y-55118000D01*
X68275490Y-55284787D01*
X68226840Y-55445162D01*
X68147838Y-55592965D01*
X68041517Y-55722517D01*
X67911965Y-55828838D01*
X67764162Y-55907840D01*
X67603787Y-55956490D01*
X67478794Y-55968800D01*
X67395206Y-55968800D01*
X67270213Y-55956490D01*
X67109838Y-55907840D01*
X66962035Y-55828838D01*
X66832483Y-55722517D01*
X66726162Y-55592965D01*
X66647160Y-55445162D01*
X66598510Y-55284787D01*
X66582084Y-55118000D01*
X66598510Y-54951213D01*
X66647160Y-54790838D01*
X66726162Y-54643035D01*
X66832483Y-54513483D01*
X66962035Y-54407162D01*
X67109838Y-54328160D01*
X67270213Y-54279510D01*
X67395206Y-54267200D01*
X67478794Y-54267200D01*
X67603787Y-54279510D01*
X67603787Y-54279510D01*
G37*
G36*
X54903787Y-54279510D02*
G01*
X55064162Y-54328160D01*
X55211965Y-54407162D01*
X55341517Y-54513483D01*
X55447838Y-54643035D01*
X55526840Y-54790838D01*
X55575490Y-54951213D01*
X55591916Y-55118000D01*
X55575490Y-55284787D01*
X55526840Y-55445162D01*
X55447838Y-55592965D01*
X55341517Y-55722517D01*
X55211965Y-55828838D01*
X55064162Y-55907840D01*
X54903787Y-55956490D01*
X54778794Y-55968800D01*
X54695206Y-55968800D01*
X54570213Y-55956490D01*
X54409838Y-55907840D01*
X54262035Y-55828838D01*
X54132483Y-55722517D01*
X54026162Y-55592965D01*
X53947160Y-55445162D01*
X53898510Y-55284787D01*
X53882084Y-55118000D01*
X53898510Y-54951213D01*
X53947160Y-54790838D01*
X54026162Y-54643035D01*
X54132483Y-54513483D01*
X54262035Y-54407162D01*
X54409838Y-54328160D01*
X54570213Y-54279510D01*
X54695206Y-54267200D01*
X54778794Y-54267200D01*
X54903787Y-54279510D01*
X54903787Y-54279510D01*
G37*
G36*
X59983787Y-54279510D02*
G01*
X60144162Y-54328160D01*
X60291965Y-54407162D01*
X60421517Y-54513483D01*
X60527838Y-54643035D01*
X60606840Y-54790838D01*
X60655490Y-54951213D01*
X60671916Y-55118000D01*
X60655490Y-55284787D01*
X60606840Y-55445162D01*
X60527838Y-55592965D01*
X60421517Y-55722517D01*
X60291965Y-55828838D01*
X60144162Y-55907840D01*
X59983787Y-55956490D01*
X59858794Y-55968800D01*
X59775206Y-55968800D01*
X59650213Y-55956490D01*
X59489838Y-55907840D01*
X59342035Y-55828838D01*
X59212483Y-55722517D01*
X59106162Y-55592965D01*
X59027160Y-55445162D01*
X58978510Y-55284787D01*
X58962084Y-55118000D01*
X58978510Y-54951213D01*
X59027160Y-54790838D01*
X59106162Y-54643035D01*
X59212483Y-54513483D01*
X59342035Y-54407162D01*
X59489838Y-54328160D01*
X59650213Y-54279510D01*
X59775206Y-54267200D01*
X59858794Y-54267200D01*
X59983787Y-54279510D01*
X59983787Y-54279510D01*
G37*
G36*
X62523787Y-54279510D02*
G01*
X62684162Y-54328160D01*
X62831965Y-54407162D01*
X62961517Y-54513483D01*
X63067838Y-54643035D01*
X63146840Y-54790838D01*
X63195490Y-54951213D01*
X63211916Y-55118000D01*
X63195490Y-55284787D01*
X63146840Y-55445162D01*
X63067838Y-55592965D01*
X62961517Y-55722517D01*
X62831965Y-55828838D01*
X62684162Y-55907840D01*
X62523787Y-55956490D01*
X62398794Y-55968800D01*
X62315206Y-55968800D01*
X62190213Y-55956490D01*
X62029838Y-55907840D01*
X61882035Y-55828838D01*
X61752483Y-55722517D01*
X61646162Y-55592965D01*
X61567160Y-55445162D01*
X61518510Y-55284787D01*
X61502084Y-55118000D01*
X61518510Y-54951213D01*
X61567160Y-54790838D01*
X61646162Y-54643035D01*
X61752483Y-54513483D01*
X61882035Y-54407162D01*
X62029838Y-54328160D01*
X62190213Y-54279510D01*
X62315206Y-54267200D01*
X62398794Y-54267200D01*
X62523787Y-54279510D01*
X62523787Y-54279510D01*
G37*
G36*
X65063787Y-54279510D02*
G01*
X65224162Y-54328160D01*
X65371965Y-54407162D01*
X65501517Y-54513483D01*
X65607838Y-54643035D01*
X65686840Y-54790838D01*
X65735490Y-54951213D01*
X65751916Y-55118000D01*
X65735490Y-55284787D01*
X65686840Y-55445162D01*
X65607838Y-55592965D01*
X65501517Y-55722517D01*
X65371965Y-55828838D01*
X65224162Y-55907840D01*
X65063787Y-55956490D01*
X64938794Y-55968800D01*
X64855206Y-55968800D01*
X64730213Y-55956490D01*
X64569838Y-55907840D01*
X64422035Y-55828838D01*
X64292483Y-55722517D01*
X64186162Y-55592965D01*
X64107160Y-55445162D01*
X64058510Y-55284787D01*
X64042084Y-55118000D01*
X64058510Y-54951213D01*
X64107160Y-54790838D01*
X64186162Y-54643035D01*
X64292483Y-54513483D01*
X64422035Y-54407162D01*
X64569838Y-54328160D01*
X64730213Y-54279510D01*
X64855206Y-54267200D01*
X64938794Y-54267200D01*
X65063787Y-54279510D01*
X65063787Y-54279510D01*
G37*
G36*
X70143787Y-54279510D02*
G01*
X70304162Y-54328160D01*
X70451965Y-54407162D01*
X70581517Y-54513483D01*
X70687838Y-54643035D01*
X70766840Y-54790838D01*
X70815490Y-54951213D01*
X70831916Y-55118000D01*
X70815490Y-55284787D01*
X70766840Y-55445162D01*
X70687838Y-55592965D01*
X70581517Y-55722517D01*
X70451965Y-55828838D01*
X70304162Y-55907840D01*
X70143787Y-55956490D01*
X70018794Y-55968800D01*
X69935206Y-55968800D01*
X69810213Y-55956490D01*
X69649838Y-55907840D01*
X69502035Y-55828838D01*
X69372483Y-55722517D01*
X69266162Y-55592965D01*
X69187160Y-55445162D01*
X69138510Y-55284787D01*
X69122084Y-55118000D01*
X69138510Y-54951213D01*
X69187160Y-54790838D01*
X69266162Y-54643035D01*
X69372483Y-54513483D01*
X69502035Y-54407162D01*
X69649838Y-54328160D01*
X69810213Y-54279510D01*
X69935206Y-54267200D01*
X70018794Y-54267200D01*
X70143787Y-54279510D01*
X70143787Y-54279510D01*
G37*
G36*
X72683787Y-54279510D02*
G01*
X72844162Y-54328160D01*
X72991965Y-54407162D01*
X73121517Y-54513483D01*
X73227838Y-54643035D01*
X73306840Y-54790838D01*
X73355490Y-54951213D01*
X73371916Y-55118000D01*
X73355490Y-55284787D01*
X73306840Y-55445162D01*
X73227838Y-55592965D01*
X73121517Y-55722517D01*
X72991965Y-55828838D01*
X72844162Y-55907840D01*
X72683787Y-55956490D01*
X72558794Y-55968800D01*
X72475206Y-55968800D01*
X72350213Y-55956490D01*
X72189838Y-55907840D01*
X72042035Y-55828838D01*
X71912483Y-55722517D01*
X71806162Y-55592965D01*
X71727160Y-55445162D01*
X71678510Y-55284787D01*
X71662084Y-55118000D01*
X71678510Y-54951213D01*
X71727160Y-54790838D01*
X71806162Y-54643035D01*
X71912483Y-54513483D01*
X72042035Y-54407162D01*
X72189838Y-54328160D01*
X72350213Y-54279510D01*
X72475206Y-54267200D01*
X72558794Y-54267200D01*
X72683787Y-54279510D01*
X72683787Y-54279510D01*
G37*
G36*
X57443787Y-54279510D02*
G01*
X57604162Y-54328160D01*
X57751965Y-54407162D01*
X57881517Y-54513483D01*
X57987838Y-54643035D01*
X58066840Y-54790838D01*
X58115490Y-54951213D01*
X58131916Y-55118000D01*
X58115490Y-55284787D01*
X58066840Y-55445162D01*
X57987838Y-55592965D01*
X57881517Y-55722517D01*
X57751965Y-55828838D01*
X57604162Y-55907840D01*
X57443787Y-55956490D01*
X57318794Y-55968800D01*
X57235206Y-55968800D01*
X57110213Y-55956490D01*
X56949838Y-55907840D01*
X56802035Y-55828838D01*
X56672483Y-55722517D01*
X56566162Y-55592965D01*
X56487160Y-55445162D01*
X56438510Y-55284787D01*
X56422084Y-55118000D01*
X56438510Y-54951213D01*
X56487160Y-54790838D01*
X56566162Y-54643035D01*
X56672483Y-54513483D01*
X56802035Y-54407162D01*
X56949838Y-54328160D01*
X57110213Y-54279510D01*
X57235206Y-54267200D01*
X57318794Y-54267200D01*
X57443787Y-54279510D01*
X57443787Y-54279510D01*
G37*
G36*
X32256611Y-45713065D02*
G01*
X32456352Y-45752796D01*
X32738579Y-45869699D01*
X32992578Y-46039415D01*
X33208585Y-46255422D01*
X33378301Y-46509421D01*
X33495204Y-46791648D01*
X33495204Y-46791650D01*
X33541230Y-47023035D01*
X33554800Y-47091259D01*
X33554800Y-47396741D01*
X33495204Y-47696352D01*
X33378301Y-47978579D01*
X33208585Y-48232578D01*
X32992578Y-48448585D01*
X32738579Y-48618301D01*
X32456352Y-48735204D01*
X32256611Y-48774935D01*
X32156742Y-48794800D01*
X31851258Y-48794800D01*
X31751389Y-48774935D01*
X31551648Y-48735204D01*
X31269421Y-48618301D01*
X31015422Y-48448585D01*
X30799415Y-48232578D01*
X30629699Y-47978579D01*
X30512796Y-47696352D01*
X30453200Y-47396741D01*
X30453200Y-47091259D01*
X30466771Y-47023035D01*
X30512796Y-46791650D01*
X30512796Y-46791648D01*
X30629699Y-46509421D01*
X30799415Y-46255422D01*
X31015422Y-46039415D01*
X31269421Y-45869699D01*
X31551648Y-45752796D01*
X31751389Y-45713065D01*
X31851258Y-45693200D01*
X32156742Y-45693200D01*
X32256611Y-45713065D01*
X32256611Y-45713065D01*
G37*
G36*
X62523787Y-46659510D02*
G01*
X62684162Y-46708160D01*
X62831965Y-46787162D01*
X62961517Y-46893483D01*
X63067838Y-47023035D01*
X63146840Y-47170838D01*
X63195490Y-47331213D01*
X63211916Y-47498000D01*
X63195490Y-47664787D01*
X63146840Y-47825162D01*
X63067838Y-47972965D01*
X62961517Y-48102517D01*
X62831965Y-48208838D01*
X62684162Y-48287840D01*
X62523787Y-48336490D01*
X62398794Y-48348800D01*
X62315206Y-48348800D01*
X62190213Y-48336490D01*
X62029838Y-48287840D01*
X61882035Y-48208838D01*
X61752483Y-48102517D01*
X61646162Y-47972965D01*
X61567160Y-47825162D01*
X61518510Y-47664787D01*
X61502084Y-47498000D01*
X61518510Y-47331213D01*
X61567160Y-47170838D01*
X61646162Y-47023035D01*
X61752483Y-46893483D01*
X61882035Y-46787162D01*
X62029838Y-46708160D01*
X62190213Y-46659510D01*
X62315206Y-46647200D01*
X62398794Y-46647200D01*
X62523787Y-46659510D01*
X62523787Y-46659510D01*
G37*
G36*
X54903787Y-46659510D02*
G01*
X55064162Y-46708160D01*
X55211965Y-46787162D01*
X55341517Y-46893483D01*
X55447838Y-47023035D01*
X55526840Y-47170838D01*
X55575490Y-47331213D01*
X55591916Y-47498000D01*
X55575490Y-47664787D01*
X55526840Y-47825162D01*
X55447838Y-47972965D01*
X55341517Y-48102517D01*
X55211965Y-48208838D01*
X55064162Y-48287840D01*
X54903787Y-48336490D01*
X54778794Y-48348800D01*
X54695206Y-48348800D01*
X54570213Y-48336490D01*
X54409838Y-48287840D01*
X54262035Y-48208838D01*
X54132483Y-48102517D01*
X54026162Y-47972965D01*
X53947160Y-47825162D01*
X53898510Y-47664787D01*
X53882084Y-47498000D01*
X53898510Y-47331213D01*
X53947160Y-47170838D01*
X54026162Y-47023035D01*
X54132483Y-46893483D01*
X54262035Y-46787162D01*
X54409838Y-46708160D01*
X54570213Y-46659510D01*
X54695206Y-46647200D01*
X54778794Y-46647200D01*
X54903787Y-46659510D01*
X54903787Y-46659510D01*
G37*
G36*
X70143787Y-46659510D02*
G01*
X70304162Y-46708160D01*
X70451965Y-46787162D01*
X70581517Y-46893483D01*
X70687838Y-47023035D01*
X70766840Y-47170838D01*
X70815490Y-47331213D01*
X70831916Y-47498000D01*
X70815490Y-47664787D01*
X70766840Y-47825162D01*
X70687838Y-47972965D01*
X70581517Y-48102517D01*
X70451965Y-48208838D01*
X70304162Y-48287840D01*
X70143787Y-48336490D01*
X70018794Y-48348800D01*
X69935206Y-48348800D01*
X69810213Y-48336490D01*
X69649838Y-48287840D01*
X69502035Y-48208838D01*
X69372483Y-48102517D01*
X69266162Y-47972965D01*
X69187160Y-47825162D01*
X69138510Y-47664787D01*
X69122084Y-47498000D01*
X69138510Y-47331213D01*
X69187160Y-47170838D01*
X69266162Y-47023035D01*
X69372483Y-46893483D01*
X69502035Y-46787162D01*
X69649838Y-46708160D01*
X69810213Y-46659510D01*
X69935206Y-46647200D01*
X70018794Y-46647200D01*
X70143787Y-46659510D01*
X70143787Y-46659510D01*
G37*
G36*
X67603787Y-46659510D02*
G01*
X67764162Y-46708160D01*
X67911965Y-46787162D01*
X68041517Y-46893483D01*
X68147838Y-47023035D01*
X68226840Y-47170838D01*
X68275490Y-47331213D01*
X68291916Y-47498000D01*
X68275490Y-47664787D01*
X68226840Y-47825162D01*
X68147838Y-47972965D01*
X68041517Y-48102517D01*
X67911965Y-48208838D01*
X67764162Y-48287840D01*
X67603787Y-48336490D01*
X67478794Y-48348800D01*
X67395206Y-48348800D01*
X67270213Y-48336490D01*
X67109838Y-48287840D01*
X66962035Y-48208838D01*
X66832483Y-48102517D01*
X66726162Y-47972965D01*
X66647160Y-47825162D01*
X66598510Y-47664787D01*
X66582084Y-47498000D01*
X66598510Y-47331213D01*
X66647160Y-47170838D01*
X66726162Y-47023035D01*
X66832483Y-46893483D01*
X66962035Y-46787162D01*
X67109838Y-46708160D01*
X67270213Y-46659510D01*
X67395206Y-46647200D01*
X67478794Y-46647200D01*
X67603787Y-46659510D01*
X67603787Y-46659510D01*
G37*
G36*
X59983787Y-46659510D02*
G01*
X60144162Y-46708160D01*
X60291965Y-46787162D01*
X60421517Y-46893483D01*
X60527838Y-47023035D01*
X60606840Y-47170838D01*
X60655490Y-47331213D01*
X60671916Y-47498000D01*
X60655490Y-47664787D01*
X60606840Y-47825162D01*
X60527838Y-47972965D01*
X60421517Y-48102517D01*
X60291965Y-48208838D01*
X60144162Y-48287840D01*
X59983787Y-48336490D01*
X59858794Y-48348800D01*
X59775206Y-48348800D01*
X59650213Y-48336490D01*
X59489838Y-48287840D01*
X59342035Y-48208838D01*
X59212483Y-48102517D01*
X59106162Y-47972965D01*
X59027160Y-47825162D01*
X58978510Y-47664787D01*
X58962084Y-47498000D01*
X58978510Y-47331213D01*
X59027160Y-47170838D01*
X59106162Y-47023035D01*
X59212483Y-46893483D01*
X59342035Y-46787162D01*
X59489838Y-46708160D01*
X59650213Y-46659510D01*
X59775206Y-46647200D01*
X59858794Y-46647200D01*
X59983787Y-46659510D01*
X59983787Y-46659510D01*
G37*
G36*
X73367800Y-48348800D02*
G01*
X71666200Y-48348800D01*
X71666200Y-46647200D01*
X73367800Y-46647200D01*
X73367800Y-48348800D01*
X73367800Y-48348800D01*
G37*
G36*
X65063787Y-46659510D02*
G01*
X65224162Y-46708160D01*
X65371965Y-46787162D01*
X65501517Y-46893483D01*
X65607838Y-47023035D01*
X65686840Y-47170838D01*
X65735490Y-47331213D01*
X65751916Y-47498000D01*
X65735490Y-47664787D01*
X65686840Y-47825162D01*
X65607838Y-47972965D01*
X65501517Y-48102517D01*
X65371965Y-48208838D01*
X65224162Y-48287840D01*
X65063787Y-48336490D01*
X64938794Y-48348800D01*
X64855206Y-48348800D01*
X64730213Y-48336490D01*
X64569838Y-48287840D01*
X64422035Y-48208838D01*
X64292483Y-48102517D01*
X64186162Y-47972965D01*
X64107160Y-47825162D01*
X64058510Y-47664787D01*
X64042084Y-47498000D01*
X64058510Y-47331213D01*
X64107160Y-47170838D01*
X64186162Y-47023035D01*
X64292483Y-46893483D01*
X64422035Y-46787162D01*
X64569838Y-46708160D01*
X64730213Y-46659510D01*
X64855206Y-46647200D01*
X64938794Y-46647200D01*
X65063787Y-46659510D01*
X65063787Y-46659510D01*
G37*
G36*
X57443787Y-46659510D02*
G01*
X57604162Y-46708160D01*
X57751965Y-46787162D01*
X57881517Y-46893483D01*
X57987838Y-47023035D01*
X58066840Y-47170838D01*
X58115490Y-47331213D01*
X58131916Y-47498000D01*
X58115490Y-47664787D01*
X58066840Y-47825162D01*
X57987838Y-47972965D01*
X57881517Y-48102517D01*
X57751965Y-48208838D01*
X57604162Y-48287840D01*
X57443787Y-48336490D01*
X57318794Y-48348800D01*
X57235206Y-48348800D01*
X57110213Y-48336490D01*
X56949838Y-48287840D01*
X56802035Y-48208838D01*
X56672483Y-48102517D01*
X56566162Y-47972965D01*
X56487160Y-47825162D01*
X56438510Y-47664787D01*
X56422084Y-47498000D01*
X56438510Y-47331213D01*
X56487160Y-47170838D01*
X56566162Y-47023035D01*
X56672483Y-46893483D01*
X56802035Y-46787162D01*
X56949838Y-46708160D01*
X57110213Y-46659510D01*
X57235206Y-46647200D01*
X57318794Y-46647200D01*
X57443787Y-46659510D01*
X57443787Y-46659510D01*
G37*
G36*
X74764800Y-44919800D02*
G01*
X73063200Y-44919800D01*
X73063200Y-43218200D01*
X74764800Y-43218200D01*
X74764800Y-44919800D01*
X74764800Y-44919800D01*
G37*
G36*
X53760787Y-43230510D02*
G01*
X53921162Y-43279160D01*
X54068965Y-43358162D01*
X54198517Y-43464483D01*
X54304838Y-43594035D01*
X54383840Y-43741838D01*
X54432490Y-43902213D01*
X54448916Y-44069000D01*
X54432490Y-44235787D01*
X54383840Y-44396162D01*
X54304838Y-44543965D01*
X54198517Y-44673517D01*
X54068965Y-44779838D01*
X53921162Y-44858840D01*
X53760787Y-44907490D01*
X53635794Y-44919800D01*
X53552206Y-44919800D01*
X53427213Y-44907490D01*
X53266838Y-44858840D01*
X53119035Y-44779838D01*
X52989483Y-44673517D01*
X52883162Y-44543965D01*
X52804160Y-44396162D01*
X52755510Y-44235787D01*
X52739084Y-44069000D01*
X52755510Y-43902213D01*
X52804160Y-43741838D01*
X52883162Y-43594035D01*
X52989483Y-43464483D01*
X53119035Y-43358162D01*
X53266838Y-43279160D01*
X53427213Y-43230510D01*
X53552206Y-43218200D01*
X53635794Y-43218200D01*
X53760787Y-43230510D01*
X53760787Y-43230510D01*
G37*
G36*
X56300787Y-43230510D02*
G01*
X56461162Y-43279160D01*
X56608965Y-43358162D01*
X56738517Y-43464483D01*
X56844838Y-43594035D01*
X56923840Y-43741838D01*
X56972490Y-43902213D01*
X56988916Y-44069000D01*
X56972490Y-44235787D01*
X56923840Y-44396162D01*
X56844838Y-44543965D01*
X56738517Y-44673517D01*
X56608965Y-44779838D01*
X56461162Y-44858840D01*
X56300787Y-44907490D01*
X56175794Y-44919800D01*
X56092206Y-44919800D01*
X55967213Y-44907490D01*
X55806838Y-44858840D01*
X55659035Y-44779838D01*
X55529483Y-44673517D01*
X55423162Y-44543965D01*
X55344160Y-44396162D01*
X55295510Y-44235787D01*
X55279084Y-44069000D01*
X55295510Y-43902213D01*
X55344160Y-43741838D01*
X55423162Y-43594035D01*
X55529483Y-43464483D01*
X55659035Y-43358162D01*
X55806838Y-43279160D01*
X55967213Y-43230510D01*
X56092206Y-43218200D01*
X56175794Y-43218200D01*
X56300787Y-43230510D01*
X56300787Y-43230510D01*
G37*
G36*
X71540787Y-43230510D02*
G01*
X71701162Y-43279160D01*
X71848965Y-43358162D01*
X71978517Y-43464483D01*
X72084838Y-43594035D01*
X72163840Y-43741838D01*
X72212490Y-43902213D01*
X72228916Y-44069000D01*
X72212490Y-44235787D01*
X72163840Y-44396162D01*
X72084838Y-44543965D01*
X71978517Y-44673517D01*
X71848965Y-44779838D01*
X71701162Y-44858840D01*
X71540787Y-44907490D01*
X71415794Y-44919800D01*
X71332206Y-44919800D01*
X71207213Y-44907490D01*
X71046838Y-44858840D01*
X70899035Y-44779838D01*
X70769483Y-44673517D01*
X70663162Y-44543965D01*
X70584160Y-44396162D01*
X70535510Y-44235787D01*
X70519084Y-44069000D01*
X70535510Y-43902213D01*
X70584160Y-43741838D01*
X70663162Y-43594035D01*
X70769483Y-43464483D01*
X70899035Y-43358162D01*
X71046838Y-43279160D01*
X71207213Y-43230510D01*
X71332206Y-43218200D01*
X71415794Y-43218200D01*
X71540787Y-43230510D01*
X71540787Y-43230510D01*
G37*
G36*
X69000787Y-43230510D02*
G01*
X69161162Y-43279160D01*
X69308965Y-43358162D01*
X69438517Y-43464483D01*
X69544838Y-43594035D01*
X69623840Y-43741838D01*
X69672490Y-43902213D01*
X69688916Y-44069000D01*
X69672490Y-44235787D01*
X69623840Y-44396162D01*
X69544838Y-44543965D01*
X69438517Y-44673517D01*
X69308965Y-44779838D01*
X69161162Y-44858840D01*
X69000787Y-44907490D01*
X68875794Y-44919800D01*
X68792206Y-44919800D01*
X68667213Y-44907490D01*
X68506838Y-44858840D01*
X68359035Y-44779838D01*
X68229483Y-44673517D01*
X68123162Y-44543965D01*
X68044160Y-44396162D01*
X67995510Y-44235787D01*
X67979084Y-44069000D01*
X67995510Y-43902213D01*
X68044160Y-43741838D01*
X68123162Y-43594035D01*
X68229483Y-43464483D01*
X68359035Y-43358162D01*
X68506838Y-43279160D01*
X68667213Y-43230510D01*
X68792206Y-43218200D01*
X68875794Y-43218200D01*
X69000787Y-43230510D01*
X69000787Y-43230510D01*
G37*
G36*
X58840787Y-43230510D02*
G01*
X59001162Y-43279160D01*
X59148965Y-43358162D01*
X59278517Y-43464483D01*
X59384838Y-43594035D01*
X59463840Y-43741838D01*
X59512490Y-43902213D01*
X59528916Y-44069000D01*
X59512490Y-44235787D01*
X59463840Y-44396162D01*
X59384838Y-44543965D01*
X59278517Y-44673517D01*
X59148965Y-44779838D01*
X59001162Y-44858840D01*
X58840787Y-44907490D01*
X58715794Y-44919800D01*
X58632206Y-44919800D01*
X58507213Y-44907490D01*
X58346838Y-44858840D01*
X58199035Y-44779838D01*
X58069483Y-44673517D01*
X57963162Y-44543965D01*
X57884160Y-44396162D01*
X57835510Y-44235787D01*
X57819084Y-44069000D01*
X57835510Y-43902213D01*
X57884160Y-43741838D01*
X57963162Y-43594035D01*
X58069483Y-43464483D01*
X58199035Y-43358162D01*
X58346838Y-43279160D01*
X58507213Y-43230510D01*
X58632206Y-43218200D01*
X58715794Y-43218200D01*
X58840787Y-43230510D01*
X58840787Y-43230510D01*
G37*
G36*
X66460787Y-43230510D02*
G01*
X66621162Y-43279160D01*
X66768965Y-43358162D01*
X66898517Y-43464483D01*
X67004838Y-43594035D01*
X67083840Y-43741838D01*
X67132490Y-43902213D01*
X67148916Y-44069000D01*
X67132490Y-44235787D01*
X67083840Y-44396162D01*
X67004838Y-44543965D01*
X66898517Y-44673517D01*
X66768965Y-44779838D01*
X66621162Y-44858840D01*
X66460787Y-44907490D01*
X66335794Y-44919800D01*
X66252206Y-44919800D01*
X66127213Y-44907490D01*
X65966838Y-44858840D01*
X65819035Y-44779838D01*
X65689483Y-44673517D01*
X65583162Y-44543965D01*
X65504160Y-44396162D01*
X65455510Y-44235787D01*
X65439084Y-44069000D01*
X65455510Y-43902213D01*
X65504160Y-43741838D01*
X65583162Y-43594035D01*
X65689483Y-43464483D01*
X65819035Y-43358162D01*
X65966838Y-43279160D01*
X66127213Y-43230510D01*
X66252206Y-43218200D01*
X66335794Y-43218200D01*
X66460787Y-43230510D01*
X66460787Y-43230510D01*
G37*
G36*
X63920787Y-43230510D02*
G01*
X64081162Y-43279160D01*
X64228965Y-43358162D01*
X64358517Y-43464483D01*
X64464838Y-43594035D01*
X64543840Y-43741838D01*
X64592490Y-43902213D01*
X64608916Y-44069000D01*
X64592490Y-44235787D01*
X64543840Y-44396162D01*
X64464838Y-44543965D01*
X64358517Y-44673517D01*
X64228965Y-44779838D01*
X64081162Y-44858840D01*
X63920787Y-44907490D01*
X63795794Y-44919800D01*
X63712206Y-44919800D01*
X63587213Y-44907490D01*
X63426838Y-44858840D01*
X63279035Y-44779838D01*
X63149483Y-44673517D01*
X63043162Y-44543965D01*
X62964160Y-44396162D01*
X62915510Y-44235787D01*
X62899084Y-44069000D01*
X62915510Y-43902213D01*
X62964160Y-43741838D01*
X63043162Y-43594035D01*
X63149483Y-43464483D01*
X63279035Y-43358162D01*
X63426838Y-43279160D01*
X63587213Y-43230510D01*
X63712206Y-43218200D01*
X63795794Y-43218200D01*
X63920787Y-43230510D01*
X63920787Y-43230510D01*
G37*
G36*
X61380787Y-43230510D02*
G01*
X61541162Y-43279160D01*
X61688965Y-43358162D01*
X61818517Y-43464483D01*
X61924838Y-43594035D01*
X62003840Y-43741838D01*
X62052490Y-43902213D01*
X62068916Y-44069000D01*
X62052490Y-44235787D01*
X62003840Y-44396162D01*
X61924838Y-44543965D01*
X61818517Y-44673517D01*
X61688965Y-44779838D01*
X61541162Y-44858840D01*
X61380787Y-44907490D01*
X61255794Y-44919800D01*
X61172206Y-44919800D01*
X61047213Y-44907490D01*
X60886838Y-44858840D01*
X60739035Y-44779838D01*
X60609483Y-44673517D01*
X60503162Y-44543965D01*
X60424160Y-44396162D01*
X60375510Y-44235787D01*
X60359084Y-44069000D01*
X60375510Y-43902213D01*
X60424160Y-43741838D01*
X60503162Y-43594035D01*
X60609483Y-43464483D01*
X60739035Y-43358162D01*
X60886838Y-43279160D01*
X61047213Y-43230510D01*
X61172206Y-43218200D01*
X61255794Y-43218200D01*
X61380787Y-43230510D01*
X61380787Y-43230510D01*
G37*
G36*
X33554800Y-43714800D02*
G01*
X30453200Y-43714800D01*
X30453200Y-40613200D01*
X33554800Y-40613200D01*
X33554800Y-43714800D01*
X33554800Y-43714800D01*
G37*
G36*
X69961800Y-32369800D02*
G01*
X67960200Y-32369800D01*
X67960200Y-30368200D01*
X69961800Y-30368200D01*
X69961800Y-32369800D01*
X69961800Y-32369800D01*
G37*
G36*
X66752921Y-30406660D02*
G01*
X66935055Y-30482102D01*
X66935056Y-30482103D01*
X67098973Y-30591628D01*
X67238372Y-30731027D01*
X67275307Y-30786305D01*
X67347898Y-30894945D01*
X67423340Y-31077079D01*
X67461800Y-31270429D01*
X67461800Y-31467571D01*
X67423340Y-31660921D01*
X67347898Y-31843055D01*
X67347897Y-31843056D01*
X67238372Y-32006973D01*
X67098973Y-32146372D01*
X66989447Y-32219554D01*
X66935055Y-32255898D01*
X66752921Y-32331340D01*
X66559571Y-32369800D01*
X66362429Y-32369800D01*
X66169079Y-32331340D01*
X65986945Y-32255898D01*
X65932553Y-32219554D01*
X65823027Y-32146372D01*
X65683628Y-32006973D01*
X65574103Y-31843056D01*
X65574102Y-31843055D01*
X65498660Y-31660921D01*
X65460200Y-31467571D01*
X65460200Y-31270429D01*
X65498660Y-31077079D01*
X65574102Y-30894945D01*
X65646693Y-30786305D01*
X65683628Y-30731027D01*
X65823027Y-30591628D01*
X65986944Y-30482103D01*
X65986945Y-30482102D01*
X66169079Y-30406660D01*
X66362429Y-30368200D01*
X66559571Y-30368200D01*
X66752921Y-30406660D01*
X66752921Y-30406660D01*
G37*
G36*
X64252921Y-30406660D02*
G01*
X64435055Y-30482102D01*
X64435056Y-30482103D01*
X64598973Y-30591628D01*
X64738372Y-30731027D01*
X64775307Y-30786305D01*
X64847898Y-30894945D01*
X64923340Y-31077079D01*
X64961800Y-31270429D01*
X64961800Y-31467571D01*
X64923340Y-31660921D01*
X64847898Y-31843055D01*
X64847897Y-31843056D01*
X64738372Y-32006973D01*
X64598973Y-32146372D01*
X64489447Y-32219554D01*
X64435055Y-32255898D01*
X64252921Y-32331340D01*
X64059571Y-32369800D01*
X63862429Y-32369800D01*
X63669079Y-32331340D01*
X63486945Y-32255898D01*
X63432553Y-32219554D01*
X63323027Y-32146372D01*
X63183628Y-32006973D01*
X63074103Y-31843056D01*
X63074102Y-31843055D01*
X62998660Y-31660921D01*
X62960200Y-31467571D01*
X62960200Y-31270429D01*
X62998660Y-31077079D01*
X63074102Y-30894945D01*
X63146693Y-30786305D01*
X63183628Y-30731027D01*
X63323027Y-30591628D01*
X63486944Y-30482103D01*
X63486945Y-30482102D01*
X63669079Y-30406660D01*
X63862429Y-30368200D01*
X64059571Y-30368200D01*
X64252921Y-30406660D01*
X64252921Y-30406660D01*
G37*
G36*
X53790680Y-29316717D02*
G01*
X53979803Y-29374087D01*
X53979805Y-29374088D01*
X54154099Y-29467250D01*
X54154101Y-29467251D01*
X54154100Y-29467251D01*
X54306873Y-29592627D01*
X54432249Y-29745400D01*
X54525413Y-29919696D01*
X54582783Y-30108819D01*
X54597300Y-30256216D01*
X54597300Y-30449783D01*
X54582783Y-30597180D01*
X54525413Y-30786303D01*
X54525412Y-30786305D01*
X54432250Y-30960599D01*
X54306873Y-31113373D01*
X54154099Y-31238750D01*
X54094830Y-31270430D01*
X53979804Y-31331913D01*
X53790681Y-31389283D01*
X53594000Y-31408654D01*
X53397320Y-31389283D01*
X53208197Y-31331913D01*
X53033900Y-31238749D01*
X52881127Y-31113373D01*
X52755751Y-30960600D01*
X52662587Y-30786304D01*
X52605217Y-30597181D01*
X52590700Y-30449784D01*
X52590700Y-30256217D01*
X52605217Y-30108820D01*
X52662587Y-29919697D01*
X52755751Y-29745400D01*
X52881127Y-29592627D01*
X53033900Y-29467251D01*
X53033899Y-29467251D01*
X53033901Y-29467250D01*
X53208194Y-29374088D01*
X53208196Y-29374087D01*
X53397319Y-29316717D01*
X53594000Y-29297346D01*
X53790680Y-29316717D01*
X53790680Y-29316717D01*
G37*
G36*
X51250680Y-29316717D02*
G01*
X51439803Y-29374087D01*
X51439805Y-29374088D01*
X51614099Y-29467250D01*
X51614101Y-29467251D01*
X51614100Y-29467251D01*
X51766873Y-29592627D01*
X51892249Y-29745400D01*
X51985413Y-29919696D01*
X52042783Y-30108819D01*
X52057300Y-30256216D01*
X52057300Y-30449783D01*
X52042783Y-30597180D01*
X51985413Y-30786303D01*
X51985412Y-30786305D01*
X51892250Y-30960599D01*
X51766873Y-31113373D01*
X51614099Y-31238750D01*
X51554830Y-31270430D01*
X51439804Y-31331913D01*
X51250681Y-31389283D01*
X51054000Y-31408654D01*
X50857320Y-31389283D01*
X50668197Y-31331913D01*
X50493900Y-31238749D01*
X50341127Y-31113373D01*
X50215751Y-30960600D01*
X50122587Y-30786304D01*
X50065217Y-30597181D01*
X50050700Y-30449784D01*
X50050700Y-30256217D01*
X50065217Y-30108820D01*
X50122587Y-29919697D01*
X50215751Y-29745400D01*
X50341127Y-29592627D01*
X50493900Y-29467251D01*
X50493899Y-29467251D01*
X50493901Y-29467250D01*
X50668194Y-29374088D01*
X50668196Y-29374087D01*
X50857319Y-29316717D01*
X51054000Y-29297346D01*
X51250680Y-29316717D01*
X51250680Y-29316717D01*
G37*
G36*
X49517300Y-31403800D02*
G01*
X47510700Y-31403800D01*
X47510700Y-29302200D01*
X49517300Y-29302200D01*
X49517300Y-31403800D01*
X49517300Y-31403800D01*
G37*
G36*
X69426921Y-24183660D02*
G01*
X69609055Y-24259102D01*
X69609056Y-24259103D01*
X69772973Y-24368628D01*
X69912372Y-24508027D01*
X69962516Y-24583073D01*
X70021898Y-24671945D01*
X70097340Y-24854079D01*
X70135800Y-25047429D01*
X70135800Y-25244571D01*
X70097340Y-25437921D01*
X70021898Y-25620055D01*
X70021897Y-25620056D01*
X69912372Y-25783973D01*
X69772973Y-25923372D01*
X69663447Y-25996554D01*
X69609055Y-26032898D01*
X69426921Y-26108340D01*
X69233571Y-26146800D01*
X69036429Y-26146800D01*
X68843079Y-26108340D01*
X68660945Y-26032898D01*
X68606553Y-25996554D01*
X68497027Y-25923372D01*
X68357628Y-25783973D01*
X68248103Y-25620056D01*
X68248102Y-25620055D01*
X68172660Y-25437921D01*
X68134200Y-25244571D01*
X68134200Y-25047429D01*
X68172660Y-24854079D01*
X68248102Y-24671945D01*
X68307484Y-24583073D01*
X68357628Y-24508027D01*
X68497027Y-24368628D01*
X68660944Y-24259103D01*
X68660945Y-24259102D01*
X68843079Y-24183660D01*
X69036429Y-24145200D01*
X69233571Y-24145200D01*
X69426921Y-24183660D01*
X69426921Y-24183660D01*
G37*
G36*
X66926921Y-24183660D02*
G01*
X67109055Y-24259102D01*
X67109056Y-24259103D01*
X67272973Y-24368628D01*
X67412372Y-24508027D01*
X67462516Y-24583073D01*
X67521898Y-24671945D01*
X67597340Y-24854079D01*
X67635800Y-25047429D01*
X67635800Y-25244571D01*
X67597340Y-25437921D01*
X67521898Y-25620055D01*
X67521897Y-25620056D01*
X67412372Y-25783973D01*
X67272973Y-25923372D01*
X67163447Y-25996554D01*
X67109055Y-26032898D01*
X66926921Y-26108340D01*
X66733571Y-26146800D01*
X66536429Y-26146800D01*
X66343079Y-26108340D01*
X66160945Y-26032898D01*
X66106553Y-25996554D01*
X65997027Y-25923372D01*
X65857628Y-25783973D01*
X65748103Y-25620056D01*
X65748102Y-25620055D01*
X65672660Y-25437921D01*
X65634200Y-25244571D01*
X65634200Y-25047429D01*
X65672660Y-24854079D01*
X65748102Y-24671945D01*
X65807484Y-24583073D01*
X65857628Y-24508027D01*
X65997027Y-24368628D01*
X66160944Y-24259103D01*
X66160945Y-24259102D01*
X66343079Y-24183660D01*
X66536429Y-24145200D01*
X66733571Y-24145200D01*
X66926921Y-24183660D01*
X66926921Y-24183660D01*
G37*
G36*
X65135800Y-26146800D02*
G01*
X63134200Y-26146800D01*
X63134200Y-24145200D01*
X65135800Y-24145200D01*
X65135800Y-26146800D01*
X65135800Y-26146800D01*
G37*
G36*
X51462597Y-22148031D02*
G01*
X51717526Y-22253626D01*
X51717528Y-22253627D01*
X51946958Y-22406927D01*
X52142073Y-22602042D01*
X52295373Y-22831472D01*
X52295374Y-22831474D01*
X52400969Y-23086403D01*
X52454800Y-23357032D01*
X52454800Y-23632968D01*
X52400969Y-23903597D01*
X52300894Y-24145200D01*
X52295373Y-24158528D01*
X52142073Y-24387958D01*
X51946958Y-24583073D01*
X51717528Y-24736373D01*
X51717527Y-24736374D01*
X51717526Y-24736374D01*
X51462597Y-24841969D01*
X51191968Y-24895800D01*
X50916032Y-24895800D01*
X50645403Y-24841969D01*
X50390474Y-24736374D01*
X50390473Y-24736374D01*
X50390472Y-24736373D01*
X50161042Y-24583073D01*
X49965927Y-24387958D01*
X49812627Y-24158528D01*
X49807106Y-24145200D01*
X49707031Y-23903597D01*
X49653200Y-23632968D01*
X49653200Y-23357032D01*
X49707031Y-23086403D01*
X49812626Y-22831474D01*
X49812627Y-22831472D01*
X49965927Y-22602042D01*
X50161042Y-22406927D01*
X50390472Y-22253627D01*
X50390474Y-22253626D01*
X50645403Y-22148031D01*
X50916032Y-22094200D01*
X51191968Y-22094200D01*
X51462597Y-22148031D01*
X51462597Y-22148031D01*
G37*
M02*
