G04 #@! TF.GenerationSoftware,KiCad,Pcbnew,(5.1.2)-2*
G04 #@! TF.CreationDate,2019-09-11T05:33:40-05:00*
G04 #@! TF.ProjectId,eeprom_manual,65657072-6f6d-45f6-9d61-6e75616c2e6b,rev?*
G04 #@! TF.SameCoordinates,Original*
G04 #@! TF.FileFunction,Legend,Top*
G04 #@! TF.FilePolarity,Positive*
%FSLAX46Y46*%
G04 Gerber Fmt 4.6, Leading zero omitted, Abs format (unit mm)*
G04 Created by KiCad (PCBNEW (5.1.2)-2) date 2019-09-11 05:33:40*
%MOMM*%
%LPD*%
G04 APERTURE LIST*
%ADD10C,0.127000*%
%ADD11C,0.150000*%
%ADD12C,0.203200*%
%ADD13C,0.120000*%
%ADD14C,0.100000*%
%ADD15R,1.541600X2.101600*%
%ADD16O,1.541600X2.101600*%
%ADD17C,2.101600*%
%ADD18R,1.701600X1.701600*%
%ADD19O,1.701600X1.701600*%
%ADD20C,1.251600*%
%ADD21C,2.801600*%
%ADD22R,3.101600X3.101600*%
%ADD23C,3.101600*%
%ADD24R,2.001600X2.001600*%
%ADD25C,2.001600*%
%ADD26R,2.006600X2.101600*%
%ADD27O,2.006600X2.101600*%
%ADD28R,1.551600X0.551600*%
%ADD29R,0.551600X1.851600*%
G04 APERTURE END LIST*
D10*
X70260330Y-91518619D02*
X70260330Y-90841285D01*
X70260330Y-91034809D02*
X70308711Y-90938047D01*
X70357092Y-90889666D01*
X70453854Y-90841285D01*
X70550616Y-90841285D01*
X71276330Y-91470238D02*
X71179569Y-91518619D01*
X70986045Y-91518619D01*
X70889283Y-91470238D01*
X70840902Y-91373476D01*
X70840902Y-90986428D01*
X70889283Y-90889666D01*
X70986045Y-90841285D01*
X71179569Y-90841285D01*
X71276330Y-90889666D01*
X71324711Y-90986428D01*
X71324711Y-91083190D01*
X70840902Y-91179952D01*
X71663378Y-90841285D02*
X71905283Y-91518619D01*
X72147188Y-90841285D01*
X73066426Y-91518619D02*
X72485854Y-91518619D01*
X72776140Y-91518619D02*
X72776140Y-90502619D01*
X72679378Y-90647761D01*
X72582616Y-90744523D01*
X72485854Y-90792904D01*
X69582997Y-92250380D02*
X69631378Y-92202000D01*
X69728140Y-92153619D01*
X69970045Y-92153619D01*
X70066807Y-92202000D01*
X70115188Y-92250380D01*
X70163569Y-92347142D01*
X70163569Y-92443904D01*
X70115188Y-92589047D01*
X69534616Y-93169619D01*
X70163569Y-93169619D01*
X70792521Y-92153619D02*
X70889283Y-92153619D01*
X70986045Y-92202000D01*
X71034426Y-92250380D01*
X71082807Y-92347142D01*
X71131188Y-92540666D01*
X71131188Y-92782571D01*
X71082807Y-92976095D01*
X71034426Y-93072857D01*
X70986045Y-93121238D01*
X70889283Y-93169619D01*
X70792521Y-93169619D01*
X70695759Y-93121238D01*
X70647378Y-93072857D01*
X70598997Y-92976095D01*
X70550616Y-92782571D01*
X70550616Y-92540666D01*
X70598997Y-92347142D01*
X70647378Y-92250380D01*
X70695759Y-92202000D01*
X70792521Y-92153619D01*
X72098807Y-93169619D02*
X71518235Y-93169619D01*
X71808521Y-93169619D02*
X71808521Y-92153619D01*
X71711759Y-92298761D01*
X71614997Y-92395523D01*
X71518235Y-92443904D01*
X72582616Y-93169619D02*
X72776140Y-93169619D01*
X72872902Y-93121238D01*
X72921283Y-93072857D01*
X73018045Y-92927714D01*
X73066426Y-92734190D01*
X73066426Y-92347142D01*
X73018045Y-92250380D01*
X72969664Y-92202000D01*
X72872902Y-92153619D01*
X72679378Y-92153619D01*
X72582616Y-92202000D01*
X72534235Y-92250380D01*
X72485854Y-92347142D01*
X72485854Y-92589047D01*
X72534235Y-92685809D01*
X72582616Y-92734190D01*
X72679378Y-92782571D01*
X72872902Y-92782571D01*
X72969664Y-92734190D01*
X73018045Y-92685809D01*
X73066426Y-92589047D01*
X32058428Y-55136142D02*
X32149142Y-55166380D01*
X32179380Y-55196619D01*
X32209619Y-55257095D01*
X32209619Y-55347809D01*
X32179380Y-55408285D01*
X32149142Y-55438523D01*
X32088666Y-55468761D01*
X31846761Y-55468761D01*
X31846761Y-54833761D01*
X32058428Y-54833761D01*
X32118904Y-54864000D01*
X32149142Y-54894238D01*
X32179380Y-54954714D01*
X32179380Y-55015190D01*
X32149142Y-55075666D01*
X32118904Y-55105904D01*
X32058428Y-55136142D01*
X31846761Y-55136142D01*
X32602714Y-55166380D02*
X32602714Y-55468761D01*
X32391047Y-54833761D02*
X32602714Y-55166380D01*
X32814380Y-54833761D01*
X32935333Y-54833761D02*
X33298190Y-54833761D01*
X33116761Y-55468761D02*
X33116761Y-54833761D01*
X33509857Y-55136142D02*
X33721523Y-55136142D01*
X33812238Y-55468761D02*
X33509857Y-55468761D01*
X33509857Y-54833761D01*
X33812238Y-54833761D01*
X33933190Y-55529238D02*
X34417000Y-55529238D01*
X34507714Y-54833761D02*
X34658904Y-55468761D01*
X34779857Y-55015190D01*
X34900809Y-55468761D01*
X35052000Y-54833761D01*
X35656761Y-55468761D02*
X35445095Y-55166380D01*
X35293904Y-55468761D02*
X35293904Y-54833761D01*
X35535809Y-54833761D01*
X35596285Y-54864000D01*
X35626523Y-54894238D01*
X35656761Y-54954714D01*
X35656761Y-55045428D01*
X35626523Y-55105904D01*
X35596285Y-55136142D01*
X35535809Y-55166380D01*
X35293904Y-55166380D01*
X35928904Y-55468761D02*
X35928904Y-54833761D01*
X36140571Y-54833761D02*
X36503428Y-54833761D01*
X36322000Y-55468761D02*
X36322000Y-54833761D01*
X36715095Y-55136142D02*
X36926761Y-55136142D01*
X37017476Y-55468761D02*
X36715095Y-55468761D01*
X36715095Y-54833761D01*
X37017476Y-54833761D01*
D11*
X47727809Y-75165857D02*
X48405142Y-75165857D01*
X48695428Y-76230238D02*
X47727809Y-76230238D01*
X47727809Y-74198238D01*
X48695428Y-74198238D01*
X49566285Y-75165857D02*
X50243619Y-75165857D01*
X50533904Y-76230238D02*
X49566285Y-76230238D01*
X49566285Y-74198238D01*
X50533904Y-74198238D01*
X51404761Y-76230238D02*
X51404761Y-74198238D01*
X52178857Y-74198238D01*
X52372380Y-74295000D01*
X52469142Y-74391761D01*
X52565904Y-74585285D01*
X52565904Y-74875571D01*
X52469142Y-75069095D01*
X52372380Y-75165857D01*
X52178857Y-75262619D01*
X51404761Y-75262619D01*
X54597904Y-76230238D02*
X53920571Y-75262619D01*
X53436761Y-76230238D02*
X53436761Y-74198238D01*
X54210857Y-74198238D01*
X54404380Y-74295000D01*
X54501142Y-74391761D01*
X54597904Y-74585285D01*
X54597904Y-74875571D01*
X54501142Y-75069095D01*
X54404380Y-75165857D01*
X54210857Y-75262619D01*
X53436761Y-75262619D01*
X55855809Y-74198238D02*
X56242857Y-74198238D01*
X56436380Y-74295000D01*
X56629904Y-74488523D01*
X56726666Y-74875571D01*
X56726666Y-75552904D01*
X56629904Y-75939952D01*
X56436380Y-76133476D01*
X56242857Y-76230238D01*
X55855809Y-76230238D01*
X55662285Y-76133476D01*
X55468761Y-75939952D01*
X55372000Y-75552904D01*
X55372000Y-74875571D01*
X55468761Y-74488523D01*
X55662285Y-74295000D01*
X55855809Y-74198238D01*
X57597523Y-76230238D02*
X57597523Y-74198238D01*
X58274857Y-75649666D01*
X58952190Y-74198238D01*
X58952190Y-76230238D01*
D12*
X51562000Y-56769000D02*
X75565000Y-56769000D01*
X51943000Y-34925000D02*
X51562000Y-34925000D01*
X75565000Y-56769000D02*
X75565000Y-56642000D01*
X51943000Y-34925000D02*
X63373000Y-34925000D01*
X51562000Y-56769000D02*
X51562000Y-34925000D01*
X75565000Y-34925000D02*
X75565000Y-56642000D01*
X74803000Y-34925000D02*
X75565000Y-34925000D01*
X63373000Y-34925000D02*
X74803000Y-34925000D01*
D13*
X34290000Y-113538000D02*
X34417000Y-113538000D01*
D12*
X34290000Y-96012000D02*
X34290000Y-113538000D01*
X34544000Y-96012000D02*
X34290000Y-96012000D01*
X69469000Y-96012000D02*
X34544000Y-96012000D01*
X69469000Y-113538000D02*
X69469000Y-96012000D01*
X34417000Y-113538000D02*
X69469000Y-113538000D01*
D11*
X49403000Y-97049166D02*
X49826333Y-97049166D01*
X49318333Y-97303166D02*
X49614666Y-96414166D01*
X49911000Y-97303166D01*
X50207333Y-97303166D02*
X50207333Y-96414166D01*
X50419000Y-96414166D01*
X50546000Y-96456500D01*
X50630666Y-96541166D01*
X50673000Y-96625833D01*
X50715333Y-96795166D01*
X50715333Y-96922166D01*
X50673000Y-97091500D01*
X50630666Y-97176166D01*
X50546000Y-97260833D01*
X50419000Y-97303166D01*
X50207333Y-97303166D01*
X51096333Y-97303166D02*
X51096333Y-96414166D01*
X51308000Y-96414166D01*
X51435000Y-96456500D01*
X51519666Y-96541166D01*
X51562000Y-96625833D01*
X51604333Y-96795166D01*
X51604333Y-96922166D01*
X51562000Y-97091500D01*
X51519666Y-97176166D01*
X51435000Y-97260833D01*
X51308000Y-97303166D01*
X51096333Y-97303166D01*
X52493333Y-97303166D02*
X52197000Y-96879833D01*
X51985333Y-97303166D02*
X51985333Y-96414166D01*
X52324000Y-96414166D01*
X52408666Y-96456500D01*
X52451000Y-96498833D01*
X52493333Y-96583500D01*
X52493333Y-96710500D01*
X52451000Y-96795166D01*
X52408666Y-96837500D01*
X52324000Y-96879833D01*
X51985333Y-96879833D01*
X52874333Y-96837500D02*
X53170666Y-96837500D01*
X53297666Y-97303166D02*
X52874333Y-97303166D01*
X52874333Y-96414166D01*
X53297666Y-96414166D01*
X53636333Y-97260833D02*
X53763333Y-97303166D01*
X53975000Y-97303166D01*
X54059666Y-97260833D01*
X54102000Y-97218500D01*
X54144333Y-97133833D01*
X54144333Y-97049166D01*
X54102000Y-96964500D01*
X54059666Y-96922166D01*
X53975000Y-96879833D01*
X53805666Y-96837500D01*
X53721000Y-96795166D01*
X53678666Y-96752833D01*
X53636333Y-96668166D01*
X53636333Y-96583500D01*
X53678666Y-96498833D01*
X53721000Y-96456500D01*
X53805666Y-96414166D01*
X54017333Y-96414166D01*
X54144333Y-96456500D01*
X54483000Y-97260833D02*
X54610000Y-97303166D01*
X54821666Y-97303166D01*
X54906333Y-97260833D01*
X54948666Y-97218500D01*
X54991000Y-97133833D01*
X54991000Y-97049166D01*
X54948666Y-96964500D01*
X54906333Y-96922166D01*
X54821666Y-96879833D01*
X54652333Y-96837500D01*
X54567666Y-96795166D01*
X54525333Y-96752833D01*
X54483000Y-96668166D01*
X54483000Y-96583500D01*
X54525333Y-96498833D01*
X54567666Y-96456500D01*
X54652333Y-96414166D01*
X54864000Y-96414166D01*
X54991000Y-96456500D01*
X61912500Y-36343166D02*
X61912500Y-35454166D01*
X62124166Y-35454166D01*
X62251166Y-35496500D01*
X62335833Y-35581166D01*
X62378166Y-35665833D01*
X62420500Y-35835166D01*
X62420500Y-35962166D01*
X62378166Y-36131500D01*
X62335833Y-36216166D01*
X62251166Y-36300833D01*
X62124166Y-36343166D01*
X61912500Y-36343166D01*
X62759166Y-36089166D02*
X63182500Y-36089166D01*
X62674500Y-36343166D02*
X62970833Y-35454166D01*
X63267166Y-36343166D01*
X63436500Y-35454166D02*
X63944500Y-35454166D01*
X63690500Y-36343166D02*
X63690500Y-35454166D01*
X64198500Y-36089166D02*
X64621833Y-36089166D01*
X64113833Y-36343166D02*
X64410166Y-35454166D01*
X64706500Y-36343166D01*
X65849500Y-28850166D02*
X65553166Y-28426833D01*
X65341500Y-28850166D02*
X65341500Y-27961166D01*
X65680166Y-27961166D01*
X65764833Y-28003500D01*
X65807166Y-28045833D01*
X65849500Y-28130500D01*
X65849500Y-28257500D01*
X65807166Y-28342166D01*
X65764833Y-28384500D01*
X65680166Y-28426833D01*
X65341500Y-28426833D01*
X66865500Y-27918833D02*
X66103500Y-29061833D01*
X67077166Y-27961166D02*
X67288833Y-28850166D01*
X67458166Y-28215166D01*
X67627500Y-28850166D01*
X67839166Y-27961166D01*
X64304333Y-21738166D02*
X64473666Y-21738166D01*
X64558333Y-21780500D01*
X64643000Y-21865166D01*
X64685333Y-22034500D01*
X64685333Y-22330833D01*
X64643000Y-22500166D01*
X64558333Y-22584833D01*
X64473666Y-22627166D01*
X64304333Y-22627166D01*
X64219666Y-22584833D01*
X64135000Y-22500166D01*
X64092666Y-22330833D01*
X64092666Y-22034500D01*
X64135000Y-21865166D01*
X64219666Y-21780500D01*
X64304333Y-21738166D01*
X65066333Y-22627166D02*
X65066333Y-21738166D01*
X65574333Y-22627166D01*
X65574333Y-21738166D01*
X66632666Y-21695833D02*
X65870666Y-22838833D01*
X67098333Y-21738166D02*
X67267666Y-21738166D01*
X67352333Y-21780500D01*
X67437000Y-21865166D01*
X67479333Y-22034500D01*
X67479333Y-22330833D01*
X67437000Y-22500166D01*
X67352333Y-22584833D01*
X67267666Y-22627166D01*
X67098333Y-22627166D01*
X67013666Y-22584833D01*
X66929000Y-22500166D01*
X66886666Y-22330833D01*
X66886666Y-22034500D01*
X66929000Y-21865166D01*
X67013666Y-21780500D01*
X67098333Y-21738166D01*
X68156666Y-22161500D02*
X67860333Y-22161500D01*
X67860333Y-22627166D02*
X67860333Y-21738166D01*
X68283666Y-21738166D01*
X68918666Y-22161500D02*
X68622333Y-22161500D01*
X68622333Y-22627166D02*
X68622333Y-21738166D01*
X69045666Y-21738166D01*
X29542619Y-36914666D02*
X28526619Y-36914666D01*
X28526619Y-36527619D01*
X28575000Y-36430857D01*
X28623380Y-36382476D01*
X28720142Y-36334095D01*
X28865285Y-36334095D01*
X28962047Y-36382476D01*
X29010428Y-36430857D01*
X29058809Y-36527619D01*
X29058809Y-36914666D01*
X28526619Y-35995428D02*
X29542619Y-35753523D01*
X28816904Y-35560000D01*
X29542619Y-35366476D01*
X28526619Y-35124571D01*
X29542619Y-34156952D02*
X29058809Y-34495619D01*
X29542619Y-34737523D02*
X28526619Y-34737523D01*
X28526619Y-34350476D01*
X28575000Y-34253714D01*
X28623380Y-34205333D01*
X28720142Y-34156952D01*
X28865285Y-34156952D01*
X28962047Y-34205333D01*
X29010428Y-34253714D01*
X29058809Y-34350476D01*
X29058809Y-34737523D01*
D13*
X51181000Y-28194000D02*
X53213000Y-28194000D01*
X34554000Y-86766000D02*
G75*
G03X34554000Y-86766000I-2550000J0D01*
G01*
X32904000Y-86766000D02*
G75*
G03X32904000Y-86766000I-900000J0D01*
G01*
X34454000Y-87496000D02*
X73194000Y-87496000D01*
X73194000Y-87496000D02*
X73194000Y-64396000D01*
X73194000Y-64396000D02*
X27694000Y-64396000D01*
X27694000Y-64396000D02*
X27694000Y-87496000D01*
X27694000Y-87496000D02*
X29554000Y-87496000D01*
X27694000Y-85216000D02*
X29954000Y-85216000D01*
X39624000Y-88516000D02*
X37084000Y-88516000D01*
X32369000Y-62523000D02*
X36869000Y-62523000D01*
X31119000Y-58523000D02*
X31119000Y-60023000D01*
X36869000Y-56023000D02*
X32369000Y-56023000D01*
X38119000Y-60023000D02*
X38119000Y-58523000D01*
X37422000Y-92834000D02*
X37422000Y-95634000D01*
X37422000Y-95634000D02*
X65702000Y-95634000D01*
X65702000Y-95634000D02*
X65702000Y-92834000D01*
X65702000Y-92834000D02*
X37422000Y-92834000D01*
X40132000Y-92834000D02*
X40132000Y-95634000D01*
X55372000Y-50631333D02*
X54102000Y-50631333D01*
X54172000Y-49278000D02*
X54172000Y-50631333D01*
X54292000Y-49278000D02*
X54292000Y-50631333D01*
X54412000Y-49278000D02*
X54412000Y-50631333D01*
X54532000Y-49278000D02*
X54532000Y-50631333D01*
X54652000Y-49278000D02*
X54652000Y-50631333D01*
X54772000Y-49278000D02*
X54772000Y-50631333D01*
X54892000Y-49278000D02*
X54892000Y-50631333D01*
X55012000Y-49278000D02*
X55012000Y-50631333D01*
X55132000Y-49278000D02*
X55132000Y-50631333D01*
X55252000Y-49278000D02*
X55252000Y-50631333D01*
X55372000Y-53338000D02*
X55372000Y-49278000D01*
X54102000Y-53338000D02*
X55372000Y-53338000D01*
X54102000Y-49278000D02*
X54102000Y-53338000D01*
X55372000Y-49278000D02*
X54102000Y-49278000D01*
X57912000Y-50631333D02*
X56642000Y-50631333D01*
X56712000Y-49278000D02*
X56712000Y-50631333D01*
X56832000Y-49278000D02*
X56832000Y-50631333D01*
X56952000Y-49278000D02*
X56952000Y-50631333D01*
X57072000Y-49278000D02*
X57072000Y-50631333D01*
X57192000Y-49278000D02*
X57192000Y-50631333D01*
X57312000Y-49278000D02*
X57312000Y-50631333D01*
X57432000Y-49278000D02*
X57432000Y-50631333D01*
X57552000Y-49278000D02*
X57552000Y-50631333D01*
X57672000Y-49278000D02*
X57672000Y-50631333D01*
X57792000Y-49278000D02*
X57792000Y-50631333D01*
X57912000Y-53338000D02*
X57912000Y-49278000D01*
X56642000Y-53338000D02*
X57912000Y-53338000D01*
X56642000Y-49278000D02*
X56642000Y-53338000D01*
X57912000Y-49278000D02*
X56642000Y-49278000D01*
X60452000Y-50631333D02*
X59182000Y-50631333D01*
X59252000Y-49278000D02*
X59252000Y-50631333D01*
X59372000Y-49278000D02*
X59372000Y-50631333D01*
X59492000Y-49278000D02*
X59492000Y-50631333D01*
X59612000Y-49278000D02*
X59612000Y-50631333D01*
X59732000Y-49278000D02*
X59732000Y-50631333D01*
X59852000Y-49278000D02*
X59852000Y-50631333D01*
X59972000Y-49278000D02*
X59972000Y-50631333D01*
X60092000Y-49278000D02*
X60092000Y-50631333D01*
X60212000Y-49278000D02*
X60212000Y-50631333D01*
X60332000Y-49278000D02*
X60332000Y-50631333D01*
X60452000Y-53338000D02*
X60452000Y-49278000D01*
X59182000Y-53338000D02*
X60452000Y-53338000D01*
X59182000Y-49278000D02*
X59182000Y-53338000D01*
X60452000Y-49278000D02*
X59182000Y-49278000D01*
X62992000Y-50631333D02*
X61722000Y-50631333D01*
X61792000Y-49278000D02*
X61792000Y-50631333D01*
X61912000Y-49278000D02*
X61912000Y-50631333D01*
X62032000Y-49278000D02*
X62032000Y-50631333D01*
X62152000Y-49278000D02*
X62152000Y-50631333D01*
X62272000Y-49278000D02*
X62272000Y-50631333D01*
X62392000Y-49278000D02*
X62392000Y-50631333D01*
X62512000Y-49278000D02*
X62512000Y-50631333D01*
X62632000Y-49278000D02*
X62632000Y-50631333D01*
X62752000Y-49278000D02*
X62752000Y-50631333D01*
X62872000Y-49278000D02*
X62872000Y-50631333D01*
X62992000Y-53338000D02*
X62992000Y-49278000D01*
X61722000Y-53338000D02*
X62992000Y-53338000D01*
X61722000Y-49278000D02*
X61722000Y-53338000D01*
X62992000Y-49278000D02*
X61722000Y-49278000D01*
X65532000Y-50631333D02*
X64262000Y-50631333D01*
X64332000Y-49278000D02*
X64332000Y-50631333D01*
X64452000Y-49278000D02*
X64452000Y-50631333D01*
X64572000Y-49278000D02*
X64572000Y-50631333D01*
X64692000Y-49278000D02*
X64692000Y-50631333D01*
X64812000Y-49278000D02*
X64812000Y-50631333D01*
X64932000Y-49278000D02*
X64932000Y-50631333D01*
X65052000Y-49278000D02*
X65052000Y-50631333D01*
X65172000Y-49278000D02*
X65172000Y-50631333D01*
X65292000Y-49278000D02*
X65292000Y-50631333D01*
X65412000Y-49278000D02*
X65412000Y-50631333D01*
X65532000Y-53338000D02*
X65532000Y-49278000D01*
X64262000Y-53338000D02*
X65532000Y-53338000D01*
X64262000Y-49278000D02*
X64262000Y-53338000D01*
X65532000Y-49278000D02*
X64262000Y-49278000D01*
X68072000Y-50631333D02*
X66802000Y-50631333D01*
X66872000Y-49278000D02*
X66872000Y-50631333D01*
X66992000Y-49278000D02*
X66992000Y-50631333D01*
X67112000Y-49278000D02*
X67112000Y-50631333D01*
X67232000Y-49278000D02*
X67232000Y-50631333D01*
X67352000Y-49278000D02*
X67352000Y-50631333D01*
X67472000Y-49278000D02*
X67472000Y-50631333D01*
X67592000Y-49278000D02*
X67592000Y-50631333D01*
X67712000Y-49278000D02*
X67712000Y-50631333D01*
X67832000Y-49278000D02*
X67832000Y-50631333D01*
X67952000Y-49278000D02*
X67952000Y-50631333D01*
X68072000Y-53338000D02*
X68072000Y-49278000D01*
X66802000Y-53338000D02*
X68072000Y-53338000D01*
X66802000Y-49278000D02*
X66802000Y-53338000D01*
X68072000Y-49278000D02*
X66802000Y-49278000D01*
X70612000Y-50631333D02*
X69342000Y-50631333D01*
X69412000Y-49278000D02*
X69412000Y-50631333D01*
X69532000Y-49278000D02*
X69532000Y-50631333D01*
X69652000Y-49278000D02*
X69652000Y-50631333D01*
X69772000Y-49278000D02*
X69772000Y-50631333D01*
X69892000Y-49278000D02*
X69892000Y-50631333D01*
X70012000Y-49278000D02*
X70012000Y-50631333D01*
X70132000Y-49278000D02*
X70132000Y-50631333D01*
X70252000Y-49278000D02*
X70252000Y-50631333D01*
X70372000Y-49278000D02*
X70372000Y-50631333D01*
X70492000Y-49278000D02*
X70492000Y-50631333D01*
X70612000Y-53338000D02*
X70612000Y-49278000D01*
X69342000Y-53338000D02*
X70612000Y-53338000D01*
X69342000Y-49278000D02*
X69342000Y-53338000D01*
X70612000Y-49278000D02*
X69342000Y-49278000D01*
X73152000Y-50631333D02*
X71882000Y-50631333D01*
X71952000Y-49278000D02*
X71952000Y-50631333D01*
X72072000Y-49278000D02*
X72072000Y-50631333D01*
X72192000Y-49278000D02*
X72192000Y-50631333D01*
X72312000Y-49278000D02*
X72312000Y-50631333D01*
X72432000Y-49278000D02*
X72432000Y-50631333D01*
X72552000Y-49278000D02*
X72552000Y-50631333D01*
X72672000Y-49278000D02*
X72672000Y-50631333D01*
X72792000Y-49278000D02*
X72792000Y-50631333D01*
X72912000Y-49278000D02*
X72912000Y-50631333D01*
X73032000Y-49278000D02*
X73032000Y-50631333D01*
X73152000Y-53338000D02*
X73152000Y-49278000D01*
X71882000Y-53338000D02*
X73152000Y-53338000D01*
X71882000Y-49278000D02*
X71882000Y-53338000D01*
X73152000Y-49278000D02*
X71882000Y-49278000D01*
X75177000Y-46118000D02*
X73794000Y-46118000D01*
X75177000Y-46118000D02*
X75177000Y-47502000D01*
X74937000Y-56258000D02*
X52316000Y-56258000D01*
X74937000Y-46358000D02*
X52316000Y-46358000D01*
X52316000Y-46358000D02*
X52316000Y-56258000D01*
X74937000Y-46358000D02*
X74937000Y-56258000D01*
X34161252Y-95071000D02*
X33638748Y-95071000D01*
X34161252Y-93651000D02*
X33638748Y-93651000D01*
X34179252Y-91769000D02*
X33656748Y-91769000D01*
X34179252Y-90349000D02*
X33656748Y-90349000D01*
X68587000Y-102873000D02*
X68587000Y-112773000D01*
X40887000Y-102873000D02*
X40887000Y-112773000D01*
X68587000Y-102873000D02*
X40887000Y-102873000D01*
X68587000Y-112773000D02*
X40887000Y-112773000D01*
X68827000Y-102633000D02*
X68827000Y-104017000D01*
X68827000Y-102633000D02*
X67444000Y-102633000D01*
X66802000Y-105793000D02*
X65532000Y-105793000D01*
X65532000Y-105793000D02*
X65532000Y-109853000D01*
X65532000Y-109853000D02*
X66802000Y-109853000D01*
X66802000Y-109853000D02*
X66802000Y-105793000D01*
X66682000Y-105793000D02*
X66682000Y-107146333D01*
X66562000Y-105793000D02*
X66562000Y-107146333D01*
X66442000Y-105793000D02*
X66442000Y-107146333D01*
X66322000Y-105793000D02*
X66322000Y-107146333D01*
X66202000Y-105793000D02*
X66202000Y-107146333D01*
X66082000Y-105793000D02*
X66082000Y-107146333D01*
X65962000Y-105793000D02*
X65962000Y-107146333D01*
X65842000Y-105793000D02*
X65842000Y-107146333D01*
X65722000Y-105793000D02*
X65722000Y-107146333D01*
X65602000Y-105793000D02*
X65602000Y-107146333D01*
X66802000Y-107146333D02*
X65532000Y-107146333D01*
X64262000Y-105793000D02*
X62992000Y-105793000D01*
X62992000Y-105793000D02*
X62992000Y-109853000D01*
X62992000Y-109853000D02*
X64262000Y-109853000D01*
X64262000Y-109853000D02*
X64262000Y-105793000D01*
X64142000Y-105793000D02*
X64142000Y-107146333D01*
X64022000Y-105793000D02*
X64022000Y-107146333D01*
X63902000Y-105793000D02*
X63902000Y-107146333D01*
X63782000Y-105793000D02*
X63782000Y-107146333D01*
X63662000Y-105793000D02*
X63662000Y-107146333D01*
X63542000Y-105793000D02*
X63542000Y-107146333D01*
X63422000Y-105793000D02*
X63422000Y-107146333D01*
X63302000Y-105793000D02*
X63302000Y-107146333D01*
X63182000Y-105793000D02*
X63182000Y-107146333D01*
X63062000Y-105793000D02*
X63062000Y-107146333D01*
X64262000Y-107146333D02*
X62992000Y-107146333D01*
X61722000Y-105793000D02*
X60452000Y-105793000D01*
X60452000Y-105793000D02*
X60452000Y-109853000D01*
X60452000Y-109853000D02*
X61722000Y-109853000D01*
X61722000Y-109853000D02*
X61722000Y-105793000D01*
X61602000Y-105793000D02*
X61602000Y-107146333D01*
X61482000Y-105793000D02*
X61482000Y-107146333D01*
X61362000Y-105793000D02*
X61362000Y-107146333D01*
X61242000Y-105793000D02*
X61242000Y-107146333D01*
X61122000Y-105793000D02*
X61122000Y-107146333D01*
X61002000Y-105793000D02*
X61002000Y-107146333D01*
X60882000Y-105793000D02*
X60882000Y-107146333D01*
X60762000Y-105793000D02*
X60762000Y-107146333D01*
X60642000Y-105793000D02*
X60642000Y-107146333D01*
X60522000Y-105793000D02*
X60522000Y-107146333D01*
X61722000Y-107146333D02*
X60452000Y-107146333D01*
X59182000Y-105793000D02*
X57912000Y-105793000D01*
X57912000Y-105793000D02*
X57912000Y-109853000D01*
X57912000Y-109853000D02*
X59182000Y-109853000D01*
X59182000Y-109853000D02*
X59182000Y-105793000D01*
X59062000Y-105793000D02*
X59062000Y-107146333D01*
X58942000Y-105793000D02*
X58942000Y-107146333D01*
X58822000Y-105793000D02*
X58822000Y-107146333D01*
X58702000Y-105793000D02*
X58702000Y-107146333D01*
X58582000Y-105793000D02*
X58582000Y-107146333D01*
X58462000Y-105793000D02*
X58462000Y-107146333D01*
X58342000Y-105793000D02*
X58342000Y-107146333D01*
X58222000Y-105793000D02*
X58222000Y-107146333D01*
X58102000Y-105793000D02*
X58102000Y-107146333D01*
X57982000Y-105793000D02*
X57982000Y-107146333D01*
X59182000Y-107146333D02*
X57912000Y-107146333D01*
X56642000Y-105793000D02*
X55372000Y-105793000D01*
X55372000Y-105793000D02*
X55372000Y-109853000D01*
X55372000Y-109853000D02*
X56642000Y-109853000D01*
X56642000Y-109853000D02*
X56642000Y-105793000D01*
X56522000Y-105793000D02*
X56522000Y-107146333D01*
X56402000Y-105793000D02*
X56402000Y-107146333D01*
X56282000Y-105793000D02*
X56282000Y-107146333D01*
X56162000Y-105793000D02*
X56162000Y-107146333D01*
X56042000Y-105793000D02*
X56042000Y-107146333D01*
X55922000Y-105793000D02*
X55922000Y-107146333D01*
X55802000Y-105793000D02*
X55802000Y-107146333D01*
X55682000Y-105793000D02*
X55682000Y-107146333D01*
X55562000Y-105793000D02*
X55562000Y-107146333D01*
X55442000Y-105793000D02*
X55442000Y-107146333D01*
X56642000Y-107146333D02*
X55372000Y-107146333D01*
X54102000Y-105793000D02*
X52832000Y-105793000D01*
X52832000Y-105793000D02*
X52832000Y-109853000D01*
X52832000Y-109853000D02*
X54102000Y-109853000D01*
X54102000Y-109853000D02*
X54102000Y-105793000D01*
X53982000Y-105793000D02*
X53982000Y-107146333D01*
X53862000Y-105793000D02*
X53862000Y-107146333D01*
X53742000Y-105793000D02*
X53742000Y-107146333D01*
X53622000Y-105793000D02*
X53622000Y-107146333D01*
X53502000Y-105793000D02*
X53502000Y-107146333D01*
X53382000Y-105793000D02*
X53382000Y-107146333D01*
X53262000Y-105793000D02*
X53262000Y-107146333D01*
X53142000Y-105793000D02*
X53142000Y-107146333D01*
X53022000Y-105793000D02*
X53022000Y-107146333D01*
X52902000Y-105793000D02*
X52902000Y-107146333D01*
X54102000Y-107146333D02*
X52832000Y-107146333D01*
X51562000Y-105793000D02*
X50292000Y-105793000D01*
X50292000Y-105793000D02*
X50292000Y-109853000D01*
X50292000Y-109853000D02*
X51562000Y-109853000D01*
X51562000Y-109853000D02*
X51562000Y-105793000D01*
X51442000Y-105793000D02*
X51442000Y-107146333D01*
X51322000Y-105793000D02*
X51322000Y-107146333D01*
X51202000Y-105793000D02*
X51202000Y-107146333D01*
X51082000Y-105793000D02*
X51082000Y-107146333D01*
X50962000Y-105793000D02*
X50962000Y-107146333D01*
X50842000Y-105793000D02*
X50842000Y-107146333D01*
X50722000Y-105793000D02*
X50722000Y-107146333D01*
X50602000Y-105793000D02*
X50602000Y-107146333D01*
X50482000Y-105793000D02*
X50482000Y-107146333D01*
X50362000Y-105793000D02*
X50362000Y-107146333D01*
X51562000Y-107146333D02*
X50292000Y-107146333D01*
X49022000Y-105793000D02*
X47752000Y-105793000D01*
X47752000Y-105793000D02*
X47752000Y-109853000D01*
X47752000Y-109853000D02*
X49022000Y-109853000D01*
X49022000Y-109853000D02*
X49022000Y-105793000D01*
X48902000Y-105793000D02*
X48902000Y-107146333D01*
X48782000Y-105793000D02*
X48782000Y-107146333D01*
X48662000Y-105793000D02*
X48662000Y-107146333D01*
X48542000Y-105793000D02*
X48542000Y-107146333D01*
X48422000Y-105793000D02*
X48422000Y-107146333D01*
X48302000Y-105793000D02*
X48302000Y-107146333D01*
X48182000Y-105793000D02*
X48182000Y-107146333D01*
X48062000Y-105793000D02*
X48062000Y-107146333D01*
X47942000Y-105793000D02*
X47942000Y-107146333D01*
X47822000Y-105793000D02*
X47822000Y-107146333D01*
X49022000Y-107146333D02*
X47752000Y-107146333D01*
X46482000Y-105793000D02*
X45212000Y-105793000D01*
X45212000Y-105793000D02*
X45212000Y-109853000D01*
X45212000Y-109853000D02*
X46482000Y-109853000D01*
X46482000Y-109853000D02*
X46482000Y-105793000D01*
X46362000Y-105793000D02*
X46362000Y-107146333D01*
X46242000Y-105793000D02*
X46242000Y-107146333D01*
X46122000Y-105793000D02*
X46122000Y-107146333D01*
X46002000Y-105793000D02*
X46002000Y-107146333D01*
X45882000Y-105793000D02*
X45882000Y-107146333D01*
X45762000Y-105793000D02*
X45762000Y-107146333D01*
X45642000Y-105793000D02*
X45642000Y-107146333D01*
X45522000Y-105793000D02*
X45522000Y-107146333D01*
X45402000Y-105793000D02*
X45402000Y-107146333D01*
X45282000Y-105793000D02*
X45282000Y-107146333D01*
X46482000Y-107146333D02*
X45212000Y-107146333D01*
X43942000Y-105793000D02*
X42672000Y-105793000D01*
X42672000Y-105793000D02*
X42672000Y-109853000D01*
X42672000Y-109853000D02*
X43942000Y-109853000D01*
X43942000Y-109853000D02*
X43942000Y-105793000D01*
X43822000Y-105793000D02*
X43822000Y-107146333D01*
X43702000Y-105793000D02*
X43702000Y-107146333D01*
X43582000Y-105793000D02*
X43582000Y-107146333D01*
X43462000Y-105793000D02*
X43462000Y-107146333D01*
X43342000Y-105793000D02*
X43342000Y-107146333D01*
X43222000Y-105793000D02*
X43222000Y-107146333D01*
X43102000Y-105793000D02*
X43102000Y-107146333D01*
X42982000Y-105793000D02*
X42982000Y-107146333D01*
X42862000Y-105793000D02*
X42862000Y-107146333D01*
X42742000Y-105793000D02*
X42742000Y-107146333D01*
X43942000Y-107146333D02*
X42672000Y-107146333D01*
X66731000Y-36612000D02*
X66731000Y-39472000D01*
X68651000Y-36612000D02*
X66731000Y-36612000D01*
X68651000Y-39472000D02*
X68651000Y-36612000D01*
X59888000Y-39472000D02*
X59888000Y-36612000D01*
X59888000Y-36612000D02*
X57968000Y-36612000D01*
X57968000Y-36612000D02*
X57968000Y-39472000D01*
X55047000Y-36612000D02*
X55047000Y-39472000D01*
X56967000Y-36612000D02*
X55047000Y-36612000D01*
X56967000Y-39472000D02*
X56967000Y-36612000D01*
X65730000Y-39481000D02*
X65730000Y-36621000D01*
X65730000Y-36621000D02*
X63810000Y-36621000D01*
X63810000Y-36621000D02*
X63810000Y-39481000D01*
X71572000Y-39472000D02*
X71572000Y-36612000D01*
X71572000Y-36612000D02*
X69652000Y-36612000D01*
X69652000Y-36612000D02*
X69652000Y-39472000D01*
X54046000Y-39472000D02*
X54046000Y-36612000D01*
X54046000Y-36612000D02*
X52126000Y-36612000D01*
X52126000Y-36612000D02*
X52126000Y-39472000D01*
X72573000Y-36612000D02*
X72573000Y-39472000D01*
X74493000Y-36612000D02*
X72573000Y-36612000D01*
X74493000Y-39472000D02*
X74493000Y-36612000D01*
X60889000Y-36612000D02*
X60889000Y-39472000D01*
X62809000Y-36612000D02*
X60889000Y-36612000D01*
X62809000Y-39472000D02*
X62809000Y-36612000D01*
X75354000Y-45469000D02*
X75354000Y-42669000D01*
X75354000Y-42669000D02*
X52154000Y-42669000D01*
X52154000Y-42669000D02*
X52154000Y-45469000D01*
X52154000Y-45469000D02*
X75354000Y-45469000D01*
X72644000Y-45469000D02*
X72644000Y-42669000D01*
X54610000Y-58798000D02*
X54610000Y-61598000D01*
X75100000Y-58798000D02*
X51900000Y-58798000D01*
X75100000Y-61598000D02*
X75100000Y-58798000D01*
X51900000Y-61598000D02*
X75100000Y-61598000D01*
X51900000Y-58798000D02*
X51900000Y-61598000D01*
X37136000Y-52957252D02*
X37136000Y-52434748D01*
X38556000Y-52957252D02*
X38556000Y-52434748D01*
X48506748Y-34365000D02*
X49029252Y-34365000D01*
X48506748Y-32945000D02*
X49029252Y-32945000D01*
X53601252Y-34365000D02*
X53078748Y-34365000D01*
X53601252Y-32945000D02*
X53078748Y-32945000D01*
X39299000Y-35694000D02*
X39299000Y-38554000D01*
X39299000Y-38554000D02*
X41219000Y-38554000D01*
X41219000Y-38554000D02*
X41219000Y-35694000D01*
X31694000Y-36560000D02*
X31694000Y-33700000D01*
X31694000Y-33700000D02*
X29774000Y-33700000D01*
X29774000Y-33700000D02*
X29774000Y-36560000D01*
X40203000Y-101428000D02*
X40203000Y-98568000D01*
X38283000Y-101428000D02*
X40203000Y-101428000D01*
X38283000Y-98568000D02*
X38283000Y-101428000D01*
X42997000Y-101428000D02*
X42997000Y-98568000D01*
X41077000Y-101428000D02*
X42997000Y-101428000D01*
X41077000Y-98568000D02*
X41077000Y-101428000D01*
X45791000Y-101428000D02*
X45791000Y-98568000D01*
X43871000Y-101428000D02*
X45791000Y-101428000D01*
X43871000Y-98568000D02*
X43871000Y-101428000D01*
X48585000Y-101428000D02*
X48585000Y-98568000D01*
X46665000Y-101428000D02*
X48585000Y-101428000D01*
X46665000Y-98568000D02*
X46665000Y-101428000D01*
X49459000Y-98568000D02*
X49459000Y-101428000D01*
X49459000Y-101428000D02*
X51379000Y-101428000D01*
X51379000Y-101428000D02*
X51379000Y-98568000D01*
X52253000Y-98568000D02*
X52253000Y-101428000D01*
X52253000Y-101428000D02*
X54173000Y-101428000D01*
X54173000Y-101428000D02*
X54173000Y-98568000D01*
X55047000Y-98568000D02*
X55047000Y-101428000D01*
X55047000Y-101428000D02*
X56967000Y-101428000D01*
X56967000Y-101428000D02*
X56967000Y-98568000D01*
X59761000Y-101437000D02*
X59761000Y-98577000D01*
X57841000Y-101437000D02*
X59761000Y-101437000D01*
X57841000Y-98577000D02*
X57841000Y-101437000D01*
X60635000Y-98568000D02*
X60635000Y-101428000D01*
X60635000Y-101428000D02*
X62555000Y-101428000D01*
X62555000Y-101428000D02*
X62555000Y-98568000D01*
X63429000Y-98559000D02*
X63429000Y-101419000D01*
X63429000Y-101419000D02*
X65349000Y-101419000D01*
X65349000Y-101419000D02*
X65349000Y-98559000D01*
X68143000Y-101428000D02*
X68143000Y-98568000D01*
X66223000Y-101428000D02*
X68143000Y-101428000D01*
X66223000Y-98568000D02*
X66223000Y-101428000D01*
X29464000Y-49784000D02*
X29464000Y-39624000D01*
X28194000Y-49784000D02*
X35814000Y-49784000D01*
X35814000Y-49784000D02*
X35814000Y-39624000D01*
X35814000Y-39624000D02*
X28194000Y-39624000D01*
X28194000Y-39624000D02*
X28194000Y-49784000D01*
X32691000Y-52966252D02*
X32691000Y-52443748D01*
X34111000Y-52966252D02*
X34111000Y-52443748D01*
X36270000Y-52957252D02*
X36270000Y-52434748D01*
X34850000Y-52957252D02*
X34850000Y-52434748D01*
X37009000Y-36450748D02*
X37009000Y-36973252D01*
X38429000Y-36450748D02*
X38429000Y-36973252D01*
X37422000Y-89024000D02*
X37422000Y-91824000D01*
X37422000Y-91824000D02*
X65702000Y-91824000D01*
X65702000Y-91824000D02*
X65702000Y-89024000D01*
X65702000Y-89024000D02*
X37422000Y-89024000D01*
X40132000Y-89024000D02*
X40132000Y-91824000D01*
D14*
X60661000Y-29269000D02*
X61161000Y-29269000D01*
X60661000Y-29269000D02*
X60661000Y-29769000D01*
X72561000Y-29269000D02*
X72061000Y-29269000D01*
X72561000Y-29269000D02*
X72561000Y-29769000D01*
X72561000Y-33469000D02*
X72061000Y-33469000D01*
X72561000Y-33469000D02*
X72561000Y-32969000D01*
X60661000Y-33469000D02*
X60661000Y-32969000D01*
X60661000Y-33469000D02*
X61161000Y-33469000D01*
X72435000Y-23046000D02*
X71935000Y-23046000D01*
X72435000Y-23046000D02*
X72435000Y-23546000D01*
X60535000Y-23046000D02*
X60535000Y-23546000D01*
X60535000Y-23046000D02*
X61035000Y-23046000D01*
X60535000Y-27246000D02*
X60535000Y-26746000D01*
X60535000Y-27246000D02*
X61035000Y-27246000D01*
X72435000Y-27246000D02*
X72435000Y-26746000D01*
X72435000Y-27246000D02*
X71935000Y-27246000D01*
D13*
X40139000Y-102873000D02*
X40139000Y-112773000D01*
X35299000Y-102873000D02*
X35299000Y-112773000D01*
X40139000Y-102873000D02*
X35299000Y-102873000D01*
X40139000Y-112773000D02*
X35299000Y-112773000D01*
X40379000Y-102633000D02*
X40379000Y-104017000D01*
X40379000Y-102633000D02*
X38996000Y-102633000D01*
X38354000Y-105793000D02*
X37084000Y-105793000D01*
X37084000Y-105793000D02*
X37084000Y-109853000D01*
X37084000Y-109853000D02*
X38354000Y-109853000D01*
X38354000Y-109853000D02*
X38354000Y-105793000D01*
X38234000Y-105793000D02*
X38234000Y-107146333D01*
X38114000Y-105793000D02*
X38114000Y-107146333D01*
X37994000Y-105793000D02*
X37994000Y-107146333D01*
X37874000Y-105793000D02*
X37874000Y-107146333D01*
X37754000Y-105793000D02*
X37754000Y-107146333D01*
X37634000Y-105793000D02*
X37634000Y-107146333D01*
X37514000Y-105793000D02*
X37514000Y-107146333D01*
X37394000Y-105793000D02*
X37394000Y-107146333D01*
X37274000Y-105793000D02*
X37274000Y-107146333D01*
X37154000Y-105793000D02*
X37154000Y-107146333D01*
X38354000Y-107146333D02*
X37084000Y-107146333D01*
X45934000Y-27083000D02*
X56174000Y-27083000D01*
X45934000Y-31724000D02*
X56174000Y-31724000D01*
X45934000Y-27083000D02*
X45934000Y-31724000D01*
X56174000Y-27083000D02*
X56174000Y-31724000D01*
X45934000Y-28593000D02*
X56174000Y-28593000D01*
X49204000Y-27083000D02*
X49204000Y-28593000D01*
X52905000Y-27083000D02*
X52905000Y-28593000D01*
D11*
X48805000Y-54070000D02*
X44355000Y-54070000D01*
X50330000Y-60970000D02*
X44355000Y-60970000D01*
D14*
X40791000Y-47622000D02*
X41191000Y-48022000D01*
X41191000Y-48022000D02*
X41191000Y-49822000D01*
X40791000Y-47322000D02*
X40791000Y-47622000D01*
X40791000Y-42822000D02*
X40791000Y-43322000D01*
X40791000Y-42822000D02*
X41291000Y-42822000D01*
X48191000Y-42822000D02*
X48191000Y-43322000D01*
X48191000Y-42822000D02*
X47691000Y-42822000D01*
X48191000Y-48022000D02*
X48191000Y-47522000D01*
X48191000Y-48022000D02*
X47691000Y-48022000D01*
D10*
X73526952Y-64491809D02*
X73526952Y-64903047D01*
X73551142Y-64951428D01*
X73575333Y-64975619D01*
X73623714Y-64999809D01*
X73720476Y-64999809D01*
X73768857Y-64975619D01*
X73793047Y-64951428D01*
X73817238Y-64903047D01*
X73817238Y-64491809D01*
X74276857Y-64661142D02*
X74276857Y-64999809D01*
X74155904Y-64467619D02*
X74034952Y-64830476D01*
X74349428Y-64830476D01*
X32342666Y-63324619D02*
X32415238Y-63348809D01*
X32536190Y-63348809D01*
X32584571Y-63324619D01*
X32608761Y-63300428D01*
X32632952Y-63252047D01*
X32632952Y-63203666D01*
X32608761Y-63155285D01*
X32584571Y-63131095D01*
X32536190Y-63106904D01*
X32439428Y-63082714D01*
X32391047Y-63058523D01*
X32366857Y-63034333D01*
X32342666Y-62985952D01*
X32342666Y-62937571D01*
X32366857Y-62889190D01*
X32391047Y-62865000D01*
X32439428Y-62840809D01*
X32560380Y-62840809D01*
X32632952Y-62865000D01*
X32802285Y-62840809D02*
X32923238Y-63348809D01*
X33020000Y-62985952D01*
X33116761Y-63348809D01*
X33237714Y-62840809D01*
X33697333Y-63348809D02*
X33407047Y-63348809D01*
X33552190Y-63348809D02*
X33552190Y-62840809D01*
X33503809Y-62913380D01*
X33455428Y-62961761D01*
X33407047Y-62985952D01*
X66324238Y-93447809D02*
X66154904Y-93205904D01*
X66033952Y-93447809D02*
X66033952Y-92939809D01*
X66227476Y-92939809D01*
X66275857Y-92964000D01*
X66300047Y-92988190D01*
X66324238Y-93036571D01*
X66324238Y-93109142D01*
X66300047Y-93157523D01*
X66275857Y-93181714D01*
X66227476Y-93205904D01*
X66033952Y-93205904D01*
X66541952Y-93447809D02*
X66541952Y-92939809D01*
X66832238Y-93447809D01*
X66832238Y-92939809D01*
X67291857Y-93109142D02*
X67291857Y-93447809D01*
X67170904Y-92915619D02*
X67049952Y-93278476D01*
X67364428Y-93278476D01*
X36364333Y-94590809D02*
X36195000Y-94348904D01*
X36074047Y-94590809D02*
X36074047Y-94082809D01*
X36267571Y-94082809D01*
X36315952Y-94107000D01*
X36340142Y-94131190D01*
X36364333Y-94179571D01*
X36364333Y-94252142D01*
X36340142Y-94300523D01*
X36315952Y-94324714D01*
X36267571Y-94348904D01*
X36074047Y-94348904D01*
X36799761Y-94252142D02*
X36799761Y-94590809D01*
X36678809Y-94058619D02*
X36557857Y-94421476D01*
X36872333Y-94421476D01*
X36364333Y-91288809D02*
X36195000Y-91046904D01*
X36074047Y-91288809D02*
X36074047Y-90780809D01*
X36267571Y-90780809D01*
X36315952Y-90805000D01*
X36340142Y-90829190D01*
X36364333Y-90877571D01*
X36364333Y-90950142D01*
X36340142Y-90998523D01*
X36315952Y-91022714D01*
X36267571Y-91046904D01*
X36074047Y-91046904D01*
X36823952Y-90780809D02*
X36582047Y-90780809D01*
X36557857Y-91022714D01*
X36582047Y-90998523D01*
X36630428Y-90974333D01*
X36751380Y-90974333D01*
X36799761Y-90998523D01*
X36823952Y-91022714D01*
X36848142Y-91071095D01*
X36848142Y-91192047D01*
X36823952Y-91240428D01*
X36799761Y-91264619D01*
X36751380Y-91288809D01*
X36630428Y-91288809D01*
X36582047Y-91264619D01*
X36557857Y-91240428D01*
X67316047Y-41232809D02*
X67316047Y-40724809D01*
X67437000Y-40724809D01*
X67509571Y-40749000D01*
X67557952Y-40797380D01*
X67582142Y-40845761D01*
X67606333Y-40942523D01*
X67606333Y-41015095D01*
X67582142Y-41111857D01*
X67557952Y-41160238D01*
X67509571Y-41208619D01*
X67437000Y-41232809D01*
X67316047Y-41232809D01*
X67896619Y-40942523D02*
X67848238Y-40918333D01*
X67824047Y-40894142D01*
X67799857Y-40845761D01*
X67799857Y-40821571D01*
X67824047Y-40773190D01*
X67848238Y-40749000D01*
X67896619Y-40724809D01*
X67993380Y-40724809D01*
X68041761Y-40749000D01*
X68065952Y-40773190D01*
X68090142Y-40821571D01*
X68090142Y-40845761D01*
X68065952Y-40894142D01*
X68041761Y-40918333D01*
X67993380Y-40942523D01*
X67896619Y-40942523D01*
X67848238Y-40966714D01*
X67824047Y-40990904D01*
X67799857Y-41039285D01*
X67799857Y-41136047D01*
X67824047Y-41184428D01*
X67848238Y-41208619D01*
X67896619Y-41232809D01*
X67993380Y-41232809D01*
X68041761Y-41208619D01*
X68065952Y-41184428D01*
X68090142Y-41136047D01*
X68090142Y-41039285D01*
X68065952Y-40990904D01*
X68041761Y-40966714D01*
X67993380Y-40942523D01*
X58553047Y-41232809D02*
X58553047Y-40724809D01*
X58674000Y-40724809D01*
X58746571Y-40749000D01*
X58794952Y-40797380D01*
X58819142Y-40845761D01*
X58843333Y-40942523D01*
X58843333Y-41015095D01*
X58819142Y-41111857D01*
X58794952Y-41160238D01*
X58746571Y-41208619D01*
X58674000Y-41232809D01*
X58553047Y-41232809D01*
X59302952Y-40724809D02*
X59061047Y-40724809D01*
X59036857Y-40966714D01*
X59061047Y-40942523D01*
X59109428Y-40918333D01*
X59230380Y-40918333D01*
X59278761Y-40942523D01*
X59302952Y-40966714D01*
X59327142Y-41015095D01*
X59327142Y-41136047D01*
X59302952Y-41184428D01*
X59278761Y-41208619D01*
X59230380Y-41232809D01*
X59109428Y-41232809D01*
X59061047Y-41208619D01*
X59036857Y-41184428D01*
X55632047Y-41232809D02*
X55632047Y-40724809D01*
X55753000Y-40724809D01*
X55825571Y-40749000D01*
X55873952Y-40797380D01*
X55898142Y-40845761D01*
X55922333Y-40942523D01*
X55922333Y-41015095D01*
X55898142Y-41111857D01*
X55873952Y-41160238D01*
X55825571Y-41208619D01*
X55753000Y-41232809D01*
X55632047Y-41232809D01*
X56357761Y-40894142D02*
X56357761Y-41232809D01*
X56236809Y-40700619D02*
X56115857Y-41063476D01*
X56430333Y-41063476D01*
X64395047Y-41241809D02*
X64395047Y-40733809D01*
X64516000Y-40733809D01*
X64588571Y-40758000D01*
X64636952Y-40806380D01*
X64661142Y-40854761D01*
X64685333Y-40951523D01*
X64685333Y-41024095D01*
X64661142Y-41120857D01*
X64636952Y-41169238D01*
X64588571Y-41217619D01*
X64516000Y-41241809D01*
X64395047Y-41241809D01*
X64854666Y-40733809D02*
X65193333Y-40733809D01*
X64975619Y-41241809D01*
X70237047Y-41241809D02*
X70237047Y-40733809D01*
X70358000Y-40733809D01*
X70430571Y-40758000D01*
X70478952Y-40806380D01*
X70503142Y-40854761D01*
X70527333Y-40951523D01*
X70527333Y-41024095D01*
X70503142Y-41120857D01*
X70478952Y-41169238D01*
X70430571Y-41217619D01*
X70358000Y-41241809D01*
X70237047Y-41241809D01*
X70769238Y-41241809D02*
X70866000Y-41241809D01*
X70914380Y-41217619D01*
X70938571Y-41193428D01*
X70986952Y-41120857D01*
X71011142Y-41024095D01*
X71011142Y-40830571D01*
X70986952Y-40782190D01*
X70962761Y-40758000D01*
X70914380Y-40733809D01*
X70817619Y-40733809D01*
X70769238Y-40758000D01*
X70745047Y-40782190D01*
X70720857Y-40830571D01*
X70720857Y-40951523D01*
X70745047Y-40999904D01*
X70769238Y-41024095D01*
X70817619Y-41048285D01*
X70914380Y-41048285D01*
X70962761Y-41024095D01*
X70986952Y-40999904D01*
X71011142Y-40951523D01*
X52711047Y-41241809D02*
X52711047Y-40733809D01*
X52832000Y-40733809D01*
X52904571Y-40758000D01*
X52952952Y-40806380D01*
X52977142Y-40854761D01*
X53001333Y-40951523D01*
X53001333Y-41024095D01*
X52977142Y-41120857D01*
X52952952Y-41169238D01*
X52904571Y-41217619D01*
X52832000Y-41241809D01*
X52711047Y-41241809D01*
X53170666Y-40733809D02*
X53485142Y-40733809D01*
X53315809Y-40927333D01*
X53388380Y-40927333D01*
X53436761Y-40951523D01*
X53460952Y-40975714D01*
X53485142Y-41024095D01*
X53485142Y-41145047D01*
X53460952Y-41193428D01*
X53436761Y-41217619D01*
X53388380Y-41241809D01*
X53243238Y-41241809D01*
X53194857Y-41217619D01*
X53170666Y-41193428D01*
X73170142Y-41250809D02*
X73170142Y-40742809D01*
X73291095Y-40742809D01*
X73363666Y-40767000D01*
X73412047Y-40815380D01*
X73436238Y-40863761D01*
X73460428Y-40960523D01*
X73460428Y-41033095D01*
X73436238Y-41129857D01*
X73412047Y-41178238D01*
X73363666Y-41226619D01*
X73291095Y-41250809D01*
X73170142Y-41250809D01*
X73944238Y-41250809D02*
X73653952Y-41250809D01*
X73799095Y-41250809D02*
X73799095Y-40742809D01*
X73750714Y-40815380D01*
X73702333Y-40863761D01*
X73653952Y-40887952D01*
X74258714Y-40742809D02*
X74307095Y-40742809D01*
X74355476Y-40767000D01*
X74379666Y-40791190D01*
X74403857Y-40839571D01*
X74428047Y-40936333D01*
X74428047Y-41057285D01*
X74403857Y-41154047D01*
X74379666Y-41202428D01*
X74355476Y-41226619D01*
X74307095Y-41250809D01*
X74258714Y-41250809D01*
X74210333Y-41226619D01*
X74186142Y-41202428D01*
X74161952Y-41154047D01*
X74137761Y-41057285D01*
X74137761Y-40936333D01*
X74161952Y-40839571D01*
X74186142Y-40791190D01*
X74210333Y-40767000D01*
X74258714Y-40742809D01*
X61474047Y-41250809D02*
X61474047Y-40742809D01*
X61595000Y-40742809D01*
X61667571Y-40767000D01*
X61715952Y-40815380D01*
X61740142Y-40863761D01*
X61764333Y-40960523D01*
X61764333Y-41033095D01*
X61740142Y-41129857D01*
X61715952Y-41178238D01*
X61667571Y-41226619D01*
X61595000Y-41250809D01*
X61474047Y-41250809D01*
X62199761Y-40742809D02*
X62103000Y-40742809D01*
X62054619Y-40767000D01*
X62030428Y-40791190D01*
X61982047Y-40863761D01*
X61957857Y-40960523D01*
X61957857Y-41154047D01*
X61982047Y-41202428D01*
X62006238Y-41226619D01*
X62054619Y-41250809D01*
X62151380Y-41250809D01*
X62199761Y-41226619D01*
X62223952Y-41202428D01*
X62248142Y-41154047D01*
X62248142Y-41033095D01*
X62223952Y-40984714D01*
X62199761Y-40960523D01*
X62151380Y-40936333D01*
X62054619Y-40936333D01*
X62006238Y-40960523D01*
X61982047Y-40984714D01*
X61957857Y-41033095D01*
X52735238Y-42393809D02*
X52565904Y-42151904D01*
X52444952Y-42393809D02*
X52444952Y-41885809D01*
X52638476Y-41885809D01*
X52686857Y-41910000D01*
X52711047Y-41934190D01*
X52735238Y-41982571D01*
X52735238Y-42055142D01*
X52711047Y-42103523D01*
X52686857Y-42127714D01*
X52638476Y-42151904D01*
X52444952Y-42151904D01*
X52952952Y-42393809D02*
X52952952Y-41885809D01*
X53243238Y-42393809D01*
X53243238Y-41885809D01*
X53460952Y-41934190D02*
X53485142Y-41910000D01*
X53533523Y-41885809D01*
X53654476Y-41885809D01*
X53702857Y-41910000D01*
X53727047Y-41934190D01*
X53751238Y-41982571D01*
X53751238Y-42030952D01*
X53727047Y-42103523D01*
X53436761Y-42393809D01*
X53751238Y-42393809D01*
X52354238Y-58459309D02*
X52184904Y-58217404D01*
X52063952Y-58459309D02*
X52063952Y-57951309D01*
X52257476Y-57951309D01*
X52305857Y-57975500D01*
X52330047Y-57999690D01*
X52354238Y-58048071D01*
X52354238Y-58120642D01*
X52330047Y-58169023D01*
X52305857Y-58193214D01*
X52257476Y-58217404D01*
X52063952Y-58217404D01*
X52571952Y-58459309D02*
X52571952Y-57951309D01*
X52862238Y-58459309D01*
X52862238Y-57951309D01*
X53370238Y-58459309D02*
X53079952Y-58459309D01*
X53225095Y-58459309D02*
X53225095Y-57951309D01*
X53176714Y-58023880D01*
X53128333Y-58072261D01*
X53079952Y-58096452D01*
X37697833Y-50600428D02*
X37673642Y-50624619D01*
X37601071Y-50648809D01*
X37552690Y-50648809D01*
X37480119Y-50624619D01*
X37431738Y-50576238D01*
X37407547Y-50527857D01*
X37383357Y-50431095D01*
X37383357Y-50358523D01*
X37407547Y-50261761D01*
X37431738Y-50213380D01*
X37480119Y-50165000D01*
X37552690Y-50140809D01*
X37601071Y-50140809D01*
X37673642Y-50165000D01*
X37697833Y-50189190D01*
X38181642Y-50648809D02*
X37891357Y-50648809D01*
X38036500Y-50648809D02*
X38036500Y-50140809D01*
X37988119Y-50213380D01*
X37939738Y-50261761D01*
X37891357Y-50285952D01*
X46143333Y-33836428D02*
X46119142Y-33860619D01*
X46046571Y-33884809D01*
X45998190Y-33884809D01*
X45925619Y-33860619D01*
X45877238Y-33812238D01*
X45853047Y-33763857D01*
X45828857Y-33667095D01*
X45828857Y-33594523D01*
X45853047Y-33497761D01*
X45877238Y-33449380D01*
X45925619Y-33401000D01*
X45998190Y-33376809D01*
X46046571Y-33376809D01*
X46119142Y-33401000D01*
X46143333Y-33425190D01*
X46336857Y-33425190D02*
X46361047Y-33401000D01*
X46409428Y-33376809D01*
X46530380Y-33376809D01*
X46578761Y-33401000D01*
X46602952Y-33425190D01*
X46627142Y-33473571D01*
X46627142Y-33521952D01*
X46602952Y-33594523D01*
X46312666Y-33884809D01*
X46627142Y-33884809D01*
X56049333Y-33836428D02*
X56025142Y-33860619D01*
X55952571Y-33884809D01*
X55904190Y-33884809D01*
X55831619Y-33860619D01*
X55783238Y-33812238D01*
X55759047Y-33763857D01*
X55734857Y-33667095D01*
X55734857Y-33594523D01*
X55759047Y-33497761D01*
X55783238Y-33449380D01*
X55831619Y-33401000D01*
X55904190Y-33376809D01*
X55952571Y-33376809D01*
X56025142Y-33401000D01*
X56049333Y-33425190D01*
X56218666Y-33376809D02*
X56533142Y-33376809D01*
X56363809Y-33570333D01*
X56436380Y-33570333D01*
X56484761Y-33594523D01*
X56508952Y-33618714D01*
X56533142Y-33667095D01*
X56533142Y-33788047D01*
X56508952Y-33836428D01*
X56484761Y-33860619D01*
X56436380Y-33884809D01*
X56291238Y-33884809D01*
X56242857Y-33860619D01*
X56218666Y-33836428D01*
X39884047Y-39345809D02*
X39884047Y-38837809D01*
X40005000Y-38837809D01*
X40077571Y-38862000D01*
X40125952Y-38910380D01*
X40150142Y-38958761D01*
X40174333Y-39055523D01*
X40174333Y-39128095D01*
X40150142Y-39224857D01*
X40125952Y-39273238D01*
X40077571Y-39321619D01*
X40005000Y-39345809D01*
X39884047Y-39345809D01*
X40658142Y-39345809D02*
X40367857Y-39345809D01*
X40513000Y-39345809D02*
X40513000Y-38837809D01*
X40464619Y-38910380D01*
X40416238Y-38958761D01*
X40367857Y-38982952D01*
X30232047Y-38202809D02*
X30232047Y-37694809D01*
X30353000Y-37694809D01*
X30425571Y-37719000D01*
X30473952Y-37767380D01*
X30498142Y-37815761D01*
X30522333Y-37912523D01*
X30522333Y-37985095D01*
X30498142Y-38081857D01*
X30473952Y-38130238D01*
X30425571Y-38178619D01*
X30353000Y-38202809D01*
X30232047Y-38202809D01*
X30715857Y-37743190D02*
X30740047Y-37719000D01*
X30788428Y-37694809D01*
X30909380Y-37694809D01*
X30957761Y-37719000D01*
X30981952Y-37743190D01*
X31006142Y-37791571D01*
X31006142Y-37839952D01*
X30981952Y-37912523D01*
X30691666Y-38202809D01*
X31006142Y-38202809D01*
X38626142Y-102210809D02*
X38626142Y-101702809D01*
X38747095Y-101702809D01*
X38819666Y-101727000D01*
X38868047Y-101775380D01*
X38892238Y-101823761D01*
X38916428Y-101920523D01*
X38916428Y-101993095D01*
X38892238Y-102089857D01*
X38868047Y-102138238D01*
X38819666Y-102186619D01*
X38747095Y-102210809D01*
X38626142Y-102210809D01*
X39400238Y-102210809D02*
X39109952Y-102210809D01*
X39255095Y-102210809D02*
X39255095Y-101702809D01*
X39206714Y-101775380D01*
X39158333Y-101823761D01*
X39109952Y-101847952D01*
X39884047Y-102210809D02*
X39593761Y-102210809D01*
X39738904Y-102210809D02*
X39738904Y-101702809D01*
X39690523Y-101775380D01*
X39642142Y-101823761D01*
X39593761Y-101847952D01*
X41420142Y-102147309D02*
X41420142Y-101639309D01*
X41541095Y-101639309D01*
X41613666Y-101663500D01*
X41662047Y-101711880D01*
X41686238Y-101760261D01*
X41710428Y-101857023D01*
X41710428Y-101929595D01*
X41686238Y-102026357D01*
X41662047Y-102074738D01*
X41613666Y-102123119D01*
X41541095Y-102147309D01*
X41420142Y-102147309D01*
X42194238Y-102147309D02*
X41903952Y-102147309D01*
X42049095Y-102147309D02*
X42049095Y-101639309D01*
X42000714Y-101711880D01*
X41952333Y-101760261D01*
X41903952Y-101784452D01*
X42387761Y-101687690D02*
X42411952Y-101663500D01*
X42460333Y-101639309D01*
X42581285Y-101639309D01*
X42629666Y-101663500D01*
X42653857Y-101687690D01*
X42678047Y-101736071D01*
X42678047Y-101784452D01*
X42653857Y-101857023D01*
X42363571Y-102147309D01*
X42678047Y-102147309D01*
X44087142Y-102210809D02*
X44087142Y-101702809D01*
X44208095Y-101702809D01*
X44280666Y-101727000D01*
X44329047Y-101775380D01*
X44353238Y-101823761D01*
X44377428Y-101920523D01*
X44377428Y-101993095D01*
X44353238Y-102089857D01*
X44329047Y-102138238D01*
X44280666Y-102186619D01*
X44208095Y-102210809D01*
X44087142Y-102210809D01*
X44861238Y-102210809D02*
X44570952Y-102210809D01*
X44716095Y-102210809D02*
X44716095Y-101702809D01*
X44667714Y-101775380D01*
X44619333Y-101823761D01*
X44570952Y-101847952D01*
X45030571Y-101702809D02*
X45345047Y-101702809D01*
X45175714Y-101896333D01*
X45248285Y-101896333D01*
X45296666Y-101920523D01*
X45320857Y-101944714D01*
X45345047Y-101993095D01*
X45345047Y-102114047D01*
X45320857Y-102162428D01*
X45296666Y-102186619D01*
X45248285Y-102210809D01*
X45103142Y-102210809D01*
X45054761Y-102186619D01*
X45030571Y-102162428D01*
X47008142Y-102147309D02*
X47008142Y-101639309D01*
X47129095Y-101639309D01*
X47201666Y-101663500D01*
X47250047Y-101711880D01*
X47274238Y-101760261D01*
X47298428Y-101857023D01*
X47298428Y-101929595D01*
X47274238Y-102026357D01*
X47250047Y-102074738D01*
X47201666Y-102123119D01*
X47129095Y-102147309D01*
X47008142Y-102147309D01*
X47782238Y-102147309D02*
X47491952Y-102147309D01*
X47637095Y-102147309D02*
X47637095Y-101639309D01*
X47588714Y-101711880D01*
X47540333Y-101760261D01*
X47491952Y-101784452D01*
X48217666Y-101808642D02*
X48217666Y-102147309D01*
X48096714Y-101615119D02*
X47975761Y-101977976D01*
X48290238Y-101977976D01*
X49675142Y-102147309D02*
X49675142Y-101639309D01*
X49796095Y-101639309D01*
X49868666Y-101663500D01*
X49917047Y-101711880D01*
X49941238Y-101760261D01*
X49965428Y-101857023D01*
X49965428Y-101929595D01*
X49941238Y-102026357D01*
X49917047Y-102074738D01*
X49868666Y-102123119D01*
X49796095Y-102147309D01*
X49675142Y-102147309D01*
X50449238Y-102147309D02*
X50158952Y-102147309D01*
X50304095Y-102147309D02*
X50304095Y-101639309D01*
X50255714Y-101711880D01*
X50207333Y-101760261D01*
X50158952Y-101784452D01*
X50908857Y-101639309D02*
X50666952Y-101639309D01*
X50642761Y-101881214D01*
X50666952Y-101857023D01*
X50715333Y-101832833D01*
X50836285Y-101832833D01*
X50884666Y-101857023D01*
X50908857Y-101881214D01*
X50933047Y-101929595D01*
X50933047Y-102050547D01*
X50908857Y-102098928D01*
X50884666Y-102123119D01*
X50836285Y-102147309D01*
X50715333Y-102147309D01*
X50666952Y-102123119D01*
X50642761Y-102098928D01*
X52596142Y-102147309D02*
X52596142Y-101639309D01*
X52717095Y-101639309D01*
X52789666Y-101663500D01*
X52838047Y-101711880D01*
X52862238Y-101760261D01*
X52886428Y-101857023D01*
X52886428Y-101929595D01*
X52862238Y-102026357D01*
X52838047Y-102074738D01*
X52789666Y-102123119D01*
X52717095Y-102147309D01*
X52596142Y-102147309D01*
X53370238Y-102147309D02*
X53079952Y-102147309D01*
X53225095Y-102147309D02*
X53225095Y-101639309D01*
X53176714Y-101711880D01*
X53128333Y-101760261D01*
X53079952Y-101784452D01*
X53805666Y-101639309D02*
X53708904Y-101639309D01*
X53660523Y-101663500D01*
X53636333Y-101687690D01*
X53587952Y-101760261D01*
X53563761Y-101857023D01*
X53563761Y-102050547D01*
X53587952Y-102098928D01*
X53612142Y-102123119D01*
X53660523Y-102147309D01*
X53757285Y-102147309D01*
X53805666Y-102123119D01*
X53829857Y-102098928D01*
X53854047Y-102050547D01*
X53854047Y-101929595D01*
X53829857Y-101881214D01*
X53805666Y-101857023D01*
X53757285Y-101832833D01*
X53660523Y-101832833D01*
X53612142Y-101857023D01*
X53587952Y-101881214D01*
X53563761Y-101929595D01*
X55390142Y-102147309D02*
X55390142Y-101639309D01*
X55511095Y-101639309D01*
X55583666Y-101663500D01*
X55632047Y-101711880D01*
X55656238Y-101760261D01*
X55680428Y-101857023D01*
X55680428Y-101929595D01*
X55656238Y-102026357D01*
X55632047Y-102074738D01*
X55583666Y-102123119D01*
X55511095Y-102147309D01*
X55390142Y-102147309D01*
X56164238Y-102147309D02*
X55873952Y-102147309D01*
X56019095Y-102147309D02*
X56019095Y-101639309D01*
X55970714Y-101711880D01*
X55922333Y-101760261D01*
X55873952Y-101784452D01*
X56333571Y-101639309D02*
X56672238Y-101639309D01*
X56454523Y-102147309D01*
X58184142Y-102147309D02*
X58184142Y-101639309D01*
X58305095Y-101639309D01*
X58377666Y-101663500D01*
X58426047Y-101711880D01*
X58450238Y-101760261D01*
X58474428Y-101857023D01*
X58474428Y-101929595D01*
X58450238Y-102026357D01*
X58426047Y-102074738D01*
X58377666Y-102123119D01*
X58305095Y-102147309D01*
X58184142Y-102147309D01*
X58958238Y-102147309D02*
X58667952Y-102147309D01*
X58813095Y-102147309D02*
X58813095Y-101639309D01*
X58764714Y-101711880D01*
X58716333Y-101760261D01*
X58667952Y-101784452D01*
X59248523Y-101857023D02*
X59200142Y-101832833D01*
X59175952Y-101808642D01*
X59151761Y-101760261D01*
X59151761Y-101736071D01*
X59175952Y-101687690D01*
X59200142Y-101663500D01*
X59248523Y-101639309D01*
X59345285Y-101639309D01*
X59393666Y-101663500D01*
X59417857Y-101687690D01*
X59442047Y-101736071D01*
X59442047Y-101760261D01*
X59417857Y-101808642D01*
X59393666Y-101832833D01*
X59345285Y-101857023D01*
X59248523Y-101857023D01*
X59200142Y-101881214D01*
X59175952Y-101905404D01*
X59151761Y-101953785D01*
X59151761Y-102050547D01*
X59175952Y-102098928D01*
X59200142Y-102123119D01*
X59248523Y-102147309D01*
X59345285Y-102147309D01*
X59393666Y-102123119D01*
X59417857Y-102098928D01*
X59442047Y-102050547D01*
X59442047Y-101953785D01*
X59417857Y-101905404D01*
X59393666Y-101881214D01*
X59345285Y-101857023D01*
X60978142Y-102147309D02*
X60978142Y-101639309D01*
X61099095Y-101639309D01*
X61171666Y-101663500D01*
X61220047Y-101711880D01*
X61244238Y-101760261D01*
X61268428Y-101857023D01*
X61268428Y-101929595D01*
X61244238Y-102026357D01*
X61220047Y-102074738D01*
X61171666Y-102123119D01*
X61099095Y-102147309D01*
X60978142Y-102147309D01*
X61752238Y-102147309D02*
X61461952Y-102147309D01*
X61607095Y-102147309D02*
X61607095Y-101639309D01*
X61558714Y-101711880D01*
X61510333Y-101760261D01*
X61461952Y-101784452D01*
X61994142Y-102147309D02*
X62090904Y-102147309D01*
X62139285Y-102123119D01*
X62163476Y-102098928D01*
X62211857Y-102026357D01*
X62236047Y-101929595D01*
X62236047Y-101736071D01*
X62211857Y-101687690D01*
X62187666Y-101663500D01*
X62139285Y-101639309D01*
X62042523Y-101639309D01*
X61994142Y-101663500D01*
X61969952Y-101687690D01*
X61945761Y-101736071D01*
X61945761Y-101857023D01*
X61969952Y-101905404D01*
X61994142Y-101929595D01*
X62042523Y-101953785D01*
X62139285Y-101953785D01*
X62187666Y-101929595D01*
X62211857Y-101905404D01*
X62236047Y-101857023D01*
X63772142Y-102147309D02*
X63772142Y-101639309D01*
X63893095Y-101639309D01*
X63965666Y-101663500D01*
X64014047Y-101711880D01*
X64038238Y-101760261D01*
X64062428Y-101857023D01*
X64062428Y-101929595D01*
X64038238Y-102026357D01*
X64014047Y-102074738D01*
X63965666Y-102123119D01*
X63893095Y-102147309D01*
X63772142Y-102147309D01*
X64255952Y-101687690D02*
X64280142Y-101663500D01*
X64328523Y-101639309D01*
X64449476Y-101639309D01*
X64497857Y-101663500D01*
X64522047Y-101687690D01*
X64546238Y-101736071D01*
X64546238Y-101784452D01*
X64522047Y-101857023D01*
X64231761Y-102147309D01*
X64546238Y-102147309D01*
X64860714Y-101639309D02*
X64909095Y-101639309D01*
X64957476Y-101663500D01*
X64981666Y-101687690D01*
X65005857Y-101736071D01*
X65030047Y-101832833D01*
X65030047Y-101953785D01*
X65005857Y-102050547D01*
X64981666Y-102098928D01*
X64957476Y-102123119D01*
X64909095Y-102147309D01*
X64860714Y-102147309D01*
X64812333Y-102123119D01*
X64788142Y-102098928D01*
X64763952Y-102050547D01*
X64739761Y-101953785D01*
X64739761Y-101832833D01*
X64763952Y-101736071D01*
X64788142Y-101687690D01*
X64812333Y-101663500D01*
X64860714Y-101639309D01*
X66566142Y-102147309D02*
X66566142Y-101639309D01*
X66687095Y-101639309D01*
X66759666Y-101663500D01*
X66808047Y-101711880D01*
X66832238Y-101760261D01*
X66856428Y-101857023D01*
X66856428Y-101929595D01*
X66832238Y-102026357D01*
X66808047Y-102074738D01*
X66759666Y-102123119D01*
X66687095Y-102147309D01*
X66566142Y-102147309D01*
X67049952Y-101687690D02*
X67074142Y-101663500D01*
X67122523Y-101639309D01*
X67243476Y-101639309D01*
X67291857Y-101663500D01*
X67316047Y-101687690D01*
X67340238Y-101736071D01*
X67340238Y-101784452D01*
X67316047Y-101857023D01*
X67025761Y-102147309D01*
X67340238Y-102147309D01*
X67824047Y-102147309D02*
X67533761Y-102147309D01*
X67678904Y-102147309D02*
X67678904Y-101639309D01*
X67630523Y-101711880D01*
X67582142Y-101760261D01*
X67533761Y-101784452D01*
X28850166Y-50140809D02*
X28850166Y-50503666D01*
X28825976Y-50576238D01*
X28777595Y-50624619D01*
X28705023Y-50648809D01*
X28656642Y-50648809D01*
X29067880Y-50189190D02*
X29092071Y-50165000D01*
X29140452Y-50140809D01*
X29261404Y-50140809D01*
X29309785Y-50165000D01*
X29333976Y-50189190D01*
X29358166Y-50237571D01*
X29358166Y-50285952D01*
X29333976Y-50358523D01*
X29043690Y-50648809D01*
X29358166Y-50648809D01*
X33379833Y-50648809D02*
X33210500Y-50406904D01*
X33089547Y-50648809D02*
X33089547Y-50140809D01*
X33283071Y-50140809D01*
X33331452Y-50165000D01*
X33355642Y-50189190D01*
X33379833Y-50237571D01*
X33379833Y-50310142D01*
X33355642Y-50358523D01*
X33331452Y-50382714D01*
X33283071Y-50406904D01*
X33089547Y-50406904D01*
X33863642Y-50648809D02*
X33573357Y-50648809D01*
X33718500Y-50648809D02*
X33718500Y-50140809D01*
X33670119Y-50213380D01*
X33621738Y-50261761D01*
X33573357Y-50285952D01*
X35475333Y-50648809D02*
X35306000Y-50406904D01*
X35185047Y-50648809D02*
X35185047Y-50140809D01*
X35378571Y-50140809D01*
X35426952Y-50165000D01*
X35451142Y-50189190D01*
X35475333Y-50237571D01*
X35475333Y-50310142D01*
X35451142Y-50358523D01*
X35426952Y-50382714D01*
X35378571Y-50406904D01*
X35185047Y-50406904D01*
X35668857Y-50189190D02*
X35693047Y-50165000D01*
X35741428Y-50140809D01*
X35862380Y-50140809D01*
X35910761Y-50165000D01*
X35934952Y-50189190D01*
X35959142Y-50237571D01*
X35959142Y-50285952D01*
X35934952Y-50358523D01*
X35644666Y-50648809D01*
X35959142Y-50648809D01*
X37634333Y-39345809D02*
X37465000Y-39103904D01*
X37344047Y-39345809D02*
X37344047Y-38837809D01*
X37537571Y-38837809D01*
X37585952Y-38862000D01*
X37610142Y-38886190D01*
X37634333Y-38934571D01*
X37634333Y-39007142D01*
X37610142Y-39055523D01*
X37585952Y-39079714D01*
X37537571Y-39103904D01*
X37344047Y-39103904D01*
X37803666Y-38837809D02*
X38118142Y-38837809D01*
X37948809Y-39031333D01*
X38021380Y-39031333D01*
X38069761Y-39055523D01*
X38093952Y-39079714D01*
X38118142Y-39128095D01*
X38118142Y-39249047D01*
X38093952Y-39297428D01*
X38069761Y-39321619D01*
X38021380Y-39345809D01*
X37876238Y-39345809D01*
X37827857Y-39321619D01*
X37803666Y-39297428D01*
X66324238Y-89637809D02*
X66154904Y-89395904D01*
X66033952Y-89637809D02*
X66033952Y-89129809D01*
X66227476Y-89129809D01*
X66275857Y-89154000D01*
X66300047Y-89178190D01*
X66324238Y-89226571D01*
X66324238Y-89299142D01*
X66300047Y-89347523D01*
X66275857Y-89371714D01*
X66227476Y-89395904D01*
X66033952Y-89395904D01*
X66541952Y-89637809D02*
X66541952Y-89129809D01*
X66832238Y-89637809D01*
X66832238Y-89129809D01*
X67025761Y-89129809D02*
X67340238Y-89129809D01*
X67170904Y-89323333D01*
X67243476Y-89323333D01*
X67291857Y-89347523D01*
X67316047Y-89371714D01*
X67340238Y-89420095D01*
X67340238Y-89541047D01*
X67316047Y-89589428D01*
X67291857Y-89613619D01*
X67243476Y-89637809D01*
X67098333Y-89637809D01*
X67049952Y-89613619D01*
X67025761Y-89589428D01*
X60826952Y-34241619D02*
X60899523Y-34265809D01*
X61020476Y-34265809D01*
X61068857Y-34241619D01*
X61093047Y-34217428D01*
X61117238Y-34169047D01*
X61117238Y-34120666D01*
X61093047Y-34072285D01*
X61068857Y-34048095D01*
X61020476Y-34023904D01*
X60923714Y-33999714D01*
X60875333Y-33975523D01*
X60851142Y-33951333D01*
X60826952Y-33902952D01*
X60826952Y-33854571D01*
X60851142Y-33806190D01*
X60875333Y-33782000D01*
X60923714Y-33757809D01*
X61044666Y-33757809D01*
X61117238Y-33782000D01*
X61601047Y-34265809D02*
X61310761Y-34265809D01*
X61455904Y-34265809D02*
X61455904Y-33757809D01*
X61407523Y-33830380D01*
X61359142Y-33878761D01*
X61310761Y-33902952D01*
X60699952Y-28018619D02*
X60772523Y-28042809D01*
X60893476Y-28042809D01*
X60941857Y-28018619D01*
X60966047Y-27994428D01*
X60990238Y-27946047D01*
X60990238Y-27897666D01*
X60966047Y-27849285D01*
X60941857Y-27825095D01*
X60893476Y-27800904D01*
X60796714Y-27776714D01*
X60748333Y-27752523D01*
X60724142Y-27728333D01*
X60699952Y-27679952D01*
X60699952Y-27631571D01*
X60724142Y-27583190D01*
X60748333Y-27559000D01*
X60796714Y-27534809D01*
X60917666Y-27534809D01*
X60990238Y-27559000D01*
X61183761Y-27583190D02*
X61207952Y-27559000D01*
X61256333Y-27534809D01*
X61377285Y-27534809D01*
X61425666Y-27559000D01*
X61449857Y-27583190D01*
X61474047Y-27631571D01*
X61474047Y-27679952D01*
X61449857Y-27752523D01*
X61159571Y-28042809D01*
X61474047Y-28042809D01*
X45967952Y-31979809D02*
X45967952Y-32391047D01*
X45992142Y-32439428D01*
X46016333Y-32463619D01*
X46064714Y-32487809D01*
X46161476Y-32487809D01*
X46209857Y-32463619D01*
X46234047Y-32439428D01*
X46258238Y-32391047D01*
X46258238Y-31979809D01*
X46766238Y-32487809D02*
X46475952Y-32487809D01*
X46621095Y-32487809D02*
X46621095Y-31979809D01*
X46572714Y-32052380D01*
X46524333Y-32100761D01*
X46475952Y-32124952D01*
X43173952Y-61443809D02*
X43173952Y-61855047D01*
X43198142Y-61903428D01*
X43222333Y-61927619D01*
X43270714Y-61951809D01*
X43367476Y-61951809D01*
X43415857Y-61927619D01*
X43440047Y-61903428D01*
X43464238Y-61855047D01*
X43464238Y-61443809D01*
X43681952Y-61492190D02*
X43706142Y-61468000D01*
X43754523Y-61443809D01*
X43875476Y-61443809D01*
X43923857Y-61468000D01*
X43948047Y-61492190D01*
X43972238Y-61540571D01*
X43972238Y-61588952D01*
X43948047Y-61661523D01*
X43657761Y-61951809D01*
X43972238Y-61951809D01*
X48507952Y-47283309D02*
X48507952Y-47694547D01*
X48532142Y-47742928D01*
X48556333Y-47767119D01*
X48604714Y-47791309D01*
X48701476Y-47791309D01*
X48749857Y-47767119D01*
X48774047Y-47742928D01*
X48798238Y-47694547D01*
X48798238Y-47283309D01*
X48991761Y-47283309D02*
X49306238Y-47283309D01*
X49136904Y-47476833D01*
X49209476Y-47476833D01*
X49257857Y-47501023D01*
X49282047Y-47525214D01*
X49306238Y-47573595D01*
X49306238Y-47694547D01*
X49282047Y-47742928D01*
X49257857Y-47767119D01*
X49209476Y-47791309D01*
X49064333Y-47791309D01*
X49015952Y-47767119D01*
X48991761Y-47742928D01*
%LPC*%
D15*
X38354000Y-83566000D03*
D16*
X38354000Y-68326000D03*
X40894000Y-83566000D03*
X40894000Y-68326000D03*
X43434000Y-83566000D03*
X43434000Y-68326000D03*
X45974000Y-83566000D03*
X45974000Y-68326000D03*
X48514000Y-83566000D03*
X48514000Y-68326000D03*
X51054000Y-83566000D03*
X51054000Y-68326000D03*
X53594000Y-83566000D03*
X53594000Y-68326000D03*
X56134000Y-83566000D03*
X56134000Y-68326000D03*
X58674000Y-83566000D03*
X58674000Y-68326000D03*
X61214000Y-83566000D03*
X61214000Y-68326000D03*
X63754000Y-83566000D03*
X63754000Y-68326000D03*
X66294000Y-83566000D03*
X66294000Y-68326000D03*
D17*
X31369000Y-61523000D03*
X31369000Y-57023000D03*
X37869000Y-61523000D03*
X37869000Y-57023000D03*
D18*
X38862000Y-94234000D03*
D19*
X41402000Y-94234000D03*
X43942000Y-94234000D03*
X46482000Y-94234000D03*
X49022000Y-94234000D03*
X51562000Y-94234000D03*
X54102000Y-94234000D03*
X56642000Y-94234000D03*
X59182000Y-94234000D03*
X61722000Y-94234000D03*
X64262000Y-94234000D03*
X72517000Y-55118000D03*
X54737000Y-47498000D03*
X69977000Y-55118000D03*
X57277000Y-47498000D03*
X67437000Y-55118000D03*
X59817000Y-47498000D03*
X64897000Y-55118000D03*
X62357000Y-47498000D03*
X62357000Y-55118000D03*
X64897000Y-47498000D03*
X59817000Y-55118000D03*
X67437000Y-47498000D03*
X57277000Y-55118000D03*
X69977000Y-47498000D03*
X54737000Y-55118000D03*
D18*
X72517000Y-47498000D03*
D14*
G36*
X35305383Y-93611510D02*
G01*
X35331795Y-93615428D01*
X35357696Y-93621916D01*
X35382837Y-93630911D01*
X35406974Y-93642328D01*
X35429877Y-93656055D01*
X35451324Y-93671961D01*
X35471108Y-93689892D01*
X35489039Y-93709676D01*
X35504945Y-93731123D01*
X35518672Y-93754026D01*
X35530089Y-93778163D01*
X35539084Y-93803304D01*
X35545572Y-93829205D01*
X35549490Y-93855617D01*
X35550800Y-93882286D01*
X35550800Y-94839714D01*
X35549490Y-94866383D01*
X35545572Y-94892795D01*
X35539084Y-94918696D01*
X35530089Y-94943837D01*
X35518672Y-94967974D01*
X35504945Y-94990877D01*
X35489039Y-95012324D01*
X35471108Y-95032108D01*
X35451324Y-95050039D01*
X35429877Y-95065945D01*
X35406974Y-95079672D01*
X35382837Y-95091089D01*
X35357696Y-95100084D01*
X35331795Y-95106572D01*
X35305383Y-95110490D01*
X35278714Y-95111800D01*
X34571286Y-95111800D01*
X34544617Y-95110490D01*
X34518205Y-95106572D01*
X34492304Y-95100084D01*
X34467163Y-95091089D01*
X34443026Y-95079672D01*
X34420123Y-95065945D01*
X34398676Y-95050039D01*
X34378892Y-95032108D01*
X34360961Y-95012324D01*
X34345055Y-94990877D01*
X34331328Y-94967974D01*
X34319911Y-94943837D01*
X34310916Y-94918696D01*
X34304428Y-94892795D01*
X34300510Y-94866383D01*
X34299200Y-94839714D01*
X34299200Y-93882286D01*
X34300510Y-93855617D01*
X34304428Y-93829205D01*
X34310916Y-93803304D01*
X34319911Y-93778163D01*
X34331328Y-93754026D01*
X34345055Y-93731123D01*
X34360961Y-93709676D01*
X34378892Y-93689892D01*
X34398676Y-93671961D01*
X34420123Y-93656055D01*
X34443026Y-93642328D01*
X34467163Y-93630911D01*
X34492304Y-93621916D01*
X34518205Y-93615428D01*
X34544617Y-93611510D01*
X34571286Y-93610200D01*
X35278714Y-93610200D01*
X35305383Y-93611510D01*
X35305383Y-93611510D01*
G37*
D20*
X34925000Y-94361000D03*
D14*
G36*
X33255383Y-93611510D02*
G01*
X33281795Y-93615428D01*
X33307696Y-93621916D01*
X33332837Y-93630911D01*
X33356974Y-93642328D01*
X33379877Y-93656055D01*
X33401324Y-93671961D01*
X33421108Y-93689892D01*
X33439039Y-93709676D01*
X33454945Y-93731123D01*
X33468672Y-93754026D01*
X33480089Y-93778163D01*
X33489084Y-93803304D01*
X33495572Y-93829205D01*
X33499490Y-93855617D01*
X33500800Y-93882286D01*
X33500800Y-94839714D01*
X33499490Y-94866383D01*
X33495572Y-94892795D01*
X33489084Y-94918696D01*
X33480089Y-94943837D01*
X33468672Y-94967974D01*
X33454945Y-94990877D01*
X33439039Y-95012324D01*
X33421108Y-95032108D01*
X33401324Y-95050039D01*
X33379877Y-95065945D01*
X33356974Y-95079672D01*
X33332837Y-95091089D01*
X33307696Y-95100084D01*
X33281795Y-95106572D01*
X33255383Y-95110490D01*
X33228714Y-95111800D01*
X32521286Y-95111800D01*
X32494617Y-95110490D01*
X32468205Y-95106572D01*
X32442304Y-95100084D01*
X32417163Y-95091089D01*
X32393026Y-95079672D01*
X32370123Y-95065945D01*
X32348676Y-95050039D01*
X32328892Y-95032108D01*
X32310961Y-95012324D01*
X32295055Y-94990877D01*
X32281328Y-94967974D01*
X32269911Y-94943837D01*
X32260916Y-94918696D01*
X32254428Y-94892795D01*
X32250510Y-94866383D01*
X32249200Y-94839714D01*
X32249200Y-93882286D01*
X32250510Y-93855617D01*
X32254428Y-93829205D01*
X32260916Y-93803304D01*
X32269911Y-93778163D01*
X32281328Y-93754026D01*
X32295055Y-93731123D01*
X32310961Y-93709676D01*
X32328892Y-93689892D01*
X32348676Y-93671961D01*
X32370123Y-93656055D01*
X32393026Y-93642328D01*
X32417163Y-93630911D01*
X32442304Y-93621916D01*
X32468205Y-93615428D01*
X32494617Y-93611510D01*
X32521286Y-93610200D01*
X33228714Y-93610200D01*
X33255383Y-93611510D01*
X33255383Y-93611510D01*
G37*
D20*
X32875000Y-94361000D03*
D14*
G36*
X35323383Y-90309510D02*
G01*
X35349795Y-90313428D01*
X35375696Y-90319916D01*
X35400837Y-90328911D01*
X35424974Y-90340328D01*
X35447877Y-90354055D01*
X35469324Y-90369961D01*
X35489108Y-90387892D01*
X35507039Y-90407676D01*
X35522945Y-90429123D01*
X35536672Y-90452026D01*
X35548089Y-90476163D01*
X35557084Y-90501304D01*
X35563572Y-90527205D01*
X35567490Y-90553617D01*
X35568800Y-90580286D01*
X35568800Y-91537714D01*
X35567490Y-91564383D01*
X35563572Y-91590795D01*
X35557084Y-91616696D01*
X35548089Y-91641837D01*
X35536672Y-91665974D01*
X35522945Y-91688877D01*
X35507039Y-91710324D01*
X35489108Y-91730108D01*
X35469324Y-91748039D01*
X35447877Y-91763945D01*
X35424974Y-91777672D01*
X35400837Y-91789089D01*
X35375696Y-91798084D01*
X35349795Y-91804572D01*
X35323383Y-91808490D01*
X35296714Y-91809800D01*
X34589286Y-91809800D01*
X34562617Y-91808490D01*
X34536205Y-91804572D01*
X34510304Y-91798084D01*
X34485163Y-91789089D01*
X34461026Y-91777672D01*
X34438123Y-91763945D01*
X34416676Y-91748039D01*
X34396892Y-91730108D01*
X34378961Y-91710324D01*
X34363055Y-91688877D01*
X34349328Y-91665974D01*
X34337911Y-91641837D01*
X34328916Y-91616696D01*
X34322428Y-91590795D01*
X34318510Y-91564383D01*
X34317200Y-91537714D01*
X34317200Y-90580286D01*
X34318510Y-90553617D01*
X34322428Y-90527205D01*
X34328916Y-90501304D01*
X34337911Y-90476163D01*
X34349328Y-90452026D01*
X34363055Y-90429123D01*
X34378961Y-90407676D01*
X34396892Y-90387892D01*
X34416676Y-90369961D01*
X34438123Y-90354055D01*
X34461026Y-90340328D01*
X34485163Y-90328911D01*
X34510304Y-90319916D01*
X34536205Y-90313428D01*
X34562617Y-90309510D01*
X34589286Y-90308200D01*
X35296714Y-90308200D01*
X35323383Y-90309510D01*
X35323383Y-90309510D01*
G37*
D20*
X34943000Y-91059000D03*
D14*
G36*
X33273383Y-90309510D02*
G01*
X33299795Y-90313428D01*
X33325696Y-90319916D01*
X33350837Y-90328911D01*
X33374974Y-90340328D01*
X33397877Y-90354055D01*
X33419324Y-90369961D01*
X33439108Y-90387892D01*
X33457039Y-90407676D01*
X33472945Y-90429123D01*
X33486672Y-90452026D01*
X33498089Y-90476163D01*
X33507084Y-90501304D01*
X33513572Y-90527205D01*
X33517490Y-90553617D01*
X33518800Y-90580286D01*
X33518800Y-91537714D01*
X33517490Y-91564383D01*
X33513572Y-91590795D01*
X33507084Y-91616696D01*
X33498089Y-91641837D01*
X33486672Y-91665974D01*
X33472945Y-91688877D01*
X33457039Y-91710324D01*
X33439108Y-91730108D01*
X33419324Y-91748039D01*
X33397877Y-91763945D01*
X33374974Y-91777672D01*
X33350837Y-91789089D01*
X33325696Y-91798084D01*
X33299795Y-91804572D01*
X33273383Y-91808490D01*
X33246714Y-91809800D01*
X32539286Y-91809800D01*
X32512617Y-91808490D01*
X32486205Y-91804572D01*
X32460304Y-91798084D01*
X32435163Y-91789089D01*
X32411026Y-91777672D01*
X32388123Y-91763945D01*
X32366676Y-91748039D01*
X32346892Y-91730108D01*
X32328961Y-91710324D01*
X32313055Y-91688877D01*
X32299328Y-91665974D01*
X32287911Y-91641837D01*
X32278916Y-91616696D01*
X32272428Y-91590795D01*
X32268510Y-91564383D01*
X32267200Y-91537714D01*
X32267200Y-90580286D01*
X32268510Y-90553617D01*
X32272428Y-90527205D01*
X32278916Y-90501304D01*
X32287911Y-90476163D01*
X32299328Y-90452026D01*
X32313055Y-90429123D01*
X32328961Y-90407676D01*
X32346892Y-90387892D01*
X32366676Y-90369961D01*
X32388123Y-90354055D01*
X32411026Y-90340328D01*
X32435163Y-90328911D01*
X32460304Y-90319916D01*
X32486205Y-90313428D01*
X32512617Y-90309510D01*
X32539286Y-90308200D01*
X33246714Y-90308200D01*
X33273383Y-90309510D01*
X33273383Y-90309510D01*
G37*
D20*
X32893000Y-91059000D03*
D18*
X66167000Y-104013000D03*
D19*
X43307000Y-111633000D03*
X63627000Y-104013000D03*
X45847000Y-111633000D03*
X61087000Y-104013000D03*
X48387000Y-111633000D03*
X58547000Y-104013000D03*
X50927000Y-111633000D03*
X56007000Y-104013000D03*
X53467000Y-111633000D03*
X53467000Y-104013000D03*
X56007000Y-111633000D03*
X50927000Y-104013000D03*
X58547000Y-111633000D03*
X48387000Y-104013000D03*
X61087000Y-111633000D03*
X45847000Y-104013000D03*
X63627000Y-111633000D03*
X43307000Y-104013000D03*
X66167000Y-111633000D03*
D14*
G36*
X68196383Y-38872510D02*
G01*
X68222795Y-38876428D01*
X68248696Y-38882916D01*
X68273837Y-38891911D01*
X68297974Y-38903328D01*
X68320877Y-38917055D01*
X68342324Y-38932961D01*
X68362108Y-38950892D01*
X68380039Y-38970676D01*
X68395945Y-38992123D01*
X68409672Y-39015026D01*
X68421089Y-39039163D01*
X68430084Y-39064304D01*
X68436572Y-39090205D01*
X68440490Y-39116617D01*
X68441800Y-39143286D01*
X68441800Y-39850714D01*
X68440490Y-39877383D01*
X68436572Y-39903795D01*
X68430084Y-39929696D01*
X68421089Y-39954837D01*
X68409672Y-39978974D01*
X68395945Y-40001877D01*
X68380039Y-40023324D01*
X68362108Y-40043108D01*
X68342324Y-40061039D01*
X68320877Y-40076945D01*
X68297974Y-40090672D01*
X68273837Y-40102089D01*
X68248696Y-40111084D01*
X68222795Y-40117572D01*
X68196383Y-40121490D01*
X68169714Y-40122800D01*
X67212286Y-40122800D01*
X67185617Y-40121490D01*
X67159205Y-40117572D01*
X67133304Y-40111084D01*
X67108163Y-40102089D01*
X67084026Y-40090672D01*
X67061123Y-40076945D01*
X67039676Y-40061039D01*
X67019892Y-40043108D01*
X67001961Y-40023324D01*
X66986055Y-40001877D01*
X66972328Y-39978974D01*
X66960911Y-39954837D01*
X66951916Y-39929696D01*
X66945428Y-39903795D01*
X66941510Y-39877383D01*
X66940200Y-39850714D01*
X66940200Y-39143286D01*
X66941510Y-39116617D01*
X66945428Y-39090205D01*
X66951916Y-39064304D01*
X66960911Y-39039163D01*
X66972328Y-39015026D01*
X66986055Y-38992123D01*
X67001961Y-38970676D01*
X67019892Y-38950892D01*
X67039676Y-38932961D01*
X67061123Y-38917055D01*
X67084026Y-38903328D01*
X67108163Y-38891911D01*
X67133304Y-38882916D01*
X67159205Y-38876428D01*
X67185617Y-38872510D01*
X67212286Y-38871200D01*
X68169714Y-38871200D01*
X68196383Y-38872510D01*
X68196383Y-38872510D01*
G37*
D20*
X67691000Y-39497000D03*
D14*
G36*
X68196383Y-36822510D02*
G01*
X68222795Y-36826428D01*
X68248696Y-36832916D01*
X68273837Y-36841911D01*
X68297974Y-36853328D01*
X68320877Y-36867055D01*
X68342324Y-36882961D01*
X68362108Y-36900892D01*
X68380039Y-36920676D01*
X68395945Y-36942123D01*
X68409672Y-36965026D01*
X68421089Y-36989163D01*
X68430084Y-37014304D01*
X68436572Y-37040205D01*
X68440490Y-37066617D01*
X68441800Y-37093286D01*
X68441800Y-37800714D01*
X68440490Y-37827383D01*
X68436572Y-37853795D01*
X68430084Y-37879696D01*
X68421089Y-37904837D01*
X68409672Y-37928974D01*
X68395945Y-37951877D01*
X68380039Y-37973324D01*
X68362108Y-37993108D01*
X68342324Y-38011039D01*
X68320877Y-38026945D01*
X68297974Y-38040672D01*
X68273837Y-38052089D01*
X68248696Y-38061084D01*
X68222795Y-38067572D01*
X68196383Y-38071490D01*
X68169714Y-38072800D01*
X67212286Y-38072800D01*
X67185617Y-38071490D01*
X67159205Y-38067572D01*
X67133304Y-38061084D01*
X67108163Y-38052089D01*
X67084026Y-38040672D01*
X67061123Y-38026945D01*
X67039676Y-38011039D01*
X67019892Y-37993108D01*
X67001961Y-37973324D01*
X66986055Y-37951877D01*
X66972328Y-37928974D01*
X66960911Y-37904837D01*
X66951916Y-37879696D01*
X66945428Y-37853795D01*
X66941510Y-37827383D01*
X66940200Y-37800714D01*
X66940200Y-37093286D01*
X66941510Y-37066617D01*
X66945428Y-37040205D01*
X66951916Y-37014304D01*
X66960911Y-36989163D01*
X66972328Y-36965026D01*
X66986055Y-36942123D01*
X67001961Y-36920676D01*
X67019892Y-36900892D01*
X67039676Y-36882961D01*
X67061123Y-36867055D01*
X67084026Y-36853328D01*
X67108163Y-36841911D01*
X67133304Y-36832916D01*
X67159205Y-36826428D01*
X67185617Y-36822510D01*
X67212286Y-36821200D01*
X68169714Y-36821200D01*
X68196383Y-36822510D01*
X68196383Y-36822510D01*
G37*
D20*
X67691000Y-37447000D03*
D14*
G36*
X59433383Y-36822510D02*
G01*
X59459795Y-36826428D01*
X59485696Y-36832916D01*
X59510837Y-36841911D01*
X59534974Y-36853328D01*
X59557877Y-36867055D01*
X59579324Y-36882961D01*
X59599108Y-36900892D01*
X59617039Y-36920676D01*
X59632945Y-36942123D01*
X59646672Y-36965026D01*
X59658089Y-36989163D01*
X59667084Y-37014304D01*
X59673572Y-37040205D01*
X59677490Y-37066617D01*
X59678800Y-37093286D01*
X59678800Y-37800714D01*
X59677490Y-37827383D01*
X59673572Y-37853795D01*
X59667084Y-37879696D01*
X59658089Y-37904837D01*
X59646672Y-37928974D01*
X59632945Y-37951877D01*
X59617039Y-37973324D01*
X59599108Y-37993108D01*
X59579324Y-38011039D01*
X59557877Y-38026945D01*
X59534974Y-38040672D01*
X59510837Y-38052089D01*
X59485696Y-38061084D01*
X59459795Y-38067572D01*
X59433383Y-38071490D01*
X59406714Y-38072800D01*
X58449286Y-38072800D01*
X58422617Y-38071490D01*
X58396205Y-38067572D01*
X58370304Y-38061084D01*
X58345163Y-38052089D01*
X58321026Y-38040672D01*
X58298123Y-38026945D01*
X58276676Y-38011039D01*
X58256892Y-37993108D01*
X58238961Y-37973324D01*
X58223055Y-37951877D01*
X58209328Y-37928974D01*
X58197911Y-37904837D01*
X58188916Y-37879696D01*
X58182428Y-37853795D01*
X58178510Y-37827383D01*
X58177200Y-37800714D01*
X58177200Y-37093286D01*
X58178510Y-37066617D01*
X58182428Y-37040205D01*
X58188916Y-37014304D01*
X58197911Y-36989163D01*
X58209328Y-36965026D01*
X58223055Y-36942123D01*
X58238961Y-36920676D01*
X58256892Y-36900892D01*
X58276676Y-36882961D01*
X58298123Y-36867055D01*
X58321026Y-36853328D01*
X58345163Y-36841911D01*
X58370304Y-36832916D01*
X58396205Y-36826428D01*
X58422617Y-36822510D01*
X58449286Y-36821200D01*
X59406714Y-36821200D01*
X59433383Y-36822510D01*
X59433383Y-36822510D01*
G37*
D20*
X58928000Y-37447000D03*
D14*
G36*
X59433383Y-38872510D02*
G01*
X59459795Y-38876428D01*
X59485696Y-38882916D01*
X59510837Y-38891911D01*
X59534974Y-38903328D01*
X59557877Y-38917055D01*
X59579324Y-38932961D01*
X59599108Y-38950892D01*
X59617039Y-38970676D01*
X59632945Y-38992123D01*
X59646672Y-39015026D01*
X59658089Y-39039163D01*
X59667084Y-39064304D01*
X59673572Y-39090205D01*
X59677490Y-39116617D01*
X59678800Y-39143286D01*
X59678800Y-39850714D01*
X59677490Y-39877383D01*
X59673572Y-39903795D01*
X59667084Y-39929696D01*
X59658089Y-39954837D01*
X59646672Y-39978974D01*
X59632945Y-40001877D01*
X59617039Y-40023324D01*
X59599108Y-40043108D01*
X59579324Y-40061039D01*
X59557877Y-40076945D01*
X59534974Y-40090672D01*
X59510837Y-40102089D01*
X59485696Y-40111084D01*
X59459795Y-40117572D01*
X59433383Y-40121490D01*
X59406714Y-40122800D01*
X58449286Y-40122800D01*
X58422617Y-40121490D01*
X58396205Y-40117572D01*
X58370304Y-40111084D01*
X58345163Y-40102089D01*
X58321026Y-40090672D01*
X58298123Y-40076945D01*
X58276676Y-40061039D01*
X58256892Y-40043108D01*
X58238961Y-40023324D01*
X58223055Y-40001877D01*
X58209328Y-39978974D01*
X58197911Y-39954837D01*
X58188916Y-39929696D01*
X58182428Y-39903795D01*
X58178510Y-39877383D01*
X58177200Y-39850714D01*
X58177200Y-39143286D01*
X58178510Y-39116617D01*
X58182428Y-39090205D01*
X58188916Y-39064304D01*
X58197911Y-39039163D01*
X58209328Y-39015026D01*
X58223055Y-38992123D01*
X58238961Y-38970676D01*
X58256892Y-38950892D01*
X58276676Y-38932961D01*
X58298123Y-38917055D01*
X58321026Y-38903328D01*
X58345163Y-38891911D01*
X58370304Y-38882916D01*
X58396205Y-38876428D01*
X58422617Y-38872510D01*
X58449286Y-38871200D01*
X59406714Y-38871200D01*
X59433383Y-38872510D01*
X59433383Y-38872510D01*
G37*
D20*
X58928000Y-39497000D03*
D14*
G36*
X56512383Y-38872510D02*
G01*
X56538795Y-38876428D01*
X56564696Y-38882916D01*
X56589837Y-38891911D01*
X56613974Y-38903328D01*
X56636877Y-38917055D01*
X56658324Y-38932961D01*
X56678108Y-38950892D01*
X56696039Y-38970676D01*
X56711945Y-38992123D01*
X56725672Y-39015026D01*
X56737089Y-39039163D01*
X56746084Y-39064304D01*
X56752572Y-39090205D01*
X56756490Y-39116617D01*
X56757800Y-39143286D01*
X56757800Y-39850714D01*
X56756490Y-39877383D01*
X56752572Y-39903795D01*
X56746084Y-39929696D01*
X56737089Y-39954837D01*
X56725672Y-39978974D01*
X56711945Y-40001877D01*
X56696039Y-40023324D01*
X56678108Y-40043108D01*
X56658324Y-40061039D01*
X56636877Y-40076945D01*
X56613974Y-40090672D01*
X56589837Y-40102089D01*
X56564696Y-40111084D01*
X56538795Y-40117572D01*
X56512383Y-40121490D01*
X56485714Y-40122800D01*
X55528286Y-40122800D01*
X55501617Y-40121490D01*
X55475205Y-40117572D01*
X55449304Y-40111084D01*
X55424163Y-40102089D01*
X55400026Y-40090672D01*
X55377123Y-40076945D01*
X55355676Y-40061039D01*
X55335892Y-40043108D01*
X55317961Y-40023324D01*
X55302055Y-40001877D01*
X55288328Y-39978974D01*
X55276911Y-39954837D01*
X55267916Y-39929696D01*
X55261428Y-39903795D01*
X55257510Y-39877383D01*
X55256200Y-39850714D01*
X55256200Y-39143286D01*
X55257510Y-39116617D01*
X55261428Y-39090205D01*
X55267916Y-39064304D01*
X55276911Y-39039163D01*
X55288328Y-39015026D01*
X55302055Y-38992123D01*
X55317961Y-38970676D01*
X55335892Y-38950892D01*
X55355676Y-38932961D01*
X55377123Y-38917055D01*
X55400026Y-38903328D01*
X55424163Y-38891911D01*
X55449304Y-38882916D01*
X55475205Y-38876428D01*
X55501617Y-38872510D01*
X55528286Y-38871200D01*
X56485714Y-38871200D01*
X56512383Y-38872510D01*
X56512383Y-38872510D01*
G37*
D20*
X56007000Y-39497000D03*
D14*
G36*
X56512383Y-36822510D02*
G01*
X56538795Y-36826428D01*
X56564696Y-36832916D01*
X56589837Y-36841911D01*
X56613974Y-36853328D01*
X56636877Y-36867055D01*
X56658324Y-36882961D01*
X56678108Y-36900892D01*
X56696039Y-36920676D01*
X56711945Y-36942123D01*
X56725672Y-36965026D01*
X56737089Y-36989163D01*
X56746084Y-37014304D01*
X56752572Y-37040205D01*
X56756490Y-37066617D01*
X56757800Y-37093286D01*
X56757800Y-37800714D01*
X56756490Y-37827383D01*
X56752572Y-37853795D01*
X56746084Y-37879696D01*
X56737089Y-37904837D01*
X56725672Y-37928974D01*
X56711945Y-37951877D01*
X56696039Y-37973324D01*
X56678108Y-37993108D01*
X56658324Y-38011039D01*
X56636877Y-38026945D01*
X56613974Y-38040672D01*
X56589837Y-38052089D01*
X56564696Y-38061084D01*
X56538795Y-38067572D01*
X56512383Y-38071490D01*
X56485714Y-38072800D01*
X55528286Y-38072800D01*
X55501617Y-38071490D01*
X55475205Y-38067572D01*
X55449304Y-38061084D01*
X55424163Y-38052089D01*
X55400026Y-38040672D01*
X55377123Y-38026945D01*
X55355676Y-38011039D01*
X55335892Y-37993108D01*
X55317961Y-37973324D01*
X55302055Y-37951877D01*
X55288328Y-37928974D01*
X55276911Y-37904837D01*
X55267916Y-37879696D01*
X55261428Y-37853795D01*
X55257510Y-37827383D01*
X55256200Y-37800714D01*
X55256200Y-37093286D01*
X55257510Y-37066617D01*
X55261428Y-37040205D01*
X55267916Y-37014304D01*
X55276911Y-36989163D01*
X55288328Y-36965026D01*
X55302055Y-36942123D01*
X55317961Y-36920676D01*
X55335892Y-36900892D01*
X55355676Y-36882961D01*
X55377123Y-36867055D01*
X55400026Y-36853328D01*
X55424163Y-36841911D01*
X55449304Y-36832916D01*
X55475205Y-36826428D01*
X55501617Y-36822510D01*
X55528286Y-36821200D01*
X56485714Y-36821200D01*
X56512383Y-36822510D01*
X56512383Y-36822510D01*
G37*
D20*
X56007000Y-37447000D03*
D14*
G36*
X65275383Y-36831510D02*
G01*
X65301795Y-36835428D01*
X65327696Y-36841916D01*
X65352837Y-36850911D01*
X65376974Y-36862328D01*
X65399877Y-36876055D01*
X65421324Y-36891961D01*
X65441108Y-36909892D01*
X65459039Y-36929676D01*
X65474945Y-36951123D01*
X65488672Y-36974026D01*
X65500089Y-36998163D01*
X65509084Y-37023304D01*
X65515572Y-37049205D01*
X65519490Y-37075617D01*
X65520800Y-37102286D01*
X65520800Y-37809714D01*
X65519490Y-37836383D01*
X65515572Y-37862795D01*
X65509084Y-37888696D01*
X65500089Y-37913837D01*
X65488672Y-37937974D01*
X65474945Y-37960877D01*
X65459039Y-37982324D01*
X65441108Y-38002108D01*
X65421324Y-38020039D01*
X65399877Y-38035945D01*
X65376974Y-38049672D01*
X65352837Y-38061089D01*
X65327696Y-38070084D01*
X65301795Y-38076572D01*
X65275383Y-38080490D01*
X65248714Y-38081800D01*
X64291286Y-38081800D01*
X64264617Y-38080490D01*
X64238205Y-38076572D01*
X64212304Y-38070084D01*
X64187163Y-38061089D01*
X64163026Y-38049672D01*
X64140123Y-38035945D01*
X64118676Y-38020039D01*
X64098892Y-38002108D01*
X64080961Y-37982324D01*
X64065055Y-37960877D01*
X64051328Y-37937974D01*
X64039911Y-37913837D01*
X64030916Y-37888696D01*
X64024428Y-37862795D01*
X64020510Y-37836383D01*
X64019200Y-37809714D01*
X64019200Y-37102286D01*
X64020510Y-37075617D01*
X64024428Y-37049205D01*
X64030916Y-37023304D01*
X64039911Y-36998163D01*
X64051328Y-36974026D01*
X64065055Y-36951123D01*
X64080961Y-36929676D01*
X64098892Y-36909892D01*
X64118676Y-36891961D01*
X64140123Y-36876055D01*
X64163026Y-36862328D01*
X64187163Y-36850911D01*
X64212304Y-36841916D01*
X64238205Y-36835428D01*
X64264617Y-36831510D01*
X64291286Y-36830200D01*
X65248714Y-36830200D01*
X65275383Y-36831510D01*
X65275383Y-36831510D01*
G37*
D20*
X64770000Y-37456000D03*
D14*
G36*
X65275383Y-38881510D02*
G01*
X65301795Y-38885428D01*
X65327696Y-38891916D01*
X65352837Y-38900911D01*
X65376974Y-38912328D01*
X65399877Y-38926055D01*
X65421324Y-38941961D01*
X65441108Y-38959892D01*
X65459039Y-38979676D01*
X65474945Y-39001123D01*
X65488672Y-39024026D01*
X65500089Y-39048163D01*
X65509084Y-39073304D01*
X65515572Y-39099205D01*
X65519490Y-39125617D01*
X65520800Y-39152286D01*
X65520800Y-39859714D01*
X65519490Y-39886383D01*
X65515572Y-39912795D01*
X65509084Y-39938696D01*
X65500089Y-39963837D01*
X65488672Y-39987974D01*
X65474945Y-40010877D01*
X65459039Y-40032324D01*
X65441108Y-40052108D01*
X65421324Y-40070039D01*
X65399877Y-40085945D01*
X65376974Y-40099672D01*
X65352837Y-40111089D01*
X65327696Y-40120084D01*
X65301795Y-40126572D01*
X65275383Y-40130490D01*
X65248714Y-40131800D01*
X64291286Y-40131800D01*
X64264617Y-40130490D01*
X64238205Y-40126572D01*
X64212304Y-40120084D01*
X64187163Y-40111089D01*
X64163026Y-40099672D01*
X64140123Y-40085945D01*
X64118676Y-40070039D01*
X64098892Y-40052108D01*
X64080961Y-40032324D01*
X64065055Y-40010877D01*
X64051328Y-39987974D01*
X64039911Y-39963837D01*
X64030916Y-39938696D01*
X64024428Y-39912795D01*
X64020510Y-39886383D01*
X64019200Y-39859714D01*
X64019200Y-39152286D01*
X64020510Y-39125617D01*
X64024428Y-39099205D01*
X64030916Y-39073304D01*
X64039911Y-39048163D01*
X64051328Y-39024026D01*
X64065055Y-39001123D01*
X64080961Y-38979676D01*
X64098892Y-38959892D01*
X64118676Y-38941961D01*
X64140123Y-38926055D01*
X64163026Y-38912328D01*
X64187163Y-38900911D01*
X64212304Y-38891916D01*
X64238205Y-38885428D01*
X64264617Y-38881510D01*
X64291286Y-38880200D01*
X65248714Y-38880200D01*
X65275383Y-38881510D01*
X65275383Y-38881510D01*
G37*
D20*
X64770000Y-39506000D03*
D14*
G36*
X71117383Y-36822510D02*
G01*
X71143795Y-36826428D01*
X71169696Y-36832916D01*
X71194837Y-36841911D01*
X71218974Y-36853328D01*
X71241877Y-36867055D01*
X71263324Y-36882961D01*
X71283108Y-36900892D01*
X71301039Y-36920676D01*
X71316945Y-36942123D01*
X71330672Y-36965026D01*
X71342089Y-36989163D01*
X71351084Y-37014304D01*
X71357572Y-37040205D01*
X71361490Y-37066617D01*
X71362800Y-37093286D01*
X71362800Y-37800714D01*
X71361490Y-37827383D01*
X71357572Y-37853795D01*
X71351084Y-37879696D01*
X71342089Y-37904837D01*
X71330672Y-37928974D01*
X71316945Y-37951877D01*
X71301039Y-37973324D01*
X71283108Y-37993108D01*
X71263324Y-38011039D01*
X71241877Y-38026945D01*
X71218974Y-38040672D01*
X71194837Y-38052089D01*
X71169696Y-38061084D01*
X71143795Y-38067572D01*
X71117383Y-38071490D01*
X71090714Y-38072800D01*
X70133286Y-38072800D01*
X70106617Y-38071490D01*
X70080205Y-38067572D01*
X70054304Y-38061084D01*
X70029163Y-38052089D01*
X70005026Y-38040672D01*
X69982123Y-38026945D01*
X69960676Y-38011039D01*
X69940892Y-37993108D01*
X69922961Y-37973324D01*
X69907055Y-37951877D01*
X69893328Y-37928974D01*
X69881911Y-37904837D01*
X69872916Y-37879696D01*
X69866428Y-37853795D01*
X69862510Y-37827383D01*
X69861200Y-37800714D01*
X69861200Y-37093286D01*
X69862510Y-37066617D01*
X69866428Y-37040205D01*
X69872916Y-37014304D01*
X69881911Y-36989163D01*
X69893328Y-36965026D01*
X69907055Y-36942123D01*
X69922961Y-36920676D01*
X69940892Y-36900892D01*
X69960676Y-36882961D01*
X69982123Y-36867055D01*
X70005026Y-36853328D01*
X70029163Y-36841911D01*
X70054304Y-36832916D01*
X70080205Y-36826428D01*
X70106617Y-36822510D01*
X70133286Y-36821200D01*
X71090714Y-36821200D01*
X71117383Y-36822510D01*
X71117383Y-36822510D01*
G37*
D20*
X70612000Y-37447000D03*
D14*
G36*
X71117383Y-38872510D02*
G01*
X71143795Y-38876428D01*
X71169696Y-38882916D01*
X71194837Y-38891911D01*
X71218974Y-38903328D01*
X71241877Y-38917055D01*
X71263324Y-38932961D01*
X71283108Y-38950892D01*
X71301039Y-38970676D01*
X71316945Y-38992123D01*
X71330672Y-39015026D01*
X71342089Y-39039163D01*
X71351084Y-39064304D01*
X71357572Y-39090205D01*
X71361490Y-39116617D01*
X71362800Y-39143286D01*
X71362800Y-39850714D01*
X71361490Y-39877383D01*
X71357572Y-39903795D01*
X71351084Y-39929696D01*
X71342089Y-39954837D01*
X71330672Y-39978974D01*
X71316945Y-40001877D01*
X71301039Y-40023324D01*
X71283108Y-40043108D01*
X71263324Y-40061039D01*
X71241877Y-40076945D01*
X71218974Y-40090672D01*
X71194837Y-40102089D01*
X71169696Y-40111084D01*
X71143795Y-40117572D01*
X71117383Y-40121490D01*
X71090714Y-40122800D01*
X70133286Y-40122800D01*
X70106617Y-40121490D01*
X70080205Y-40117572D01*
X70054304Y-40111084D01*
X70029163Y-40102089D01*
X70005026Y-40090672D01*
X69982123Y-40076945D01*
X69960676Y-40061039D01*
X69940892Y-40043108D01*
X69922961Y-40023324D01*
X69907055Y-40001877D01*
X69893328Y-39978974D01*
X69881911Y-39954837D01*
X69872916Y-39929696D01*
X69866428Y-39903795D01*
X69862510Y-39877383D01*
X69861200Y-39850714D01*
X69861200Y-39143286D01*
X69862510Y-39116617D01*
X69866428Y-39090205D01*
X69872916Y-39064304D01*
X69881911Y-39039163D01*
X69893328Y-39015026D01*
X69907055Y-38992123D01*
X69922961Y-38970676D01*
X69940892Y-38950892D01*
X69960676Y-38932961D01*
X69982123Y-38917055D01*
X70005026Y-38903328D01*
X70029163Y-38891911D01*
X70054304Y-38882916D01*
X70080205Y-38876428D01*
X70106617Y-38872510D01*
X70133286Y-38871200D01*
X71090714Y-38871200D01*
X71117383Y-38872510D01*
X71117383Y-38872510D01*
G37*
D20*
X70612000Y-39497000D03*
D14*
G36*
X53591383Y-36822510D02*
G01*
X53617795Y-36826428D01*
X53643696Y-36832916D01*
X53668837Y-36841911D01*
X53692974Y-36853328D01*
X53715877Y-36867055D01*
X53737324Y-36882961D01*
X53757108Y-36900892D01*
X53775039Y-36920676D01*
X53790945Y-36942123D01*
X53804672Y-36965026D01*
X53816089Y-36989163D01*
X53825084Y-37014304D01*
X53831572Y-37040205D01*
X53835490Y-37066617D01*
X53836800Y-37093286D01*
X53836800Y-37800714D01*
X53835490Y-37827383D01*
X53831572Y-37853795D01*
X53825084Y-37879696D01*
X53816089Y-37904837D01*
X53804672Y-37928974D01*
X53790945Y-37951877D01*
X53775039Y-37973324D01*
X53757108Y-37993108D01*
X53737324Y-38011039D01*
X53715877Y-38026945D01*
X53692974Y-38040672D01*
X53668837Y-38052089D01*
X53643696Y-38061084D01*
X53617795Y-38067572D01*
X53591383Y-38071490D01*
X53564714Y-38072800D01*
X52607286Y-38072800D01*
X52580617Y-38071490D01*
X52554205Y-38067572D01*
X52528304Y-38061084D01*
X52503163Y-38052089D01*
X52479026Y-38040672D01*
X52456123Y-38026945D01*
X52434676Y-38011039D01*
X52414892Y-37993108D01*
X52396961Y-37973324D01*
X52381055Y-37951877D01*
X52367328Y-37928974D01*
X52355911Y-37904837D01*
X52346916Y-37879696D01*
X52340428Y-37853795D01*
X52336510Y-37827383D01*
X52335200Y-37800714D01*
X52335200Y-37093286D01*
X52336510Y-37066617D01*
X52340428Y-37040205D01*
X52346916Y-37014304D01*
X52355911Y-36989163D01*
X52367328Y-36965026D01*
X52381055Y-36942123D01*
X52396961Y-36920676D01*
X52414892Y-36900892D01*
X52434676Y-36882961D01*
X52456123Y-36867055D01*
X52479026Y-36853328D01*
X52503163Y-36841911D01*
X52528304Y-36832916D01*
X52554205Y-36826428D01*
X52580617Y-36822510D01*
X52607286Y-36821200D01*
X53564714Y-36821200D01*
X53591383Y-36822510D01*
X53591383Y-36822510D01*
G37*
D20*
X53086000Y-37447000D03*
D14*
G36*
X53591383Y-38872510D02*
G01*
X53617795Y-38876428D01*
X53643696Y-38882916D01*
X53668837Y-38891911D01*
X53692974Y-38903328D01*
X53715877Y-38917055D01*
X53737324Y-38932961D01*
X53757108Y-38950892D01*
X53775039Y-38970676D01*
X53790945Y-38992123D01*
X53804672Y-39015026D01*
X53816089Y-39039163D01*
X53825084Y-39064304D01*
X53831572Y-39090205D01*
X53835490Y-39116617D01*
X53836800Y-39143286D01*
X53836800Y-39850714D01*
X53835490Y-39877383D01*
X53831572Y-39903795D01*
X53825084Y-39929696D01*
X53816089Y-39954837D01*
X53804672Y-39978974D01*
X53790945Y-40001877D01*
X53775039Y-40023324D01*
X53757108Y-40043108D01*
X53737324Y-40061039D01*
X53715877Y-40076945D01*
X53692974Y-40090672D01*
X53668837Y-40102089D01*
X53643696Y-40111084D01*
X53617795Y-40117572D01*
X53591383Y-40121490D01*
X53564714Y-40122800D01*
X52607286Y-40122800D01*
X52580617Y-40121490D01*
X52554205Y-40117572D01*
X52528304Y-40111084D01*
X52503163Y-40102089D01*
X52479026Y-40090672D01*
X52456123Y-40076945D01*
X52434676Y-40061039D01*
X52414892Y-40043108D01*
X52396961Y-40023324D01*
X52381055Y-40001877D01*
X52367328Y-39978974D01*
X52355911Y-39954837D01*
X52346916Y-39929696D01*
X52340428Y-39903795D01*
X52336510Y-39877383D01*
X52335200Y-39850714D01*
X52335200Y-39143286D01*
X52336510Y-39116617D01*
X52340428Y-39090205D01*
X52346916Y-39064304D01*
X52355911Y-39039163D01*
X52367328Y-39015026D01*
X52381055Y-38992123D01*
X52396961Y-38970676D01*
X52414892Y-38950892D01*
X52434676Y-38932961D01*
X52456123Y-38917055D01*
X52479026Y-38903328D01*
X52503163Y-38891911D01*
X52528304Y-38882916D01*
X52554205Y-38876428D01*
X52580617Y-38872510D01*
X52607286Y-38871200D01*
X53564714Y-38871200D01*
X53591383Y-38872510D01*
X53591383Y-38872510D01*
G37*
D20*
X53086000Y-39497000D03*
D14*
G36*
X74038383Y-38872510D02*
G01*
X74064795Y-38876428D01*
X74090696Y-38882916D01*
X74115837Y-38891911D01*
X74139974Y-38903328D01*
X74162877Y-38917055D01*
X74184324Y-38932961D01*
X74204108Y-38950892D01*
X74222039Y-38970676D01*
X74237945Y-38992123D01*
X74251672Y-39015026D01*
X74263089Y-39039163D01*
X74272084Y-39064304D01*
X74278572Y-39090205D01*
X74282490Y-39116617D01*
X74283800Y-39143286D01*
X74283800Y-39850714D01*
X74282490Y-39877383D01*
X74278572Y-39903795D01*
X74272084Y-39929696D01*
X74263089Y-39954837D01*
X74251672Y-39978974D01*
X74237945Y-40001877D01*
X74222039Y-40023324D01*
X74204108Y-40043108D01*
X74184324Y-40061039D01*
X74162877Y-40076945D01*
X74139974Y-40090672D01*
X74115837Y-40102089D01*
X74090696Y-40111084D01*
X74064795Y-40117572D01*
X74038383Y-40121490D01*
X74011714Y-40122800D01*
X73054286Y-40122800D01*
X73027617Y-40121490D01*
X73001205Y-40117572D01*
X72975304Y-40111084D01*
X72950163Y-40102089D01*
X72926026Y-40090672D01*
X72903123Y-40076945D01*
X72881676Y-40061039D01*
X72861892Y-40043108D01*
X72843961Y-40023324D01*
X72828055Y-40001877D01*
X72814328Y-39978974D01*
X72802911Y-39954837D01*
X72793916Y-39929696D01*
X72787428Y-39903795D01*
X72783510Y-39877383D01*
X72782200Y-39850714D01*
X72782200Y-39143286D01*
X72783510Y-39116617D01*
X72787428Y-39090205D01*
X72793916Y-39064304D01*
X72802911Y-39039163D01*
X72814328Y-39015026D01*
X72828055Y-38992123D01*
X72843961Y-38970676D01*
X72861892Y-38950892D01*
X72881676Y-38932961D01*
X72903123Y-38917055D01*
X72926026Y-38903328D01*
X72950163Y-38891911D01*
X72975304Y-38882916D01*
X73001205Y-38876428D01*
X73027617Y-38872510D01*
X73054286Y-38871200D01*
X74011714Y-38871200D01*
X74038383Y-38872510D01*
X74038383Y-38872510D01*
G37*
D20*
X73533000Y-39497000D03*
D14*
G36*
X74038383Y-36822510D02*
G01*
X74064795Y-36826428D01*
X74090696Y-36832916D01*
X74115837Y-36841911D01*
X74139974Y-36853328D01*
X74162877Y-36867055D01*
X74184324Y-36882961D01*
X74204108Y-36900892D01*
X74222039Y-36920676D01*
X74237945Y-36942123D01*
X74251672Y-36965026D01*
X74263089Y-36989163D01*
X74272084Y-37014304D01*
X74278572Y-37040205D01*
X74282490Y-37066617D01*
X74283800Y-37093286D01*
X74283800Y-37800714D01*
X74282490Y-37827383D01*
X74278572Y-37853795D01*
X74272084Y-37879696D01*
X74263089Y-37904837D01*
X74251672Y-37928974D01*
X74237945Y-37951877D01*
X74222039Y-37973324D01*
X74204108Y-37993108D01*
X74184324Y-38011039D01*
X74162877Y-38026945D01*
X74139974Y-38040672D01*
X74115837Y-38052089D01*
X74090696Y-38061084D01*
X74064795Y-38067572D01*
X74038383Y-38071490D01*
X74011714Y-38072800D01*
X73054286Y-38072800D01*
X73027617Y-38071490D01*
X73001205Y-38067572D01*
X72975304Y-38061084D01*
X72950163Y-38052089D01*
X72926026Y-38040672D01*
X72903123Y-38026945D01*
X72881676Y-38011039D01*
X72861892Y-37993108D01*
X72843961Y-37973324D01*
X72828055Y-37951877D01*
X72814328Y-37928974D01*
X72802911Y-37904837D01*
X72793916Y-37879696D01*
X72787428Y-37853795D01*
X72783510Y-37827383D01*
X72782200Y-37800714D01*
X72782200Y-37093286D01*
X72783510Y-37066617D01*
X72787428Y-37040205D01*
X72793916Y-37014304D01*
X72802911Y-36989163D01*
X72814328Y-36965026D01*
X72828055Y-36942123D01*
X72843961Y-36920676D01*
X72861892Y-36900892D01*
X72881676Y-36882961D01*
X72903123Y-36867055D01*
X72926026Y-36853328D01*
X72950163Y-36841911D01*
X72975304Y-36832916D01*
X73001205Y-36826428D01*
X73027617Y-36822510D01*
X73054286Y-36821200D01*
X74011714Y-36821200D01*
X74038383Y-36822510D01*
X74038383Y-36822510D01*
G37*
D20*
X73533000Y-37447000D03*
D14*
G36*
X62354383Y-38872510D02*
G01*
X62380795Y-38876428D01*
X62406696Y-38882916D01*
X62431837Y-38891911D01*
X62455974Y-38903328D01*
X62478877Y-38917055D01*
X62500324Y-38932961D01*
X62520108Y-38950892D01*
X62538039Y-38970676D01*
X62553945Y-38992123D01*
X62567672Y-39015026D01*
X62579089Y-39039163D01*
X62588084Y-39064304D01*
X62594572Y-39090205D01*
X62598490Y-39116617D01*
X62599800Y-39143286D01*
X62599800Y-39850714D01*
X62598490Y-39877383D01*
X62594572Y-39903795D01*
X62588084Y-39929696D01*
X62579089Y-39954837D01*
X62567672Y-39978974D01*
X62553945Y-40001877D01*
X62538039Y-40023324D01*
X62520108Y-40043108D01*
X62500324Y-40061039D01*
X62478877Y-40076945D01*
X62455974Y-40090672D01*
X62431837Y-40102089D01*
X62406696Y-40111084D01*
X62380795Y-40117572D01*
X62354383Y-40121490D01*
X62327714Y-40122800D01*
X61370286Y-40122800D01*
X61343617Y-40121490D01*
X61317205Y-40117572D01*
X61291304Y-40111084D01*
X61266163Y-40102089D01*
X61242026Y-40090672D01*
X61219123Y-40076945D01*
X61197676Y-40061039D01*
X61177892Y-40043108D01*
X61159961Y-40023324D01*
X61144055Y-40001877D01*
X61130328Y-39978974D01*
X61118911Y-39954837D01*
X61109916Y-39929696D01*
X61103428Y-39903795D01*
X61099510Y-39877383D01*
X61098200Y-39850714D01*
X61098200Y-39143286D01*
X61099510Y-39116617D01*
X61103428Y-39090205D01*
X61109916Y-39064304D01*
X61118911Y-39039163D01*
X61130328Y-39015026D01*
X61144055Y-38992123D01*
X61159961Y-38970676D01*
X61177892Y-38950892D01*
X61197676Y-38932961D01*
X61219123Y-38917055D01*
X61242026Y-38903328D01*
X61266163Y-38891911D01*
X61291304Y-38882916D01*
X61317205Y-38876428D01*
X61343617Y-38872510D01*
X61370286Y-38871200D01*
X62327714Y-38871200D01*
X62354383Y-38872510D01*
X62354383Y-38872510D01*
G37*
D20*
X61849000Y-39497000D03*
D14*
G36*
X62354383Y-36822510D02*
G01*
X62380795Y-36826428D01*
X62406696Y-36832916D01*
X62431837Y-36841911D01*
X62455974Y-36853328D01*
X62478877Y-36867055D01*
X62500324Y-36882961D01*
X62520108Y-36900892D01*
X62538039Y-36920676D01*
X62553945Y-36942123D01*
X62567672Y-36965026D01*
X62579089Y-36989163D01*
X62588084Y-37014304D01*
X62594572Y-37040205D01*
X62598490Y-37066617D01*
X62599800Y-37093286D01*
X62599800Y-37800714D01*
X62598490Y-37827383D01*
X62594572Y-37853795D01*
X62588084Y-37879696D01*
X62579089Y-37904837D01*
X62567672Y-37928974D01*
X62553945Y-37951877D01*
X62538039Y-37973324D01*
X62520108Y-37993108D01*
X62500324Y-38011039D01*
X62478877Y-38026945D01*
X62455974Y-38040672D01*
X62431837Y-38052089D01*
X62406696Y-38061084D01*
X62380795Y-38067572D01*
X62354383Y-38071490D01*
X62327714Y-38072800D01*
X61370286Y-38072800D01*
X61343617Y-38071490D01*
X61317205Y-38067572D01*
X61291304Y-38061084D01*
X61266163Y-38052089D01*
X61242026Y-38040672D01*
X61219123Y-38026945D01*
X61197676Y-38011039D01*
X61177892Y-37993108D01*
X61159961Y-37973324D01*
X61144055Y-37951877D01*
X61130328Y-37928974D01*
X61118911Y-37904837D01*
X61109916Y-37879696D01*
X61103428Y-37853795D01*
X61099510Y-37827383D01*
X61098200Y-37800714D01*
X61098200Y-37093286D01*
X61099510Y-37066617D01*
X61103428Y-37040205D01*
X61109916Y-37014304D01*
X61118911Y-36989163D01*
X61130328Y-36965026D01*
X61144055Y-36942123D01*
X61159961Y-36920676D01*
X61177892Y-36900892D01*
X61197676Y-36882961D01*
X61219123Y-36867055D01*
X61242026Y-36853328D01*
X61266163Y-36841911D01*
X61291304Y-36832916D01*
X61317205Y-36826428D01*
X61343617Y-36822510D01*
X61370286Y-36821200D01*
X62327714Y-36821200D01*
X62354383Y-36822510D01*
X62354383Y-36822510D01*
G37*
D20*
X61849000Y-37447000D03*
D18*
X73914000Y-44069000D03*
D19*
X71374000Y-44069000D03*
X68834000Y-44069000D03*
X66294000Y-44069000D03*
X63754000Y-44069000D03*
X61214000Y-44069000D03*
X58674000Y-44069000D03*
X56134000Y-44069000D03*
X53594000Y-44069000D03*
X73660000Y-60198000D03*
X71120000Y-60198000D03*
X68580000Y-60198000D03*
X66040000Y-60198000D03*
X63500000Y-60198000D03*
X60960000Y-60198000D03*
X58420000Y-60198000D03*
X55880000Y-60198000D03*
D18*
X53340000Y-60198000D03*
D21*
X31750000Y-105664000D03*
X72136000Y-105664000D03*
X51054000Y-23495000D03*
D14*
G36*
X38351383Y-53096510D02*
G01*
X38377795Y-53100428D01*
X38403696Y-53106916D01*
X38428837Y-53115911D01*
X38452974Y-53127328D01*
X38475877Y-53141055D01*
X38497324Y-53156961D01*
X38517108Y-53174892D01*
X38535039Y-53194676D01*
X38550945Y-53216123D01*
X38564672Y-53239026D01*
X38576089Y-53263163D01*
X38585084Y-53288304D01*
X38591572Y-53314205D01*
X38595490Y-53340617D01*
X38596800Y-53367286D01*
X38596800Y-54074714D01*
X38595490Y-54101383D01*
X38591572Y-54127795D01*
X38585084Y-54153696D01*
X38576089Y-54178837D01*
X38564672Y-54202974D01*
X38550945Y-54225877D01*
X38535039Y-54247324D01*
X38517108Y-54267108D01*
X38497324Y-54285039D01*
X38475877Y-54300945D01*
X38452974Y-54314672D01*
X38428837Y-54326089D01*
X38403696Y-54335084D01*
X38377795Y-54341572D01*
X38351383Y-54345490D01*
X38324714Y-54346800D01*
X37367286Y-54346800D01*
X37340617Y-54345490D01*
X37314205Y-54341572D01*
X37288304Y-54335084D01*
X37263163Y-54326089D01*
X37239026Y-54314672D01*
X37216123Y-54300945D01*
X37194676Y-54285039D01*
X37174892Y-54267108D01*
X37156961Y-54247324D01*
X37141055Y-54225877D01*
X37127328Y-54202974D01*
X37115911Y-54178837D01*
X37106916Y-54153696D01*
X37100428Y-54127795D01*
X37096510Y-54101383D01*
X37095200Y-54074714D01*
X37095200Y-53367286D01*
X37096510Y-53340617D01*
X37100428Y-53314205D01*
X37106916Y-53288304D01*
X37115911Y-53263163D01*
X37127328Y-53239026D01*
X37141055Y-53216123D01*
X37156961Y-53194676D01*
X37174892Y-53174892D01*
X37194676Y-53156961D01*
X37216123Y-53141055D01*
X37239026Y-53127328D01*
X37263163Y-53115911D01*
X37288304Y-53106916D01*
X37314205Y-53100428D01*
X37340617Y-53096510D01*
X37367286Y-53095200D01*
X38324714Y-53095200D01*
X38351383Y-53096510D01*
X38351383Y-53096510D01*
G37*
D20*
X37846000Y-53721000D03*
D14*
G36*
X38351383Y-51046510D02*
G01*
X38377795Y-51050428D01*
X38403696Y-51056916D01*
X38428837Y-51065911D01*
X38452974Y-51077328D01*
X38475877Y-51091055D01*
X38497324Y-51106961D01*
X38517108Y-51124892D01*
X38535039Y-51144676D01*
X38550945Y-51166123D01*
X38564672Y-51189026D01*
X38576089Y-51213163D01*
X38585084Y-51238304D01*
X38591572Y-51264205D01*
X38595490Y-51290617D01*
X38596800Y-51317286D01*
X38596800Y-52024714D01*
X38595490Y-52051383D01*
X38591572Y-52077795D01*
X38585084Y-52103696D01*
X38576089Y-52128837D01*
X38564672Y-52152974D01*
X38550945Y-52175877D01*
X38535039Y-52197324D01*
X38517108Y-52217108D01*
X38497324Y-52235039D01*
X38475877Y-52250945D01*
X38452974Y-52264672D01*
X38428837Y-52276089D01*
X38403696Y-52285084D01*
X38377795Y-52291572D01*
X38351383Y-52295490D01*
X38324714Y-52296800D01*
X37367286Y-52296800D01*
X37340617Y-52295490D01*
X37314205Y-52291572D01*
X37288304Y-52285084D01*
X37263163Y-52276089D01*
X37239026Y-52264672D01*
X37216123Y-52250945D01*
X37194676Y-52235039D01*
X37174892Y-52217108D01*
X37156961Y-52197324D01*
X37141055Y-52175877D01*
X37127328Y-52152974D01*
X37115911Y-52128837D01*
X37106916Y-52103696D01*
X37100428Y-52077795D01*
X37096510Y-52051383D01*
X37095200Y-52024714D01*
X37095200Y-51317286D01*
X37096510Y-51290617D01*
X37100428Y-51264205D01*
X37106916Y-51238304D01*
X37115911Y-51213163D01*
X37127328Y-51189026D01*
X37141055Y-51166123D01*
X37156961Y-51144676D01*
X37174892Y-51124892D01*
X37194676Y-51106961D01*
X37216123Y-51091055D01*
X37239026Y-51077328D01*
X37263163Y-51065911D01*
X37288304Y-51056916D01*
X37314205Y-51050428D01*
X37340617Y-51046510D01*
X37367286Y-51045200D01*
X38324714Y-51045200D01*
X38351383Y-51046510D01*
X38351383Y-51046510D01*
G37*
D20*
X37846000Y-51671000D03*
D14*
G36*
X50173383Y-32905510D02*
G01*
X50199795Y-32909428D01*
X50225696Y-32915916D01*
X50250837Y-32924911D01*
X50274974Y-32936328D01*
X50297877Y-32950055D01*
X50319324Y-32965961D01*
X50339108Y-32983892D01*
X50357039Y-33003676D01*
X50372945Y-33025123D01*
X50386672Y-33048026D01*
X50398089Y-33072163D01*
X50407084Y-33097304D01*
X50413572Y-33123205D01*
X50417490Y-33149617D01*
X50418800Y-33176286D01*
X50418800Y-34133714D01*
X50417490Y-34160383D01*
X50413572Y-34186795D01*
X50407084Y-34212696D01*
X50398089Y-34237837D01*
X50386672Y-34261974D01*
X50372945Y-34284877D01*
X50357039Y-34306324D01*
X50339108Y-34326108D01*
X50319324Y-34344039D01*
X50297877Y-34359945D01*
X50274974Y-34373672D01*
X50250837Y-34385089D01*
X50225696Y-34394084D01*
X50199795Y-34400572D01*
X50173383Y-34404490D01*
X50146714Y-34405800D01*
X49439286Y-34405800D01*
X49412617Y-34404490D01*
X49386205Y-34400572D01*
X49360304Y-34394084D01*
X49335163Y-34385089D01*
X49311026Y-34373672D01*
X49288123Y-34359945D01*
X49266676Y-34344039D01*
X49246892Y-34326108D01*
X49228961Y-34306324D01*
X49213055Y-34284877D01*
X49199328Y-34261974D01*
X49187911Y-34237837D01*
X49178916Y-34212696D01*
X49172428Y-34186795D01*
X49168510Y-34160383D01*
X49167200Y-34133714D01*
X49167200Y-33176286D01*
X49168510Y-33149617D01*
X49172428Y-33123205D01*
X49178916Y-33097304D01*
X49187911Y-33072163D01*
X49199328Y-33048026D01*
X49213055Y-33025123D01*
X49228961Y-33003676D01*
X49246892Y-32983892D01*
X49266676Y-32965961D01*
X49288123Y-32950055D01*
X49311026Y-32936328D01*
X49335163Y-32924911D01*
X49360304Y-32915916D01*
X49386205Y-32909428D01*
X49412617Y-32905510D01*
X49439286Y-32904200D01*
X50146714Y-32904200D01*
X50173383Y-32905510D01*
X50173383Y-32905510D01*
G37*
D20*
X49793000Y-33655000D03*
D14*
G36*
X48123383Y-32905510D02*
G01*
X48149795Y-32909428D01*
X48175696Y-32915916D01*
X48200837Y-32924911D01*
X48224974Y-32936328D01*
X48247877Y-32950055D01*
X48269324Y-32965961D01*
X48289108Y-32983892D01*
X48307039Y-33003676D01*
X48322945Y-33025123D01*
X48336672Y-33048026D01*
X48348089Y-33072163D01*
X48357084Y-33097304D01*
X48363572Y-33123205D01*
X48367490Y-33149617D01*
X48368800Y-33176286D01*
X48368800Y-34133714D01*
X48367490Y-34160383D01*
X48363572Y-34186795D01*
X48357084Y-34212696D01*
X48348089Y-34237837D01*
X48336672Y-34261974D01*
X48322945Y-34284877D01*
X48307039Y-34306324D01*
X48289108Y-34326108D01*
X48269324Y-34344039D01*
X48247877Y-34359945D01*
X48224974Y-34373672D01*
X48200837Y-34385089D01*
X48175696Y-34394084D01*
X48149795Y-34400572D01*
X48123383Y-34404490D01*
X48096714Y-34405800D01*
X47389286Y-34405800D01*
X47362617Y-34404490D01*
X47336205Y-34400572D01*
X47310304Y-34394084D01*
X47285163Y-34385089D01*
X47261026Y-34373672D01*
X47238123Y-34359945D01*
X47216676Y-34344039D01*
X47196892Y-34326108D01*
X47178961Y-34306324D01*
X47163055Y-34284877D01*
X47149328Y-34261974D01*
X47137911Y-34237837D01*
X47128916Y-34212696D01*
X47122428Y-34186795D01*
X47118510Y-34160383D01*
X47117200Y-34133714D01*
X47117200Y-33176286D01*
X47118510Y-33149617D01*
X47122428Y-33123205D01*
X47128916Y-33097304D01*
X47137911Y-33072163D01*
X47149328Y-33048026D01*
X47163055Y-33025123D01*
X47178961Y-33003676D01*
X47196892Y-32983892D01*
X47216676Y-32965961D01*
X47238123Y-32950055D01*
X47261026Y-32936328D01*
X47285163Y-32924911D01*
X47310304Y-32915916D01*
X47336205Y-32909428D01*
X47362617Y-32905510D01*
X47389286Y-32904200D01*
X48096714Y-32904200D01*
X48123383Y-32905510D01*
X48123383Y-32905510D01*
G37*
D20*
X47743000Y-33655000D03*
D14*
G36*
X54745383Y-32905510D02*
G01*
X54771795Y-32909428D01*
X54797696Y-32915916D01*
X54822837Y-32924911D01*
X54846974Y-32936328D01*
X54869877Y-32950055D01*
X54891324Y-32965961D01*
X54911108Y-32983892D01*
X54929039Y-33003676D01*
X54944945Y-33025123D01*
X54958672Y-33048026D01*
X54970089Y-33072163D01*
X54979084Y-33097304D01*
X54985572Y-33123205D01*
X54989490Y-33149617D01*
X54990800Y-33176286D01*
X54990800Y-34133714D01*
X54989490Y-34160383D01*
X54985572Y-34186795D01*
X54979084Y-34212696D01*
X54970089Y-34237837D01*
X54958672Y-34261974D01*
X54944945Y-34284877D01*
X54929039Y-34306324D01*
X54911108Y-34326108D01*
X54891324Y-34344039D01*
X54869877Y-34359945D01*
X54846974Y-34373672D01*
X54822837Y-34385089D01*
X54797696Y-34394084D01*
X54771795Y-34400572D01*
X54745383Y-34404490D01*
X54718714Y-34405800D01*
X54011286Y-34405800D01*
X53984617Y-34404490D01*
X53958205Y-34400572D01*
X53932304Y-34394084D01*
X53907163Y-34385089D01*
X53883026Y-34373672D01*
X53860123Y-34359945D01*
X53838676Y-34344039D01*
X53818892Y-34326108D01*
X53800961Y-34306324D01*
X53785055Y-34284877D01*
X53771328Y-34261974D01*
X53759911Y-34237837D01*
X53750916Y-34212696D01*
X53744428Y-34186795D01*
X53740510Y-34160383D01*
X53739200Y-34133714D01*
X53739200Y-33176286D01*
X53740510Y-33149617D01*
X53744428Y-33123205D01*
X53750916Y-33097304D01*
X53759911Y-33072163D01*
X53771328Y-33048026D01*
X53785055Y-33025123D01*
X53800961Y-33003676D01*
X53818892Y-32983892D01*
X53838676Y-32965961D01*
X53860123Y-32950055D01*
X53883026Y-32936328D01*
X53907163Y-32924911D01*
X53932304Y-32915916D01*
X53958205Y-32909428D01*
X53984617Y-32905510D01*
X54011286Y-32904200D01*
X54718714Y-32904200D01*
X54745383Y-32905510D01*
X54745383Y-32905510D01*
G37*
D20*
X54365000Y-33655000D03*
D14*
G36*
X52695383Y-32905510D02*
G01*
X52721795Y-32909428D01*
X52747696Y-32915916D01*
X52772837Y-32924911D01*
X52796974Y-32936328D01*
X52819877Y-32950055D01*
X52841324Y-32965961D01*
X52861108Y-32983892D01*
X52879039Y-33003676D01*
X52894945Y-33025123D01*
X52908672Y-33048026D01*
X52920089Y-33072163D01*
X52929084Y-33097304D01*
X52935572Y-33123205D01*
X52939490Y-33149617D01*
X52940800Y-33176286D01*
X52940800Y-34133714D01*
X52939490Y-34160383D01*
X52935572Y-34186795D01*
X52929084Y-34212696D01*
X52920089Y-34237837D01*
X52908672Y-34261974D01*
X52894945Y-34284877D01*
X52879039Y-34306324D01*
X52861108Y-34326108D01*
X52841324Y-34344039D01*
X52819877Y-34359945D01*
X52796974Y-34373672D01*
X52772837Y-34385089D01*
X52747696Y-34394084D01*
X52721795Y-34400572D01*
X52695383Y-34404490D01*
X52668714Y-34405800D01*
X51961286Y-34405800D01*
X51934617Y-34404490D01*
X51908205Y-34400572D01*
X51882304Y-34394084D01*
X51857163Y-34385089D01*
X51833026Y-34373672D01*
X51810123Y-34359945D01*
X51788676Y-34344039D01*
X51768892Y-34326108D01*
X51750961Y-34306324D01*
X51735055Y-34284877D01*
X51721328Y-34261974D01*
X51709911Y-34237837D01*
X51700916Y-34212696D01*
X51694428Y-34186795D01*
X51690510Y-34160383D01*
X51689200Y-34133714D01*
X51689200Y-33176286D01*
X51690510Y-33149617D01*
X51694428Y-33123205D01*
X51700916Y-33097304D01*
X51709911Y-33072163D01*
X51721328Y-33048026D01*
X51735055Y-33025123D01*
X51750961Y-33003676D01*
X51768892Y-32983892D01*
X51788676Y-32965961D01*
X51810123Y-32950055D01*
X51833026Y-32936328D01*
X51857163Y-32924911D01*
X51882304Y-32915916D01*
X51908205Y-32909428D01*
X51934617Y-32905510D01*
X51961286Y-32904200D01*
X52668714Y-32904200D01*
X52695383Y-32905510D01*
X52695383Y-32905510D01*
G37*
D20*
X52315000Y-33655000D03*
D14*
G36*
X40764383Y-37094510D02*
G01*
X40790795Y-37098428D01*
X40816696Y-37104916D01*
X40841837Y-37113911D01*
X40865974Y-37125328D01*
X40888877Y-37139055D01*
X40910324Y-37154961D01*
X40930108Y-37172892D01*
X40948039Y-37192676D01*
X40963945Y-37214123D01*
X40977672Y-37237026D01*
X40989089Y-37261163D01*
X40998084Y-37286304D01*
X41004572Y-37312205D01*
X41008490Y-37338617D01*
X41009800Y-37365286D01*
X41009800Y-38072714D01*
X41008490Y-38099383D01*
X41004572Y-38125795D01*
X40998084Y-38151696D01*
X40989089Y-38176837D01*
X40977672Y-38200974D01*
X40963945Y-38223877D01*
X40948039Y-38245324D01*
X40930108Y-38265108D01*
X40910324Y-38283039D01*
X40888877Y-38298945D01*
X40865974Y-38312672D01*
X40841837Y-38324089D01*
X40816696Y-38333084D01*
X40790795Y-38339572D01*
X40764383Y-38343490D01*
X40737714Y-38344800D01*
X39780286Y-38344800D01*
X39753617Y-38343490D01*
X39727205Y-38339572D01*
X39701304Y-38333084D01*
X39676163Y-38324089D01*
X39652026Y-38312672D01*
X39629123Y-38298945D01*
X39607676Y-38283039D01*
X39587892Y-38265108D01*
X39569961Y-38245324D01*
X39554055Y-38223877D01*
X39540328Y-38200974D01*
X39528911Y-38176837D01*
X39519916Y-38151696D01*
X39513428Y-38125795D01*
X39509510Y-38099383D01*
X39508200Y-38072714D01*
X39508200Y-37365286D01*
X39509510Y-37338617D01*
X39513428Y-37312205D01*
X39519916Y-37286304D01*
X39528911Y-37261163D01*
X39540328Y-37237026D01*
X39554055Y-37214123D01*
X39569961Y-37192676D01*
X39587892Y-37172892D01*
X39607676Y-37154961D01*
X39629123Y-37139055D01*
X39652026Y-37125328D01*
X39676163Y-37113911D01*
X39701304Y-37104916D01*
X39727205Y-37098428D01*
X39753617Y-37094510D01*
X39780286Y-37093200D01*
X40737714Y-37093200D01*
X40764383Y-37094510D01*
X40764383Y-37094510D01*
G37*
D20*
X40259000Y-37719000D03*
D14*
G36*
X40764383Y-35044510D02*
G01*
X40790795Y-35048428D01*
X40816696Y-35054916D01*
X40841837Y-35063911D01*
X40865974Y-35075328D01*
X40888877Y-35089055D01*
X40910324Y-35104961D01*
X40930108Y-35122892D01*
X40948039Y-35142676D01*
X40963945Y-35164123D01*
X40977672Y-35187026D01*
X40989089Y-35211163D01*
X40998084Y-35236304D01*
X41004572Y-35262205D01*
X41008490Y-35288617D01*
X41009800Y-35315286D01*
X41009800Y-36022714D01*
X41008490Y-36049383D01*
X41004572Y-36075795D01*
X40998084Y-36101696D01*
X40989089Y-36126837D01*
X40977672Y-36150974D01*
X40963945Y-36173877D01*
X40948039Y-36195324D01*
X40930108Y-36215108D01*
X40910324Y-36233039D01*
X40888877Y-36248945D01*
X40865974Y-36262672D01*
X40841837Y-36274089D01*
X40816696Y-36283084D01*
X40790795Y-36289572D01*
X40764383Y-36293490D01*
X40737714Y-36294800D01*
X39780286Y-36294800D01*
X39753617Y-36293490D01*
X39727205Y-36289572D01*
X39701304Y-36283084D01*
X39676163Y-36274089D01*
X39652026Y-36262672D01*
X39629123Y-36248945D01*
X39607676Y-36233039D01*
X39587892Y-36215108D01*
X39569961Y-36195324D01*
X39554055Y-36173877D01*
X39540328Y-36150974D01*
X39528911Y-36126837D01*
X39519916Y-36101696D01*
X39513428Y-36075795D01*
X39509510Y-36049383D01*
X39508200Y-36022714D01*
X39508200Y-35315286D01*
X39509510Y-35288617D01*
X39513428Y-35262205D01*
X39519916Y-35236304D01*
X39528911Y-35211163D01*
X39540328Y-35187026D01*
X39554055Y-35164123D01*
X39569961Y-35142676D01*
X39587892Y-35122892D01*
X39607676Y-35104961D01*
X39629123Y-35089055D01*
X39652026Y-35075328D01*
X39676163Y-35063911D01*
X39701304Y-35054916D01*
X39727205Y-35048428D01*
X39753617Y-35044510D01*
X39780286Y-35043200D01*
X40737714Y-35043200D01*
X40764383Y-35044510D01*
X40764383Y-35044510D01*
G37*
D20*
X40259000Y-35669000D03*
D14*
G36*
X31239383Y-33910510D02*
G01*
X31265795Y-33914428D01*
X31291696Y-33920916D01*
X31316837Y-33929911D01*
X31340974Y-33941328D01*
X31363877Y-33955055D01*
X31385324Y-33970961D01*
X31405108Y-33988892D01*
X31423039Y-34008676D01*
X31438945Y-34030123D01*
X31452672Y-34053026D01*
X31464089Y-34077163D01*
X31473084Y-34102304D01*
X31479572Y-34128205D01*
X31483490Y-34154617D01*
X31484800Y-34181286D01*
X31484800Y-34888714D01*
X31483490Y-34915383D01*
X31479572Y-34941795D01*
X31473084Y-34967696D01*
X31464089Y-34992837D01*
X31452672Y-35016974D01*
X31438945Y-35039877D01*
X31423039Y-35061324D01*
X31405108Y-35081108D01*
X31385324Y-35099039D01*
X31363877Y-35114945D01*
X31340974Y-35128672D01*
X31316837Y-35140089D01*
X31291696Y-35149084D01*
X31265795Y-35155572D01*
X31239383Y-35159490D01*
X31212714Y-35160800D01*
X30255286Y-35160800D01*
X30228617Y-35159490D01*
X30202205Y-35155572D01*
X30176304Y-35149084D01*
X30151163Y-35140089D01*
X30127026Y-35128672D01*
X30104123Y-35114945D01*
X30082676Y-35099039D01*
X30062892Y-35081108D01*
X30044961Y-35061324D01*
X30029055Y-35039877D01*
X30015328Y-35016974D01*
X30003911Y-34992837D01*
X29994916Y-34967696D01*
X29988428Y-34941795D01*
X29984510Y-34915383D01*
X29983200Y-34888714D01*
X29983200Y-34181286D01*
X29984510Y-34154617D01*
X29988428Y-34128205D01*
X29994916Y-34102304D01*
X30003911Y-34077163D01*
X30015328Y-34053026D01*
X30029055Y-34030123D01*
X30044961Y-34008676D01*
X30062892Y-33988892D01*
X30082676Y-33970961D01*
X30104123Y-33955055D01*
X30127026Y-33941328D01*
X30151163Y-33929911D01*
X30176304Y-33920916D01*
X30202205Y-33914428D01*
X30228617Y-33910510D01*
X30255286Y-33909200D01*
X31212714Y-33909200D01*
X31239383Y-33910510D01*
X31239383Y-33910510D01*
G37*
D20*
X30734000Y-34535000D03*
D14*
G36*
X31239383Y-35960510D02*
G01*
X31265795Y-35964428D01*
X31291696Y-35970916D01*
X31316837Y-35979911D01*
X31340974Y-35991328D01*
X31363877Y-36005055D01*
X31385324Y-36020961D01*
X31405108Y-36038892D01*
X31423039Y-36058676D01*
X31438945Y-36080123D01*
X31452672Y-36103026D01*
X31464089Y-36127163D01*
X31473084Y-36152304D01*
X31479572Y-36178205D01*
X31483490Y-36204617D01*
X31484800Y-36231286D01*
X31484800Y-36938714D01*
X31483490Y-36965383D01*
X31479572Y-36991795D01*
X31473084Y-37017696D01*
X31464089Y-37042837D01*
X31452672Y-37066974D01*
X31438945Y-37089877D01*
X31423039Y-37111324D01*
X31405108Y-37131108D01*
X31385324Y-37149039D01*
X31363877Y-37164945D01*
X31340974Y-37178672D01*
X31316837Y-37190089D01*
X31291696Y-37199084D01*
X31265795Y-37205572D01*
X31239383Y-37209490D01*
X31212714Y-37210800D01*
X30255286Y-37210800D01*
X30228617Y-37209490D01*
X30202205Y-37205572D01*
X30176304Y-37199084D01*
X30151163Y-37190089D01*
X30127026Y-37178672D01*
X30104123Y-37164945D01*
X30082676Y-37149039D01*
X30062892Y-37131108D01*
X30044961Y-37111324D01*
X30029055Y-37089877D01*
X30015328Y-37066974D01*
X30003911Y-37042837D01*
X29994916Y-37017696D01*
X29988428Y-36991795D01*
X29984510Y-36965383D01*
X29983200Y-36938714D01*
X29983200Y-36231286D01*
X29984510Y-36204617D01*
X29988428Y-36178205D01*
X29994916Y-36152304D01*
X30003911Y-36127163D01*
X30015328Y-36103026D01*
X30029055Y-36080123D01*
X30044961Y-36058676D01*
X30062892Y-36038892D01*
X30082676Y-36020961D01*
X30104123Y-36005055D01*
X30127026Y-35991328D01*
X30151163Y-35979911D01*
X30176304Y-35970916D01*
X30202205Y-35964428D01*
X30228617Y-35960510D01*
X30255286Y-35959200D01*
X31212714Y-35959200D01*
X31239383Y-35960510D01*
X31239383Y-35960510D01*
G37*
D20*
X30734000Y-36585000D03*
D14*
G36*
X39748383Y-97918510D02*
G01*
X39774795Y-97922428D01*
X39800696Y-97928916D01*
X39825837Y-97937911D01*
X39849974Y-97949328D01*
X39872877Y-97963055D01*
X39894324Y-97978961D01*
X39914108Y-97996892D01*
X39932039Y-98016676D01*
X39947945Y-98038123D01*
X39961672Y-98061026D01*
X39973089Y-98085163D01*
X39982084Y-98110304D01*
X39988572Y-98136205D01*
X39992490Y-98162617D01*
X39993800Y-98189286D01*
X39993800Y-98896714D01*
X39992490Y-98923383D01*
X39988572Y-98949795D01*
X39982084Y-98975696D01*
X39973089Y-99000837D01*
X39961672Y-99024974D01*
X39947945Y-99047877D01*
X39932039Y-99069324D01*
X39914108Y-99089108D01*
X39894324Y-99107039D01*
X39872877Y-99122945D01*
X39849974Y-99136672D01*
X39825837Y-99148089D01*
X39800696Y-99157084D01*
X39774795Y-99163572D01*
X39748383Y-99167490D01*
X39721714Y-99168800D01*
X38764286Y-99168800D01*
X38737617Y-99167490D01*
X38711205Y-99163572D01*
X38685304Y-99157084D01*
X38660163Y-99148089D01*
X38636026Y-99136672D01*
X38613123Y-99122945D01*
X38591676Y-99107039D01*
X38571892Y-99089108D01*
X38553961Y-99069324D01*
X38538055Y-99047877D01*
X38524328Y-99024974D01*
X38512911Y-99000837D01*
X38503916Y-98975696D01*
X38497428Y-98949795D01*
X38493510Y-98923383D01*
X38492200Y-98896714D01*
X38492200Y-98189286D01*
X38493510Y-98162617D01*
X38497428Y-98136205D01*
X38503916Y-98110304D01*
X38512911Y-98085163D01*
X38524328Y-98061026D01*
X38538055Y-98038123D01*
X38553961Y-98016676D01*
X38571892Y-97996892D01*
X38591676Y-97978961D01*
X38613123Y-97963055D01*
X38636026Y-97949328D01*
X38660163Y-97937911D01*
X38685304Y-97928916D01*
X38711205Y-97922428D01*
X38737617Y-97918510D01*
X38764286Y-97917200D01*
X39721714Y-97917200D01*
X39748383Y-97918510D01*
X39748383Y-97918510D01*
G37*
D20*
X39243000Y-98543000D03*
D14*
G36*
X39748383Y-99968510D02*
G01*
X39774795Y-99972428D01*
X39800696Y-99978916D01*
X39825837Y-99987911D01*
X39849974Y-99999328D01*
X39872877Y-100013055D01*
X39894324Y-100028961D01*
X39914108Y-100046892D01*
X39932039Y-100066676D01*
X39947945Y-100088123D01*
X39961672Y-100111026D01*
X39973089Y-100135163D01*
X39982084Y-100160304D01*
X39988572Y-100186205D01*
X39992490Y-100212617D01*
X39993800Y-100239286D01*
X39993800Y-100946714D01*
X39992490Y-100973383D01*
X39988572Y-100999795D01*
X39982084Y-101025696D01*
X39973089Y-101050837D01*
X39961672Y-101074974D01*
X39947945Y-101097877D01*
X39932039Y-101119324D01*
X39914108Y-101139108D01*
X39894324Y-101157039D01*
X39872877Y-101172945D01*
X39849974Y-101186672D01*
X39825837Y-101198089D01*
X39800696Y-101207084D01*
X39774795Y-101213572D01*
X39748383Y-101217490D01*
X39721714Y-101218800D01*
X38764286Y-101218800D01*
X38737617Y-101217490D01*
X38711205Y-101213572D01*
X38685304Y-101207084D01*
X38660163Y-101198089D01*
X38636026Y-101186672D01*
X38613123Y-101172945D01*
X38591676Y-101157039D01*
X38571892Y-101139108D01*
X38553961Y-101119324D01*
X38538055Y-101097877D01*
X38524328Y-101074974D01*
X38512911Y-101050837D01*
X38503916Y-101025696D01*
X38497428Y-100999795D01*
X38493510Y-100973383D01*
X38492200Y-100946714D01*
X38492200Y-100239286D01*
X38493510Y-100212617D01*
X38497428Y-100186205D01*
X38503916Y-100160304D01*
X38512911Y-100135163D01*
X38524328Y-100111026D01*
X38538055Y-100088123D01*
X38553961Y-100066676D01*
X38571892Y-100046892D01*
X38591676Y-100028961D01*
X38613123Y-100013055D01*
X38636026Y-99999328D01*
X38660163Y-99987911D01*
X38685304Y-99978916D01*
X38711205Y-99972428D01*
X38737617Y-99968510D01*
X38764286Y-99967200D01*
X39721714Y-99967200D01*
X39748383Y-99968510D01*
X39748383Y-99968510D01*
G37*
D20*
X39243000Y-100593000D03*
D14*
G36*
X42542383Y-97918510D02*
G01*
X42568795Y-97922428D01*
X42594696Y-97928916D01*
X42619837Y-97937911D01*
X42643974Y-97949328D01*
X42666877Y-97963055D01*
X42688324Y-97978961D01*
X42708108Y-97996892D01*
X42726039Y-98016676D01*
X42741945Y-98038123D01*
X42755672Y-98061026D01*
X42767089Y-98085163D01*
X42776084Y-98110304D01*
X42782572Y-98136205D01*
X42786490Y-98162617D01*
X42787800Y-98189286D01*
X42787800Y-98896714D01*
X42786490Y-98923383D01*
X42782572Y-98949795D01*
X42776084Y-98975696D01*
X42767089Y-99000837D01*
X42755672Y-99024974D01*
X42741945Y-99047877D01*
X42726039Y-99069324D01*
X42708108Y-99089108D01*
X42688324Y-99107039D01*
X42666877Y-99122945D01*
X42643974Y-99136672D01*
X42619837Y-99148089D01*
X42594696Y-99157084D01*
X42568795Y-99163572D01*
X42542383Y-99167490D01*
X42515714Y-99168800D01*
X41558286Y-99168800D01*
X41531617Y-99167490D01*
X41505205Y-99163572D01*
X41479304Y-99157084D01*
X41454163Y-99148089D01*
X41430026Y-99136672D01*
X41407123Y-99122945D01*
X41385676Y-99107039D01*
X41365892Y-99089108D01*
X41347961Y-99069324D01*
X41332055Y-99047877D01*
X41318328Y-99024974D01*
X41306911Y-99000837D01*
X41297916Y-98975696D01*
X41291428Y-98949795D01*
X41287510Y-98923383D01*
X41286200Y-98896714D01*
X41286200Y-98189286D01*
X41287510Y-98162617D01*
X41291428Y-98136205D01*
X41297916Y-98110304D01*
X41306911Y-98085163D01*
X41318328Y-98061026D01*
X41332055Y-98038123D01*
X41347961Y-98016676D01*
X41365892Y-97996892D01*
X41385676Y-97978961D01*
X41407123Y-97963055D01*
X41430026Y-97949328D01*
X41454163Y-97937911D01*
X41479304Y-97928916D01*
X41505205Y-97922428D01*
X41531617Y-97918510D01*
X41558286Y-97917200D01*
X42515714Y-97917200D01*
X42542383Y-97918510D01*
X42542383Y-97918510D01*
G37*
D20*
X42037000Y-98543000D03*
D14*
G36*
X42542383Y-99968510D02*
G01*
X42568795Y-99972428D01*
X42594696Y-99978916D01*
X42619837Y-99987911D01*
X42643974Y-99999328D01*
X42666877Y-100013055D01*
X42688324Y-100028961D01*
X42708108Y-100046892D01*
X42726039Y-100066676D01*
X42741945Y-100088123D01*
X42755672Y-100111026D01*
X42767089Y-100135163D01*
X42776084Y-100160304D01*
X42782572Y-100186205D01*
X42786490Y-100212617D01*
X42787800Y-100239286D01*
X42787800Y-100946714D01*
X42786490Y-100973383D01*
X42782572Y-100999795D01*
X42776084Y-101025696D01*
X42767089Y-101050837D01*
X42755672Y-101074974D01*
X42741945Y-101097877D01*
X42726039Y-101119324D01*
X42708108Y-101139108D01*
X42688324Y-101157039D01*
X42666877Y-101172945D01*
X42643974Y-101186672D01*
X42619837Y-101198089D01*
X42594696Y-101207084D01*
X42568795Y-101213572D01*
X42542383Y-101217490D01*
X42515714Y-101218800D01*
X41558286Y-101218800D01*
X41531617Y-101217490D01*
X41505205Y-101213572D01*
X41479304Y-101207084D01*
X41454163Y-101198089D01*
X41430026Y-101186672D01*
X41407123Y-101172945D01*
X41385676Y-101157039D01*
X41365892Y-101139108D01*
X41347961Y-101119324D01*
X41332055Y-101097877D01*
X41318328Y-101074974D01*
X41306911Y-101050837D01*
X41297916Y-101025696D01*
X41291428Y-100999795D01*
X41287510Y-100973383D01*
X41286200Y-100946714D01*
X41286200Y-100239286D01*
X41287510Y-100212617D01*
X41291428Y-100186205D01*
X41297916Y-100160304D01*
X41306911Y-100135163D01*
X41318328Y-100111026D01*
X41332055Y-100088123D01*
X41347961Y-100066676D01*
X41365892Y-100046892D01*
X41385676Y-100028961D01*
X41407123Y-100013055D01*
X41430026Y-99999328D01*
X41454163Y-99987911D01*
X41479304Y-99978916D01*
X41505205Y-99972428D01*
X41531617Y-99968510D01*
X41558286Y-99967200D01*
X42515714Y-99967200D01*
X42542383Y-99968510D01*
X42542383Y-99968510D01*
G37*
D20*
X42037000Y-100593000D03*
D14*
G36*
X45336383Y-97918510D02*
G01*
X45362795Y-97922428D01*
X45388696Y-97928916D01*
X45413837Y-97937911D01*
X45437974Y-97949328D01*
X45460877Y-97963055D01*
X45482324Y-97978961D01*
X45502108Y-97996892D01*
X45520039Y-98016676D01*
X45535945Y-98038123D01*
X45549672Y-98061026D01*
X45561089Y-98085163D01*
X45570084Y-98110304D01*
X45576572Y-98136205D01*
X45580490Y-98162617D01*
X45581800Y-98189286D01*
X45581800Y-98896714D01*
X45580490Y-98923383D01*
X45576572Y-98949795D01*
X45570084Y-98975696D01*
X45561089Y-99000837D01*
X45549672Y-99024974D01*
X45535945Y-99047877D01*
X45520039Y-99069324D01*
X45502108Y-99089108D01*
X45482324Y-99107039D01*
X45460877Y-99122945D01*
X45437974Y-99136672D01*
X45413837Y-99148089D01*
X45388696Y-99157084D01*
X45362795Y-99163572D01*
X45336383Y-99167490D01*
X45309714Y-99168800D01*
X44352286Y-99168800D01*
X44325617Y-99167490D01*
X44299205Y-99163572D01*
X44273304Y-99157084D01*
X44248163Y-99148089D01*
X44224026Y-99136672D01*
X44201123Y-99122945D01*
X44179676Y-99107039D01*
X44159892Y-99089108D01*
X44141961Y-99069324D01*
X44126055Y-99047877D01*
X44112328Y-99024974D01*
X44100911Y-99000837D01*
X44091916Y-98975696D01*
X44085428Y-98949795D01*
X44081510Y-98923383D01*
X44080200Y-98896714D01*
X44080200Y-98189286D01*
X44081510Y-98162617D01*
X44085428Y-98136205D01*
X44091916Y-98110304D01*
X44100911Y-98085163D01*
X44112328Y-98061026D01*
X44126055Y-98038123D01*
X44141961Y-98016676D01*
X44159892Y-97996892D01*
X44179676Y-97978961D01*
X44201123Y-97963055D01*
X44224026Y-97949328D01*
X44248163Y-97937911D01*
X44273304Y-97928916D01*
X44299205Y-97922428D01*
X44325617Y-97918510D01*
X44352286Y-97917200D01*
X45309714Y-97917200D01*
X45336383Y-97918510D01*
X45336383Y-97918510D01*
G37*
D20*
X44831000Y-98543000D03*
D14*
G36*
X45336383Y-99968510D02*
G01*
X45362795Y-99972428D01*
X45388696Y-99978916D01*
X45413837Y-99987911D01*
X45437974Y-99999328D01*
X45460877Y-100013055D01*
X45482324Y-100028961D01*
X45502108Y-100046892D01*
X45520039Y-100066676D01*
X45535945Y-100088123D01*
X45549672Y-100111026D01*
X45561089Y-100135163D01*
X45570084Y-100160304D01*
X45576572Y-100186205D01*
X45580490Y-100212617D01*
X45581800Y-100239286D01*
X45581800Y-100946714D01*
X45580490Y-100973383D01*
X45576572Y-100999795D01*
X45570084Y-101025696D01*
X45561089Y-101050837D01*
X45549672Y-101074974D01*
X45535945Y-101097877D01*
X45520039Y-101119324D01*
X45502108Y-101139108D01*
X45482324Y-101157039D01*
X45460877Y-101172945D01*
X45437974Y-101186672D01*
X45413837Y-101198089D01*
X45388696Y-101207084D01*
X45362795Y-101213572D01*
X45336383Y-101217490D01*
X45309714Y-101218800D01*
X44352286Y-101218800D01*
X44325617Y-101217490D01*
X44299205Y-101213572D01*
X44273304Y-101207084D01*
X44248163Y-101198089D01*
X44224026Y-101186672D01*
X44201123Y-101172945D01*
X44179676Y-101157039D01*
X44159892Y-101139108D01*
X44141961Y-101119324D01*
X44126055Y-101097877D01*
X44112328Y-101074974D01*
X44100911Y-101050837D01*
X44091916Y-101025696D01*
X44085428Y-100999795D01*
X44081510Y-100973383D01*
X44080200Y-100946714D01*
X44080200Y-100239286D01*
X44081510Y-100212617D01*
X44085428Y-100186205D01*
X44091916Y-100160304D01*
X44100911Y-100135163D01*
X44112328Y-100111026D01*
X44126055Y-100088123D01*
X44141961Y-100066676D01*
X44159892Y-100046892D01*
X44179676Y-100028961D01*
X44201123Y-100013055D01*
X44224026Y-99999328D01*
X44248163Y-99987911D01*
X44273304Y-99978916D01*
X44299205Y-99972428D01*
X44325617Y-99968510D01*
X44352286Y-99967200D01*
X45309714Y-99967200D01*
X45336383Y-99968510D01*
X45336383Y-99968510D01*
G37*
D20*
X44831000Y-100593000D03*
D14*
G36*
X48130383Y-97918510D02*
G01*
X48156795Y-97922428D01*
X48182696Y-97928916D01*
X48207837Y-97937911D01*
X48231974Y-97949328D01*
X48254877Y-97963055D01*
X48276324Y-97978961D01*
X48296108Y-97996892D01*
X48314039Y-98016676D01*
X48329945Y-98038123D01*
X48343672Y-98061026D01*
X48355089Y-98085163D01*
X48364084Y-98110304D01*
X48370572Y-98136205D01*
X48374490Y-98162617D01*
X48375800Y-98189286D01*
X48375800Y-98896714D01*
X48374490Y-98923383D01*
X48370572Y-98949795D01*
X48364084Y-98975696D01*
X48355089Y-99000837D01*
X48343672Y-99024974D01*
X48329945Y-99047877D01*
X48314039Y-99069324D01*
X48296108Y-99089108D01*
X48276324Y-99107039D01*
X48254877Y-99122945D01*
X48231974Y-99136672D01*
X48207837Y-99148089D01*
X48182696Y-99157084D01*
X48156795Y-99163572D01*
X48130383Y-99167490D01*
X48103714Y-99168800D01*
X47146286Y-99168800D01*
X47119617Y-99167490D01*
X47093205Y-99163572D01*
X47067304Y-99157084D01*
X47042163Y-99148089D01*
X47018026Y-99136672D01*
X46995123Y-99122945D01*
X46973676Y-99107039D01*
X46953892Y-99089108D01*
X46935961Y-99069324D01*
X46920055Y-99047877D01*
X46906328Y-99024974D01*
X46894911Y-99000837D01*
X46885916Y-98975696D01*
X46879428Y-98949795D01*
X46875510Y-98923383D01*
X46874200Y-98896714D01*
X46874200Y-98189286D01*
X46875510Y-98162617D01*
X46879428Y-98136205D01*
X46885916Y-98110304D01*
X46894911Y-98085163D01*
X46906328Y-98061026D01*
X46920055Y-98038123D01*
X46935961Y-98016676D01*
X46953892Y-97996892D01*
X46973676Y-97978961D01*
X46995123Y-97963055D01*
X47018026Y-97949328D01*
X47042163Y-97937911D01*
X47067304Y-97928916D01*
X47093205Y-97922428D01*
X47119617Y-97918510D01*
X47146286Y-97917200D01*
X48103714Y-97917200D01*
X48130383Y-97918510D01*
X48130383Y-97918510D01*
G37*
D20*
X47625000Y-98543000D03*
D14*
G36*
X48130383Y-99968510D02*
G01*
X48156795Y-99972428D01*
X48182696Y-99978916D01*
X48207837Y-99987911D01*
X48231974Y-99999328D01*
X48254877Y-100013055D01*
X48276324Y-100028961D01*
X48296108Y-100046892D01*
X48314039Y-100066676D01*
X48329945Y-100088123D01*
X48343672Y-100111026D01*
X48355089Y-100135163D01*
X48364084Y-100160304D01*
X48370572Y-100186205D01*
X48374490Y-100212617D01*
X48375800Y-100239286D01*
X48375800Y-100946714D01*
X48374490Y-100973383D01*
X48370572Y-100999795D01*
X48364084Y-101025696D01*
X48355089Y-101050837D01*
X48343672Y-101074974D01*
X48329945Y-101097877D01*
X48314039Y-101119324D01*
X48296108Y-101139108D01*
X48276324Y-101157039D01*
X48254877Y-101172945D01*
X48231974Y-101186672D01*
X48207837Y-101198089D01*
X48182696Y-101207084D01*
X48156795Y-101213572D01*
X48130383Y-101217490D01*
X48103714Y-101218800D01*
X47146286Y-101218800D01*
X47119617Y-101217490D01*
X47093205Y-101213572D01*
X47067304Y-101207084D01*
X47042163Y-101198089D01*
X47018026Y-101186672D01*
X46995123Y-101172945D01*
X46973676Y-101157039D01*
X46953892Y-101139108D01*
X46935961Y-101119324D01*
X46920055Y-101097877D01*
X46906328Y-101074974D01*
X46894911Y-101050837D01*
X46885916Y-101025696D01*
X46879428Y-100999795D01*
X46875510Y-100973383D01*
X46874200Y-100946714D01*
X46874200Y-100239286D01*
X46875510Y-100212617D01*
X46879428Y-100186205D01*
X46885916Y-100160304D01*
X46894911Y-100135163D01*
X46906328Y-100111026D01*
X46920055Y-100088123D01*
X46935961Y-100066676D01*
X46953892Y-100046892D01*
X46973676Y-100028961D01*
X46995123Y-100013055D01*
X47018026Y-99999328D01*
X47042163Y-99987911D01*
X47067304Y-99978916D01*
X47093205Y-99972428D01*
X47119617Y-99968510D01*
X47146286Y-99967200D01*
X48103714Y-99967200D01*
X48130383Y-99968510D01*
X48130383Y-99968510D01*
G37*
D20*
X47625000Y-100593000D03*
D14*
G36*
X50924383Y-99968510D02*
G01*
X50950795Y-99972428D01*
X50976696Y-99978916D01*
X51001837Y-99987911D01*
X51025974Y-99999328D01*
X51048877Y-100013055D01*
X51070324Y-100028961D01*
X51090108Y-100046892D01*
X51108039Y-100066676D01*
X51123945Y-100088123D01*
X51137672Y-100111026D01*
X51149089Y-100135163D01*
X51158084Y-100160304D01*
X51164572Y-100186205D01*
X51168490Y-100212617D01*
X51169800Y-100239286D01*
X51169800Y-100946714D01*
X51168490Y-100973383D01*
X51164572Y-100999795D01*
X51158084Y-101025696D01*
X51149089Y-101050837D01*
X51137672Y-101074974D01*
X51123945Y-101097877D01*
X51108039Y-101119324D01*
X51090108Y-101139108D01*
X51070324Y-101157039D01*
X51048877Y-101172945D01*
X51025974Y-101186672D01*
X51001837Y-101198089D01*
X50976696Y-101207084D01*
X50950795Y-101213572D01*
X50924383Y-101217490D01*
X50897714Y-101218800D01*
X49940286Y-101218800D01*
X49913617Y-101217490D01*
X49887205Y-101213572D01*
X49861304Y-101207084D01*
X49836163Y-101198089D01*
X49812026Y-101186672D01*
X49789123Y-101172945D01*
X49767676Y-101157039D01*
X49747892Y-101139108D01*
X49729961Y-101119324D01*
X49714055Y-101097877D01*
X49700328Y-101074974D01*
X49688911Y-101050837D01*
X49679916Y-101025696D01*
X49673428Y-100999795D01*
X49669510Y-100973383D01*
X49668200Y-100946714D01*
X49668200Y-100239286D01*
X49669510Y-100212617D01*
X49673428Y-100186205D01*
X49679916Y-100160304D01*
X49688911Y-100135163D01*
X49700328Y-100111026D01*
X49714055Y-100088123D01*
X49729961Y-100066676D01*
X49747892Y-100046892D01*
X49767676Y-100028961D01*
X49789123Y-100013055D01*
X49812026Y-99999328D01*
X49836163Y-99987911D01*
X49861304Y-99978916D01*
X49887205Y-99972428D01*
X49913617Y-99968510D01*
X49940286Y-99967200D01*
X50897714Y-99967200D01*
X50924383Y-99968510D01*
X50924383Y-99968510D01*
G37*
D20*
X50419000Y-100593000D03*
D14*
G36*
X50924383Y-97918510D02*
G01*
X50950795Y-97922428D01*
X50976696Y-97928916D01*
X51001837Y-97937911D01*
X51025974Y-97949328D01*
X51048877Y-97963055D01*
X51070324Y-97978961D01*
X51090108Y-97996892D01*
X51108039Y-98016676D01*
X51123945Y-98038123D01*
X51137672Y-98061026D01*
X51149089Y-98085163D01*
X51158084Y-98110304D01*
X51164572Y-98136205D01*
X51168490Y-98162617D01*
X51169800Y-98189286D01*
X51169800Y-98896714D01*
X51168490Y-98923383D01*
X51164572Y-98949795D01*
X51158084Y-98975696D01*
X51149089Y-99000837D01*
X51137672Y-99024974D01*
X51123945Y-99047877D01*
X51108039Y-99069324D01*
X51090108Y-99089108D01*
X51070324Y-99107039D01*
X51048877Y-99122945D01*
X51025974Y-99136672D01*
X51001837Y-99148089D01*
X50976696Y-99157084D01*
X50950795Y-99163572D01*
X50924383Y-99167490D01*
X50897714Y-99168800D01*
X49940286Y-99168800D01*
X49913617Y-99167490D01*
X49887205Y-99163572D01*
X49861304Y-99157084D01*
X49836163Y-99148089D01*
X49812026Y-99136672D01*
X49789123Y-99122945D01*
X49767676Y-99107039D01*
X49747892Y-99089108D01*
X49729961Y-99069324D01*
X49714055Y-99047877D01*
X49700328Y-99024974D01*
X49688911Y-99000837D01*
X49679916Y-98975696D01*
X49673428Y-98949795D01*
X49669510Y-98923383D01*
X49668200Y-98896714D01*
X49668200Y-98189286D01*
X49669510Y-98162617D01*
X49673428Y-98136205D01*
X49679916Y-98110304D01*
X49688911Y-98085163D01*
X49700328Y-98061026D01*
X49714055Y-98038123D01*
X49729961Y-98016676D01*
X49747892Y-97996892D01*
X49767676Y-97978961D01*
X49789123Y-97963055D01*
X49812026Y-97949328D01*
X49836163Y-97937911D01*
X49861304Y-97928916D01*
X49887205Y-97922428D01*
X49913617Y-97918510D01*
X49940286Y-97917200D01*
X50897714Y-97917200D01*
X50924383Y-97918510D01*
X50924383Y-97918510D01*
G37*
D20*
X50419000Y-98543000D03*
D14*
G36*
X53718383Y-99968510D02*
G01*
X53744795Y-99972428D01*
X53770696Y-99978916D01*
X53795837Y-99987911D01*
X53819974Y-99999328D01*
X53842877Y-100013055D01*
X53864324Y-100028961D01*
X53884108Y-100046892D01*
X53902039Y-100066676D01*
X53917945Y-100088123D01*
X53931672Y-100111026D01*
X53943089Y-100135163D01*
X53952084Y-100160304D01*
X53958572Y-100186205D01*
X53962490Y-100212617D01*
X53963800Y-100239286D01*
X53963800Y-100946714D01*
X53962490Y-100973383D01*
X53958572Y-100999795D01*
X53952084Y-101025696D01*
X53943089Y-101050837D01*
X53931672Y-101074974D01*
X53917945Y-101097877D01*
X53902039Y-101119324D01*
X53884108Y-101139108D01*
X53864324Y-101157039D01*
X53842877Y-101172945D01*
X53819974Y-101186672D01*
X53795837Y-101198089D01*
X53770696Y-101207084D01*
X53744795Y-101213572D01*
X53718383Y-101217490D01*
X53691714Y-101218800D01*
X52734286Y-101218800D01*
X52707617Y-101217490D01*
X52681205Y-101213572D01*
X52655304Y-101207084D01*
X52630163Y-101198089D01*
X52606026Y-101186672D01*
X52583123Y-101172945D01*
X52561676Y-101157039D01*
X52541892Y-101139108D01*
X52523961Y-101119324D01*
X52508055Y-101097877D01*
X52494328Y-101074974D01*
X52482911Y-101050837D01*
X52473916Y-101025696D01*
X52467428Y-100999795D01*
X52463510Y-100973383D01*
X52462200Y-100946714D01*
X52462200Y-100239286D01*
X52463510Y-100212617D01*
X52467428Y-100186205D01*
X52473916Y-100160304D01*
X52482911Y-100135163D01*
X52494328Y-100111026D01*
X52508055Y-100088123D01*
X52523961Y-100066676D01*
X52541892Y-100046892D01*
X52561676Y-100028961D01*
X52583123Y-100013055D01*
X52606026Y-99999328D01*
X52630163Y-99987911D01*
X52655304Y-99978916D01*
X52681205Y-99972428D01*
X52707617Y-99968510D01*
X52734286Y-99967200D01*
X53691714Y-99967200D01*
X53718383Y-99968510D01*
X53718383Y-99968510D01*
G37*
D20*
X53213000Y-100593000D03*
D14*
G36*
X53718383Y-97918510D02*
G01*
X53744795Y-97922428D01*
X53770696Y-97928916D01*
X53795837Y-97937911D01*
X53819974Y-97949328D01*
X53842877Y-97963055D01*
X53864324Y-97978961D01*
X53884108Y-97996892D01*
X53902039Y-98016676D01*
X53917945Y-98038123D01*
X53931672Y-98061026D01*
X53943089Y-98085163D01*
X53952084Y-98110304D01*
X53958572Y-98136205D01*
X53962490Y-98162617D01*
X53963800Y-98189286D01*
X53963800Y-98896714D01*
X53962490Y-98923383D01*
X53958572Y-98949795D01*
X53952084Y-98975696D01*
X53943089Y-99000837D01*
X53931672Y-99024974D01*
X53917945Y-99047877D01*
X53902039Y-99069324D01*
X53884108Y-99089108D01*
X53864324Y-99107039D01*
X53842877Y-99122945D01*
X53819974Y-99136672D01*
X53795837Y-99148089D01*
X53770696Y-99157084D01*
X53744795Y-99163572D01*
X53718383Y-99167490D01*
X53691714Y-99168800D01*
X52734286Y-99168800D01*
X52707617Y-99167490D01*
X52681205Y-99163572D01*
X52655304Y-99157084D01*
X52630163Y-99148089D01*
X52606026Y-99136672D01*
X52583123Y-99122945D01*
X52561676Y-99107039D01*
X52541892Y-99089108D01*
X52523961Y-99069324D01*
X52508055Y-99047877D01*
X52494328Y-99024974D01*
X52482911Y-99000837D01*
X52473916Y-98975696D01*
X52467428Y-98949795D01*
X52463510Y-98923383D01*
X52462200Y-98896714D01*
X52462200Y-98189286D01*
X52463510Y-98162617D01*
X52467428Y-98136205D01*
X52473916Y-98110304D01*
X52482911Y-98085163D01*
X52494328Y-98061026D01*
X52508055Y-98038123D01*
X52523961Y-98016676D01*
X52541892Y-97996892D01*
X52561676Y-97978961D01*
X52583123Y-97963055D01*
X52606026Y-97949328D01*
X52630163Y-97937911D01*
X52655304Y-97928916D01*
X52681205Y-97922428D01*
X52707617Y-97918510D01*
X52734286Y-97917200D01*
X53691714Y-97917200D01*
X53718383Y-97918510D01*
X53718383Y-97918510D01*
G37*
D20*
X53213000Y-98543000D03*
D14*
G36*
X56512383Y-99968510D02*
G01*
X56538795Y-99972428D01*
X56564696Y-99978916D01*
X56589837Y-99987911D01*
X56613974Y-99999328D01*
X56636877Y-100013055D01*
X56658324Y-100028961D01*
X56678108Y-100046892D01*
X56696039Y-100066676D01*
X56711945Y-100088123D01*
X56725672Y-100111026D01*
X56737089Y-100135163D01*
X56746084Y-100160304D01*
X56752572Y-100186205D01*
X56756490Y-100212617D01*
X56757800Y-100239286D01*
X56757800Y-100946714D01*
X56756490Y-100973383D01*
X56752572Y-100999795D01*
X56746084Y-101025696D01*
X56737089Y-101050837D01*
X56725672Y-101074974D01*
X56711945Y-101097877D01*
X56696039Y-101119324D01*
X56678108Y-101139108D01*
X56658324Y-101157039D01*
X56636877Y-101172945D01*
X56613974Y-101186672D01*
X56589837Y-101198089D01*
X56564696Y-101207084D01*
X56538795Y-101213572D01*
X56512383Y-101217490D01*
X56485714Y-101218800D01*
X55528286Y-101218800D01*
X55501617Y-101217490D01*
X55475205Y-101213572D01*
X55449304Y-101207084D01*
X55424163Y-101198089D01*
X55400026Y-101186672D01*
X55377123Y-101172945D01*
X55355676Y-101157039D01*
X55335892Y-101139108D01*
X55317961Y-101119324D01*
X55302055Y-101097877D01*
X55288328Y-101074974D01*
X55276911Y-101050837D01*
X55267916Y-101025696D01*
X55261428Y-100999795D01*
X55257510Y-100973383D01*
X55256200Y-100946714D01*
X55256200Y-100239286D01*
X55257510Y-100212617D01*
X55261428Y-100186205D01*
X55267916Y-100160304D01*
X55276911Y-100135163D01*
X55288328Y-100111026D01*
X55302055Y-100088123D01*
X55317961Y-100066676D01*
X55335892Y-100046892D01*
X55355676Y-100028961D01*
X55377123Y-100013055D01*
X55400026Y-99999328D01*
X55424163Y-99987911D01*
X55449304Y-99978916D01*
X55475205Y-99972428D01*
X55501617Y-99968510D01*
X55528286Y-99967200D01*
X56485714Y-99967200D01*
X56512383Y-99968510D01*
X56512383Y-99968510D01*
G37*
D20*
X56007000Y-100593000D03*
D14*
G36*
X56512383Y-97918510D02*
G01*
X56538795Y-97922428D01*
X56564696Y-97928916D01*
X56589837Y-97937911D01*
X56613974Y-97949328D01*
X56636877Y-97963055D01*
X56658324Y-97978961D01*
X56678108Y-97996892D01*
X56696039Y-98016676D01*
X56711945Y-98038123D01*
X56725672Y-98061026D01*
X56737089Y-98085163D01*
X56746084Y-98110304D01*
X56752572Y-98136205D01*
X56756490Y-98162617D01*
X56757800Y-98189286D01*
X56757800Y-98896714D01*
X56756490Y-98923383D01*
X56752572Y-98949795D01*
X56746084Y-98975696D01*
X56737089Y-99000837D01*
X56725672Y-99024974D01*
X56711945Y-99047877D01*
X56696039Y-99069324D01*
X56678108Y-99089108D01*
X56658324Y-99107039D01*
X56636877Y-99122945D01*
X56613974Y-99136672D01*
X56589837Y-99148089D01*
X56564696Y-99157084D01*
X56538795Y-99163572D01*
X56512383Y-99167490D01*
X56485714Y-99168800D01*
X55528286Y-99168800D01*
X55501617Y-99167490D01*
X55475205Y-99163572D01*
X55449304Y-99157084D01*
X55424163Y-99148089D01*
X55400026Y-99136672D01*
X55377123Y-99122945D01*
X55355676Y-99107039D01*
X55335892Y-99089108D01*
X55317961Y-99069324D01*
X55302055Y-99047877D01*
X55288328Y-99024974D01*
X55276911Y-99000837D01*
X55267916Y-98975696D01*
X55261428Y-98949795D01*
X55257510Y-98923383D01*
X55256200Y-98896714D01*
X55256200Y-98189286D01*
X55257510Y-98162617D01*
X55261428Y-98136205D01*
X55267916Y-98110304D01*
X55276911Y-98085163D01*
X55288328Y-98061026D01*
X55302055Y-98038123D01*
X55317961Y-98016676D01*
X55335892Y-97996892D01*
X55355676Y-97978961D01*
X55377123Y-97963055D01*
X55400026Y-97949328D01*
X55424163Y-97937911D01*
X55449304Y-97928916D01*
X55475205Y-97922428D01*
X55501617Y-97918510D01*
X55528286Y-97917200D01*
X56485714Y-97917200D01*
X56512383Y-97918510D01*
X56512383Y-97918510D01*
G37*
D20*
X56007000Y-98543000D03*
D14*
G36*
X59306383Y-97927510D02*
G01*
X59332795Y-97931428D01*
X59358696Y-97937916D01*
X59383837Y-97946911D01*
X59407974Y-97958328D01*
X59430877Y-97972055D01*
X59452324Y-97987961D01*
X59472108Y-98005892D01*
X59490039Y-98025676D01*
X59505945Y-98047123D01*
X59519672Y-98070026D01*
X59531089Y-98094163D01*
X59540084Y-98119304D01*
X59546572Y-98145205D01*
X59550490Y-98171617D01*
X59551800Y-98198286D01*
X59551800Y-98905714D01*
X59550490Y-98932383D01*
X59546572Y-98958795D01*
X59540084Y-98984696D01*
X59531089Y-99009837D01*
X59519672Y-99033974D01*
X59505945Y-99056877D01*
X59490039Y-99078324D01*
X59472108Y-99098108D01*
X59452324Y-99116039D01*
X59430877Y-99131945D01*
X59407974Y-99145672D01*
X59383837Y-99157089D01*
X59358696Y-99166084D01*
X59332795Y-99172572D01*
X59306383Y-99176490D01*
X59279714Y-99177800D01*
X58322286Y-99177800D01*
X58295617Y-99176490D01*
X58269205Y-99172572D01*
X58243304Y-99166084D01*
X58218163Y-99157089D01*
X58194026Y-99145672D01*
X58171123Y-99131945D01*
X58149676Y-99116039D01*
X58129892Y-99098108D01*
X58111961Y-99078324D01*
X58096055Y-99056877D01*
X58082328Y-99033974D01*
X58070911Y-99009837D01*
X58061916Y-98984696D01*
X58055428Y-98958795D01*
X58051510Y-98932383D01*
X58050200Y-98905714D01*
X58050200Y-98198286D01*
X58051510Y-98171617D01*
X58055428Y-98145205D01*
X58061916Y-98119304D01*
X58070911Y-98094163D01*
X58082328Y-98070026D01*
X58096055Y-98047123D01*
X58111961Y-98025676D01*
X58129892Y-98005892D01*
X58149676Y-97987961D01*
X58171123Y-97972055D01*
X58194026Y-97958328D01*
X58218163Y-97946911D01*
X58243304Y-97937916D01*
X58269205Y-97931428D01*
X58295617Y-97927510D01*
X58322286Y-97926200D01*
X59279714Y-97926200D01*
X59306383Y-97927510D01*
X59306383Y-97927510D01*
G37*
D20*
X58801000Y-98552000D03*
D14*
G36*
X59306383Y-99977510D02*
G01*
X59332795Y-99981428D01*
X59358696Y-99987916D01*
X59383837Y-99996911D01*
X59407974Y-100008328D01*
X59430877Y-100022055D01*
X59452324Y-100037961D01*
X59472108Y-100055892D01*
X59490039Y-100075676D01*
X59505945Y-100097123D01*
X59519672Y-100120026D01*
X59531089Y-100144163D01*
X59540084Y-100169304D01*
X59546572Y-100195205D01*
X59550490Y-100221617D01*
X59551800Y-100248286D01*
X59551800Y-100955714D01*
X59550490Y-100982383D01*
X59546572Y-101008795D01*
X59540084Y-101034696D01*
X59531089Y-101059837D01*
X59519672Y-101083974D01*
X59505945Y-101106877D01*
X59490039Y-101128324D01*
X59472108Y-101148108D01*
X59452324Y-101166039D01*
X59430877Y-101181945D01*
X59407974Y-101195672D01*
X59383837Y-101207089D01*
X59358696Y-101216084D01*
X59332795Y-101222572D01*
X59306383Y-101226490D01*
X59279714Y-101227800D01*
X58322286Y-101227800D01*
X58295617Y-101226490D01*
X58269205Y-101222572D01*
X58243304Y-101216084D01*
X58218163Y-101207089D01*
X58194026Y-101195672D01*
X58171123Y-101181945D01*
X58149676Y-101166039D01*
X58129892Y-101148108D01*
X58111961Y-101128324D01*
X58096055Y-101106877D01*
X58082328Y-101083974D01*
X58070911Y-101059837D01*
X58061916Y-101034696D01*
X58055428Y-101008795D01*
X58051510Y-100982383D01*
X58050200Y-100955714D01*
X58050200Y-100248286D01*
X58051510Y-100221617D01*
X58055428Y-100195205D01*
X58061916Y-100169304D01*
X58070911Y-100144163D01*
X58082328Y-100120026D01*
X58096055Y-100097123D01*
X58111961Y-100075676D01*
X58129892Y-100055892D01*
X58149676Y-100037961D01*
X58171123Y-100022055D01*
X58194026Y-100008328D01*
X58218163Y-99996911D01*
X58243304Y-99987916D01*
X58269205Y-99981428D01*
X58295617Y-99977510D01*
X58322286Y-99976200D01*
X59279714Y-99976200D01*
X59306383Y-99977510D01*
X59306383Y-99977510D01*
G37*
D20*
X58801000Y-100602000D03*
D14*
G36*
X62100383Y-99968510D02*
G01*
X62126795Y-99972428D01*
X62152696Y-99978916D01*
X62177837Y-99987911D01*
X62201974Y-99999328D01*
X62224877Y-100013055D01*
X62246324Y-100028961D01*
X62266108Y-100046892D01*
X62284039Y-100066676D01*
X62299945Y-100088123D01*
X62313672Y-100111026D01*
X62325089Y-100135163D01*
X62334084Y-100160304D01*
X62340572Y-100186205D01*
X62344490Y-100212617D01*
X62345800Y-100239286D01*
X62345800Y-100946714D01*
X62344490Y-100973383D01*
X62340572Y-100999795D01*
X62334084Y-101025696D01*
X62325089Y-101050837D01*
X62313672Y-101074974D01*
X62299945Y-101097877D01*
X62284039Y-101119324D01*
X62266108Y-101139108D01*
X62246324Y-101157039D01*
X62224877Y-101172945D01*
X62201974Y-101186672D01*
X62177837Y-101198089D01*
X62152696Y-101207084D01*
X62126795Y-101213572D01*
X62100383Y-101217490D01*
X62073714Y-101218800D01*
X61116286Y-101218800D01*
X61089617Y-101217490D01*
X61063205Y-101213572D01*
X61037304Y-101207084D01*
X61012163Y-101198089D01*
X60988026Y-101186672D01*
X60965123Y-101172945D01*
X60943676Y-101157039D01*
X60923892Y-101139108D01*
X60905961Y-101119324D01*
X60890055Y-101097877D01*
X60876328Y-101074974D01*
X60864911Y-101050837D01*
X60855916Y-101025696D01*
X60849428Y-100999795D01*
X60845510Y-100973383D01*
X60844200Y-100946714D01*
X60844200Y-100239286D01*
X60845510Y-100212617D01*
X60849428Y-100186205D01*
X60855916Y-100160304D01*
X60864911Y-100135163D01*
X60876328Y-100111026D01*
X60890055Y-100088123D01*
X60905961Y-100066676D01*
X60923892Y-100046892D01*
X60943676Y-100028961D01*
X60965123Y-100013055D01*
X60988026Y-99999328D01*
X61012163Y-99987911D01*
X61037304Y-99978916D01*
X61063205Y-99972428D01*
X61089617Y-99968510D01*
X61116286Y-99967200D01*
X62073714Y-99967200D01*
X62100383Y-99968510D01*
X62100383Y-99968510D01*
G37*
D20*
X61595000Y-100593000D03*
D14*
G36*
X62100383Y-97918510D02*
G01*
X62126795Y-97922428D01*
X62152696Y-97928916D01*
X62177837Y-97937911D01*
X62201974Y-97949328D01*
X62224877Y-97963055D01*
X62246324Y-97978961D01*
X62266108Y-97996892D01*
X62284039Y-98016676D01*
X62299945Y-98038123D01*
X62313672Y-98061026D01*
X62325089Y-98085163D01*
X62334084Y-98110304D01*
X62340572Y-98136205D01*
X62344490Y-98162617D01*
X62345800Y-98189286D01*
X62345800Y-98896714D01*
X62344490Y-98923383D01*
X62340572Y-98949795D01*
X62334084Y-98975696D01*
X62325089Y-99000837D01*
X62313672Y-99024974D01*
X62299945Y-99047877D01*
X62284039Y-99069324D01*
X62266108Y-99089108D01*
X62246324Y-99107039D01*
X62224877Y-99122945D01*
X62201974Y-99136672D01*
X62177837Y-99148089D01*
X62152696Y-99157084D01*
X62126795Y-99163572D01*
X62100383Y-99167490D01*
X62073714Y-99168800D01*
X61116286Y-99168800D01*
X61089617Y-99167490D01*
X61063205Y-99163572D01*
X61037304Y-99157084D01*
X61012163Y-99148089D01*
X60988026Y-99136672D01*
X60965123Y-99122945D01*
X60943676Y-99107039D01*
X60923892Y-99089108D01*
X60905961Y-99069324D01*
X60890055Y-99047877D01*
X60876328Y-99024974D01*
X60864911Y-99000837D01*
X60855916Y-98975696D01*
X60849428Y-98949795D01*
X60845510Y-98923383D01*
X60844200Y-98896714D01*
X60844200Y-98189286D01*
X60845510Y-98162617D01*
X60849428Y-98136205D01*
X60855916Y-98110304D01*
X60864911Y-98085163D01*
X60876328Y-98061026D01*
X60890055Y-98038123D01*
X60905961Y-98016676D01*
X60923892Y-97996892D01*
X60943676Y-97978961D01*
X60965123Y-97963055D01*
X60988026Y-97949328D01*
X61012163Y-97937911D01*
X61037304Y-97928916D01*
X61063205Y-97922428D01*
X61089617Y-97918510D01*
X61116286Y-97917200D01*
X62073714Y-97917200D01*
X62100383Y-97918510D01*
X62100383Y-97918510D01*
G37*
D20*
X61595000Y-98543000D03*
D14*
G36*
X64894383Y-99959510D02*
G01*
X64920795Y-99963428D01*
X64946696Y-99969916D01*
X64971837Y-99978911D01*
X64995974Y-99990328D01*
X65018877Y-100004055D01*
X65040324Y-100019961D01*
X65060108Y-100037892D01*
X65078039Y-100057676D01*
X65093945Y-100079123D01*
X65107672Y-100102026D01*
X65119089Y-100126163D01*
X65128084Y-100151304D01*
X65134572Y-100177205D01*
X65138490Y-100203617D01*
X65139800Y-100230286D01*
X65139800Y-100937714D01*
X65138490Y-100964383D01*
X65134572Y-100990795D01*
X65128084Y-101016696D01*
X65119089Y-101041837D01*
X65107672Y-101065974D01*
X65093945Y-101088877D01*
X65078039Y-101110324D01*
X65060108Y-101130108D01*
X65040324Y-101148039D01*
X65018877Y-101163945D01*
X64995974Y-101177672D01*
X64971837Y-101189089D01*
X64946696Y-101198084D01*
X64920795Y-101204572D01*
X64894383Y-101208490D01*
X64867714Y-101209800D01*
X63910286Y-101209800D01*
X63883617Y-101208490D01*
X63857205Y-101204572D01*
X63831304Y-101198084D01*
X63806163Y-101189089D01*
X63782026Y-101177672D01*
X63759123Y-101163945D01*
X63737676Y-101148039D01*
X63717892Y-101130108D01*
X63699961Y-101110324D01*
X63684055Y-101088877D01*
X63670328Y-101065974D01*
X63658911Y-101041837D01*
X63649916Y-101016696D01*
X63643428Y-100990795D01*
X63639510Y-100964383D01*
X63638200Y-100937714D01*
X63638200Y-100230286D01*
X63639510Y-100203617D01*
X63643428Y-100177205D01*
X63649916Y-100151304D01*
X63658911Y-100126163D01*
X63670328Y-100102026D01*
X63684055Y-100079123D01*
X63699961Y-100057676D01*
X63717892Y-100037892D01*
X63737676Y-100019961D01*
X63759123Y-100004055D01*
X63782026Y-99990328D01*
X63806163Y-99978911D01*
X63831304Y-99969916D01*
X63857205Y-99963428D01*
X63883617Y-99959510D01*
X63910286Y-99958200D01*
X64867714Y-99958200D01*
X64894383Y-99959510D01*
X64894383Y-99959510D01*
G37*
D20*
X64389000Y-100584000D03*
D14*
G36*
X64894383Y-97909510D02*
G01*
X64920795Y-97913428D01*
X64946696Y-97919916D01*
X64971837Y-97928911D01*
X64995974Y-97940328D01*
X65018877Y-97954055D01*
X65040324Y-97969961D01*
X65060108Y-97987892D01*
X65078039Y-98007676D01*
X65093945Y-98029123D01*
X65107672Y-98052026D01*
X65119089Y-98076163D01*
X65128084Y-98101304D01*
X65134572Y-98127205D01*
X65138490Y-98153617D01*
X65139800Y-98180286D01*
X65139800Y-98887714D01*
X65138490Y-98914383D01*
X65134572Y-98940795D01*
X65128084Y-98966696D01*
X65119089Y-98991837D01*
X65107672Y-99015974D01*
X65093945Y-99038877D01*
X65078039Y-99060324D01*
X65060108Y-99080108D01*
X65040324Y-99098039D01*
X65018877Y-99113945D01*
X64995974Y-99127672D01*
X64971837Y-99139089D01*
X64946696Y-99148084D01*
X64920795Y-99154572D01*
X64894383Y-99158490D01*
X64867714Y-99159800D01*
X63910286Y-99159800D01*
X63883617Y-99158490D01*
X63857205Y-99154572D01*
X63831304Y-99148084D01*
X63806163Y-99139089D01*
X63782026Y-99127672D01*
X63759123Y-99113945D01*
X63737676Y-99098039D01*
X63717892Y-99080108D01*
X63699961Y-99060324D01*
X63684055Y-99038877D01*
X63670328Y-99015974D01*
X63658911Y-98991837D01*
X63649916Y-98966696D01*
X63643428Y-98940795D01*
X63639510Y-98914383D01*
X63638200Y-98887714D01*
X63638200Y-98180286D01*
X63639510Y-98153617D01*
X63643428Y-98127205D01*
X63649916Y-98101304D01*
X63658911Y-98076163D01*
X63670328Y-98052026D01*
X63684055Y-98029123D01*
X63699961Y-98007676D01*
X63717892Y-97987892D01*
X63737676Y-97969961D01*
X63759123Y-97954055D01*
X63782026Y-97940328D01*
X63806163Y-97928911D01*
X63831304Y-97919916D01*
X63857205Y-97913428D01*
X63883617Y-97909510D01*
X63910286Y-97908200D01*
X64867714Y-97908200D01*
X64894383Y-97909510D01*
X64894383Y-97909510D01*
G37*
D20*
X64389000Y-98534000D03*
D14*
G36*
X67688383Y-97918510D02*
G01*
X67714795Y-97922428D01*
X67740696Y-97928916D01*
X67765837Y-97937911D01*
X67789974Y-97949328D01*
X67812877Y-97963055D01*
X67834324Y-97978961D01*
X67854108Y-97996892D01*
X67872039Y-98016676D01*
X67887945Y-98038123D01*
X67901672Y-98061026D01*
X67913089Y-98085163D01*
X67922084Y-98110304D01*
X67928572Y-98136205D01*
X67932490Y-98162617D01*
X67933800Y-98189286D01*
X67933800Y-98896714D01*
X67932490Y-98923383D01*
X67928572Y-98949795D01*
X67922084Y-98975696D01*
X67913089Y-99000837D01*
X67901672Y-99024974D01*
X67887945Y-99047877D01*
X67872039Y-99069324D01*
X67854108Y-99089108D01*
X67834324Y-99107039D01*
X67812877Y-99122945D01*
X67789974Y-99136672D01*
X67765837Y-99148089D01*
X67740696Y-99157084D01*
X67714795Y-99163572D01*
X67688383Y-99167490D01*
X67661714Y-99168800D01*
X66704286Y-99168800D01*
X66677617Y-99167490D01*
X66651205Y-99163572D01*
X66625304Y-99157084D01*
X66600163Y-99148089D01*
X66576026Y-99136672D01*
X66553123Y-99122945D01*
X66531676Y-99107039D01*
X66511892Y-99089108D01*
X66493961Y-99069324D01*
X66478055Y-99047877D01*
X66464328Y-99024974D01*
X66452911Y-99000837D01*
X66443916Y-98975696D01*
X66437428Y-98949795D01*
X66433510Y-98923383D01*
X66432200Y-98896714D01*
X66432200Y-98189286D01*
X66433510Y-98162617D01*
X66437428Y-98136205D01*
X66443916Y-98110304D01*
X66452911Y-98085163D01*
X66464328Y-98061026D01*
X66478055Y-98038123D01*
X66493961Y-98016676D01*
X66511892Y-97996892D01*
X66531676Y-97978961D01*
X66553123Y-97963055D01*
X66576026Y-97949328D01*
X66600163Y-97937911D01*
X66625304Y-97928916D01*
X66651205Y-97922428D01*
X66677617Y-97918510D01*
X66704286Y-97917200D01*
X67661714Y-97917200D01*
X67688383Y-97918510D01*
X67688383Y-97918510D01*
G37*
D20*
X67183000Y-98543000D03*
D14*
G36*
X67688383Y-99968510D02*
G01*
X67714795Y-99972428D01*
X67740696Y-99978916D01*
X67765837Y-99987911D01*
X67789974Y-99999328D01*
X67812877Y-100013055D01*
X67834324Y-100028961D01*
X67854108Y-100046892D01*
X67872039Y-100066676D01*
X67887945Y-100088123D01*
X67901672Y-100111026D01*
X67913089Y-100135163D01*
X67922084Y-100160304D01*
X67928572Y-100186205D01*
X67932490Y-100212617D01*
X67933800Y-100239286D01*
X67933800Y-100946714D01*
X67932490Y-100973383D01*
X67928572Y-100999795D01*
X67922084Y-101025696D01*
X67913089Y-101050837D01*
X67901672Y-101074974D01*
X67887945Y-101097877D01*
X67872039Y-101119324D01*
X67854108Y-101139108D01*
X67834324Y-101157039D01*
X67812877Y-101172945D01*
X67789974Y-101186672D01*
X67765837Y-101198089D01*
X67740696Y-101207084D01*
X67714795Y-101213572D01*
X67688383Y-101217490D01*
X67661714Y-101218800D01*
X66704286Y-101218800D01*
X66677617Y-101217490D01*
X66651205Y-101213572D01*
X66625304Y-101207084D01*
X66600163Y-101198089D01*
X66576026Y-101186672D01*
X66553123Y-101172945D01*
X66531676Y-101157039D01*
X66511892Y-101139108D01*
X66493961Y-101119324D01*
X66478055Y-101097877D01*
X66464328Y-101074974D01*
X66452911Y-101050837D01*
X66443916Y-101025696D01*
X66437428Y-100999795D01*
X66433510Y-100973383D01*
X66432200Y-100946714D01*
X66432200Y-100239286D01*
X66433510Y-100212617D01*
X66437428Y-100186205D01*
X66443916Y-100160304D01*
X66452911Y-100135163D01*
X66464328Y-100111026D01*
X66478055Y-100088123D01*
X66493961Y-100066676D01*
X66511892Y-100046892D01*
X66531676Y-100028961D01*
X66553123Y-100013055D01*
X66576026Y-99999328D01*
X66600163Y-99987911D01*
X66625304Y-99978916D01*
X66651205Y-99972428D01*
X66677617Y-99968510D01*
X66704286Y-99967200D01*
X67661714Y-99967200D01*
X67688383Y-99968510D01*
X67688383Y-99968510D01*
G37*
D20*
X67183000Y-100593000D03*
D22*
X32004000Y-42164000D03*
D23*
X32004000Y-47244000D03*
D14*
G36*
X33906383Y-53105510D02*
G01*
X33932795Y-53109428D01*
X33958696Y-53115916D01*
X33983837Y-53124911D01*
X34007974Y-53136328D01*
X34030877Y-53150055D01*
X34052324Y-53165961D01*
X34072108Y-53183892D01*
X34090039Y-53203676D01*
X34105945Y-53225123D01*
X34119672Y-53248026D01*
X34131089Y-53272163D01*
X34140084Y-53297304D01*
X34146572Y-53323205D01*
X34150490Y-53349617D01*
X34151800Y-53376286D01*
X34151800Y-54083714D01*
X34150490Y-54110383D01*
X34146572Y-54136795D01*
X34140084Y-54162696D01*
X34131089Y-54187837D01*
X34119672Y-54211974D01*
X34105945Y-54234877D01*
X34090039Y-54256324D01*
X34072108Y-54276108D01*
X34052324Y-54294039D01*
X34030877Y-54309945D01*
X34007974Y-54323672D01*
X33983837Y-54335089D01*
X33958696Y-54344084D01*
X33932795Y-54350572D01*
X33906383Y-54354490D01*
X33879714Y-54355800D01*
X32922286Y-54355800D01*
X32895617Y-54354490D01*
X32869205Y-54350572D01*
X32843304Y-54344084D01*
X32818163Y-54335089D01*
X32794026Y-54323672D01*
X32771123Y-54309945D01*
X32749676Y-54294039D01*
X32729892Y-54276108D01*
X32711961Y-54256324D01*
X32696055Y-54234877D01*
X32682328Y-54211974D01*
X32670911Y-54187837D01*
X32661916Y-54162696D01*
X32655428Y-54136795D01*
X32651510Y-54110383D01*
X32650200Y-54083714D01*
X32650200Y-53376286D01*
X32651510Y-53349617D01*
X32655428Y-53323205D01*
X32661916Y-53297304D01*
X32670911Y-53272163D01*
X32682328Y-53248026D01*
X32696055Y-53225123D01*
X32711961Y-53203676D01*
X32729892Y-53183892D01*
X32749676Y-53165961D01*
X32771123Y-53150055D01*
X32794026Y-53136328D01*
X32818163Y-53124911D01*
X32843304Y-53115916D01*
X32869205Y-53109428D01*
X32895617Y-53105510D01*
X32922286Y-53104200D01*
X33879714Y-53104200D01*
X33906383Y-53105510D01*
X33906383Y-53105510D01*
G37*
D20*
X33401000Y-53730000D03*
D14*
G36*
X33906383Y-51055510D02*
G01*
X33932795Y-51059428D01*
X33958696Y-51065916D01*
X33983837Y-51074911D01*
X34007974Y-51086328D01*
X34030877Y-51100055D01*
X34052324Y-51115961D01*
X34072108Y-51133892D01*
X34090039Y-51153676D01*
X34105945Y-51175123D01*
X34119672Y-51198026D01*
X34131089Y-51222163D01*
X34140084Y-51247304D01*
X34146572Y-51273205D01*
X34150490Y-51299617D01*
X34151800Y-51326286D01*
X34151800Y-52033714D01*
X34150490Y-52060383D01*
X34146572Y-52086795D01*
X34140084Y-52112696D01*
X34131089Y-52137837D01*
X34119672Y-52161974D01*
X34105945Y-52184877D01*
X34090039Y-52206324D01*
X34072108Y-52226108D01*
X34052324Y-52244039D01*
X34030877Y-52259945D01*
X34007974Y-52273672D01*
X33983837Y-52285089D01*
X33958696Y-52294084D01*
X33932795Y-52300572D01*
X33906383Y-52304490D01*
X33879714Y-52305800D01*
X32922286Y-52305800D01*
X32895617Y-52304490D01*
X32869205Y-52300572D01*
X32843304Y-52294084D01*
X32818163Y-52285089D01*
X32794026Y-52273672D01*
X32771123Y-52259945D01*
X32749676Y-52244039D01*
X32729892Y-52226108D01*
X32711961Y-52206324D01*
X32696055Y-52184877D01*
X32682328Y-52161974D01*
X32670911Y-52137837D01*
X32661916Y-52112696D01*
X32655428Y-52086795D01*
X32651510Y-52060383D01*
X32650200Y-52033714D01*
X32650200Y-51326286D01*
X32651510Y-51299617D01*
X32655428Y-51273205D01*
X32661916Y-51247304D01*
X32670911Y-51222163D01*
X32682328Y-51198026D01*
X32696055Y-51175123D01*
X32711961Y-51153676D01*
X32729892Y-51133892D01*
X32749676Y-51115961D01*
X32771123Y-51100055D01*
X32794026Y-51086328D01*
X32818163Y-51074911D01*
X32843304Y-51065916D01*
X32869205Y-51059428D01*
X32895617Y-51055510D01*
X32922286Y-51054200D01*
X33879714Y-51054200D01*
X33906383Y-51055510D01*
X33906383Y-51055510D01*
G37*
D20*
X33401000Y-51680000D03*
D14*
G36*
X36065383Y-51046510D02*
G01*
X36091795Y-51050428D01*
X36117696Y-51056916D01*
X36142837Y-51065911D01*
X36166974Y-51077328D01*
X36189877Y-51091055D01*
X36211324Y-51106961D01*
X36231108Y-51124892D01*
X36249039Y-51144676D01*
X36264945Y-51166123D01*
X36278672Y-51189026D01*
X36290089Y-51213163D01*
X36299084Y-51238304D01*
X36305572Y-51264205D01*
X36309490Y-51290617D01*
X36310800Y-51317286D01*
X36310800Y-52024714D01*
X36309490Y-52051383D01*
X36305572Y-52077795D01*
X36299084Y-52103696D01*
X36290089Y-52128837D01*
X36278672Y-52152974D01*
X36264945Y-52175877D01*
X36249039Y-52197324D01*
X36231108Y-52217108D01*
X36211324Y-52235039D01*
X36189877Y-52250945D01*
X36166974Y-52264672D01*
X36142837Y-52276089D01*
X36117696Y-52285084D01*
X36091795Y-52291572D01*
X36065383Y-52295490D01*
X36038714Y-52296800D01*
X35081286Y-52296800D01*
X35054617Y-52295490D01*
X35028205Y-52291572D01*
X35002304Y-52285084D01*
X34977163Y-52276089D01*
X34953026Y-52264672D01*
X34930123Y-52250945D01*
X34908676Y-52235039D01*
X34888892Y-52217108D01*
X34870961Y-52197324D01*
X34855055Y-52175877D01*
X34841328Y-52152974D01*
X34829911Y-52128837D01*
X34820916Y-52103696D01*
X34814428Y-52077795D01*
X34810510Y-52051383D01*
X34809200Y-52024714D01*
X34809200Y-51317286D01*
X34810510Y-51290617D01*
X34814428Y-51264205D01*
X34820916Y-51238304D01*
X34829911Y-51213163D01*
X34841328Y-51189026D01*
X34855055Y-51166123D01*
X34870961Y-51144676D01*
X34888892Y-51124892D01*
X34908676Y-51106961D01*
X34930123Y-51091055D01*
X34953026Y-51077328D01*
X34977163Y-51065911D01*
X35002304Y-51056916D01*
X35028205Y-51050428D01*
X35054617Y-51046510D01*
X35081286Y-51045200D01*
X36038714Y-51045200D01*
X36065383Y-51046510D01*
X36065383Y-51046510D01*
G37*
D20*
X35560000Y-51671000D03*
D14*
G36*
X36065383Y-53096510D02*
G01*
X36091795Y-53100428D01*
X36117696Y-53106916D01*
X36142837Y-53115911D01*
X36166974Y-53127328D01*
X36189877Y-53141055D01*
X36211324Y-53156961D01*
X36231108Y-53174892D01*
X36249039Y-53194676D01*
X36264945Y-53216123D01*
X36278672Y-53239026D01*
X36290089Y-53263163D01*
X36299084Y-53288304D01*
X36305572Y-53314205D01*
X36309490Y-53340617D01*
X36310800Y-53367286D01*
X36310800Y-54074714D01*
X36309490Y-54101383D01*
X36305572Y-54127795D01*
X36299084Y-54153696D01*
X36290089Y-54178837D01*
X36278672Y-54202974D01*
X36264945Y-54225877D01*
X36249039Y-54247324D01*
X36231108Y-54267108D01*
X36211324Y-54285039D01*
X36189877Y-54300945D01*
X36166974Y-54314672D01*
X36142837Y-54326089D01*
X36117696Y-54335084D01*
X36091795Y-54341572D01*
X36065383Y-54345490D01*
X36038714Y-54346800D01*
X35081286Y-54346800D01*
X35054617Y-54345490D01*
X35028205Y-54341572D01*
X35002304Y-54335084D01*
X34977163Y-54326089D01*
X34953026Y-54314672D01*
X34930123Y-54300945D01*
X34908676Y-54285039D01*
X34888892Y-54267108D01*
X34870961Y-54247324D01*
X34855055Y-54225877D01*
X34841328Y-54202974D01*
X34829911Y-54178837D01*
X34820916Y-54153696D01*
X34814428Y-54127795D01*
X34810510Y-54101383D01*
X34809200Y-54074714D01*
X34809200Y-53367286D01*
X34810510Y-53340617D01*
X34814428Y-53314205D01*
X34820916Y-53288304D01*
X34829911Y-53263163D01*
X34841328Y-53239026D01*
X34855055Y-53216123D01*
X34870961Y-53194676D01*
X34888892Y-53174892D01*
X34908676Y-53156961D01*
X34930123Y-53141055D01*
X34953026Y-53127328D01*
X34977163Y-53115911D01*
X35002304Y-53106916D01*
X35028205Y-53100428D01*
X35054617Y-53096510D01*
X35081286Y-53095200D01*
X36038714Y-53095200D01*
X36065383Y-53096510D01*
X36065383Y-53096510D01*
G37*
D20*
X35560000Y-53721000D03*
D14*
G36*
X38224383Y-37112510D02*
G01*
X38250795Y-37116428D01*
X38276696Y-37122916D01*
X38301837Y-37131911D01*
X38325974Y-37143328D01*
X38348877Y-37157055D01*
X38370324Y-37172961D01*
X38390108Y-37190892D01*
X38408039Y-37210676D01*
X38423945Y-37232123D01*
X38437672Y-37255026D01*
X38449089Y-37279163D01*
X38458084Y-37304304D01*
X38464572Y-37330205D01*
X38468490Y-37356617D01*
X38469800Y-37383286D01*
X38469800Y-38090714D01*
X38468490Y-38117383D01*
X38464572Y-38143795D01*
X38458084Y-38169696D01*
X38449089Y-38194837D01*
X38437672Y-38218974D01*
X38423945Y-38241877D01*
X38408039Y-38263324D01*
X38390108Y-38283108D01*
X38370324Y-38301039D01*
X38348877Y-38316945D01*
X38325974Y-38330672D01*
X38301837Y-38342089D01*
X38276696Y-38351084D01*
X38250795Y-38357572D01*
X38224383Y-38361490D01*
X38197714Y-38362800D01*
X37240286Y-38362800D01*
X37213617Y-38361490D01*
X37187205Y-38357572D01*
X37161304Y-38351084D01*
X37136163Y-38342089D01*
X37112026Y-38330672D01*
X37089123Y-38316945D01*
X37067676Y-38301039D01*
X37047892Y-38283108D01*
X37029961Y-38263324D01*
X37014055Y-38241877D01*
X37000328Y-38218974D01*
X36988911Y-38194837D01*
X36979916Y-38169696D01*
X36973428Y-38143795D01*
X36969510Y-38117383D01*
X36968200Y-38090714D01*
X36968200Y-37383286D01*
X36969510Y-37356617D01*
X36973428Y-37330205D01*
X36979916Y-37304304D01*
X36988911Y-37279163D01*
X37000328Y-37255026D01*
X37014055Y-37232123D01*
X37029961Y-37210676D01*
X37047892Y-37190892D01*
X37067676Y-37172961D01*
X37089123Y-37157055D01*
X37112026Y-37143328D01*
X37136163Y-37131911D01*
X37161304Y-37122916D01*
X37187205Y-37116428D01*
X37213617Y-37112510D01*
X37240286Y-37111200D01*
X38197714Y-37111200D01*
X38224383Y-37112510D01*
X38224383Y-37112510D01*
G37*
D20*
X37719000Y-37737000D03*
D14*
G36*
X38224383Y-35062510D02*
G01*
X38250795Y-35066428D01*
X38276696Y-35072916D01*
X38301837Y-35081911D01*
X38325974Y-35093328D01*
X38348877Y-35107055D01*
X38370324Y-35122961D01*
X38390108Y-35140892D01*
X38408039Y-35160676D01*
X38423945Y-35182123D01*
X38437672Y-35205026D01*
X38449089Y-35229163D01*
X38458084Y-35254304D01*
X38464572Y-35280205D01*
X38468490Y-35306617D01*
X38469800Y-35333286D01*
X38469800Y-36040714D01*
X38468490Y-36067383D01*
X38464572Y-36093795D01*
X38458084Y-36119696D01*
X38449089Y-36144837D01*
X38437672Y-36168974D01*
X38423945Y-36191877D01*
X38408039Y-36213324D01*
X38390108Y-36233108D01*
X38370324Y-36251039D01*
X38348877Y-36266945D01*
X38325974Y-36280672D01*
X38301837Y-36292089D01*
X38276696Y-36301084D01*
X38250795Y-36307572D01*
X38224383Y-36311490D01*
X38197714Y-36312800D01*
X37240286Y-36312800D01*
X37213617Y-36311490D01*
X37187205Y-36307572D01*
X37161304Y-36301084D01*
X37136163Y-36292089D01*
X37112026Y-36280672D01*
X37089123Y-36266945D01*
X37067676Y-36251039D01*
X37047892Y-36233108D01*
X37029961Y-36213324D01*
X37014055Y-36191877D01*
X37000328Y-36168974D01*
X36988911Y-36144837D01*
X36979916Y-36119696D01*
X36973428Y-36093795D01*
X36969510Y-36067383D01*
X36968200Y-36040714D01*
X36968200Y-35333286D01*
X36969510Y-35306617D01*
X36973428Y-35280205D01*
X36979916Y-35254304D01*
X36988911Y-35229163D01*
X37000328Y-35205026D01*
X37014055Y-35182123D01*
X37029961Y-35160676D01*
X37047892Y-35140892D01*
X37067676Y-35122961D01*
X37089123Y-35107055D01*
X37112026Y-35093328D01*
X37136163Y-35081911D01*
X37161304Y-35072916D01*
X37187205Y-35066428D01*
X37213617Y-35062510D01*
X37240286Y-35061200D01*
X38197714Y-35061200D01*
X38224383Y-35062510D01*
X38224383Y-35062510D01*
G37*
D20*
X37719000Y-35687000D03*
D18*
X38862000Y-90424000D03*
D19*
X41402000Y-90424000D03*
X43942000Y-90424000D03*
X46482000Y-90424000D03*
X49022000Y-90424000D03*
X51562000Y-90424000D03*
X54102000Y-90424000D03*
X56642000Y-90424000D03*
X59182000Y-90424000D03*
X61722000Y-90424000D03*
X64262000Y-90424000D03*
D24*
X68961000Y-31369000D03*
D25*
X66461000Y-31369000D03*
X63961000Y-31369000D03*
X69135000Y-25146000D03*
X66635000Y-25146000D03*
D24*
X64135000Y-25146000D03*
D18*
X37719000Y-104013000D03*
D19*
X37719000Y-111633000D03*
D26*
X48514000Y-30353000D03*
D27*
X51054000Y-30353000D03*
X53594000Y-30353000D03*
D28*
X49530000Y-60445000D03*
X49530000Y-59795000D03*
X49530000Y-59145000D03*
X49530000Y-58495000D03*
X49530000Y-57845000D03*
X49530000Y-57195000D03*
X49530000Y-56545000D03*
X49530000Y-55895000D03*
X49530000Y-55245000D03*
X49530000Y-54595000D03*
X43630000Y-54595000D03*
X43630000Y-55245000D03*
X43630000Y-55895000D03*
X43630000Y-56545000D03*
X43630000Y-57195000D03*
X43630000Y-57845000D03*
X43630000Y-58495000D03*
X43630000Y-59145000D03*
X43630000Y-59795000D03*
X43630000Y-60445000D03*
D29*
X41566000Y-49022000D03*
X42216000Y-49022000D03*
X42866000Y-49022000D03*
X43516000Y-49022000D03*
X44166000Y-49022000D03*
X44816000Y-49022000D03*
X45466000Y-49022000D03*
X46116000Y-49022000D03*
X46766000Y-49022000D03*
X47416000Y-49022000D03*
X47416000Y-41822000D03*
X46766000Y-41822000D03*
X46116000Y-41822000D03*
X45466000Y-41822000D03*
X44816000Y-41822000D03*
X44166000Y-41822000D03*
X43516000Y-41822000D03*
X42866000Y-41822000D03*
X42216000Y-41822000D03*
X41566000Y-41822000D03*
M02*
