G04 #@! TF.GenerationSoftware,KiCad,Pcbnew,(5.1.2)-2*
G04 #@! TF.CreationDate,2019-09-11T05:33:40-05:00*
G04 #@! TF.ProjectId,eeprom_manual,65657072-6f6d-45f6-9d61-6e75616c2e6b,rev?*
G04 #@! TF.SameCoordinates,Original*
G04 #@! TF.FileFunction,Legend,Bot*
G04 #@! TF.FilePolarity,Positive*
%FSLAX46Y46*%
G04 Gerber Fmt 4.6, Leading zero omitted, Abs format (unit mm)*
G04 Created by KiCad (PCBNEW (5.1.2)-2) date 2019-09-11 05:33:40*
%MOMM*%
%LPD*%
G04 APERTURE LIST*
%ADD10C,0.010000*%
%ADD11R,1.541600X2.101600*%
%ADD12O,1.541600X2.101600*%
%ADD13C,2.101600*%
%ADD14R,1.701600X1.701600*%
%ADD15O,1.701600X1.701600*%
%ADD16C,2.801600*%
%ADD17R,3.101600X3.101600*%
%ADD18C,3.101600*%
%ADD19R,2.001600X2.001600*%
%ADD20C,2.001600*%
%ADD21R,2.006600X2.101600*%
%ADD22O,2.006600X2.101600*%
G04 APERTURE END LIST*
D10*
G36*
X43180458Y-107720983D02*
G01*
X42876790Y-107803907D01*
X43069897Y-107855114D01*
X43445662Y-107876827D01*
X44145171Y-108013882D01*
X44464061Y-108395061D01*
X44479478Y-108447974D01*
X44716112Y-108907023D01*
X44969483Y-108914867D01*
X45091593Y-108470276D01*
X45091684Y-108453068D01*
X44856807Y-107984130D01*
X44241545Y-107712478D01*
X43379947Y-107689459D01*
X43180458Y-107720983D01*
X43180458Y-107720983D01*
G37*
X43180458Y-107720983D02*
X42876790Y-107803907D01*
X43069897Y-107855114D01*
X43445662Y-107876827D01*
X44145171Y-108013882D01*
X44464061Y-108395061D01*
X44479478Y-108447974D01*
X44716112Y-108907023D01*
X44969483Y-108914867D01*
X45091593Y-108470276D01*
X45091684Y-108453068D01*
X44856807Y-107984130D01*
X44241545Y-107712478D01*
X43379947Y-107689459D01*
X43180458Y-107720983D01*
G36*
X47541041Y-106175343D02*
G01*
X47589512Y-106983525D01*
X47724379Y-107917075D01*
X47750030Y-108046922D01*
X47888645Y-108663994D01*
X47961503Y-108786756D01*
X47997032Y-108447272D01*
X48001990Y-108331110D01*
X48032737Y-107545824D01*
X48825175Y-108305028D01*
X49381253Y-108772904D01*
X49753201Y-108875959D01*
X50011242Y-108737550D01*
X50511055Y-108550446D01*
X50939121Y-108696789D01*
X51440637Y-108938744D01*
X51702944Y-108937539D01*
X51865017Y-108804465D01*
X52008015Y-108417211D01*
X52035133Y-108069202D01*
X52003402Y-107683912D01*
X51860738Y-107803845D01*
X51743551Y-107999606D01*
X51507280Y-108326259D01*
X51254291Y-108281349D01*
X50925428Y-108003155D01*
X50516057Y-107679531D01*
X50259537Y-107730170D01*
X50027863Y-108015569D01*
X49762592Y-108316110D01*
X49492174Y-108321168D01*
X49036924Y-108009414D01*
X48871747Y-107878335D01*
X48254111Y-107185079D01*
X47831830Y-106362385D01*
X47815895Y-106309027D01*
X47553266Y-105373238D01*
X47541041Y-106175343D01*
X47541041Y-106175343D01*
G37*
X47541041Y-106175343D02*
X47589512Y-106983525D01*
X47724379Y-107917075D01*
X47750030Y-108046922D01*
X47888645Y-108663994D01*
X47961503Y-108786756D01*
X47997032Y-108447272D01*
X48001990Y-108331110D01*
X48032737Y-107545824D01*
X48825175Y-108305028D01*
X49381253Y-108772904D01*
X49753201Y-108875959D01*
X50011242Y-108737550D01*
X50511055Y-108550446D01*
X50939121Y-108696789D01*
X51440637Y-108938744D01*
X51702944Y-108937539D01*
X51865017Y-108804465D01*
X52008015Y-108417211D01*
X52035133Y-108069202D01*
X52003402Y-107683912D01*
X51860738Y-107803845D01*
X51743551Y-107999606D01*
X51507280Y-108326259D01*
X51254291Y-108281349D01*
X50925428Y-108003155D01*
X50516057Y-107679531D01*
X50259537Y-107730170D01*
X50027863Y-108015569D01*
X49762592Y-108316110D01*
X49492174Y-108321168D01*
X49036924Y-108009414D01*
X48871747Y-107878335D01*
X48254111Y-107185079D01*
X47831830Y-106362385D01*
X47815895Y-106309027D01*
X47553266Y-105373238D01*
X47541041Y-106175343D01*
G36*
X59618702Y-108804465D02*
G01*
X59655403Y-108963416D01*
X59796947Y-108982711D01*
X60017022Y-108884885D01*
X59975193Y-108804465D01*
X59657889Y-108772467D01*
X59618702Y-108804465D01*
X59618702Y-108804465D01*
G37*
X59618702Y-108804465D02*
X59655403Y-108963416D01*
X59796947Y-108982711D01*
X60017022Y-108884885D01*
X59975193Y-108804465D01*
X59657889Y-108772467D01*
X59618702Y-108804465D01*
G36*
X60657364Y-106121093D02*
G01*
X60727744Y-106553661D01*
X60780011Y-107144298D01*
X60545407Y-107417459D01*
X60414777Y-107461110D01*
X60119688Y-107576789D01*
X60299347Y-107703236D01*
X60532210Y-107782396D01*
X60999605Y-108064312D01*
X61133789Y-108329694D01*
X61310233Y-108771625D01*
X61401158Y-108849027D01*
X61624503Y-108781777D01*
X61668526Y-108560071D01*
X61866307Y-108039628D01*
X62136421Y-107750690D01*
X62442127Y-107479410D01*
X62273054Y-107395060D01*
X62028892Y-107387004D01*
X61492577Y-107153448D01*
X61173853Y-106576395D01*
X60897827Y-105956931D01*
X60704968Y-105804109D01*
X60657364Y-106121093D01*
X60657364Y-106121093D01*
G37*
X60657364Y-106121093D02*
X60727744Y-106553661D01*
X60780011Y-107144298D01*
X60545407Y-107417459D01*
X60414777Y-107461110D01*
X60119688Y-107576789D01*
X60299347Y-107703236D01*
X60532210Y-107782396D01*
X60999605Y-108064312D01*
X61133789Y-108329694D01*
X61310233Y-108771625D01*
X61401158Y-108849027D01*
X61624503Y-108781777D01*
X61668526Y-108560071D01*
X61866307Y-108039628D01*
X62136421Y-107750690D01*
X62442127Y-107479410D01*
X62273054Y-107395060D01*
X62028892Y-107387004D01*
X61492577Y-107153448D01*
X61173853Y-106576395D01*
X60897827Y-105956931D01*
X60704968Y-105804109D01*
X60657364Y-106121093D01*
G36*
X45641617Y-107770161D02*
G01*
X45364823Y-108111366D01*
X45556007Y-108380648D01*
X45926527Y-108447974D01*
X46312772Y-108506512D01*
X46235199Y-108756063D01*
X46161158Y-108849027D01*
X45995458Y-109172878D01*
X46224514Y-109210071D01*
X46762737Y-108961295D01*
X47151178Y-108565054D01*
X47230631Y-108306098D01*
X47023093Y-108002360D01*
X46339403Y-108002360D01*
X46302702Y-108161310D01*
X46161158Y-108180606D01*
X45941083Y-108082780D01*
X45982912Y-108002360D01*
X46300216Y-107970361D01*
X46339403Y-108002360D01*
X47023093Y-108002360D01*
X47003465Y-107973635D01*
X46482188Y-107739882D01*
X45907136Y-107685898D01*
X45641617Y-107770161D01*
X45641617Y-107770161D01*
G37*
X45641617Y-107770161D02*
X45364823Y-108111366D01*
X45556007Y-108380648D01*
X45926527Y-108447974D01*
X46312772Y-108506512D01*
X46235199Y-108756063D01*
X46161158Y-108849027D01*
X45995458Y-109172878D01*
X46224514Y-109210071D01*
X46762737Y-108961295D01*
X47151178Y-108565054D01*
X47230631Y-108306098D01*
X47023093Y-108002360D01*
X46339403Y-108002360D01*
X46302702Y-108161310D01*
X46161158Y-108180606D01*
X45941083Y-108082780D01*
X45982912Y-108002360D01*
X46300216Y-107970361D01*
X46339403Y-108002360D01*
X47023093Y-108002360D01*
X47003465Y-107973635D01*
X46482188Y-107739882D01*
X45907136Y-107685898D01*
X45641617Y-107770161D01*
G36*
X52508047Y-107633050D02*
G01*
X52310631Y-108162807D01*
X52538892Y-108756096D01*
X53108172Y-109115482D01*
X53845226Y-109153589D01*
X54115368Y-109073006D01*
X54425488Y-108724458D01*
X54395606Y-108381132D01*
X54117030Y-108381132D01*
X54016886Y-108653556D01*
X53555798Y-108699225D01*
X53000920Y-108553053D01*
X52633513Y-108282200D01*
X52578000Y-108134241D01*
X52786263Y-107962329D01*
X53260095Y-107963556D01*
X53773059Y-108101596D01*
X54098720Y-108340125D01*
X54117030Y-108381132D01*
X54395606Y-108381132D01*
X54381162Y-108215182D01*
X54025039Y-107742586D01*
X53798208Y-107604989D01*
X53040950Y-107429327D01*
X52508047Y-107633050D01*
X52508047Y-107633050D01*
G37*
X52508047Y-107633050D02*
X52310631Y-108162807D01*
X52538892Y-108756096D01*
X53108172Y-109115482D01*
X53845226Y-109153589D01*
X54115368Y-109073006D01*
X54425488Y-108724458D01*
X54395606Y-108381132D01*
X54117030Y-108381132D01*
X54016886Y-108653556D01*
X53555798Y-108699225D01*
X53000920Y-108553053D01*
X52633513Y-108282200D01*
X52578000Y-108134241D01*
X52786263Y-107962329D01*
X53260095Y-107963556D01*
X53773059Y-108101596D01*
X54098720Y-108340125D01*
X54117030Y-108381132D01*
X54395606Y-108381132D01*
X54381162Y-108215182D01*
X54025039Y-107742586D01*
X53798208Y-107604989D01*
X53040950Y-107429327D01*
X52508047Y-107633050D01*
G36*
X54912380Y-106093476D02*
G01*
X54297044Y-106268502D01*
X53969317Y-106574878D01*
X53968854Y-106576395D01*
X53939722Y-106831639D01*
X54185245Y-106659223D01*
X54202263Y-106643237D01*
X54854246Y-106328098D01*
X55516849Y-106510659D01*
X55904944Y-106903255D01*
X56258514Y-107505510D01*
X56210131Y-107816213D01*
X55731620Y-107926219D01*
X55585895Y-107932029D01*
X55122847Y-107966754D01*
X55153639Y-108060988D01*
X55365420Y-108152504D01*
X55865775Y-108515463D01*
X56033841Y-108782247D01*
X56196513Y-109061961D01*
X56476496Y-108978061D01*
X56722210Y-108798459D01*
X57051177Y-108445160D01*
X56922737Y-108261328D01*
X56631546Y-107920830D01*
X56588526Y-107683079D01*
X56361172Y-106866411D01*
X55778300Y-106287689D01*
X54988692Y-106088014D01*
X54912380Y-106093476D01*
X54912380Y-106093476D01*
G37*
X54912380Y-106093476D02*
X54297044Y-106268502D01*
X53969317Y-106574878D01*
X53968854Y-106576395D01*
X53939722Y-106831639D01*
X54185245Y-106659223D01*
X54202263Y-106643237D01*
X54854246Y-106328098D01*
X55516849Y-106510659D01*
X55904944Y-106903255D01*
X56258514Y-107505510D01*
X56210131Y-107816213D01*
X55731620Y-107926219D01*
X55585895Y-107932029D01*
X55122847Y-107966754D01*
X55153639Y-108060988D01*
X55365420Y-108152504D01*
X55865775Y-108515463D01*
X56033841Y-108782247D01*
X56196513Y-109061961D01*
X56476496Y-108978061D01*
X56722210Y-108798459D01*
X57051177Y-108445160D01*
X56922737Y-108261328D01*
X56631546Y-107920830D01*
X56588526Y-107683079D01*
X56361172Y-106866411D01*
X55778300Y-106287689D01*
X54988692Y-106088014D01*
X54912380Y-106093476D01*
%LPC*%
D11*
X38354000Y-83566000D03*
D12*
X38354000Y-68326000D03*
X40894000Y-83566000D03*
X40894000Y-68326000D03*
X43434000Y-83566000D03*
X43434000Y-68326000D03*
X45974000Y-83566000D03*
X45974000Y-68326000D03*
X48514000Y-83566000D03*
X48514000Y-68326000D03*
X51054000Y-83566000D03*
X51054000Y-68326000D03*
X53594000Y-83566000D03*
X53594000Y-68326000D03*
X56134000Y-83566000D03*
X56134000Y-68326000D03*
X58674000Y-83566000D03*
X58674000Y-68326000D03*
X61214000Y-83566000D03*
X61214000Y-68326000D03*
X63754000Y-83566000D03*
X63754000Y-68326000D03*
X66294000Y-83566000D03*
X66294000Y-68326000D03*
D13*
X31369000Y-61523000D03*
X31369000Y-57023000D03*
X37869000Y-61523000D03*
X37869000Y-57023000D03*
D14*
X38862000Y-94234000D03*
D15*
X41402000Y-94234000D03*
X43942000Y-94234000D03*
X46482000Y-94234000D03*
X49022000Y-94234000D03*
X51562000Y-94234000D03*
X54102000Y-94234000D03*
X56642000Y-94234000D03*
X59182000Y-94234000D03*
X61722000Y-94234000D03*
X64262000Y-94234000D03*
X72517000Y-55118000D03*
X54737000Y-47498000D03*
X69977000Y-55118000D03*
X57277000Y-47498000D03*
X67437000Y-55118000D03*
X59817000Y-47498000D03*
X64897000Y-55118000D03*
X62357000Y-47498000D03*
X62357000Y-55118000D03*
X64897000Y-47498000D03*
X59817000Y-55118000D03*
X67437000Y-47498000D03*
X57277000Y-55118000D03*
X69977000Y-47498000D03*
X54737000Y-55118000D03*
D14*
X72517000Y-47498000D03*
X66167000Y-104013000D03*
D15*
X43307000Y-111633000D03*
X63627000Y-104013000D03*
X45847000Y-111633000D03*
X61087000Y-104013000D03*
X48387000Y-111633000D03*
X58547000Y-104013000D03*
X50927000Y-111633000D03*
X56007000Y-104013000D03*
X53467000Y-111633000D03*
X53467000Y-104013000D03*
X56007000Y-111633000D03*
X50927000Y-104013000D03*
X58547000Y-111633000D03*
X48387000Y-104013000D03*
X61087000Y-111633000D03*
X45847000Y-104013000D03*
X63627000Y-111633000D03*
X43307000Y-104013000D03*
X66167000Y-111633000D03*
D14*
X73914000Y-44069000D03*
D15*
X71374000Y-44069000D03*
X68834000Y-44069000D03*
X66294000Y-44069000D03*
X63754000Y-44069000D03*
X61214000Y-44069000D03*
X58674000Y-44069000D03*
X56134000Y-44069000D03*
X53594000Y-44069000D03*
X73660000Y-60198000D03*
X71120000Y-60198000D03*
X68580000Y-60198000D03*
X66040000Y-60198000D03*
X63500000Y-60198000D03*
X60960000Y-60198000D03*
X58420000Y-60198000D03*
X55880000Y-60198000D03*
D14*
X53340000Y-60198000D03*
D16*
X31750000Y-105664000D03*
X72136000Y-105664000D03*
X51054000Y-23495000D03*
D17*
X32004000Y-42164000D03*
D18*
X32004000Y-47244000D03*
D14*
X38862000Y-90424000D03*
D15*
X41402000Y-90424000D03*
X43942000Y-90424000D03*
X46482000Y-90424000D03*
X49022000Y-90424000D03*
X51562000Y-90424000D03*
X54102000Y-90424000D03*
X56642000Y-90424000D03*
X59182000Y-90424000D03*
X61722000Y-90424000D03*
X64262000Y-90424000D03*
D19*
X68961000Y-31369000D03*
D20*
X66461000Y-31369000D03*
X63961000Y-31369000D03*
X69135000Y-25146000D03*
X66635000Y-25146000D03*
D19*
X64135000Y-25146000D03*
D14*
X37719000Y-104013000D03*
D15*
X37719000Y-111633000D03*
D21*
X48514000Y-30353000D03*
D22*
X51054000Y-30353000D03*
X53594000Y-30353000D03*
M02*
