M48
; DRILL file {KiCad (5.1.2)-2} date 9/11/2019 5:33:45 AM
; FORMAT={2:4/ absolute / inch / suppress trailing zeros}
; #@! TF.CreationDate,2019-09-11T05:33:45-05:00
; #@! TF.GenerationSoftware,Kicad,Pcbnew,(5.1.2)-2
FMAT,2
INCH,LZ
T1C0.0130
T2C0.0315
T3C0.0354
T4C0.0394
T5C0.0433
T6C0.0598
T7C0.1063
%
G90
G05
T1
X0121Y-0125
X013025Y-038275
X01355Y-0141
X01435Y-038
X0161Y-0233
X0173Y-01385
X0184Y-018225
X0195Y-02075
X0202Y-02115
T2
X0153Y-0356
X0163Y-0356
X0173Y-0356
X0183Y-0356
X0193Y-0356
X0203Y-0356
X0213Y-0356
X0223Y-0356
X0233Y-0356
X0243Y-0356
X0253Y-0356
X0211Y-01735
X0221Y-01735
X0231Y-01735
X0241Y-01735
X0251Y-01735
X0261Y-01735
X0271Y-01735
X0281Y-01735
X0291Y-01735
X02155Y-0187
X02155Y-0217
X02255Y-0187
X02255Y-0217
X02355Y-0187
X02355Y-0217
X02455Y-0187
X02455Y-0217
X02555Y-0187
X02555Y-0217
X02655Y-0187
X02655Y-0217
X02755Y-0187
X02755Y-0217
X02855Y-0187
X02855Y-0217
X01485Y-04095
X01485Y-04395
X01705Y-04095
X01705Y-04395
X01805Y-04095
X01805Y-04395
X01905Y-04095
X01905Y-04395
X02005Y-04095
X02005Y-04395
X02105Y-04095
X02105Y-04395
X02205Y-04095
X02205Y-04395
X02305Y-04095
X02305Y-04395
X02405Y-04095
X02405Y-04395
X02505Y-04095
X02505Y-04395
X02605Y-04095
X02605Y-04395
X0153Y-0371
X0163Y-0371
X0173Y-0371
X0183Y-0371
X0193Y-0371
X0203Y-0371
X0213Y-0371
X0223Y-0371
X0233Y-0371
X0243Y-0371
X0253Y-0371
X021Y-0237
X022Y-0237
X023Y-0237
X024Y-0237
X025Y-0237
X026Y-0237
X027Y-0237
X028Y-0237
X029Y-0237
T3
X02525Y-0099
X026234Y-0099
X027219Y-0099
X025181Y-01235
X026166Y-01235
X02715Y-01235
T4
X0151Y-0269
X0151Y-0329
X0161Y-0269
X0161Y-0329
X0171Y-0269
X0171Y-0329
X0181Y-0269
X0181Y-0329
X0191Y-0269
X0191Y-0329
X0201Y-0269
X0201Y-0329
X0211Y-0269
X0211Y-0329
X0221Y-0269
X0221Y-0329
X0231Y-0269
X0231Y-0329
X0241Y-0269
X0241Y-0329
X0251Y-0269
X0251Y-0329
X0261Y-0269
X0261Y-0329
T5
X0191Y-01195
X0201Y-01195
X0211Y-01195
X01235Y-02245
X01235Y-024222
X014909Y-02245
X014909Y-024222
T6
X0126Y-0166
X0126Y-0186
T7
X0284Y-0416
X0125Y-0416
X0201Y-00925
T0
M30
